  0
SECTION
  2
HEADER
  9
$ACADVER
  1
AC1032
  9
$ACADMAINTVER
 90
        4
  9
$DWGCODEPAGE
  3
ANSI_1252
  9
$LASTSAVEDBY
  1
grey
  9
$REQUIREDVERSIONS
160
                 0
  9
$INSBASE
 10
0.0
 20
0.0
 30
0.0
  9
$EXTMIN
 10
0.0
 20
0.0
 30
0.0
  9
$EXTMAX
 10
52.58708537147536
 20
33.99999999999909
 30
0.0
  9
$LIMMIN
 10
0.0
 20
0.0
  9
$LIMMAX
 10
420.0
 20
297.0
  9
$ORTHOMODE
 70
     0
  9
$REGENMODE
 70
     1
  9
$FILLMODE
 70
     1
  9
$QTEXTMODE
 70
     0
  9
$MIRRTEXT
 70
     0
  9
$LTSCALE
 40
1.0
  9
$ATTMODE
 70
     1
  9
$TEXTSIZE
 40
2.5
  9
$TRACEWID
 40
1.0
  9
$TEXTSTYLE
  7
Standard
  9
$CLAYER
  8
0
  9
$CELTYPE
  6
ByLayer
  9
$CECOLOR
 62
   256
  9
$CELTSCALE
 40
1.0
  9
$DISPSILH
 70
     0
  9
$DIMSCALE
 40
1.0
  9
$DIMASZ
 40
2.5
  9
$DIMEXO
 40
0.625
  9
$DIMDLI
 40
3.75
  9
$DIMRND
 40
0.0
  9
$DIMDLE
 40
0.0
  9
$DIMEXE
 40
1.25
  9
$DIMTP
 40
0.0
  9
$DIMTM
 40
0.0
  9
$DIMTXT
 40
2.5
  9
$DIMCEN
 40
-2.5
  9
$DIMTSZ
 40
0.0
  9
$DIMTOL
 70
     0
  9
$DIMLIM
 70
     0
  9
$DIMTIH
 70
     0
  9
$DIMTOH
 70
     0
  9
$DIMSE1
 70
     0
  9
$DIMSE2
 70
     0
  9
$DIMTAD
 70
     1
  9
$DIMZIN
 70
     8
  9
$DIMBLK
  1

  9
$DIMASO
 70
     1
  9
$DIMSHO
 70
     1
  9
$DIMPOST
  1

  9
$DIMAPOST
  1

  9
$DIMALT
 70
     0
  9
$DIMALTD
 70
     3
  9
$DIMALTF
 40
0.03937007874016
  9
$DIMLFAC
 40
1.0
  9
$DIMTOFL
 70
     1
  9
$DIMTVP
 40
0.0
  9
$DIMTIX
 70
     0
  9
$DIMSOXD
 70
     0
  9
$DIMSAH
 70
     0
  9
$DIMBLK1
  1

  9
$DIMBLK2
  1

  9
$DIMSTYLE
  2
ISO-25
  9
$DIMCLRD
 70
     0
  9
$DIMCLRE
 70
     0
  9
$DIMCLRT
 70
     0
  9
$DIMTFAC
 40
1.0
  9
$DIMGAP
 40
0.625
  9
$DIMJUST
 70
     0
  9
$DIMSD1
 70
     0
  9
$DIMSD2
 70
     0
  9
$DIMTOLJ
 70
     0
  9
$DIMTZIN
 70
     8
  9
$DIMALTZ
 70
     0
  9
$DIMALTTZ
 70
     0
  9
$DIMUPT
 70
     0
  9
$DIMDEC
 70
     2
  9
$DIMTDEC
 70
     2
  9
$DIMALTU
 70
     2
  9
$DIMALTTD
 70
     3
  9
$DIMTXSTY
  7
Standard
  9
$DIMAUNIT
 70
     0
  9
$DIMADEC
 70
     0
  9
$DIMALTRND
 40
0.0
  9
$DIMAZIN
 70
     0
  9
$DIMDSEP
 70
    44
  9
$DIMATFIT
 70
     3
  9
$DIMFRAC
 70
     0
  9
$DIMLDRBLK
  1

  9
$DIMLUNIT
 70
     2
  9
$DIMLWD
 70
    -2
  9
$DIMLWE
 70
    -2
  9
$DIMTMOVE
 70
     0
  9
$DIMFXL
 40
1.0
  9
$DIMFXLON
 70
     0
  9
$DIMJOGANG
 40
0.7853981633974483
  9
$DIMTFILL
 70
     0
  9
$DIMTFILLCLR
 70
     0
  9
$DIMARCSYM
 70
     0
  9
$DIMLTYPE
  6

  9
$DIMLTEX1
  6

  9
$DIMLTEX2
  6

  9
$DIMTXTDIRECTION
 70
     0
  9
$LUNITS
 70
     2
  9
$LUPREC
 70
     3
  9
$SKETCHINC
 40
1.0
  9
$FILLETRAD
 40
10.0
  9
$AUNITS
 70
     0
  9
$AUPREC
 70
     0
  9
$MENU
  1
.
  9
$ELEVATION
 40
0.0
  9
$PELEVATION
 40
0.0
  9
$THICKNESS
 40
0.0
  9
$LIMCHECK
 70
     0
  9
$CHAMFERA
 40
10.0
  9
$CHAMFERB
 40
10.0
  9
$CHAMFERC
 40
20.0
  9
$CHAMFERD
 40
0.0
  9
$SKPOLY
 70
     0
  9
$TDCREATE
 40
2455022.637359514
  9
$TDUCREATE
 40
2455022.637359514
  9
$TDUPDATE
 40
2458909.348578287
  9
$TDUUPDATE
 40
2458909.348578287
  9
$TDINDWG
 40
0.0000000347
  9
$TDUSRTIMER
 40
0.0007096875
  9
$USRTIMER
 70
     1
  9
$ANGBASE
 50
0.0
  9
$ANGDIR
 70
     0
  9
$PDMODE
 70
     0
  9
$PDSIZE
 40
0.0
  9
$PLINEWID
 40
0.0
  9
$SPLFRAME
 70
     0
  9
$SPLINETYPE
 70
     6
  9
$SPLINESEGS
 70
     8
  9
$HANDSEED
  5
3FE
  9
$SURFTAB1
 70
     6
  9
$SURFTAB2
 70
     6
  9
$SURFTYPE
 70
     6
  9
$SURFU
 70
     6
  9
$SURFV
 70
     6
  9
$UCSBASE
  2

  9
$UCSNAME
  2

  9
$UCSORG
 10
0.0
 20
0.0
 30
0.0
  9
$UCSXDIR
 10
1.0
 20
0.0
 30
0.0
  9
$UCSYDIR
 10
0.0
 20
1.0
 30
0.0
  9
$UCSORTHOREF
  2

  9
$UCSORTHOVIEW
 70
     0
  9
$UCSORGTOP
 10
0.0
 20
0.0
 30
0.0
  9
$UCSORGBOTTOM
 10
0.0
 20
0.0
 30
0.0
  9
$UCSORGLEFT
 10
0.0
 20
0.0
 30
0.0
  9
$UCSORGRIGHT
 10
0.0
 20
0.0
 30
0.0
  9
$UCSORGFRONT
 10
0.0
 20
0.0
 30
0.0
  9
$UCSORGBACK
 10
0.0
 20
0.0
 30
0.0
  9
$PUCSBASE
  2

  9
$PUCSNAME
  2

  9
$PUCSORG
 10
0.0
 20
0.0
 30
0.0
  9
$PUCSXDIR
 10
1.0
 20
0.0
 30
0.0
  9
$PUCSYDIR
 10
0.0
 20
1.0
 30
0.0
  9
$PUCSORTHOREF
  2

  9
$PUCSORTHOVIEW
 70
     0
  9
$PUCSORGTOP
 10
0.0
 20
0.0
 30
0.0
  9
$PUCSORGBOTTOM
 10
0.0
 20
0.0
 30
0.0
  9
$PUCSORGLEFT
 10
0.0
 20
0.0
 30
0.0
  9
$PUCSORGRIGHT
 10
0.0
 20
0.0
 30
0.0
  9
$PUCSORGFRONT
 10
0.0
 20
0.0
 30
0.0
  9
$PUCSORGBACK
 10
0.0
 20
0.0
 30
0.0
  9
$USERI1
 70
     0
  9
$USERI2
 70
     0
  9
$USERI3
 70
     0
  9
$USERI4
 70
     0
  9
$USERI5
 70
     0
  9
$USERR1
 40
0.0
  9
$USERR2
 40
0.0
  9
$USERR3
 40
0.0
  9
$USERR4
 40
0.0
  9
$USERR5
 40
0.0
  9
$WORLDVIEW
 70
     1
  9
$SHADEDGE
 70
     3
  9
$SHADEDIF
 70
    70
  9
$TILEMODE
 70
     1
  9
$MAXACTVP
 70
    64
  9
$PINSBASE
 10
0.0
 20
0.0
 30
0.0
  9
$PLIMCHECK
 70
     0
  9
$PEXTMIN
 10
1.000000000000000E+20
 20
1.000000000000000E+20
 30
1.000000000000000E+20
  9
$PEXTMAX
 10
-1.000000000000000E+20
 20
-1.000000000000000E+20
 30
-1.000000000000000E+20
  9
$PLIMMIN
 10
0.0
 20
0.0
  9
$PLIMMAX
 10
0.0
 20
0.0
  9
$UNITMODE
 70
     0
  9
$VISRETAIN
 70
     1
  9
$PLINEGEN
 70
     0
  9
$PSLTSCALE
 70
     1
  9
$TREEDEPTH
 70
  3020
  9
$CMLSTYLE
  2
Standard
  9
$CMLJUST
 70
     0
  9
$CMLSCALE
 40
20.0
  9
$PROXYGRAPHICS
 70
     1
  9
$MEASUREMENT
 70
     1
  9
$CELWEIGHT
370
    -1
  9
$ENDCAPS
280
     0
  9
$JOINSTYLE
280
     0
  9
$LWDISPLAY
290
     0
  9
$INSUNITS
 70
     4
  9
$HYPERLINKBASE
  1

  9
$STYLESHEET
  1

  9
$XEDIT
290
     1
  9
$CEPSNTYPE
380
     0
  9
$PSTYLEMODE
290
     1
  9
$FINGERPRINTGUID
  2
{EC6BB858-51AA-46EC-B484-6C9CC7AB3E2E}
  9
$VERSIONGUID
  2
{FAEB1C32-E019-11D5-929B-00C0DF256EC4}
  9
$EXTNAMES
290
     1
  9
$PSVPSCALE
 40
0.0
  9
$OLESTARTUP
290
     0
  9
$SORTENTS
280
   127
  9
$INDEXCTL
280
     0
  9
$HIDETEXT
280
     1
  9
$XCLIPFRAME
280
     0
  9
$HALOGAP
280
     0
  9
$OBSCOLOR
 70
   257
  9
$OBSLTYPE
280
     0
  9
$INTERSECTIONDISPLAY
280
     0
  9
$INTERSECTIONCOLOR
 70
   257
  9
$DIMASSOC
280
     2
  9
$PROJECTNAME
  1

  9
$CAMERADISPLAY
290
     0
  9
$LENSLENGTH
 40
50.0
  9
$CAMERAHEIGHT
 40
0.0
  9
$STEPSPERSEC
 40
2.0
  9
$STEPSIZE
 40
6.0
  9
$3DDWFPREC
 40
2.0
  9
$PSOLWIDTH
 40
5.0
  9
$PSOLHEIGHT
 40
80.0
  9
$LOFTANG1
 40
1.570796326794897
  9
$LOFTANG2
 40
1.570796326794897
  9
$LOFTMAG1
 40
0.0
  9
$LOFTMAG2
 40
0.0
  9
$LOFTPARAM
 70
     7
  9
$LOFTNORMALS
280
     1
  9
$LATITUDE
 40
37.795
  9
$LONGITUDE
 40
-122.394
  9
$NORTHDIRECTION
 40
0.0
  9
$TIMEZONE
 70
 -8000
  9
$LIGHTGLYPHDISPLAY
280
     1
  9
$TILEMODELIGHTSYNCH
280
     1
  9
$SOLIDHIST
280
     1
  9
$SHOWHIST
280
     1
  9
$DWFFRAME
280
     2
  9
$DGNFRAME
280
     2
  9
$REALWORLDSCALE
290
     1
  9
$INTERFERECOLOR
 62
   256
  9
$CSHADOW
280
     0
  9
$SHADOWPLANELOCATION
 40
0.0
  0
ENDSEC
  0
SECTION
  2
CLASSES
  0
CLASS
  1
ACDBDICTIONARYWDFLT
  2
AcDbDictionaryWithDefault
  3
ObjectDBX Classes
 90
        0
 91
        3
280
     0
281
     0
  0
CLASS
  1
VISUALSTYLE
  2
AcDbVisualStyle
  3
ObjectDBX Classes
 90
     4095
 91
        3
280
     0
281
     0
  0
CLASS
  1
TABLESTYLE
  2
AcDbTableStyle
  3
ObjectDBX Classes
 90
     4095
 91
        3
280
     0
281
     0
  0
CLASS
  1
DICTIONARYVAR
  2
AcDbDictionaryVar
  3
ObjectDBX Classes
 90
        0
 91
        3
280
     0
281
     0
  0
CLASS
  1
SCALE
  2
AcDbScale
  3
ObjectDBX Classes
 90
     1153
 91
        3
280
     0
281
     0
  0
CLASS
  1
CELLSTYLEMAP
  2
AcDbCellStyleMap
  3
ObjectDBX Classes
 90
     1152
 91
        3
280
     0
281
     0
  0
CLASS
  1
RASTERVARIABLES
  2
AcDbRasterVariables
  3
ISM
 90
        0
 91
        3
280
     0
281
     0
  0
CLASS
  1
MATERIAL
  2
AcDbMaterial
  3
ObjectDBX Classes
 90
     1153
 91
        3
280
     0
281
     0
  0
CLASS
  1
SUN
  2
AcDbSun
  3
SCENEOE
 90
     1153
 91
        3
280
     0
281
     0
  0
CLASS
  1
MLEADERSTYLE
  2
AcDbMLeaderStyle
  3
ACDB_MLEADERSTYLE_CLASS
 90
     4095
 91
        3
280
     0
281
     0
  0
CLASS
  1
SORTENTSTABLE
  2
AcDbSortentsTable
  3
ObjectDBX Classes
 90
        0
 91
        3
280
     0
281
     0
  0
CLASS
  1
DIMASSOC
  2
AcDbDimAssoc
  3
"AcDbDimAssoc|Product Desc:     AcDim ARX App For Dimension|Company:          Autodesk, Inc.|WEB Address:      www.autodesk.com"
 90
        0
 91
        3
280
     0
281
     0
  0
ENDSEC
  0
SECTION
  2
TABLES
  0
TABLE
  2
VPORT
  5
8
330
0
100
AcDbSymbolTable
 70
     1
  0
VPORT
  5
29
330
8
100
AcDbSymbolTableRecord
100
AcDbViewportTableRecord
  2
*Active
 70
     0
 10
0.0
 20
0.0
 11
1.0
 21
1.0
 12
153.146042481576
 22
13.56071202711228
 13
0.0
 23
0.0
 14
10.0
 24
10.0
 15
10.0
 25
10.0
 16
0.0
 26
0.0
 36
1.0
 17
-134.1869158878503
 27
0.0
 37
0.0
 40
42.66665722028466
 41
1.707482993197279
 42
50.0
 43
0.0
 44
0.0
 50
0.0
 51
0.0
 71
    16
 72
  1000
 73
     1
 74
     3
 75
     0
 76
     0
 77
     0
 78
     0
281
     0
 65
     1
110
0.0
120
0.0
130
0.0
111
1.0
121
0.0
131
0.0
112
0.0
122
1.0
132
0.0
 79
     0
146
0.0
348
2F
 60
     3
 61
     5
292
     1
282
     1
141
0.0
142
0.0
 63
   256
361
80
  0
ENDTAB
  0
TABLE
  2
LTYPE
  5
5
330
0
100
AcDbSymbolTable
 70
     1
  0
LTYPE
  5
14
330
5
100
AcDbSymbolTableRecord
100
AcDbLinetypeTableRecord
  2
ByBlock
 70
     0
  3

 72
    65
 73
     0
 40
0.0
  0
LTYPE
  5
15
330
5
100
AcDbSymbolTableRecord
100
AcDbLinetypeTableRecord
  2
ByLayer
 70
     0
  3

 72
    65
 73
     0
 40
0.0
  0
LTYPE
  5
16
330
5
100
AcDbSymbolTableRecord
100
AcDbLinetypeTableRecord
  2
Continuous
 70
     0
  3
Solid line
 72
    65
 73
     0
 40
0.0
  0
ENDTAB
  0
TABLE
  2
LAYER
  5
2
102
{ACAD_XDICTIONARY
360
DC
102
}
330
0
100
AcDbSymbolTable
 70
    35
  0
LAYER
  5
10
330
2
100
AcDbSymbolTableRecord
100
AcDbLayerTableRecord
  2
0
 70
     0
 62
     7
  6
Continuous
370
    -3
390
F
347
75
348
0
  0
LAYER
  5
E8
330
2
100
AcDbSymbolTableRecord
100
AcDbLayerTableRecord
  2
ox-tandem-insulation
 70
     0
 62
     9
  6
Continuous
370
    -3
390
F
347
75
348
0
1001
AcAecLayerStandard
1000

1000

1001
ACCMTRANSPARENCY
1071
        0
  0
LAYER
  5
113
330
2
100
AcDbSymbolTableRecord
100
AcDbLayerTableRecord
  2
pixel-electrodes-small-lower
 70
     0
 62
    -4
  6
Continuous
370
    -3
390
F
347
75
348
0
1001
AcAecLayerStandard
1000

1000

1001
ACCMTRANSPARENCY
1071
 33554687
  0
LAYER
  5
117
330
2
100
AcDbSymbolTableRecord
100
AcDbLayerTableRecord
  2
TC-etch-lines-chemical
 70
     0
 62
    -1
  6
Continuous
370
    -3
390
F
347
75
348
0
1001
AcAecLayerStandard
1000

1000

1001
ACCMTRANSPARENCY
1071
 33554687
  0
LAYER
  5
118
330
2
100
AcDbSymbolTableRecord
100
AcDbLayerTableRecord
  2
encapsulation
 70
     0
 62
    -3
  6
Continuous
370
    -3
390
F
347
75
348
0
1001
AcAecLayerStandard
1000

1000

1001
ACCMTRANSPARENCY
1071
 33554687
  0
LAYER
  5
119
330
2
100
AcDbSymbolTableRecord
100
AcDbLayerTableRecord
  2
lightMask-small-upper
 70
     0
 62
    -2
  6
Continuous
370
    -3
390
F
347
75
348
0
1001
AcAecLayerStandard
1000

1000

1001
ACCMTRANSPARENCY
1071
 33554687
  0
LAYER
  5
11A
330
2
100
AcDbSymbolTableRecord
100
AcDbLayerTableRecord
  2
pinPlacements
 70
     0
 62
    -7
  6
Continuous
370
    -3
390
F
347
75
348
0
1001
AcAecLayerStandard
1000

1000

1001
ACCMTRANSPARENCY
1071
        0
  0
LAYER
  5
11B
330
2
100
AcDbSymbolTableRecord
100
AcDbLayerTableRecord
  2
glassOutline
 70
     0
 62
    -7
  6
Continuous
370
    -3
390
F
347
75
348
0
1001
AcAecLayerStandard
1000

1000

1001
ACCMTRANSPARENCY
1071
        0
  0
LAYER
  5
11C
330
2
100
AcDbSymbolTableRecord
100
AcDbLayerTableRecord
  2
lightMask-small-lower
 70
     0
 62
    -2
  6
Continuous
370
    -3
390
F
347
75
348
0
1001
AcAecLayerStandard
1000

1000

1001
ACCMTRANSPARENCY
1071
 33554687
  0
LAYER
  5
11D
330
2
100
AcDbSymbolTableRecord
100
AcDbLayerTableRecord
  2
pixel-electrodes-small-upper
 70
     0
 62
    -4
  6
Continuous
370
    -3
390
F
347
75
348
0
1001
AcAecLayerStandard
1000

1000

1001
ACCMTRANSPARENCY
1071
 33554687
  0
LAYER
  5
11E
330
2
100
AcDbSymbolTableRecord
100
AcDbLayerTableRecord
  2
TC-metal
 70
     0
 62
    -4
  6
Continuous
370
    -3
390
F
347
75
348
0
1001
AcAecLayerStandard
1000

1000

1001
ACCMTRANSPARENCY
1071
 33554687
  0
LAYER
  5
11F
330
2
100
AcDbSymbolTableRecord
100
AcDbLayerTableRecord
  2
pixel-electrode-large-lower
 70
     0
 62
    -4
  6
Continuous
370
    -3
390
F
347
75
348
0
1001
AcAecLayerStandard
1000

1000

1001
ACCMTRANSPARENCY
1071
 33554687
  0
LAYER
  5
120
330
2
100
AcDbSymbolTableRecord
100
AcDbLayerTableRecord
  2
pixel-electrode-large-upper
 70
     0
 62
    -4
  6
Continuous
370
    -3
390
F
347
75
348
0
1001
AcAecLayerStandard
1000

1000

1001
ACCMTRANSPARENCY
1071
 33554687
  0
LAYER
  5
121
330
2
100
AcDbSymbolTableRecord
100
AcDbLayerTableRecord
  2
lightMask-large-upper
 70
     0
 62
    -2
  6
Continuous
370
    -3
390
F
347
75
348
0
1001
AcAecLayerStandard
1000

1000

1001
ACCMTRANSPARENCY
1071
 33554687
  0
LAYER
  5
122
330
2
100
AcDbSymbolTableRecord
100
AcDbLayerTableRecord
  2
lightMask-large-lower
 70
     0
 62
    -2
  6
Continuous
370
    -3
390
F
347
75
348
0
1001
AcAecLayerStandard
1000

1000

1001
ACCMTRANSPARENCY
1071
 33554687
  0
LAYER
  5
123
330
2
100
AcDbSymbolTableRecord
100
AcDbLayerTableRecord
  2
TC-etch-lines-laser
 70
     0
 62
    -1
  6
Continuous
370
    -3
390
F
347
75
348
0
1001
AcAecLayerStandard
1000

1000

1001
ACCMTRANSPARENCY
1071
 33554687
  0
LAYER
  5
124
330
2
100
AcDbSymbolTableRecord
100
AcDbLayerTableRecord
  2
notes
 70
     0
 62
    -3
  6
Continuous
370
    -3
390
F
347
75
348
0
1001
AcAecLayerStandard
1000

1000

1001
ACCMTRANSPARENCY
1071
 33554687
  0
LAYER
  5
125
330
2
100
AcDbSymbolTableRecord
100
AcDbLayerTableRecord
  2
large-pixel-dark-area
 70
     0
 62
    -5
  6
Continuous
370
    -3
390
F
347
75
348
0
1001
AcAecLayerStandard
1000

1000

1001
ACCMTRANSPARENCY
1071
 33554687
  0
LAYER
  5
126
330
2
100
AcDbSymbolTableRecord
100
AcDbLayerTableRecord
  2
small-pixel-dark-area
 70
     0
 62
    -5
  6
Continuous
370
    -3
390
F
347
75
348
0
1001
AcAecLayerStandard
1000

1000

1001
ACCMTRANSPARENCY
1071
 33554687
  0
LAYER
  5
127
330
2
100
AcDbSymbolTableRecord
100
AcDbLayerTableRecord
  2
conn
 70
     0
 62
    -7
  6
Continuous
370
    -3
390
F
347
75
348
0
1001
AcAecLayerStandard
1000

1000

  0
LAYER
  5
128
330
2
100
AcDbSymbolTableRecord
100
AcDbLayerTableRecord
  2
conn_mounts
 70
     0
 62
    -7
  6
Continuous
370
    -3
390
F
347
75
348
0
1001
AcAecLayerStandard
1000

1000

  0
LAYER
  5
129
330
2
100
AcDbSymbolTableRecord
100
AcDbLayerTableRecord
  2
pcb_cutout
 70
     0
 62
    -7
  6
Continuous
370
    -3
390
F
347
75
348
0
1001
AcAecLayerStandard
1000

1000

1001
ACCMTRANSPARENCY
1071
        0
  0
LAYER
  5
12A
330
2
100
AcDbSymbolTableRecord
100
AcDbLayerTableRecord
  2
mask-support
 70
     0
 62
    -5
  6
Continuous
370
    -3
390
F
347
75
348
0
1001
AcAecLayerStandard
1000

1000

1001
ACCMTRANSPARENCY
1071
 33554687
  0
LAYER
  5
12B
330
2
100
AcDbSymbolTableRecord
100
AcDbLayerTableRecord
  2
active-layer-mask
 70
     0
 62
    -6
  6
Continuous
370
    -3
390
F
347
75
348
0
1001
AcAecLayerStandard
1000

1000

1001
ACCMTRANSPARENCY
1071
 33554687
  0
LAYER
  5
12C
330
2
100
AcDbSymbolTableRecord
100
AcDbLayerTableRecord
  2
kmlt_spacer
 70
     0
 62
    -3
  6
Continuous
370
    -3
390
F
347
75
348
0
1001
AcAecLayerStandard
1000

1000

1001
ACCMTRANSPARENCY
1071
        0
  0
LAYER
  5
12D
330
2
100
AcDbSymbolTableRecord
100
AcDbLayerTableRecord
  2
van-der-paw
 70
     0
 62
    -3
  6
Continuous
370
    -3
390
F
347
75
348
0
1001
AcAecLayerStandard
1000

1000

1001
ACCMTRANSPARENCY
1071
        0
  0
LAYER
  5
12E
330
2
100
AcDbSymbolTableRecord
100
AcDbLayerTableRecord
  2
leds
 70
     0
 62
    -4
  6
Continuous
370
    -3
390
F
347
75
348
0
1001
AcAecLayerStandard
1000

1000

1001
ACCMTRANSPARENCY
1071
        0
  0
LAYER
  5
12F
330
2
100
AcDbSymbolTableRecord
100
AcDbLayerTableRecord
  2
ox-tandem-active
 70
     0
 62
    -6
  6
Continuous
370
    -3
390
F
347
75
348
0
  0
LAYER
  5
130
330
2
100
AcDbSymbolTableRecord
100
AcDbLayerTableRecord
  2
ox-tandem-ring-electrode
 70
     0
 62
    -4
  6
Continuous
370
    -3
390
F
347
75
348
0
  0
LAYER
  5
131
330
2
100
AcDbSymbolTableRecord
100
AcDbLayerTableRecord
  2
ox-tandem-tco
 70
     0
 62
    -1
  6
Continuous
370
    -3
390
F
347
75
348
0
1001
AcAecLayerStandard
1000

1000

1001
ACCMTRANSPARENCY
1071
 33554687
  0
LAYER
  5
133
330
2
100
AcDbSymbolTableRecord
100
AcDbLayerTableRecord
  2
p-p-tandem-bottom-metal
 70
     0
 62
    -4
  6
Continuous
370
    -3
390
F
347
75
348
0
1001
AcAecLayerStandard
1000

1000

  0
LAYER
  5
134
330
2
100
AcDbSymbolTableRecord
100
AcDbLayerTableRecord
  2
p-p-tandem-bottom-metal-tco
 70
     0
 62
    -1
  6
Continuous
370
    -3
390
F
347
75
348
0
1001
AcAecLayerStandard
1000

1000

  0
LAYER
  5
135
330
2
100
AcDbSymbolTableRecord
100
AcDbLayerTableRecord
  2
p-p-tandem-bottom-ring-metal
 70
     0
 62
    -4
  6
Continuous
370
    -3
390
F
347
75
348
0
1001
AcAecLayerStandard
1000

1000

  0
LAYER
  5
136
330
2
100
AcDbSymbolTableRecord
100
AcDbLayerTableRecord
  2
ox-tandem-interlayer
 70
     0
 62
    -3
  6
Continuous
370
    -3
390
F
347
75
348
0
1001
AcAecLayerStandard
1000

1000

1001
ACCMTRANSPARENCY
1071
 33554687
  0
LAYER
  5
137
330
2
100
AcDbSymbolTableRecord
100
AcDbLayerTableRecord
  2
ox-tandem-interlayer-big
 70
     0
 62
    -3
  6
Continuous
370
    -3
390
F
347
75
348
0
1001
AcAecLayerStandard
1000

1000

1001
ACCMTRANSPARENCY
1071
 33554687
  0
ENDTAB
  0
TABLE
  2
STYLE
  5
3
330
0
100
AcDbSymbolTable
 70
     2
  0
STYLE
  5
11
330
3
100
AcDbSymbolTableRecord
100
AcDbTextStyleTableRecord
  2
Standard
 70
     0
 40
0.0
 41
1.0
 50
0.0
 71
     0
 42
2.5
  3
arial.ttf
  4

1001
ACAD
1000
Arial
1071
        0
  0
STYLE
  5
B8
330
3
100
AcDbSymbolTableRecord
100
AcDbTextStyleTableRecord
  2
Annotative
 70
     0
 40
0.0
 41
1.0
 50
0.0
 71
     0
 42
2.5
  3
arial.ttf
  4

1001
ACAD
1000
Arial
1071
        0
1001
AcadAnnotative
1000
AnnotativeData
1002
{
1070
     1
1070
     1
1002
}
  0
ENDTAB
  0
TABLE
  2
VIEW
  5
6
330
0
100
AcDbSymbolTable
 70
     0
  0
ENDTAB
  0
TABLE
  2
UCS
  5
7
330
0
100
AcDbSymbolTable
 70
     0
  0
ENDTAB
  0
TABLE
  2
APPID
  5
9
330
0
100
AcDbSymbolTable
 70
    10
  0
APPID
  5
12
330
9
100
AcDbSymbolTableRecord
100
AcDbRegAppTableRecord
  2
ACAD
 70
     0
  0
APPID
  5
B9
330
9
100
AcDbSymbolTableRecord
100
AcDbRegAppTableRecord
  2
AcadAnnotative
 70
     0
  0
APPID
  5
EA
330
9
100
AcDbSymbolTableRecord
100
AcDbRegAppTableRecord
  2
AcAecLayerStandard
 70
     0
  0
APPID
  5
EB
330
9
100
AcDbSymbolTableRecord
100
AcDbRegAppTableRecord
  2
ACCMTRANSPARENCY
 70
     0
  0
APPID
  5
F1
330
9
100
AcDbSymbolTableRecord
100
AcDbRegAppTableRecord
  2
ACAD_DSTYLE_DIMJAG
 70
     0
  0
APPID
  5
F2
330
9
100
AcDbSymbolTableRecord
100
AcDbRegAppTableRecord
  2
ACAD_DSTYLE_DIMBREAK
 70
     0
  0
APPID
  5
F4
330
9
100
AcDbSymbolTableRecord
100
AcDbRegAppTableRecord
  2
ACAD_NAV_VCDISPLAY
 70
     0
  0
APPID
  5
141
330
9
100
AcDbSymbolTableRecord
100
AcDbRegAppTableRecord
  2
GENIUS_GENREC_14
 70
     0
  0
APPID
  5
142
330
9
100
AcDbSymbolTableRecord
100
AcDbRegAppTableRecord
  2
GENIUS_GENOBJ-N-REC_13
 70
     0
  0
APPID
  5
143
330
9
100
AcDbSymbolTableRecord
100
AcDbRegAppTableRecord
  2
GENIUS_GENODEF_13
 70
     0
  0
ENDTAB
  0
TABLE
  2
DIMSTYLE
  5
A
330
0
100
AcDbSymbolTable
 70
     4
100
AcDbDimStyleTable
  0
DIMSTYLE
105
27
330
A
100
AcDbSymbolTableRecord
100
AcDbDimStyleTableRecord
  2
ISO-25
 70
     0
 41
2.5
 42
0.625
 43
3.75
 44
1.25
 73
     0
 74
     0
 77
     1
 78
     8
140
2.5
141
-2.5
143
0.03937007874016
147
0.625
171
     3
172
     1
178
     0
271
     2
272
     2
274
     3
278
    44
283
     0
284
     8
340
11
  0
DIMSTYLE
105
BA
330
A
100
AcDbSymbolTableRecord
100
AcDbDimStyleTableRecord
  2
Annotative
 70
     0
 40
0.0
 41
2.5
 42
0.625
 43
3.75
 44
1.25
 73
     0
 74
     0
 77
     1
 78
     8
140
2.5
141
-2.5
143
0.03937007874016
147
0.625
171
     3
172
     1
178
     0
271
     2
272
     2
274
     3
278
    44
283
     0
284
     8
340
11
1001
AcadAnnotative
1000
AnnotativeData
1002
{
1070
     1
1070
     1
1002
}
  0
DIMSTYLE
105
EC
330
A
100
AcDbSymbolTableRecord
100
AcDbDimStyleTableRecord
  2
Standard
 70
     0
 40
10.0
178
     0
340
11
  0
DIMSTYLE
105
F0
330
A
100
AcDbSymbolTableRecord
100
AcDbDimStyleTableRecord
  2
AM_ISO
 70
     0
  4
"
 41
3.5
 42
1.0
 43
10.0
 44
1.0
 47
0.1
 48
0.1
 90
        1
 73
     0
 74
     0
 77
     1
 78
     8
 79
     2
140
3.5
141
0.0
143
0.0393701
146
0.71
147
1.5
172
     1
176
   256
177
   256
178
     2
272
     3
274
     4
283
     0
284
     8
340
11
371
    -1
372
    -1
345
14
346
14
347
14
1001
ACAD_DSTYLE_DIMJAG
1070
   388
1040
1.5
1001
ACAD_DSTYLE_DIMBREAK
1070
   391
1040
3.75
  0
ENDTAB
  0
TABLE
  2
BLOCK_RECORD
  5
1
330
0
100
AcDbSymbolTable
 70
     1
  0
BLOCK_RECORD
  5
1F
330
1
100
AcDbSymbolTableRecord
100
AcDbBlockTableRecord
  2
*Model_Space
340
22
 70
     0
280
     1
281
     0
  0
BLOCK_RECORD
  5
1B
330
1
100
AcDbSymbolTableRecord
100
AcDbBlockTableRecord
  2
*Paper_Space
340
1E
 70
     0
280
     1
281
     0
  0
BLOCK_RECORD
  5
23
330
1
100
AcDbSymbolTableRecord
100
AcDbBlockTableRecord
  2
*Paper_Space0
340
26
 70
     0
280
     1
281
     0
  0
ENDTAB
  0
ENDSEC
  0
SECTION
  2
BLOCKS
  0
BLOCK
  5
20
330
1F
100
AcDbEntity
  8
0
100
AcDbBlockBegin
  2
*Model_Space
 70
     0
 10
0.0
 20
0.0
 30
0.0
  3
*Model_Space
  1

  0
ENDBLK
  5
21
330
1F
100
AcDbEntity
  8
0
100
AcDbBlockEnd
  0
BLOCK
  5
1C
330
1B
100
AcDbEntity
 67
     1
  8
0
100
AcDbBlockBegin
  2
*Paper_Space
 70
     0
 10
0.0
 20
0.0
 30
0.0
  3
*Paper_Space
  1

  0
ENDBLK
  5
1D
330
1B
100
AcDbEntity
 67
     1
  8
0
100
AcDbBlockEnd
  0
BLOCK
  5
24
330
23
100
AcDbEntity
  8
0
100
AcDbBlockBegin
  2
*Paper_Space0
 70
     0
 10
0.0
 20
0.0
 30
0.0
  3
*Paper_Space0
  1

  0
ENDBLK
  5
25
330
23
100
AcDbEntity
  8
0
100
AcDbBlockEnd
  0
ENDSEC
  0
SECTION
  2
ENTITIES
  0
LINE
  5
1F5
330
1F
100
AcDbEntity
  8
TC-etch-lines-laser
100
AcDbLine
 10
29.99999999999999
 20
2.499981280006867
 30
0.0
 11
0.0000000000000036
 21
2.499981280006867
 31
0.0
1001
GENIUS_GENREC_14
1002
{
1000
PYDIR
1011
12.8275000000006
1021
2.499981280006867
1031
0.0
1002
}
1002
{
1000
PXDIR
1011
17.54000000000087
1021
4.539981280009214
1031
0.0
1002
}
1002
{
1000
PORI
1011
12.46000000000095
1021
4.539981280009214
1031
0.0
1002
}
1002
{
1000
PINS
1011
12.46000000000095
1021
4.539981280009214
1031
0.0
1002
}
1002
{
1000
HVAL
1000
1.6
1002
}
1002
{
1000
H
1070
     2
1002
}
1002
{
1000
WVAL
1000
4.14
1002
}
1002
{
1000
W
1070
     2
1002
}
1002
{
1000
C
1070
     1
1002
}
1001
GENIUS_GENODEF_13
1002
{
1000
HIER
1070
     0
1002
}
1002
{
1000
MANEDIT
1070
     0
1002
}
1002
{
1000
NOSEL
1070
     0
1002
}
1002
{
1000
BEHIND
1070
     0
1002
}
1002
{
1000
OTHER
1070
     0
1002
}
1002
{
1000
REACTOR
1002
}
1001
GENIUS_GENOBJ-N-REC_13
1002
{
1000
OWNER
1000
GEN
1002
}
  0
LWPOLYLINE
  5
1F6
102
{ACAD_REACTORS
102
}
330
1F
100
AcDbEntity
  8
glassOutline
100
AcDbPolyline
 90
        4
 70
     1
 43
0.0
 10
0.0
 20
2.0
 10
30.0
 20
2.0
 10
30.0
 20
31.99999999999909
 10
0.0
 20
31.99999999999909
  0
LINE
  5
1F7
330
1F
100
AcDbEntity
  8
TC-etch-lines-laser
100
AcDbLine
 10
30.0
 20
31.50001871999221
 30
0.0
 11
0.0000000000000036
 21
31.50001871999361
 31
0.0
1001
GENIUS_GENREC_14
1002
{
1000
PYDIR
1011
12.82750000000129
1021
31.50001871999301
1031
0.0
1002
}
1002
{
1000
PXDIR
1011
17.54000000000145
1021
29.46001871999044
1031
0.0
1002
}
1002
{
1000
PORI
1011
12.46000000000154
1021
29.46001871999068
1031
0.0
1002
}
1002
{
1000
PINS
1011
12.46000000000154
1021
29.46001871999068
1031
0.0
1002
}
1002
{
1000
HVAL
1000
1.6
1002
}
1002
{
1000
H
1070
     2
1002
}
1002
{
1000
WVAL
1000
4.14
1002
}
1002
{
1000
W
1070
     2
1002
}
1002
{
1000
C
1070
     1
1002
}
1001
GENIUS_GENODEF_13
1002
{
1000
HIER
1070
     0
1002
}
1002
{
1000
MANEDIT
1070
     0
1002
}
1002
{
1000
NOSEL
1070
     0
1002
}
1002
{
1000
BEHIND
1070
     0
1002
}
1002
{
1000
OTHER
1070
     0
1002
}
1002
{
1000
REACTOR
1002
}
1001
GENIUS_GENOBJ-N-REC_13
1002
{
1000
OWNER
1000
GEN
1002
}
  0
MTEXT
  5
1F8
330
1F
100
AcDbEntity
  8
notes
100
AcDbMText
 10
30.85375203814204
 20
24.41928858683666
 30
0.0
 40
0.4
 41
55.30960304635123
 46
15.73333333333333
 71
     1
 72
     5
  3
{\FARMono.shx|c0;\Llarge pixel light mask shape\P\l-aspect ratio is ~4.61:1\P-corner fillet radius is fr=0.50 [mm]\P-area   is ab=100.00 [mm^ 2]\P-width  is wb=21.50 [mm]\P-height is hb=(ab-fr^ 2*(pi-4))/wb [mm]\P\P\Lsmall pixel light mask shape\P\l-as
  3
pect ratio is ~1.61:1\P-corner fillet radius is fr=0.50 [mm]\P-area   is as=25.00 [mm^ 2]\P-height is hs=hb=(ab-fr^ 2*(pi-4))/wb [mm]\P-width  is ws=(as-fr^ 2*(pi-4))/hs [mm]\P             =wb*(as-fr^ 2*(pi-4))/(ab-fr^ 2*(pi-4)) [mm]\P\P\Ldark areas\P\l-a
  3
rea found \FARSimp.shx|c0;empirically by inspection of this drawing\FARMono.shx|c0;\P-large pixel dab~=113.9196 [mm^ 2] (~114% of light area)\P-small pixel das~= 30.8744 [mm^ 2] (~123% of light area)\P\P\Lleds\P\l-area ~= (3.6305*2) + (1*2.3306) ~= 9.5
  1
916 mm^ 2\P-head ~= 3.6305 x 2 [mm]\P-neck ~= 1 x 2.3306 [mm]}
 73
     1
 44
1.0
  0
LINE
  5
1F9
330
1F
100
AcDbEntity
  8
TC-etch-lines-laser
 62
     1
100
AcDbLine
 10
29.5
 20
2.0
 30
0.0
 11
29.5
 21
31.99999999999909
 31
0.0
  0
LINE
  5
1FA
330
1F
100
AcDbEntity
  8
TC-etch-lines-laser
 62
     1
100
AcDbLine
 10
0.5000000000000249
 20
1.999999999999991
 30
0.0
 11
0.5
 21
31.99999999999908
 31
0.0
  0
LWPOLYLINE
  5
1FB
330
1F
100
AcDbEntity
  8
conn
100
AcDbPolyline
 90
        4
 70
     1
 43
0.0
 10
27.14999999999999
 20
0.0
 10
2.850000000000001
 20
0.0
 10
2.850000000000001
 20
4.0
 10
27.14999999999999
 20
4.0
  0
CIRCLE
  5
1FC
330
1F
100
AcDbEntity
  8
conn_mounts
100
AcDbCircle
 10
15.99999999999999
 20
3.0
 30
0.0
 40
0.4230373395172647
  0
CIRCLE
  5
1FD
330
1F
100
AcDbEntity
  8
conn_mounts
100
AcDbCircle
 10
25.99999999999999
 20
3.0
 30
0.0
 40
0.4230373395172647
  0
CIRCLE
  5
1FE
330
1F
100
AcDbEntity
  8
conn_mounts
100
AcDbCircle
 10
23.99999999999999
 20
3.0
 30
0.0
 40
0.4230373395172647
  0
CIRCLE
  5
1FF
330
1F
100
AcDbEntity
  8
conn_mounts
100
AcDbCircle
 10
22.0
 20
3.0
 30
0.0
 40
0.4230373395172647
  0
CIRCLE
  5
200
330
1F
100
AcDbEntity
  8
conn_mounts
100
AcDbCircle
 10
20.0
 20
3.0
 30
0.0
 40
0.4230373395172647
  0
CIRCLE
  5
201
330
1F
100
AcDbEntity
  8
conn_mounts
100
AcDbCircle
 10
18.0
 20
3.0
 30
0.0
 40
0.4230373395172647
  0
CIRCLE
  5
202
330
1F
100
AcDbEntity
  8
conn_mounts
100
AcDbCircle
 10
4.000000000000006
 20
3.0
 30
0.0
 40
0.4230373395172647
  0
CIRCLE
  5
203
330
1F
100
AcDbEntity
  8
conn_mounts
100
AcDbCircle
 10
14.0
 20
3.0
 30
0.0
 40
0.4230373395172647
  0
CIRCLE
  5
204
330
1F
100
AcDbEntity
  8
conn_mounts
100
AcDbCircle
 10
12.0
 20
3.0
 30
0.0
 40
0.4230373395172647
  0
CIRCLE
  5
205
330
1F
100
AcDbEntity
  8
conn_mounts
100
AcDbCircle
 10
10.00000000000001
 20
3.0
 30
0.0
 40
0.4230373395172647
  0
CIRCLE
  5
206
330
1F
100
AcDbEntity
  8
conn_mounts
100
AcDbCircle
 10
8.000000000000012
 20
3.0
 30
0.0
 40
0.4230373395172647
  0
CIRCLE
  5
207
330
1F
100
AcDbEntity
  8
conn_mounts
100
AcDbCircle
 10
6.000000000000013
 20
3.0
 30
0.0
 40
0.4230373395172647
  0
LWPOLYLINE
  5
208
330
1F
100
AcDbEntity
  8
conn
100
AcDbPolyline
 90
        4
 70
     1
 43
0.0
 10
27.14999999999999
 20
33.99999999999909
 10
2.850000000000008
 20
33.99999999999909
 10
2.850000000000008
 20
29.99999999999909
 10
27.14999999999999
 20
29.99999999999909
  0
CIRCLE
  5
209
330
1F
100
AcDbEntity
  8
conn_mounts
100
AcDbCircle
 10
15.99999999999999
 20
30.99999999999909
 30
0.0
 40
0.4230373395172647
  0
CIRCLE
  5
20A
330
1F
100
AcDbEntity
  8
conn_mounts
100
AcDbCircle
 10
25.99999999999999
 20
30.99999999999909
 30
0.0
 40
0.4230373395172647
  0
CIRCLE
  5
20B
330
1F
100
AcDbEntity
  8
conn_mounts
100
AcDbCircle
 10
23.99999999999999
 20
30.99999999999909
 30
0.0
 40
0.4230373395172647
  0
CIRCLE
  5
20C
330
1F
100
AcDbEntity
  8
conn_mounts
100
AcDbCircle
 10
22.0
 20
30.99999999999909
 30
0.0
 40
0.4230373395172647
  0
CIRCLE
  5
20D
330
1F
100
AcDbEntity
  8
conn_mounts
100
AcDbCircle
 10
20.0
 20
30.99999999999909
 30
0.0
 40
0.4230373395172647
  0
CIRCLE
  5
20E
330
1F
100
AcDbEntity
  8
conn_mounts
100
AcDbCircle
 10
18.0
 20
30.99999999999909
 30
0.0
 40
0.4230373395172647
  0
CIRCLE
  5
20F
330
1F
100
AcDbEntity
  8
conn_mounts
100
AcDbCircle
 10
4.000000000000013
 20
30.99999999999909
 30
0.0
 40
0.4230373395172647
  0
CIRCLE
  5
210
330
1F
100
AcDbEntity
  8
conn_mounts
100
AcDbCircle
 10
14.0
 20
30.99999999999909
 30
0.0
 40
0.4230373395172647
  0
CIRCLE
  5
211
330
1F
100
AcDbEntity
  8
conn_mounts
100
AcDbCircle
 10
12.0
 20
30.99999999999909
 30
0.0
 40
0.4230373395172647
  0
CIRCLE
  5
212
330
1F
100
AcDbEntity
  8
conn_mounts
100
AcDbCircle
 10
10.00000000000001
 20
30.99999999999909
 30
0.0
 40
0.4230373395172647
  0
CIRCLE
  5
213
330
1F
100
AcDbEntity
  8
conn_mounts
100
AcDbCircle
 10
8.000000000000012
 20
30.99999999999909
 30
0.0
 40
0.4230373395172647
  0
CIRCLE
  5
214
330
1F
100
AcDbEntity
  8
conn_mounts
100
AcDbCircle
 10
6.000000000000013
 20
30.99999999999909
 30
0.0
 40
0.4230373395172647
  0
CIRCLE
  5
215
330
1F
100
AcDbEntity
  8
pinPlacements
100
AcDbCircle
 10
6.090000000000675
 20
5.25000000000002
 30
0.0
 40
0.535
  0
CIRCLE
  5
216
330
1F
100
AcDbEntity
  8
pinPlacements
100
AcDbCircle
 10
3.590000000000676
 20
5.25000000000002
 30
0.0
 40
0.535
  0
LWPOLYLINE
  5
217
330
1F
100
AcDbEntity
  8
encapsulation
100
AcDbPolyline
 90
        4
 70
     1
 43
0.0
 10
1.0
 20
6.250000000000024
 10
29.0
 20
6.250000000000024
 10
29.0
 20
27.74999999999907
 10
1.0
 20
27.74999999999907
  0
LWPOLYLINE
  5
218
330
1F
100
AcDbEntity
  8
encapsulation
100
AcDbPolyline
 90
        4
 70
     1
 43
0.0
 10
2.5
 20
7.750000000000024
 10
27.49999999999999
 20
7.750000000000024
 10
27.5
 20
26.24999999999907
 10
2.5
 20
26.24999999999907
  0
CIRCLE
  5
219
330
1F
100
AcDbEntity
  8
pinPlacements
100
AcDbCircle
 10
11.1700000000006
 20
5.250000000000017
 30
0.0
 40
0.535
  0
CIRCLE
  5
21A
330
1F
100
AcDbEntity
  8
pinPlacements
100
AcDbCircle
 10
8.670000000000599
 20
5.250000000000017
 30
0.0
 40
0.535
  0
CIRCLE
  5
21B
330
1F
100
AcDbEntity
  8
pinPlacements
100
AcDbCircle
 10
16.25000000000095
 20
5.250000000000017
 30
0.0
 40
0.535
  0
CIRCLE
  5
21C
330
1F
100
AcDbEntity
  8
pinPlacements
100
AcDbCircle
 10
13.75000000000095
 20
5.250000000000017
 30
0.0
 40
0.535
  0
CIRCLE
  5
21D
330
1F
100
AcDbEntity
  8
pinPlacements
100
AcDbCircle
 10
23.91000000000122
 20
5.249999999999968
 30
0.0
 40
0.535
  0
CIRCLE
  5
21E
330
1F
100
AcDbEntity
  8
pinPlacements
100
AcDbCircle
 10
26.41000000000123
 20
5.249999999999956
 30
0.0
 40
0.535
  0
CIRCLE
  5
21F
330
1F
100
AcDbEntity
  8
pinPlacements
100
AcDbCircle
 10
18.8300000000013
 20
5.250000000000052
 30
0.0
 40
0.535
  0
CIRCLE
  5
220
330
1F
100
AcDbEntity
  8
pinPlacements
100
AcDbCircle
 10
21.3300000000013
 20
5.250000000000076
 30
0.0
 40
0.535
  0
CIRCLE
  5
221
330
1F
100
AcDbEntity
  8
pinPlacements
100
AcDbCircle
 10
6.090000000000673
 20
28.74999999999907
 30
0.0
 40
0.535
  0
CIRCLE
  5
222
330
1F
100
AcDbEntity
  8
pinPlacements
100
AcDbCircle
 10
3.590000000000673
 20
28.74999999999907
 30
0.0
 40
0.535
  0
CIRCLE
  5
223
330
1F
100
AcDbEntity
  8
pinPlacements
100
AcDbCircle
 10
11.1700000000006
 20
28.74999999999908
 30
0.0
 40
0.535
  0
CIRCLE
  5
224
330
1F
100
AcDbEntity
  8
pinPlacements
100
AcDbCircle
 10
8.670000000000595
 20
28.74999999999907
 30
0.0
 40
0.535
  0
CIRCLE
  5
225
330
1F
100
AcDbEntity
  8
pinPlacements
100
AcDbCircle
 10
16.25000000000095
 20
28.74999999999908
 30
0.0
 40
0.535
  0
CIRCLE
  5
226
330
1F
100
AcDbEntity
  8
pinPlacements
100
AcDbCircle
 10
13.75000000000095
 20
28.74999999999908
 30
0.0
 40
0.535
  0
CIRCLE
  5
227
330
1F
100
AcDbEntity
  8
pinPlacements
100
AcDbCircle
 10
23.91000000000122
 20
28.74999999999913
 30
0.0
 40
0.535
  0
CIRCLE
  5
228
330
1F
100
AcDbEntity
  8
pinPlacements
100
AcDbCircle
 10
26.41000000000123
 20
28.74999999999914
 30
0.0
 40
0.535
  0
CIRCLE
  5
229
330
1F
100
AcDbEntity
  8
pinPlacements
100
AcDbCircle
 10
18.8300000000013
 20
28.74999999999904
 30
0.0
 40
0.535
  0
CIRCLE
  5
22A
330
1F
100
AcDbEntity
  8
pinPlacements
100
AcDbCircle
 10
21.3300000000013
 20
28.74999999999902
 30
0.0
 40
0.535
  0
LWPOLYLINE
  5
22B
330
1F
100
AcDbEntity
  8
pcb_cutout
100
AcDbPolyline
 90
        4
 70
     1
 43
0.0
 10
1.500000000000011
 20
6.750000000000025
 10
28.49999999999999
 20
6.750000000000025
 10
28.5
 20
27.24999999999907
 10
1.5
 20
27.24999999999907
  0
LWPOLYLINE
  5
22C
330
1F
100
AcDbEntity
  8
lightMask-large-upper
100
AcDbPolyline
 90
        8
 70
     1
 43
0.0
 10
4.25
 20
23.16114427146906
 10
4.25
 20
19.49999999999905
 42
0.4142135623730951
 10
4.75
 20
18.99999999999905
 10
25.25
 20
18.99999999999905
 42
0.4142135623730951
 10
25.75
 20
19.49999999999905
 10
25.75
 20
23.16114427146906
 42
0.4142135623730951
 10
25.25
 20
23.66114427146906
 10
4.75
 20
23.66114427146906
 42
0.4142135623730951
  0
LWPOLYLINE
  5
22D
330
1F
100
AcDbEntity
  8
pixel-electrode-large-upper
100
AcDbPolyline
 90
       24
 70
     1
 43
0.0
 10
15.5
 20
24.41114427146906
 10
15.50000000000001
 20
24.91114427139989
 42
-0.4142139828329349
 10
16.00000071776975
 20
25.41114427139937
 10
16.6499960688502
 20
25.41114385248725
 42
0.4142134077428319
 10
17.14999639109225
 20
25.91114326627437
 10
17.15000137390136
 20
30.99999941378631
 42
0.4142139057686324
 10
16.65000137390171
 20
31.49999999999909
 10
13.35000000000095
 20
31.49999999999909
 42
0.4142135623730919
 10
12.85000000000095
 20
30.99999999999911
 10
12.85000000000089
 20
25.91114427146669
 42
0.4142135623739431
 10
13.35000000000233
 20
25.41114427146669
 10
13.99999928223026
 20
25.41114427146855
 42
-0.414213982832939
 10
14.5
 20
24.91114427146906
 10
14.5
 20
24.41114427146906
 42
-0.4142135623730951
 10
14.0
 20
23.91114427146906
 10
4.75
 20
23.91114427146906
 42
0.4142135623730951
 10
4.0
 20
23.16114427146906
 10
4.0
 20
19.49999999999905
 42
0.4142135623730951
 10
4.75
 20
18.74999999999905
 10
25.25
 20
18.74999999999905
 42
0.4142135623730951
 10
26.0
 20
19.49999999999905
 10
26.0
 20
23.16114427146906
 42
0.4142135623730951
 10
25.25
 20
23.91114427146906
 10
16.0
 20
23.91114427146906
 42
-0.4142135623730951
  0
LWPOLYLINE
  5
22E
330
1F
100
AcDbEntity
  8
TC-etch-lines-chemical
100
AcDbPolyline
 90
        4
 70
     1
 43
0.0
 10
17.67999936869019
 20
24.66114427146885
 10
19.17999936869019
 20
24.66114427146885
 10
19.17999936869019
 20
24.16114427146885
 10
17.67999936869019
 20
24.16114427146885
  0
LWPOLYLINE
  5
22F
330
1F
100
AcDbEntity
  8
pixel-electrode-large-upper
100
AcDbPolyline
 90
       10
 70
     1
 43
0.0
 10
19.42999936869019
 20
26.41114427146885
 42
0.4142135623730951
 10
18.92999936869019
 20
25.91114427146885
 10
18.92999936869019
 20
24.41114427146885
 10
17.92999936869019
 20
24.41114427146885
 10
17.93000000000132
 20
30.99999993554406
 42
-0.4142135985040851
 10
18.43000006168078
 20
31.49999993554405
 10
21.73000315048508
 20
31.49999952845922
 42
-0.414213793228341
 10
22.23000308880541
 20
30.99999907268524
 10
22.22999936161769
 20
26.91114381569486
 42
-0.414213295386901
 10
21.7299993616179
 20
26.41114427146885
  0
LWPOLYLINE
  5
230
330
1F
100
AcDbEntity
  8
TC-etch-lines-chemical
100
AcDbPolyline
 90
        4
 70
     1
 43
0.0
 10
12.32000200521247
 20
24.66114427146885
 10
10.82000200521247
 20
24.66114427146885
 10
10.82000200521247
 20
24.16114427146885
 10
12.32000200521247
 20
24.16114427146885
  0
LWPOLYLINE
  5
231
330
1F
100
AcDbEntity
  8
pixel-electrode-large-upper
100
AcDbPolyline
 90
       10
 70
     1
 43
0.0
 10
10.57000200521247
 20
26.41114427146885
 42
-0.4142135623730951
 10
11.07000200521247
 20
25.91114427146885
 10
11.07000200521247
 20
24.41114427146885
 10
12.07000200521247
 20
24.41114427146885
 10
12.07000137390134
 20
30.99999993554406
 42
0.4142135985040851
 10
11.57000131222188
 20
31.49999993554405
 10
8.269998223417584
 20
31.49999952845922
 42
0.414213793228341
 10
7.769998285097253
 20
30.99999907268524
 10
7.770002012284969
 20
26.91114381569486
 42
0.414213295386901
 10
8.27000201228476
 20
26.41114427146885
  0
LWPOLYLINE
  5
232
330
1F
100
AcDbEntity
  8
TC-etch-lines-chemical
100
AcDbPolyline
 90
       72
 70
     1
 43
0.0
 10
0.4999999999999933
 20
3.000000000000007
 42
0.4142135623730951
 10
0.9999999999999927
 20
2.500000000000007
 10
6.489999999998697
 20
2.5
 42
0.4142135623730951
 10
6.989999999998697
 20
3.0
 10
6.9899999999987
 20
7.838855728530032
 42
-0.4142135623730951
 10
7.4899999999987
 20
8.338855728530032
 10
7.520002012284965
 20
8.338855728530032
 10
7.520002012284969
 20
9.338855728530035
 10
9.020002012284971
 20
9.338855728530032
 10
9.020002012284971
 20
9.088855728530032
 42
0.414213982832939
 10
9.270002594891649
 20
8.83885572853044
 10
9.920002012281923
 20
8.838855728532405
 42
-0.3178372451974987
 10
10.62710879347146
 20
8.338855728530035
 10
12.64289321881351
 20
8.338855728530035
 42
-0.3178372451974987
 10
13.35000000000305
 20
8.838855728532405
 10
13.99999941739333
 20
8.83885572853044
 42
0.414213982832939
 10
14.25
 20
9.088855728530032
 10
14.25
 20
9.338855728530032
 10
15.75
 20
9.338855728530035
 10
15.75000000000001
 20
9.0888557285992
 42
0.4142139828329349
 10
16.00000048216685
 20
8.838855728599594
 10
16.649995907729
 20
8.838856147511787
 42
-0.3178375734001599
 10
17.3571033146659
 20
8.338855728530046
 10
19.37289258043119
 20
8.338855728530035
 42
-0.3178372451974987
 10
20.07999936162074
 20
8.838855728532405
 10
20.72999877901102
 20
8.83885572853044
 42
0.414213982832939
 10
20.97999936161769
 20
9.088855728530032
 10
20.97999936161769
 20
9.338855728530032
 10
22.47999936161769
 20
9.338855728530035
 10
22.47999936161769
 20
8.338855728530032
 10
22.5100000000013
 20
8.338855728530032
 42
-0.4142135623730949
 10
23.0100000000013
 20
7.838855728530032
 10
23.0100000000013
 20
2.999999999999996
 42
0.4142135623730951
 10
23.5100000000013
 20
2.499999999999996
 10
29.00000000000001
 20
2.5
 42
0.4142135623730951
 10
29.50000000000001
 20
3.0
 10
29.50000000000001
 20
30.99999999999909
 42
0.4142135623730951
 10
29.00000000000001
 20
31.49999999999909
 10
23.5100000000013
 20
31.49999999999909
 42
0.4142135623730951
 10
23.0100000000013
 20
30.99999999999909
 10
23.0100000000013
 20
26.16114427146906
 42
-0.4142135623730949
 10
22.5100000000013
 20
25.66114427146906
 10
22.47999936161769
 20
25.66114427146906
 10
22.47999936161769
 20
24.66114427146906
 10
20.97999936161769
 20
24.66114427146906
 10
20.97999936161769
 20
24.91114427146906
 42
0.414213982832939
 10
20.72999877901102
 20
25.16114427146865
 10
20.07999936162074
 20
25.16114427146669
 42
-0.3178372451974987
 10
19.37289258043119
 20
25.66114427146906
 10
17.3571033146659
 20
25.66114427146904
 42
-0.3178375734001599
 10
16.649995907729
 20
25.1611438524873
 10
16.00000048216685
 20
25.1611442713995
 42
0.4142139828329349
 10
15.75000000000001
 20
24.91114427139989
 10
15.75
 20
24.66114427146906
 10
14.25
 20
24.66114427146906
 10
14.25
 20
24.91114427146906
 42
0.414213982832939
 10
13.99999941739333
 20
25.16114427146865
 10
13.35000000000305
 20
25.16114427146669
 42
-0.3178372451974987
 10
12.64289321881351
 20
25.66114427146906
 10
10.62710879347146
 20
25.66114427146906
 42
-0.3178372451974987
 10
9.920002012281923
 20
25.16114427146669
 10
9.270002594891649
 20
25.16114427146865
 42
0.414213982832939
 10
9.020002012284971
 20
24.91114427146906
 10
9.020002012284971
 20
24.66114427146906
 10
7.520002012284969
 20
24.66114427146906
 10
7.520002012284965
 20
25.66114427146906
 10
7.4899999999987
 20
25.66114427146906
 42
-0.4142135623730951
 10
6.9899999999987
 20
26.16114427146906
 10
6.989999999998697
 20
30.99999999999909
 42
0.4142135623730951
 10
6.489999999998697
 20
31.49999999999909
 10
0.9999999999999927
 20
31.49999999999908
 42
0.4142135623730951
 10
0.4999999999999933
 20
30.99999999999908
  0
LWPOLYLINE
  5
233
330
1F
100
AcDbEntity
  8
TC-etch-lines-chemical
100
AcDbPolyline
 90
        4
 70
     1
 43
0.0
 10
17.67999936869019
 20
9.338855728530241
 10
19.17999936869019
 20
9.338855728530241
 10
19.17999936869019
 20
9.838855728530241
 10
17.67999936869019
 20
9.838855728530241
  0
LWPOLYLINE
  5
234
330
1F
100
AcDbEntity
  8
TC-etch-lines-chemical
100
AcDbPolyline
 90
        4
 70
     1
 43
0.0
 10
12.32000200521247
 20
9.338855728530241
 10
10.82000200521247
 20
9.338855728530241
 10
10.82000200521247
 20
9.838855728530241
 10
12.32000200521247
 20
9.838855728530241
  0
LWPOLYLINE
  5
235
330
1F
100
AcDbEntity
  8
pixel-electrodes-small-lower
100
AcDbPolyline
 90
       24
 70
     1
 43
0.0
 10
17.95476522159345
 20
14.50000000000003
 10
17.95476522159345
 20
10.83885572853003
 42
-0.4142135623730951
 10
17.20476522159344
 20
10.08885572853003
 10
16.0
 20
10.08885572853003
 42
0.4142135623730951
 10
15.5
 20
9.588855728530037
 10
15.50000000000001
 20
9.088855728599203
 42
0.4142139828329344
 10
16.00000071776975
 20
8.588855728599725
 10
16.6499960688502
 20
8.58885614751184
 42
-0.4142134077428305
 10
17.14999639109225
 20
8.088856733724727
 10
17.15000137390136
 20
3.00000058621278
 42
-0.4142139057686321
 10
16.65000137390171
 20
2.500000000000003
 10
13.35000000000095
 20
2.500000000000003
 42
-0.4142135623730915
 10
12.85000000000095
 20
2.999999999999996
 10
12.85000000000089
 20
8.088855728532401
 42
-0.4142135623739436
 10
13.35000000000233
 20
8.58885572853241
 10
13.99999928223026
 20
8.588855728530543
 42
0.414213982832939
 10
14.5
 20
9.088855728530037
 10
14.5
 20
9.588855728530037
 42
0.4142135623730951
 10
14.0
 20
10.08885572853004
 10
12.79523477840655
 20
10.08885572853003
 42
-0.4142135623730955
 10
12.04523477840655
 20
10.83885572853003
 10
12.04523477840655
 20
14.50000000000003
 42
-0.4142135623730951
 10
12.79523477840655
 20
15.25000000000003
 10
17.20476522159344
 20
15.25000000000003
 42
-0.4142135623730951
  0
LWPOLYLINE
  5
236
330
1F
100
AcDbEntity
  8
small-pixel-dark-area
100
AcDbPolyline
 90
       14
 70
     1
 43
0.0
 10
14.4999998553332
 20
9.338855728564619
 10
15.50000000000001
 20
9.338855728564619
 10
15.49999985533321
 20
9.588855728564617
 42
-0.4142135623730951
 10
15.99999985533321
 20
10.08885572856455
 10
17.20476522159344
 20
10.08885572853003
 42
0.4142135623731054
 10
17.95476522159344
 20
10.83885572853003
 10
17.95476522159345
 20
14.50000000000003
 42
0.4142135623730924
 10
17.20476522159344
 20
15.25000000000003
 10
12.79523477840655
 20
15.25000000000003
 42
0.4142135623731022
 10
12.04523477840656
 20
14.50000000000003
 10
12.04523477840655
 20
10.83885572853003
 42
0.4142135623730868
 10
12.79523477840655
 20
10.08885572853003
 10
13.99999985533321
 20
10.08885572856456
 42
-0.4142135623730951
 10
14.49999985533321
 20
9.588855728564617
  0
LWPOLYLINE
  5
237
330
1F
100
AcDbEntity
  8
large-pixel-dark-area
100
AcDbPolyline
 90
       14
 70
     1
 43
0.0
 10
15.5
 20
24.66114427143448
 10
14.5
 20
24.66114427146906
 10
14.5
 20
24.41114427146906
 42
-0.4142135623730951
 10
14.0
 20
23.91114427146906
 10
4.75
 20
23.91114427146906
 42
0.4142135623730951
 10
4.0
 20
23.16114427146906
 10
4.0
 20
19.49999999999905
 42
0.4142135623730951
 10
4.75
 20
18.74999999999905
 10
25.25
 20
18.74999999999905
 42
0.4142135623730951
 10
26.0
 20
19.49999999999905
 10
26.0
 20
23.16114427146906
 42
0.4142135623730951
 10
25.25
 20
23.91114427146906
 10
16.0
 20
23.91114427146906
 42
-0.4142135623730951
 10
15.5
 20
24.41114427146906
  0
LWPOLYLINE
  5
238
330
1F
100
AcDbEntity
  8
TC-etch-lines-laser
100
AcDbPolyline
 90
       26
 70
     0
 43
0.0
 10
7.1300183542597
 20
25.66114427146906
 10
7.520002012284963
 20
25.66114427146906
 10
7.520002012284969
 20
24.66114427146906
 10
9.020002012284976
 20
24.66114427146906
 10
9.020002012284976
 20
24.91114427146906
 42
-0.414213982832939
 10
9.270002594891649
 20
25.16114427146865
 10
9.920002012281929
 20
25.16114427146669
 42
0.3178372451974987
 10
10.62710879347146
 20
25.66114427146906
 10
12.64289321881351
 20
25.66114427146906
 42
0.3178372451974988
 10
13.35000000000305
 20
25.16114427146669
 10
13.99999941739333
 20
25.16114427146865
 42
-0.414213982832939
 10
14.25
 20
24.91114427146906
 10
14.25
 20
24.66114427146906
 10
15.75
 20
24.66114427146906
 10
15.75000000000001
 20
24.91114427139989
 42
-0.4142139828329349
 10
16.00000048216685
 20
25.1611442713995
 10
16.649995907729
 20
25.1611438524873
 42
0.3178375734001599
 10
17.3571033146659
 20
25.66114427146904
 10
19.37289258043119
 20
25.66114427146906
 42
0.3178372451974986
 10
20.07999936162074
 20
25.16114427146669
 10
20.72999877901102
 20
25.16114427146865
 42
-0.414213982832939
 10
20.97999936161769
 20
24.91114427146906
 10
20.97999936161769
 20
24.66114427146906
 10
22.47999936161769
 20
24.66114427146906
 10
22.47999936161769
 20
25.66114427146906
 10
22.8699816457403
 20
25.6611442714691
  0
LWPOLYLINE
  5
239
330
1F
100
AcDbEntity
  8
TC-etch-lines-laser
100
AcDbPolyline
 90
       26
 70
     0
 43
0.0
 10
7.130018354259699
 20
8.338855728530039
 10
7.520002012284959
 20
8.338855728530039
 10
7.520002012284967
 20
9.338855728530039
 10
9.020002012284976
 20
9.338855728530039
 10
9.020002012284976
 20
9.088855728530039
 42
0.414213982832939
 10
9.270002594891649
 20
8.838855728530447
 10
9.920002012281923
 20
8.838855728532408
 42
-0.3178372451974987
 10
10.62710879347146
 20
8.338855728530039
 10
12.64289321881351
 20
8.338855728530039
 42
-0.3178372451974988
 10
13.35000000000305
 20
8.838855728532408
 10
13.99999941739332
 20
8.838855728530447
 42
0.414213982832939
 10
14.25
 20
9.088855728530039
 10
14.25
 20
9.338855728530039
 10
15.75
 20
9.338855728530035
 10
15.75000000000001
 20
9.088855728599203
 42
0.4142139828329349
 10
16.00000048216685
 20
8.838855728599594
 10
16.649995907729
 20
8.838856147511795
 42
-0.3178375734001599
 10
17.3571033146659
 20
8.338855728530053
 10
19.37289258043119
 20
8.338855728530035
 42
-0.3178372451974986
 10
20.07999936162074
 20
8.838855728532405
 10
20.72999877901102
 20
8.838855728530444
 42
0.414213982832939
 10
20.97999936161769
 20
9.088855728530035
 10
20.97999936161769
 20
9.338855728530035
 10
22.47999936161769
 20
9.338855728530035
 10
22.47999936161769
 20
8.338855728530035
 10
22.8699816457403
 20
8.338855728529996
  0
LINE
  5
23A
330
1F
100
AcDbEntity
  8
TC-etch-lines-laser
100
AcDbLine
 10
12.46000082236
 20
25.41114427146906
 30
0.0
 11
12.46000082236
 21
31.99999999999909
 31
0.0
  0
LINE
  5
23B
330
1F
100
AcDbEntity
  8
TC-etch-lines-laser
100
AcDbLine
 10
17.54000055154265
 20
25.41114427146904
 30
0.0
 11
17.54000055154266
 21
31.99999999999909
 31
0.0
  0
LINE
  5
23C
330
1F
100
AcDbEntity
  8
TC-etch-lines-laser
100
AcDbLine
 10
22.62000266062321
 20
25.419252070674
 30
0.0
 11
22.6200026606232
 21
31.99999999999909
 31
0.0
  0
LINE
  5
23D
330
1F
100
AcDbEntity
  8
TC-etch-lines-laser
100
AcDbLine
 10
7.379998713279452
 20
25.419252070674
 30
0.0
 11
7.379998713279462
 21
31.99999999999909
 31
0.0
  0
LINE
  5
23E
330
1F
100
AcDbEntity
  8
TC-etch-lines-laser
100
AcDbLine
 10
7.379998713279447
 20
8.5807479293251
 30
0.0
 11
7.379998713279455
 21
2.000000000000007
 31
0.0
  0
LINE
  5
23F
330
1F
100
AcDbEntity
  8
TC-etch-lines-laser
100
AcDbLine
 10
12.46000082236
 20
8.588855728530035
 30
0.0
 11
12.46000082236
 21
2.000000000000004
 31
0.0
  0
LINE
  5
240
330
1F
100
AcDbEntity
  8
TC-etch-lines-laser
100
AcDbLine
 10
17.54000055154264
 20
8.588855728530053
 30
0.0
 11
17.54000055154265
 21
2.000000000000004
 31
0.0
  0
LINE
  5
241
330
1F
100
AcDbEntity
  8
TC-etch-lines-laser
100
AcDbLine
 10
22.62000266062321
 20
8.580747929325096
 30
0.0
 11
22.6200026606232
 21
2.0
 31
0.0
  0
LWPOLYLINE
  5
242
330
1F
100
AcDbEntity
  8
TC-metal
100
AcDbPolyline
 90
       24
 70
     1
 43
0.0
 10
29.00000681157262
 20
31.49999999999909
 10
23.51000000000128
 20
31.49999999999909
 42
0.4142135623730898
 10
23.01000000000128
 20
30.99999999999911
 10
23.01000000000117
 20
24.91114427146907
 42
0.4142135623731005
 10
23.51000000000118
 20
24.41114427146906
 10
26.00000243811306
 20
24.41114427146906
 42
-0.4142121397446046
 10
26.50000243810717
 20
23.91114670004903
 10
26.50002750645043
 20
18.75003534898191
 42
-0.4142149850030168
 10
26.00002750645633
 20
18.25003292040196
 10
16.00002921439258
 20
18.25003292040196
 42
0.4142134328372907
 10
15.50002921439262
 20
17.75003314153342
 10
15.50002855096912
 20
16.24996730072858
 42
0.4142136919089113
 10
16.00002855096908
 20
15.74996707959712
 10
26.00002948171808
 20
15.74996707959713
 42
-0.414215450349564
 10
26.50002948170769
 20
15.24996385662185
 10
26.49999621343908
 20
10.08885250555474
 42
-0.4142116743991472
 10
25.99999621344947
 20
9.588855728530017
 10
23.51000000000119
 20
9.588855728530019
 42
0.4142135623731014
 10
23.01000000000119
 20
9.08885572853001
 10
23.01000000000131
 20
2.999999999999978
 42
0.4142135623730893
 10
23.5100000000013
 20
2.499999999999988
 10
29.00000681157265
 20
2.499999999999991
 42
0.4142135623730955
 10
29.50000681157265
 20
2.999999999999991
 10
29.50000681157262
 20
30.99999999999909
 42
0.4142135623730949
  0
LWPOLYLINE
  5
243
330
1F
100
AcDbEntity
  8
pixel-electrode-large-lower
100
AcDbPolyline
 90
       24
 70
     1
 43
0.0
 10
15.5
 20
9.588855728530032
 10
15.50000000000001
 20
9.0888557285992
 42
0.4142139828329349
 10
16.00000071776975
 20
8.588855728599722
 10
16.6499960688502
 20
8.58885614751184
 42
-0.4142134077428319
 10
17.14999639109225
 20
8.088856733724722
 10
17.15000137390136
 20
3.00000058621278
 42
-0.4142139057686324
 10
16.65000137390171
 20
2.5
 10
13.35000000000095
 20
2.5
 42
-0.4142135623730919
 10
12.85000000000095
 20
2.999999999999989
 10
12.85000000000089
 20
8.088855728532401
 42
-0.4142135623739431
 10
13.35000000000233
 20
8.588855728532401
 10
13.99999928223026
 20
8.58885572853054
 42
0.414213982832939
 10
14.5
 20
9.088855728530032
 10
14.5
 20
9.588855728530032
 42
0.4142135623730951
 10
14.0
 20
10.08885572853003
 10
4.75
 20
10.08885572853003
 42
-0.4142135623730951
 10
4.0
 20
10.83885572853003
 10
4.0
 20
14.50000000000003
 42
-0.4142135623730951
 10
4.75
 20
15.25000000000003
 10
25.25
 20
15.25000000000003
 42
-0.4142135623730951
 10
26.0
 20
14.50000000000003
 10
26.0
 20
10.83885572853003
 42
-0.4142135623730951
 10
25.25
 20
10.08885572853003
 10
16.0
 20
10.08885572853003
 42
0.4142135623730951
  0
LWPOLYLINE
  5
244
330
1F
100
AcDbEntity
  8
pixel-electrode-large-lower
100
AcDbPolyline
 90
       10
 70
     1
 43
0.0
 10
19.42999936869019
 20
7.588855728530241
 42
-0.4142135623730951
 10
18.92999936869019
 20
8.088855728530241
 10
18.92999936869019
 20
9.588855728530241
 10
17.92999936869019
 20
9.588855728530241
 10
17.93000000000132
 20
3.000000064455029
 42
0.4142135985040851
 10
18.43000006168078
 20
2.50000006445504
 10
21.73000315048508
 20
2.50000047153987
 42
0.414213793228341
 10
22.23000308880541
 20
3.000000927313849
 10
22.22999936161769
 20
7.08885618430423
 42
0.414213295386901
 10
21.7299993616179
 20
7.588855728530241
  0
LWPOLYLINE
  5
245
330
1F
100
AcDbEntity
  8
pixel-electrode-large-lower
100
AcDbPolyline
 90
       12
 70
     1
 43
0.0
 10
10.57000200521247
 20
7.588855728530241
 42
0.4142135623730951
 10
11.07000200521247
 20
8.088855728530241
 10
11.07000200521247
 20
9.588855728530241
 10
12.07000200521247
 20
9.588855728530241
 10
12.07000200521246
 20
4.999999999999993
 42
-0.4142135623730888
 10
11.57000200521246
 20
4.500000000000004
 42
0.9999999999999964
 10
11.57000200521242
 20
3.500000000000004
 42
-1.000000000000003
 10
11.57000200521238
 20
2.500000000000004
 10
8.270000631311657
 20
2.500000000000001
 42
-0.4142139057686321
 10
7.770000631312003
 20
3.000000586212778
 10
7.770002012284967
 20
7.08885618430423
 42
-0.414213295386901
 10
8.27000201228476
 20
7.588855728530241
  0
LWPOLYLINE
  5
246
330
1F
100
AcDbEntity
  8
lightMask-small-lower
100
AcDbPolyline
 90
        8
 70
     1
 43
0.0
 10
9.659530443186886
 20
14.50000000000003
 10
9.659530443186886
 20
10.83885572853003
 42
-0.4142135623730951
 10
9.159530443186886
 20
10.33885572853003
 10
4.749999999999993
 20
10.33885572853003
 42
-0.4142135623730955
 10
4.249999999999993
 20
10.83885572853003
 10
4.249999999999993
 20
14.50000000000003
 42
-0.4142135623730951
 10
4.749999999999993
 20
15.00000000000004
 10
9.159530443186886
 20
15.00000000000004
 42
-0.4142135623730953
  0
LWPOLYLINE
  5
247
330
1F
100
AcDbEntity
  8
lightMask-small-lower
100
AcDbPolyline
 90
        8
 70
     1
 43
0.0
 10
17.70476522159345
 20
14.50000000000003
 10
17.70476522159345
 20
10.83885572853003
 42
-0.4142135623730951
 10
17.20476522159344
 20
10.33885572853003
 10
12.79523477840655
 20
10.33885572853003
 42
-0.4142135623730955
 10
12.29523477840655
 20
10.83885572853003
 10
12.29523477840655
 20
14.50000000000003
 42
-0.4142135623730951
 10
12.79523477840655
 20
15.00000000000004
 10
17.20476522159344
 20
15.00000000000004
 42
-0.4142135623730953
  0
LWPOLYLINE
  5
248
330
1F
100
AcDbEntity
  8
pixel-electrodes-small-lower
100
AcDbPolyline
 90
       23
 70
     1
 43
0.0
 10
12.06999999999875
 20
5.000000000000055
 42
-0.4142135623730888
 10
11.56999999999875
 20
4.500000000000065
 42
1.0
 10
11.56999999999871
 20
3.500000000000065
 42
-1.0
 10
11.56999999999871
 20
2.500000000000062
 10
8.269998626097946
 20
2.500000000000062
 42
-0.4142139057686321
 10
7.769998626098293
 20
3.000000586212839
 10
7.770002169926613
 20
9.588855459604066
 42
0.4142137199062875
 10
7.270002169926687
 20
10.08885572853003
 10
4.749999999999993
 20
10.08885572853003
 42
-0.4142135623730955
 10
3.999999999999993
 20
10.83885572853003
 10
3.999999999999993
 20
14.50000000000003
 42
-0.4142135623730951
 10
4.749999999999993
 20
15.25000000000003
 10
9.159530443186886
 20
15.25000000000003
 42
-0.4142135623730953
 10
9.909530443186886
 20
14.50000000000003
 10
9.909530443186886
 20
10.83885572853003
 42
-0.3885257539631335
 10
9.22581364058639
 20
10.09179044507584
 42
0.3885257539631339
 10
8.770002438852725
 20
9.593746922773036
 10
8.770002438852725
 20
9.088855728530099
 42
0.414213982832939
 10
9.270003156622463
 20
8.588855728530602
 10
9.920002012282662
 20
8.588855728532405
 42
-0.4142135623753312
 10
10.42000201228407
 20
8.088855728530035
 10
11.56999999999876
 20
8.088855728530035
 42
-0.4142135623730951
 10
12.06999999999876
 20
7.588855728530027
  0
LWPOLYLINE
  5
249
330
1F
100
AcDbEntity
  8
lightMask-small-lower
100
AcDbPolyline
 90
        8
 70
     1
 43
0.0
 10
20.34046955681311
 20
14.50000000000003
 10
20.34046955681311
 20
10.83885572853003
 42
0.4142135623730951
 10
20.84046955681311
 20
10.33885572853003
 10
25.25000000000001
 20
10.33885572853003
 42
0.4142135623730955
 10
25.75000000000001
 20
10.83885572853003
 10
25.75000000000001
 20
14.50000000000003
 42
0.4142135623730951
 10
25.25000000000001
 20
15.00000000000004
 10
20.84046955681311
 20
15.00000000000004
 42
0.4142135623730953
  0
LWPOLYLINE
  5
24A
330
1F
100
AcDbEntity
  8
pixel-electrodes-small-lower
100
AcDbPolyline
 90
       21
 70
     1
 43
0.0
 10
20.07999798771937
 20
8.58885572853238
 42
0.4142135623753311
 10
19.57999798771795
 20
8.088855728530012
 10
18.43000000000326
 20
8.088855728530017
 42
0.4142135623730951
 10
17.93000000000326
 20
7.588855728530013
 10
17.9300000000033
 20
3.00000000000004
 42
0.4142135623730915
 10
18.43000000000329
 20
2.500000000000045
 10
21.73000137390405
 20
2.500000000000028
 42
0.4142139057686321
 10
22.23000137390171
 20
3.000000586212839
 10
22.22999783007339
 20
9.588855459604066
 42
-0.4142137199062875
 10
22.72999783007331
 20
10.08885572853003
 10
25.25000000000001
 20
10.08885572853003
 42
0.4142135623730955
 10
26.00000000000001
 20
10.83885572853003
 10
26.00000000000001
 20
14.50000000000003
 42
0.4142135623730951
 10
25.25000000000001
 20
15.25000000000003
 10
20.84046955681311
 20
15.25000000000003
 42
0.4142135623730953
 10
20.09046955681311
 20
14.50000000000003
 10
20.09046955681311
 20
10.83885572853003
 42
0.3885257539631335
 10
20.77418635941361
 20
10.09179044507584
 42
-0.3885257539631339
 10
21.22999756114728
 20
9.593746922773036
 10
21.22999756114728
 20
9.088855728530099
 42
-0.414213982832939
 10
20.72999684337957
 20
8.588855728530572
  0
LWPOLYLINE
  5
24B
330
1F
100
AcDbEntity
  8
active-layer-mask
100
AcDbPolyline
 90
       16
 70
     1
 43
0.0
 10
4.75
 20
15.50000044226295
 42
0.4142135623730951
 10
3.75
 20
14.50000044226295
 10
3.75
 20
10.83885617079294
 42
0.4142135623730951
 10
4.75
 20
9.83885617079294
 10
7.270002169926687
 20
9.838855728530032
 42
-0.4142137199062875
 10
7.52000216992665
 20
9.588855594067047
 10
7.520001584283712
 20
8.500000268907705
 42
0.414213719906287
 10
8.020001584283637
 20
7.99999999998174
 10
21.97999841571636
 20
7.99999999998174
 42
0.414213719906287
 10
22.47999841571629
 20
8.500000268907705
 10
22.47999783007335
 20
9.588855594067047
 42
-0.4142137199062875
 10
22.72999783007331
 20
9.838855728530032
 10
25.25
 20
9.83885617079294
 42
0.4142135623730951
 10
26.25
 20
10.83885617079294
 10
26.25
 20
14.50000044226295
 42
0.4142135623730951
 10
25.25
 20
15.50000044226295
  0
LWPOLYLINE
  5
24C
330
1F
100
AcDbEntity
  8
active-layer-mask
100
AcDbPolyline
 90
       16
 70
     1
 43
0.0
 10
4.75
 20
18.49999999999905
 42
-0.4142135623730951
 10
3.75
 20
19.49999999999905
 10
3.75
 20
23.16114427146906
 42
-0.4142135623730951
 10
4.75
 20
24.16114427146906
 10
7.270002169926687
 20
24.16114471373197
 42
0.4142137199062875
 10
7.52000216992665
 20
24.41114484819495
 10
7.520001584283712
 20
25.50000017335429
 42
-0.414213719906287
 10
8.020001584283637
 20
26.00000044228026
 10
21.97999841571636
 20
26.00000044228026
 42
-0.414213719906287
 10
22.47999841571629
 20
25.50000017335429
 10
22.47999783007335
 20
24.41114484819495
 42
0.4142137199062875
 10
22.72999783007331
 20
24.16114471373197
 10
25.25
 20
24.16114427146906
 42
-0.4142135623730951
 10
26.25
 20
23.16114427146906
 10
26.25
 20
19.49999999999905
 42
-0.4142135623730951
 10
25.25
 20
18.49999999999905
  0
LWPOLYLINE
  5
24D
330
1F
100
AcDbEntity
  8
TC-metal
100
AcDbPolyline
 90
       24
 70
     1
 43
0.0
 10
0.9999931884274248
 20
31.49999999999912
 10
6.489999999998766
 20
31.4999999999991
 42
-0.4142135623730898
 10
6.989999999998762
 20
30.99999999999912
 10
6.989999999998862
 20
24.91114427146908
 42
-0.4142135623731005
 10
6.489999999998862
 20
24.41114427146907
 10
3.999997561886971
 20
24.41114427146908
 42
0.4142121397446046
 10
3.499997561892861
 20
23.91114670004905
 10
3.499972493549603
 20
18.75003534898194
 42
0.4142149850030168
 10
3.999972493543701
 20
18.25003292040198
 10
13.99997078560744
 20
18.25003292040196
 42
-0.4142134328372907
 10
14.4999707856074
 20
17.75003314153342
 10
14.4999714490309
 20
16.24996730072858
 42
-0.4142136919089113
 10
13.99997144903093
 20
15.74996707959712
 10
3.999970518281933
 20
15.74996707959715
 42
0.414215450349564
 10
3.499970518292326
 20
15.24996385662187
 10
3.500003786560923
 20
10.08885250555476
 42
0.4142116743991472
 10
4.000003786550533
 20
9.588855728530039
 10
6.489999999998812
 20
9.588855728530035
 42
-0.4142135623731014
 10
6.989999999998812
 20
9.088855728530024
 10
6.989999999998683
 20
2.999999999999993
 42
-0.4142135623730893
 10
6.489999999998679
 20
2.500000000000004
 10
0.9999931884273394
 20
2.500000000000017
 42
-0.4142135623730955
 10
0.4999931884273429
 20
3.000000000000017
 10
0.4999931884274211
 20
30.99999999999912
 42
-0.4142135623730949
  0
LWPOLYLINE
  5
24E
330
1F
100
AcDbEntity
  8
lightMask-large-lower
100
AcDbPolyline
 90
        8
 70
     1
 43
0.0
 10
4.25
 20
10.83885572853003
 10
4.25
 20
14.50000000000004
 42
-0.4142135623730951
 10
4.75
 20
15.00000000000004
 10
25.25
 20
15.00000000000004
 42
-0.4142135623730951
 10
25.75
 20
14.50000000000004
 10
25.75
 20
10.83885572853003
 42
-0.4142135623730951
 10
25.25
 20
10.33885572853003
 10
4.75
 20
10.33885572853003
 42
-0.4142135623730951
  0
LWPOLYLINE
  5
24F
330
1F
100
AcDbEntity
  8
lightMask-small-upper
100
AcDbPolyline
 90
        8
 70
     1
 43
0.0
 10
9.659530443186886
 20
19.49999999999905
 10
9.659530443186886
 20
23.16114427146905
 42
0.4142135623730951
 10
9.159530443186886
 20
23.66114427146906
 10
4.749999999999993
 20
23.66114427146906
 42
0.4142135623730955
 10
4.249999999999993
 20
23.16114427146905
 10
4.249999999999993
 20
19.49999999999905
 42
0.4142135623730951
 10
4.749999999999993
 20
18.99999999999905
 10
9.159530443186886
 20
18.99999999999905
 42
0.4142135623730953
  0
LWPOLYLINE
  5
250
330
1F
100
AcDbEntity
  8
lightMask-small-upper
100
AcDbPolyline
 90
        8
 70
     1
 43
0.0
 10
17.70476522159345
 20
19.49999999999905
 10
17.70476522159345
 20
23.16114427146905
 42
0.4142135623730951
 10
17.20476522159344
 20
23.66114427146906
 10
12.79523477840655
 20
23.66114427146906
 42
0.4142135623730955
 10
12.29523477840655
 20
23.16114427146905
 10
12.29523477840655
 20
19.49999999999905
 42
0.4142135623730951
 10
12.79523477840655
 20
18.99999999999905
 10
17.20476522159344
 20
18.99999999999905
 42
0.4142135623730953
  0
LWPOLYLINE
  5
251
330
1F
100
AcDbEntity
  8
lightMask-small-upper
100
AcDbPolyline
 90
        8
 70
     1
 43
0.0
 10
20.34046955681311
 20
19.49999999999905
 10
20.34046955681311
 20
23.16114427146905
 42
-0.4142135623730951
 10
20.84046955681311
 20
23.66114427146906
 10
25.25000000000001
 20
23.66114427146906
 42
-0.4142135623730955
 10
25.75000000000001
 20
23.16114427146905
 10
25.75000000000001
 20
19.49999999999905
 42
-0.4142135623730951
 10
25.25000000000001
 20
18.99999999999905
 10
20.84046955681311
 20
18.99999999999905
 42
-0.4142135623730953
  0
LWPOLYLINE
  5
252
330
1F
100
AcDbEntity
  8
lightMask-large-lower
100
AcDbPolyline
 90
        4
 70
     1
 43
0.0
 10
19.37999936869018
 20
9.53885572853024
 10
17.4799993016197
 20
9.53885572853024
 10
17.47999943576068
 20
8.138855728530043
 10
19.37999936869018
 20
8.138855728530036
  0
LWPOLYLINE
  5
253
330
1F
100
AcDbEntity
  8
lightMask-large-lower
100
AcDbPolyline
 90
        4
 70
     1
 43
0.0
 10
10.62000063130981
 20
9.53885572853024
 10
12.5200006983803
 20
9.53885572853024
 10
12.52000056423931
 20
8.138855728530043
 10
10.62000063130981
 20
8.138855728530036
  0
LWPOLYLINE
  5
254
330
1F
100
AcDbEntity
  8
lightMask-large-upper
100
AcDbPolyline
 90
        4
 70
     1
 43
0.0
 10
19.37999936869018
 20
24.46114427146885
 10
17.4799993016197
 20
24.46114427146885
 10
17.47999943576068
 20
25.86114427146905
 10
19.37999936869018
 20
25.86114427146905
  0
LWPOLYLINE
  5
255
330
1F
100
AcDbEntity
  8
lightMask-large-upper
100
AcDbPolyline
 90
        4
 70
     1
 43
0.0
 10
10.62000063130981
 20
24.46114427146885
 10
12.5200006983803
 20
24.46114427146885
 10
12.52000056423931
 20
25.86114427146905
 10
10.62000063130981
 20
25.86114427146906
  0
LWPOLYLINE
  5
256
330
1F
100
AcDbEntity
  8
pixel-electrodes-small-upper
100
AcDbPolyline
 90
       24
 70
     1
 43
0.0
 10
17.95476522159345
 20
19.49999999999905
 10
17.95476522159345
 20
23.16114427146906
 42
0.4142135623730951
 10
17.20476522159345
 20
23.91114427146906
 10
16.0
 20
23.91114427146906
 42
-0.4142135623730951
 10
15.5
 20
24.41114427146905
 10
15.50000000000001
 20
24.91114427139989
 42
-0.4142139828329344
 10
16.00000071776975
 20
25.41114427139937
 10
16.6499960688502
 20
25.41114385248725
 42
0.4142134077428305
 10
17.14999639109225
 20
25.91114326627437
 10
17.15000137390136
 20
30.99999941378631
 42
0.4142139057686321
 10
16.65000137390171
 20
31.49999999999909
 10
13.35000000000095
 20
31.4999999999991
 42
0.4142135623730915
 10
12.85000000000095
 20
30.9999999999991
 10
12.85000000000089
 20
25.91114427146669
 42
0.4142135623739436
 10
13.35000000000233
 20
25.41114427146668
 10
13.99999928223026
 20
25.41114427146855
 42
-0.414213982832939
 10
14.5
 20
24.91114427146906
 10
14.5
 20
24.41114427146905
 42
-0.4142135623730951
 10
14.0
 20
23.91114427146906
 10
12.79523477840655
 20
23.91114427146906
 42
0.4142135623730955
 10
12.04523477840655
 20
23.16114427146906
 10
12.04523477840655
 20
19.49999999999906
 42
0.4142135623730951
 10
12.79523477840655
 20
18.74999999999906
 10
17.20476522159344
 20
18.74999999999905
 42
0.4142135623730951
  0
LWPOLYLINE
  5
257
330
1F
100
AcDbEntity
  8
pixel-electrodes-small-upper
100
AcDbPolyline
 90
       21
 70
     1
 43
0.0
 10
12.06999999999876
 20
26.41114427146907
 10
12.06999999999875
 20
30.99999999999904
 42
0.4142135623730946
 10
11.56999999999875
 20
31.49999999999903
 10
8.269998626097951
 20
31.49999999999903
 42
0.4142139057686316
 10
7.769998626098295
 20
30.99999941378626
 10
7.770002169926615
 20
24.41114454039503
 42
-0.4142137199062869
 10
7.270002169926689
 20
23.91114427146906
 10
4.749999999999995
 20
23.91114427146906
 42
0.4142135623730954
 10
3.999999999999994
 20
23.16114427146906
 10
3.999999999999994
 20
19.49999999999906
 42
0.4142135623730943
 10
4.749999999999994
 20
18.74999999999906
 10
9.159530443186888
 20
18.74999999999906
 42
0.4142135623730951
 10
9.909530443186888
 20
19.49999999999906
 10
9.909530443186888
 20
23.16114427146906
 42
0.388525753963133
 10
9.225813640586392
 20
23.90820955492326
 42
-0.3885257539631341
 10
8.770002438852726
 20
24.40625307722606
 10
8.770002438852726
 20
24.911144271469
 42
-0.4142139828329378
 10
9.270003156622465
 20
25.4111442714685
 10
9.920002012282662
 20
25.41114427146669
 42
0.4142135623753312
 10
10.42000201228407
 20
25.91114427146906
 10
11.56999999999876
 20
25.91114427146906
 42
0.4142135623730961
  0
LWPOLYLINE
  5
258
330
1F
100
AcDbEntity
  8
pixel-electrodes-small-upper
100
AcDbPolyline
 90
       21
 70
     1
 43
0.0
 10
20.07999798771937
 20
25.41114427146671
 42
-0.4142135623753311
 10
19.57999798771795
 20
25.91114427146908
 10
18.43000000000326
 20
25.91114427146908
 42
-0.4142135623730951
 10
17.93000000000326
 20
26.41114427146908
 10
17.9300000000033
 20
30.99999999999906
 42
-0.4142135623730915
 10
18.43000000000329
 20
31.49999999999905
 10
21.73000137390406
 20
31.49999999999907
 42
-0.4142139057686321
 10
22.23000137390171
 20
30.99999941378625
 10
22.2299978300734
 20
24.41114454039503
 42
0.4142137199062875
 10
22.72999783007331
 20
23.91114427146906
 10
25.25000000000002
 20
23.91114427146906
 42
-0.4142135623730955
 10
26.00000000000001
 20
23.16114427146906
 10
26.00000000000001
 20
19.49999999999905
 42
-0.4142135623730951
 10
25.25000000000001
 20
18.74999999999905
 10
20.84046955681311
 20
18.74999999999905
 42
-0.4142135623730953
 10
20.09046955681311
 20
19.49999999999905
 10
20.09046955681311
 20
23.16114427146906
 42
-0.3885257539631335
 10
20.77418635941361
 20
23.90820955492326
 42
0.3885257539631339
 10
21.22999756114729
 20
24.40625307722606
 10
21.22999756114729
 20
24.91114427146899
 42
0.414213982832939
 10
20.72999684337958
 20
25.41114427146852
  0
LWPOLYLINE
  5
259
330
1F
100
AcDbEntity
  8
TC-etch-lines-chemical
100
AcDbPolyline
 90
        4
 70
     1
 43
0.0
 10
8.670000000000599
 20
6.173037339517282
 10
11.1700000000006
 20
6.173037339517282
 42
-1.0
 10
11.1700000000006
 20
4.326962660482752
 10
8.670000000000599
 20
4.326962660482752
 42
-1.0
  0
LWPOLYLINE
  5
25A
330
1F
100
AcDbEntity
  8
TC-etch-lines-chemical
100
AcDbPolyline
 90
        4
 70
     1
 43
0.0
 10
13.75000000000095
 20
6.173037339517282
 10
16.25000000000095
 20
6.173037339517282
 42
-1.0
 10
16.25000000000095
 20
4.326962660482752
 10
13.75000000000095
 20
4.326962660482752
 42
-1.0
  0
LWPOLYLINE
  5
25B
330
1F
100
AcDbEntity
  8
TC-etch-lines-chemical
100
AcDbPolyline
 90
        4
 70
     1
 43
0.0
 10
21.3300000000013
 20
6.173037339517282
 10
18.8300000000013
 20
6.173037339517282
 42
1.0
 10
18.8300000000013
 20
4.326962660482752
 10
21.3300000000013
 20
4.326962660482752
 42
1.0
  0
LWPOLYLINE
  5
25C
330
1F
100
AcDbEntity
  8
TC-etch-lines-chemical
100
AcDbPolyline
 90
        4
 70
     1
 43
0.0
 10
8.670000000000599
 20
27.82696266048181
 10
11.1700000000006
 20
27.82696266048181
 42
1.0
 10
11.1700000000006
 20
29.67303733951634
 10
8.670000000000599
 20
29.67303733951634
 42
1.0
  0
LWPOLYLINE
  5
25D
330
1F
100
AcDbEntity
  8
TC-etch-lines-chemical
100
AcDbPolyline
 90
        4
 70
     1
 43
0.0
 10
13.75000000000095
 20
27.82696266048181
 10
16.25000000000095
 20
27.82696266048181
 42
1.0
 10
16.25000000000095
 20
29.67303733951634
 10
13.75000000000095
 20
29.67303733951634
 42
1.0
  0
LWPOLYLINE
  5
25E
330
1F
100
AcDbEntity
  8
TC-etch-lines-chemical
100
AcDbPolyline
 90
        4
 70
     1
 43
0.0
 10
21.3300000000013
 20
27.82696266048181
 10
18.8300000000013
 20
27.82696266048181
 42
-1.0
 10
18.8300000000013
 20
29.67303733951634
 10
21.3300000000013
 20
29.67303733951634
 42
-1.0
  0
LWPOLYLINE
  5
25F
330
1F
100
AcDbEntity
  8
kmlt_spacer
100
AcDbPolyline
 90
        4
 70
     1
 43
0.0
 10
0.5
 20
2.5
 10
29.5
 20
2.5
 10
29.5
 20
31.49999999999909
 10
0.5
 20
31.49999999999909
  0
LWPOLYLINE
  5
260
330
1F
100
AcDbEntity
  8
van-der-paw
100
AcDbPolyline
 90
        8
 70
     1
 43
0.0
 10
5.0
 20
2.0
 10
25.0
 20
2.0
 10
30.0
 20
7.0
 10
30.0
 20
26.99999999999909
 10
25.0
 20
31.99999999999909
 10
5.0
 20
31.99999999999909
 10
0.0
 20
26.99999999999909
 10
0.0
 20
7.0
  0
LWPOLYLINE
  5
261
330
1F
100
AcDbEntity
  8
leds
100
AcDbPolyline
 90
       16
 70
     1
 43
0.0
 10
24.86046791002778
 20
11.66942786426499
 10
24.86046791002779
 20
13.66942786426499
 10
21.22999752507533
 20
13.669427864265
 10
21.2299965126838
 20
9.338855728530019
 10
21.22999550029228
 20
9.088855728530067
 42
-0.414213982832939
 10
20.72999478252457
 20
8.588855728530532
 10
20.07999592686436
 20
8.588855728532337
 42
0.4142135623753311
 10
19.57999592686294
 20
8.088855728529978
 10
18.42999793914825
 20
8.08885572852998
 42
0.4142135623730951
 10
17.92999793914826
 20
7.588855728529977
 10
17.9299979391483
 20
3.0
 42
0.4142135623730915
 10
18.42999793914828
 20
2.500000000000002
 10
21.72999931304906
 20
2.499999999999988
 42
0.4142139057686321
 10
22.22999931304671
 20
3.000000586212812
 10
22.22999848308779
 20
9.338855728530024
 10
22.2299984503548
 20
11.66942786426499
  0
LWPOLYLINE
  5
262
330
1F
100
AcDbEntity
  8
leds
100
AcDbPolyline
 90
       18
 70
     1
 43
0.0
 10
17.14999721478983
 20
8.088856351905504
 10
17.15000068695004
 20
3.000000586212774
 42
-0.4142139057686295
 10
16.65000068695039
 20
2.499999999999993
 10
13.34999931304963
 20
2.499999999999986
 42
-0.4142135623730929
 10
12.84999931304963
 20
2.999999999999986
 10
12.84999931304957
 20
8.088855728532398
 42
-0.414213562373944
 10
13.34999931305101
 20
8.588855728532408
 10
14.00000002380411
 20
8.588855759477788
 42
0.4142135484289688
 10
14.49999999999999
 20
9.088855759477788
 10
14.49999999999999
 20
11.66942786426503
 10
13.18476412057246
 20
11.66942786426503
 10
13.18476412057246
 20
13.66942786426503
 10
16.81523450552492
 20
13.66942786426503
 10
16.81523450552492
 20
11.66942786426503
 10
15.49999999999999
 20
11.66942786426503
 10
15.49999999999999
 20
9.08885601075217
 42
0.4142135623730959
 10
15.99999999999999
 20
8.58885601075217
 10
16.64999721478994
 20
8.58885601075217
 42
-0.4142133625301136
  0
LWPOLYLINE
  5
263
330
1F
100
AcDbEntity
  8
leds
100
AcDbPolyline
 90
       16
 70
     1
 43
0.0
 10
5.139530716069584
 20
22.33057257799699
 10
5.139530716069584
 20
20.33057257799699
 10
8.770001101022046
 20
20.33057257799699
 10
8.770002113413566
 20
24.66114471373196
 10
8.770003125805083
 20
24.91114471373192
 42
-0.414213982832939
 10
9.270003843572788
 20
25.41114471373145
 10
9.920002699233002
 20
25.41114471372965
 42
0.4142135623753311
 10
10.42000269923442
 20
25.91114471373201
 10
11.57000068694911
 20
25.91114471373201
 42
0.4142135623730951
 10
12.0700006869491
 20
26.41114471373201
 10
12.07000068694905
 20
31.00000044226199
 42
0.4142135623730915
 10
11.57000068694907
 20
31.50000044226199
 10
8.269999313048295
 20
31.500000442262
 42
0.4142139057686321
 10
7.769999313050641
 20
30.99999985604917
 10
7.77000014300957
 20
24.66114471373196
 10
7.770000175742568
 20
22.33057257799699
  0
LWPOLYLINE
  5
264
330
1F
100
AcDbEntity
  8
leds
100
AcDbPolyline
 90
       16
 70
     1
 43
0.0
 10
24.86046791002778
 20
22.33057257799701
 10
24.86046791002779
 20
20.33057257799701
 10
21.22999752507533
 20
20.330572577997
 10
21.2299965126838
 20
24.66114471373198
 10
21.22999550029228
 20
24.91114471373193
 42
0.414213982832939
 10
20.72999478252457
 20
25.41114471373147
 10
20.07999592686436
 20
25.41114471372966
 42
-0.4142135623753311
 10
19.57999592686294
 20
25.91114471373202
 10
18.42999793914825
 20
25.91114471373202
 42
-0.4142135623730951
 10
17.92999793914826
 20
26.41114471373202
 10
17.9299979391483
 20
31.000000442262
 42
-0.4142135623730915
 10
18.42999793914828
 20
31.500000442262
 10
21.72999931304906
 20
31.50000044226201
 42
-0.4142139057686321
 10
22.22999931304671
 20
30.99999985604919
 10
22.22999848308779
 20
24.66114471373198
 10
22.2299984503548
 20
22.330572577997
  0
LWPOLYLINE
  5
265
330
1F
100
AcDbEntity
  8
leds
100
AcDbPolyline
 90
       18
 70
     1
 43
0.0
 10
17.14999721478983
 20
25.91114409035649
 10
17.15000068695004
 20
30.99999985604923
 42
0.4142139057686295
 10
16.65000068695039
 20
31.50000044226201
 10
13.34999931304963
 20
31.50000044226201
 42
0.4142135623730929
 10
12.84999931304963
 20
31.00000044226201
 10
12.84999931304957
 20
25.9111447137296
 42
0.414213562373944
 10
13.34999931305101
 20
25.41114471372959
 10
14.00000002380411
 20
25.41114468278421
 42
-0.4142135484289688
 10
14.49999999999999
 20
24.91114468278421
 10
14.49999999999999
 20
22.33057257799697
 10
13.18476412057246
 20
22.33057257799697
 10
13.18476412057246
 20
20.33057257799697
 10
16.81523450552492
 20
20.33057257799697
 10
16.81523450552492
 20
22.33057257799697
 10
15.49999999999999
 20
22.33057257799697
 10
15.49999999999999
 20
24.91114443150983
 42
-0.4142135623730959
 10
15.99999999999999
 20
25.41114443150983
 10
16.64999721478994
 20
25.41114443150983
 42
0.4142133625301136
  0
LWPOLYLINE
  5
266
330
1F
100
AcDbEntity
  8
leds
100
AcDbPolyline
 90
       16
 70
     1
 43
0.0
 10
8.770001101022046
 20
13.66942786426501
 10
8.770002438852725
 20
9.088855728530097
 42
0.414213982832939
 10
9.270003156622463
 20
8.588855728530602
 10
9.920002012282662
 20
8.588855728532405
 42
-0.4142135623753312
 10
10.42000201228407
 20
8.088855728530035
 10
11.56999999999876
 20
8.088855728530035
 42
-0.4142135623730951
 10
12.06999999999876
 20
7.588855728530027
 10
12.06999999999875
 20
5.000000000000055
 42
-0.4142135623730888
 10
11.56999999999875
 20
4.500000000000065
 42
1.0
 10
11.56999999999871
 20
3.500000000000065
 42
-1.0
 10
11.56999999999871
 20
2.500000000000062
 10
8.269998626097946
 20
2.500000000000062
 42
-0.4142139057686321
 10
7.769998626098293
 20
3.000000586212839
 10
7.770000175742568
 20
11.66942786426501
 10
5.139530716069584
 20
11.66942786426501
 10
5.139530716069584
 20
13.66942786426501
  0
CIRCLE
  5
267
330
1F
100
AcDbEntity
  8
pinPlacements
100
AcDbCircle
 10
3.590000000000673
 20
28.74999999999907
 30
0.0
 40
0.1
  0
CIRCLE
  5
268
330
1F
100
AcDbEntity
  8
pinPlacements
100
AcDbCircle
 10
6.090000000000673
 20
28.74999999999907
 30
0.0
 40
0.1
  0
CIRCLE
  5
269
330
1F
100
AcDbEntity
  8
pinPlacements
100
AcDbCircle
 10
8.670000000000595
 20
28.74999999999907
 30
0.0
 40
0.1
  0
CIRCLE
  5
26A
330
1F
100
AcDbEntity
  8
pinPlacements
100
AcDbCircle
 10
11.1700000000006
 20
28.74999999999908
 30
0.0
 40
0.1
  0
CIRCLE
  5
26B
330
1F
100
AcDbEntity
  8
pinPlacements
100
AcDbCircle
 10
13.75000000000095
 20
28.74999999999908
 30
0.0
 40
0.1
  0
CIRCLE
  5
26C
330
1F
100
AcDbEntity
  8
pinPlacements
100
AcDbCircle
 10
16.25000000000095
 20
28.74999999999908
 30
0.0
 40
0.1
  0
CIRCLE
  5
26D
330
1F
100
AcDbEntity
  8
pinPlacements
100
AcDbCircle
 10
18.8300000000013
 20
28.74999999999908
 30
0.0
 40
0.1
  0
CIRCLE
  5
26E
330
1F
100
AcDbEntity
  8
pinPlacements
100
AcDbCircle
 10
21.3300000000013
 20
28.74999999999902
 30
0.0
 40
0.1
  0
CIRCLE
  5
26F
330
1F
100
AcDbEntity
  8
pinPlacements
100
AcDbCircle
 10
23.91000000000122
 20
28.74999999999913
 30
0.0
 40
0.1
  0
CIRCLE
  5
270
330
1F
100
AcDbEntity
  8
pinPlacements
100
AcDbCircle
 10
26.41000000000123
 20
28.74999999999914
 30
0.0
 40
0.1
  0
CIRCLE
  5
271
330
1F
100
AcDbEntity
  8
pinPlacements
100
AcDbCircle
 10
3.590000000000676
 20
5.25000000000002
 30
0.0
 40
0.1
  0
CIRCLE
  5
272
330
1F
100
AcDbEntity
  8
pinPlacements
100
AcDbCircle
 10
6.090000000000675
 20
5.25000000000002
 30
0.0
 40
0.1
  0
CIRCLE
  5
273
330
1F
100
AcDbEntity
  8
pinPlacements
100
AcDbCircle
 10
8.670000000000599
 20
5.250000000000017
 30
0.0
 40
0.1
  0
CIRCLE
  5
274
330
1F
100
AcDbEntity
  8
pinPlacements
100
AcDbCircle
 10
11.1700000000006
 20
5.250000000000017
 30
0.0
 40
0.1
  0
CIRCLE
  5
275
330
1F
100
AcDbEntity
  8
pinPlacements
100
AcDbCircle
 10
13.75000000000095
 20
5.250000000000017
 30
0.0
 40
0.1
  0
CIRCLE
  5
276
330
1F
100
AcDbEntity
  8
pinPlacements
100
AcDbCircle
 10
16.25000000000095
 20
5.250000000000017
 30
0.0
 40
0.1
  0
CIRCLE
  5
277
330
1F
100
AcDbEntity
  8
pinPlacements
100
AcDbCircle
 10
18.8300000000013
 20
5.250000000000052
 30
0.0
 40
0.1
  0
CIRCLE
  5
278
330
1F
100
AcDbEntity
  8
pinPlacements
100
AcDbCircle
 10
21.3300000000013
 20
5.250000000000017
 30
0.0
 40
0.1
  0
CIRCLE
  5
279
330
1F
100
AcDbEntity
  8
pinPlacements
100
AcDbCircle
 10
23.91000000000122
 20
5.249999999999968
 30
0.0
 40
0.1
  0
CIRCLE
  5
27A
330
1F
100
AcDbEntity
  8
pinPlacements
100
AcDbCircle
 10
26.41000000000123
 20
5.249999999999956
 30
0.0
 40
0.1
  0
LWPOLYLINE
  5
27B
330
1F
100
AcDbEntity
  8
ox-tandem-active
100
AcDbPolyline
 90
        4
 70
     1
 43
0.0
 10
4.999999999999986
 20
24.99999999999909
 10
4.999999999999986
 20
19.49999999999909
 10
24.99999999999999
 20
19.49999999999909
 10
24.99999999999999
 20
24.99999999999909
  0
LWPOLYLINE
  5
27F
330
1F
100
AcDbEntity
  8
ox-tandem-active
100
AcDbPolyline
 90
        4
 70
     1
 43
0.0
 10
4.999999999999993
 20
8.999999999999986
 10
4.999999999999989
 20
14.49999999999999
 10
24.99999999999999
 20
14.5
 10
24.99999999999999
 20
8.999999999999996
  0
LWPOLYLINE
  5
280
330
1F
100
AcDbEntity
  8
ox-tandem-ring-electrode
100
AcDbPolyline
 90
        4
 70
     1
 43
0.0
 10
0.0
 20
2.0
 10
0.0
 20
31.99999999999908
 10
30.0
 20
31.99999999999908
 10
30.0
 20
2.0
  0
LWPOLYLINE
  5
281
330
1F
100
AcDbEntity
  8
ox-tandem-tco
100
AcDbPolyline
 90
        4
 70
     1
 43
0.0
 10
0.0
 20
31.99999999999909
 10
0.0
 20
1.999999999999996
 10
29.99999999999999
 20
1.999999999999996
 10
29.99999999999999
 20
31.99999999999909
  0
LWPOLYLINE
  5
284
330
1F
100
AcDbEntity
  8
p-p-tandem-bottom-metal
100
AcDbPolyline
 90
        4
 70
     1
 43
0.0
 10
0.0
 20
31.99999999999909
 10
0.0
 20
1.999999999999996
 10
29.99999999999999
 20
1.999999999999996
 10
29.99999999999999
 20
31.99999999999909
  0
LWPOLYLINE
  5
285
330
1F
100
AcDbEntity
  8
p-p-tandem-bottom-metal-tco
100
AcDbPolyline
 90
       12
 70
     1
 43
0.0
 10
22.75999781051598
 20
25.49999999999909
 10
22.75999816244801
 20
30.00000007186036
 42
-0.4142135343095367
 10
23.50999816244801
 20
30.74999999999912
 10
26.80999907665674
 20
30.74999999999911
 42
-0.4142138293593425
 10
27.55999907665643
 20
29.99999931633813
 10
27.55999830541877
 20
28.32696197682092
 42
-0.4142132953868998
 10
26.80999830541908
 20
27.5769626604819
 10
25.74999999999999
 20
27.5769626604819
 42
0.4142135623730948
 10
25.49999999999999
 20
27.3269626604819
 10
25.49999999999999
 20
18.99999999999909
 10
4.499999999999986
 20
18.99999999999909
 10
4.499999999999986
 20
25.49999999999909
  0
LWPOLYLINE
  5
286
330
1F
100
AcDbEntity
  8
p-p-tandem-bottom-metal-tco
100
AcDbPolyline
 90
       16
 70
     1
 43
0.0
 10
5.090001380447639
 20
3.999999999999984
 42
0.9999999999999999
 10
4.590001380447642
 20
3.999999999999983
 42
-0.4142135623730969
 10
3.840001380447635
 20
3.249999999999988
 10
3.190000923343275
 20
3.249999999999991
 42
-0.4142138293593396
 10
2.44000092334359
 20
4.000000683660974
 10
2.440001694581255
 20
5.673038023178234
 42
-0.4142132953868998
 10
3.190001694580946
 20
6.423037339517252
 10
4.250000000000036
 20
6.423037339517247
 42
0.4142135623730948
 10
4.500000000000037
 20
6.673037339517247
 10
4.50000000000008
 20
15.00000000000005
 10
25.50000000000008
 20
14.99999999999996
 10
25.50000000000005
 20
8.499999999999966
 10
7.240002189484047
 20
8.500000000000039
 10
7.240001837552007
 20
3.999999928138727
 42
-0.4142135343095351
 10
6.490001837552006
 20
3.249999999999974
 10
5.840001380447637
 20
3.249999999999976
 42
-0.4142135623730921
  0
LWPOLYLINE
  5
287
330
1F
100
AcDbEntity
  8
p-p-tandem-bottom-metal-tco
100
AcDbPolyline
 90
        4
 70
     1
 43
0.0
 10
0.0
 20
31.99999999999909
 10
0.0
 20
1.999999999999996
 10
29.99999999999999
 20
1.999999999999996
 10
29.99999999999999
 20
31.99999999999909
  0
LWPOLYLINE
  5
288
330
1F
100
AcDbEntity
  8
p-p-tandem-bottom-ring-metal
100
AcDbPolyline
 90
        4
 70
     1
 43
0.0
 10
0.0
 20
31.99999999999909
 10
0.0
 20
1.999999999999996
 10
29.99999999999999
 20
1.999999999999996
 10
29.99999999999999
 20
31.99999999999909
  0
LWPOLYLINE
  5
289
330
1F
100
AcDbEntity
  8
ox-tandem-tco
100
AcDbPolyline
 90
       18
 70
     1
 43
0.0
 10
12.57696266048368
 20
29.57696266048183
 10
12.57696266048368
 20
26.9065321643626
 42
-0.3999694430105536
 10
12.33917684318443
 20
26.65683071514583
 10
4.9935628214006
 20
26.29751893704988
 42
0.3207647976120069
 10
3.770079315614378
 20
25.41339078290818
 10
3.975207882584396
 20
19.46466234077785
 42
0.32664789593135
 10
4.723094651697483
 20
18.51269505108115
 10
13.74999999999998
 20
18.75666546590015
 10
16.24999999999998
 20
18.75666546590015
 10
25.27479269972112
 20
18.51275214969146
 42
0.3351728064567127
 10
26.0248610726552
 20
19.46666204272704
 10
26.22992068438559
 20
25.41339078290817
 42
0.3087352132380176
 10
25.06321921409601
 20
26.29599388896725
 10
17.66085670108986
 20
26.65708474326023
 42
-0.4000084004646301
 10
17.42303733951821
 20
26.90678783104146
 10
17.42303733951821
 20
29.57696266048183
 42
0.4142135623730933
 10
16.25000000000095
 20
30.74999999999909
 10
13.75000000000095
 20
30.74999999999909
 42
0.414213562373092
  0
LWPOLYLINE
  5
28A
330
1F
100
AcDbEntity
  8
ox-tandem-tco
100
AcDbPolyline
 90
       18
 70
     1
 43
0.0
 10
12.57696266048272
 20
4.423037339517236
 10
12.57696266048367
 20
7.093467835636492
 42
0.3999694430105536
 10
12.33917684318442
 20
7.343169284853264
 10
4.993562821400594
 20
7.702481062949211
 42
-0.3207647976120069
 10
3.770079315614373
 20
8.586609217090917
 10
3.975207882584392
 20
14.53533765922124
 42
-0.32664789593135
 10
4.72309465169748
 20
15.48730494891794
 10
13.74999999999998
 20
15.24333453409894
 10
16.24999999999998
 20
15.24333453409894
 10
25.27479269972111
 20
15.48724785030763
 42
-0.3351728064567127
 10
26.0248610726552
 20
14.53333795727205
 10
26.22992068438559
 20
8.586609217090913
 42
-0.3087352132380176
 10
25.063219214096
 20
7.704006111031838
 10
17.66085670108985
 20
7.342915256738856
 42
0.4000084004646301
 10
17.42303733951821
 20
7.093212168957631
 10
17.42303733951725
 20
4.423037339517236
 42
-0.4142135623730924
 10
16.24999999999999
 20
3.249999999999974
 10
13.74999999999999
 20
3.249999999999974
 42
-0.4142135623730929
  0
LWPOLYLINE
  5
28B
330
1F
100
AcDbEntity
  8
ox-tandem-interlayer
100
AcDbPolyline
 90
        4
 70
     1
 43
0.0
 10
4.749999999999986
 20
25.24999999999909
 10
4.749999999999986
 20
19.24999999999909
 10
25.24999999999999
 20
19.24999999999909
 10
25.24999999999999
 20
25.24999999999909
  0
LWPOLYLINE
  5
28C
330
1F
100
AcDbEntity
  8
ox-tandem-interlayer
100
AcDbPolyline
 90
        4
 70
     1
 43
0.0
 10
4.749999999999993
 20
8.749999999999986
 10
4.749999999999989
 20
14.74999999999999
 10
25.24999999999999
 20
14.75
 10
25.24999999999999
 20
8.749999999999996
  0
LINE
  5
28D
330
1F
100
AcDbEntity
  8
ox-tandem-interlayer-big
100
AcDbLine
 10
29.99999999999999
 20
16.99999999999954
 30
0.0
 11
29.99999999999999
 21
16.99999999999954
 31
0.0
  0
LINE
  5
28E
330
1F
100
AcDbEntity
  8
ox-tandem-interlayer-big
100
AcDbLine
 10
29.99999999999999
 20
16.99999999999954
 30
0.0
 11
29.99999999999999
 21
16.99999999999954
 31
0.0
  0
LWPOLYLINE
  5
28F
330
1F
100
AcDbEntity
  8
ox-tandem-interlayer-big
100
AcDbPolyline
 90
        4
 70
     1
 43
0.0
 10
3.000000000000007
 20
27.0999999999991
 10
3.000000000000007
 20
6.89999999999997
 10
26.99999999999998
 20
6.89999999999997
 10
26.99999999999998
 20
27.0999999999991
  0
LWPOLYLINE
  5
290
330
1F
100
AcDbEntity
  8
ox-tandem-interlayer-big
100
AcDbPolyline
 90
        4
 70
     1
 43
0.0
 10
0.0
 20
31.99999999999909
 10
0.0
 20
1.999999999999996
 10
29.99999999999999
 20
1.999999999999996
 10
29.99999999999999
 20
31.99999999999909
  0
LWPOLYLINE
  5
291
102
{ACAD_REACTORS
102
}
330
1F
100
AcDbEntity
  8
ox-tandem-interlayer
100
AcDbPolyline
 90
        4
 70
     1
 43
0.0
 10
0.0
 20
2.0
 10
0.0
 20
31.99999999999999
 10
30.0
 20
31.99999999999999
 10
30.0
 20
2.0
  0
LWPOLYLINE
  5
292
330
1F
100
AcDbEntity
  8
ox-tandem-ring-electrode
  6
ByBlock
100
AcDbPolyline
 90
       30
 70
     1
 43
0.0
 10
17.64867606266151
 20
7.592618344520069
 10
25.05103857566765
 20
7.953709198813055
 42
0.2975333824387571
 10
25.97842054979695
 20
8.625804055888334
 10
25.77494061757718
 20
14.52672209026128
 42
0.3236035916509797
 10
25.24312230110485
 20
15.23630060273257
 10
16.49999999999998
 20
14.99999999999999
 10
16.49999999999998
 20
14.49999999999999
 10
24.99999999999999
 20
14.5
 10
24.99999999999999
 20
8.999999999999996
 10
4.999999999999982
 20
8.99999999999999
 10
4.99999999999998
 20
14.49999999999999
 10
13.49999999999998
 20
14.49999999999999
 10
13.49999999999998
 20
14.99999999999999
 10
4.756877698895133
 20
15.23630060273256
 42
0.3141101597212189
 10
4.225059382422793
 20
14.52672209026128
 10
4.021579450203031
 20
8.625804055888327
 42
0.3108465036876576
 10
4.999999999999984
 20
7.952465095161688
 10
12.35139102588517
 20
7.592870734070019
 42
-0.3999694430105536
 10
12.82696266048369
 20
7.093467835636485
 10
12.82696266048369
 20
4.423037339517241
 42
0.4142135623730948
 10
13.75000000000095
 20
3.499999999999974
 10
14.00000000000095
 20
3.499999999999974
 42
0.4142135623730932
 10
14.50000000000095
 20
3.999999999999974
 10
14.50000000000095
 20
3.999999999999974
 42
-0.9999999999999999
 10
15.50000000000095
 20
3.999999999999974
 10
15.50000000000095
 20
3.999999999999974
 42
0.4142135623730946
 10
16.00000000000095
 20
3.499999999999974
 10
16.25000000000095
 20
3.499999999999974
 42
0.4142135623730931
 10
17.17303733951822
 20
4.42303733951724
 10
17.17303733951821
 20
7.093212168957621
 42
-0.40000840046463
  0
LWPOLYLINE
  5
293
330
1F
100
AcDbEntity
  8
ox-tandem-ring-electrode
  6
ByBlock
100
AcDbPolyline
 90
       24
 70
     1
 43
0.0
 10
17.17303733951821
 20
29.57696266048185
 42
0.4142135623730984
 10
16.25000000000095
 20
30.49999999999911
 10
13.75000000000095
 20
30.49999999999911
 42
0.4142135623730979
 10
12.82696266048368
 20
29.57696266048185
 10
12.82696266048368
 20
26.9065321643626
 42
-0.3999694430105536
 10
12.35139102588517
 20
26.40712926592906
 10
4.999999999999979
 20
26.04753490483739
 42
0.3108465036876576
 10
4.021579450203028
 20
25.37419594411075
 10
4.225059382422792
 20
19.4732779097378
 42
0.3141101597212189
 10
4.756877698895131
 20
18.76369939726652
 10
13.49999999999998
 20
18.99999999999909
 10
13.49999999999998
 20
19.49999999999909
 10
4.999999999999979
 20
19.49999999999909
 10
4.999999999999979
 20
24.99999999999909
 10
24.99999999999999
 20
24.99999999999909
 10
24.99999999999999
 20
19.49999999999909
 10
16.49999999999998
 20
19.49999999999909
 10
16.49999999999998
 20
18.99999999999909
 10
25.24312230110485
 20
18.76369939726652
 42
0.3236035916509798
 10
25.77494061757718
 20
19.4732779097378
 10
25.97842054979694
 20
25.37419594411075
 42
0.2975333824387571
 10
25.05103857566765
 20
26.04629080118603
 10
17.6486760626615
 20
26.40738165547901
 42
-0.4000084004646301
 10
17.17303733951821
 20
26.90678783104146
  0
LWPOLYLINE
  5
294
330
1F
100
AcDbEntity
  8
p-p-tandem-bottom-ring-metal
100
AcDbPolyline
 90
       26
 70
     1
 43
0.0
 10
16.50000000000007
 20
14.75
 10
25.25000000000008
 20
14.74999999999997
 10
25.25000000000005
 20
8.749999999999961
 10
6.990002213437808
 20
8.750000000000039
 10
6.990001837552011
 20
3.999999952092473
 42
-0.4142135343095361
 10
6.490001837552011
 20
3.499999999999972
 10
5.840001380447642
 20
3.499999999999972
 42
-0.4142135623730924
 10
5.340001380447642
 20
3.999999999999975
 10
5.340001380447642
 20
3.999999999999979
 42
0.9999999999999999
 10
4.340001380447642
 20
3.999999999999979
 10
4.340001380447642
 20
3.999999999999986
 42
-0.4142135623730976
 10
3.840001380447642
 20
3.499999999999986
 10
3.190000923343273
 20
3.499999999999989
 42
-0.4142138293593396
 10
2.690000923343487
 20
4.000000455773975
 10
2.690001694581152
 20
5.673037795291233
 42
-0.4142132953868998
 10
3.190001694580946
 20
6.173037339517247
 10
4.250000000000039
 20
6.173037339517247
 42
0.4142135623730948
 10
4.750000000000039
 20
6.67303733951724
 10
4.750000000000082
 20
14.75000000000005
 10
13.50000000000006
 20
14.75000000000001
 10
13.50000000000008
 20
14.25000000000001
 10
5.250000000000075
 20
14.25000000000004
 10
5.250000000000075
 20
9.250000000000032
 10
24.75000000000005
 20
9.249999999999968
 10
24.75000000000008
 20
14.24999999999997
 10
16.50000000000008
 20
14.25
  0
LWPOLYLINE
  5
295
330
1F
100
AcDbEntity
  8
p-p-tandem-bottom-ring-metal
100
AcDbPolyline
 90
       20
 70
     1
 43
0.0
 10
16.49999999999998
 20
19.74999999999909
 10
24.74999999999999
 20
19.74999999999909
 10
24.75
 20
24.74999999999909
 10
5.249999999999982
 20
24.74999999999909
 10
5.249999999999982
 20
19.74999999999909
 10
13.49999999999998
 20
19.74999999999909
 10
13.5
 20
19.24999999999909
 10
4.749999999999982
 20
19.24999999999909
 10
4.749999999999982
 20
25.24999999999909
 10
23.00999778656223
 20
25.24999999999909
 10
23.00999816244801
 20
30.00000004790661
 42
-0.4142135343095346
 10
23.50999816244801
 20
30.49999999999912
 10
26.80999907665674
 20
30.49999999999911
 42
-0.4142138293593438
 10
27.30999907665653
 20
29.99999954422513
 10
27.30999830541887
 20
28.32696220470791
 42
-0.4142132953868998
 10
26.80999830541908
 20
27.82696266048189
 10
25.74999999999999
 20
27.82696266048189
 42
0.4142135623730948
 10
25.24999999999999
 20
27.32696266048189
 10
25.24999999999999
 20
19.24999999999909
 10
16.50000000000001
 20
19.24999999999909
  0
LWPOLYLINE
  5
296
330
1F
100
AcDbEntity
  8
p-p-tandem-bottom-metal
100
AcDbPolyline
 90
       12
 70
     1
 43
0.0
 10
25.24999999999999
 20
19.24999999999909
 10
4.749999999999986
 20
19.24999999999909
 10
4.749999999999986
 20
25.24999999999909
 10
23.00999778656223
 20
25.24999999999909
 10
23.00999816244801
 20
30.00000004790661
 42
-0.4142135343095346
 10
23.50999816244801
 20
30.49999999999912
 10
26.80999907665674
 20
30.49999999999911
 42
-0.4142138293593438
 10
27.30999907665653
 20
29.99999954422513
 10
27.30999830541887
 20
28.32696220470791
 42
-0.4142132953868998
 10
26.80999830541908
 20
27.8269626604819
 10
25.74999999999999
 20
27.8269626604819
 42
0.4142135623730949
 10
25.24999999999999
 20
27.3269626604819
  0
LWPOLYLINE
  5
297
330
1F
100
AcDbEntity
  8
p-p-tandem-bottom-metal
100
AcDbPolyline
 90
       18
 70
     1
 43
0.0
 10
4.750000000000078
 20
14.75000000000005
 10
25.25000000000008
 20
14.74999999999997
 10
25.25000000000005
 20
8.749999999999968
 10
6.990002213437808
 20
8.75000000000004
 10
6.990001837552008
 20
3.999999952092477
 42
-0.4142135343095361
 10
6.490001837552008
 20
3.499999999999974
 10
5.84000138044764
 20
3.499999999999976
 42
-0.4142135623730924
 10
5.340001380447642
 20
3.999999999999978
 10
5.340001380447642
 20
3.999999999999983
 42
0.9999999999999999
 10
4.340001380447642
 20
3.999999999999983
 10
4.340001380447642
 20
3.999999999999988
 42
-0.4142135623730976
 10
3.84000138044764
 20
3.499999999999988
 10
3.190000923343277
 20
3.499999999999992
 42
-0.4142138293593396
 10
2.690000923343487
 20
4.00000045577398
 10
2.690001694581152
 20
5.67303779529124
 42
-0.4142132953868998
 10
3.190001694580946
 20
6.173037339517252
 10
4.250000000000036
 20
6.173037339517247
 42
0.4142135623730948
 10
4.750000000000039
 20
6.673037339517244
  0
LWPOLYLINE
  5
298
330
1F
100
AcDbEntity
  8
mask-support
100
AcDbPolyline
 90
        4
 70
     1
 43
0.0
 10
1.499999999999989
 20
30.4999999999991
 10
1.499999999999989
 20
3.499999999999986
 10
28.5
 20
3.499999999999993
 10
28.5
 20
30.49999999999909
  0
LWPOLYLINE
  5
299
330
1F
100
AcDbEntity
  8
mask-support
100
AcDbPolyline
 90
        4
 70
     1
 43
0.0
 10
0.0
 20
2.0
 10
0.0
 20
31.99999999999999
 10
30.0
 20
31.99999999999999
 10
30.0
 20
2.0
  0
LWPOLYLINE
  5
3B9
102
{ACAD_REACTORS
102
}
330
1F
100
AcDbEntity
  8
ox-tandem-insulation
100
AcDbPolyline
 90
        4
 70
     1
 43
0.0
 10
19.2050000000013
 20
28.99999999999911
 10
19.2050000000013
 20
23.24999999999909
 10
10.79499999999867
 20
23.24999999999909
 10
10.79499999999867
 20
28.99999999999911
  0
LWPOLYLINE
  5
3BA
330
1F
100
AcDbEntity
  8
ox-tandem-insulation
100
AcDbPolyline
 90
        4
 70
     1
 43
0.0
 10
0.0
 20
29.99999999999909
 10
0.0
 20
-0.0000000000000036
 10
29.99999999999999
 20
-0.0000000000000036
 10
29.99999999999999
 20
29.99999999999909
  0
LWPOLYLINE
  5
3BB
102
{ACAD_REACTORS
102
}
330
1F
100
AcDbEntity
  8
ox-tandem-insulation
100
AcDbPolyline
 90
        4
 70
     1
 43
0.0
 10
19.2050000000013
 20
0.9999999999999751
 10
19.2050000000013
 20
6.749999999999996
 10
10.79499999999867
 20
6.749999999999993
 10
10.79499999999868
 20
0.9999999999999716
  0
LWPOLYLINE
  5
3BC
330
1F
100
AcDbEntity
  8
ox-tandem-insulation
100
AcDbPolyline
 90
       22
 70
     1
 43
0.0
 10
25.24999999999999
 20
12.75
 10
25.24999999999999
 20
6.75
 10
20.9550000000013
 20
6.75
 10
20.9550000000013
 20
0.9999999999999751
 10
22.48696266048206
 20
0.9999999999999716
 42
0.414213562373095
 10
22.98696266048206
 20
1.499999999999972
 10
22.98696266048208
 20
3.249999999999993
 42
-0.414213562373095
 10
23.90999999999935
 20
4.173037339517254
 10
28.50000000000002
 20
4.173037339517233
 42
0.414213562373095
 10
29.00000000000002
 20
4.673037339517229
 10
29.00000000000002
 20
25.32696266048186
 42
0.414213562373095
 10
28.50000000000002
 20
25.82696266048185
 10
23.90999999999935
 20
25.82696266048184
 42
-0.414213562373095
 10
22.98696266048208
 20
26.7499999999991
 10
22.98696266048206
 20
28.49999999999912
 42
0.414213562373095
 10
22.48696266048206
 20
28.99999999999912
 10
20.9550000000013
 20
28.99999999999912
 10
20.9550000000013
 20
23.24999999999909
 10
25.24999999999999
 20
23.24999999999909
 10
25.24999999999999
 20
17.24999999999909
 10
15.75
 20
17.24999999999909
 10
15.75
 20
12.75
  0
LWPOLYLINE
  5
3BD
330
1F
100
AcDbEntity
  8
ox-tandem-insulation
100
AcDbPolyline
 90
       22
 70
     1
 43
0.0
 10
4.749999999999986
 20
12.75
 10
4.749999999999986
 20
6.749999999999997
 10
9.044999999998666
 20
6.750000000000002
 10
9.044999999998666
 20
0.9999999999999771
 10
7.263037339517901
 20
0.9999999999999732
 42
-0.414213562373095
 10
6.763037339517901
 20
1.499999999999974
 10
6.763037339517883
 20
3.249999999999995
 42
0.414213562373095
 10
5.840000000000614
 20
4.173037339517257
 10
1.249999999999943
 20
4.173037339517237
 42
-0.414213562373095
 10
0.7499999999999432
 20
4.673037339517234
 10
0.7499999999999503
 20
25.32696266048186
 42
-0.414213562373095
 10
1.249999999999954
 20
25.82696266048186
 10
5.840000000000625
 20
25.82696266048184
 42
0.414213562373095
 10
6.763037339517894
 20
26.7499999999991
 10
6.763037339517908
 20
28.49999999999912
 42
-0.414213562373095
 10
7.263037339517908
 20
28.99999999999912
 10
9.044999999998673
 20
28.99999999999912
 10
9.044999999998673
 20
23.24999999999909
 10
4.749999999999988
 20
23.24999999999909
 10
4.749999999999984
 20
17.24999999999909
 10
13.99999999999997
 20
17.24999999999909
 10
13.99999999999997
 20
12.75
  0
ENDSEC
  0
SECTION
  2
OBJECTS
  0
DICTIONARY
  5
C
330
0
100
AcDbDictionary
281
     1
  3
ACAD_COLOR
350
CD
  3
ACAD_DETAILVIEWSTYLE
350
B5
  3
ACAD_GROUP
350
D
  3
ACAD_IMAGE_VARS
350
6A
  3
ACAD_LAYOUT
350
1A
  3
ACAD_MATERIAL
350
72
  3
ACAD_MLEADERSTYLE
350
3F
  3
ACAD_MLINESTYLE
350
17
  3
ACAD_PLOTSETTINGS
350
19
  3
ACAD_PLOTSTYLENAME
350
E
  3
ACAD_SCALELIST
350
40
  3
ACAD_SECTIONVIEWSTYLE
350
B6
  3
ACAD_TABLESTYLE
350
3B
  3
ACAD_VISUALSTYLE
350
2A
  3
ACDB_RECOMPOSE_DATA
350
3FD
  3
AcDbVariableDictionary
350
3D
  3
APPDATA
350
71
  0
SUN
  5
80
330
29
100
AcDbSun
 90
        1
290
     0
 63
     7
421
 16777215
 40
1.0
291
     1
 91
  2455826
 92
 54000000
292
     0
 70
     2
 71
   256
280
     1
  0
DICTIONARY
  5
DC
330
2
100
AcDbDictionary
280
     1
281
     1
  3
ACAD_LAYERSTATES
360
103
  0
DICTIONARY
  5
CD
102
{ACAD_REACTORS
330
C
102
}
330
C
100
AcDbDictionary
281
     1
  0
DICTIONARY
  5
B5
102
{ACAD_REACTORS
330
C
102
}
330
C
100
AcDbDictionary
281
     1
  0
DICTIONARY
  5
D
102
{ACAD_REACTORS
330
C
102
}
330
C
100
AcDbDictionary
281
     1
  0
RASTERVARIABLES
  5
6A
102
{ACAD_REACTORS
330
C
102
}
330
C
100
AcDbRasterVariables
 90
        0
 70
     1
 71
     1
 72
     1
  0
DICTIONARY
  5
1A
102
{ACAD_REACTORS
330
C
102
}
330
C
100
AcDbDictionary
281
     1
  3
Model
350
22
  3
Sheet1
350
1E
  3
Sheet2
350
26
  0
DICTIONARY
  5
72
102
{ACAD_REACTORS
330
C
102
}
330
C
100
AcDbDictionary
281
     1
  3
ByBlock
350
74
  3
ByLayer
350
73
  3
Global
350
75
  0
DICTIONARY
  5
3F
102
{ACAD_REACTORS
330
C
102
}
330
C
100
AcDbDictionary
281
     1
  3
Annotative
350
BC
  3
Standard
350
B7
  0
DICTIONARY
  5
17
102
{ACAD_REACTORS
330
C
102
}
330
C
100
AcDbDictionary
281
     1
  3
Standard
350
18
  0
DICTIONARY
  5
19
102
{ACAD_REACTORS
330
C
102
}
330
C
100
AcDbDictionary
281
     1
  0
ACDBDICTIONARYWDFLT
  5
E
102
{ACAD_REACTORS
330
C
102
}
330
C
100
AcDbDictionary
281
     1
  3
Normal
350
F
100
AcDbDictionaryWithDefault
340
F
  0
DICTIONARY
  5
40
102
{ACAD_REACTORS
330
C
102
}
330
C
100
AcDbDictionary
281
     1
  3
A0
350
41
  3
A1
350
42
  3
A2
350
43
  3
A3
350
44
  3
A4
350
45
  3
A5
350
46
  3
A6
350
47
  3
A7
350
48
  3
A8
350
49
  3
A9
350
4A
  3
B0
350
4B
  3
B1
350
4C
  3
B2
350
4D
  3
B3
350
4E
  3
B4
350
4F
  3
B5
350
50
  3
B6
350
51
  3
B7
350
52
  3
B8
350
53
  3
B9
350
54
  3
C0
350
55
  3
C1
350
56
  3
C2
350
57
  3
C3
350
58
  3
C4
350
59
  3
C5
350
5A
  3
C6
350
5B
  3
C7
350
5C
  3
C8
350
5D
  3
C9
350
5E
  3
D0
350
5F
  3
D1
350
60
  3
D2
350
61
  0
DICTIONARY
  5
B6
102
{ACAD_REACTORS
330
C
102
}
330
C
100
AcDbDictionary
281
     1
  0
DICTIONARY
  5
3B
102
{ACAD_REACTORS
330
C
102
}
330
C
100
AcDbDictionary
281
     1
  3
Standard
350
3C
  0
DICTIONARY
  5
2A
102
{ACAD_REACTORS
330
C
102
}
330
C
100
AcDbDictionary
281
     1
  3
2dWireframe
350
2F
  3
3D Hidden
350
31
  3
3dWireframe
350
30
  3
Basic
350
32
  3
Brighten
350
36
  3
ColorChange
350
3A
  3
Conceptual
350
34
  3
Dim
350
35
  3
EdgeColorOff
350
7A
  3
Facepattern
350
39
  3
Flat
350
2B
  3
FlatWithEdges
350
2C
  3
Gouraud
350
2D
  3
GouraudWithEdges
350
2E
  3
Hidden
350
77
  3
JitterOff
350
78
  3
Linepattern
350
38
  3
OverhangOff
350
79
  3
Realistic
350
33
  3
Shaded
350
7F
  3
Shaded with edges
350
7E
  3
Shades of Gray
350
7B
  3
Sketchy
350
7C
  3
Thicken
350
37
  3
Wireframe
350
76
  3
X-Ray
350
7D
  0
XRECORD
  5
3FD
102
{ACAD_REACTORS
330
C
102
}
330
C
100
AcDbXrecord
280
     1
 90
        1
330
3C
  0
DICTIONARY
  5
3D
102
{ACAD_REACTORS
330
C
102
}
330
C
100
AcDbDictionary
281
     1
  3
CANNOSCALE
350
62
  3
CMLEADERSTYLE
350
BB
  3
CTABLESTYLE
350
3E
  3
LIGHTSINBLOCKS
350
6F
  3
XCLIPFRAME
350
70
  0
DICTIONARY
  5
71
102
{ACAD_REACTORS
330
C
102
}
330
C
100
AcDbDictionary
281
     1
  0
DICTIONARY
  5
103
102
{ACAD_REACTORS
330
DC
102
}
330
DC
100
AcDbDictionary
281
     1
  0
LAYOUT
  5
22
102
{ACAD_REACTORS
330
1A
102
}
330
1A
100
AcDbPlotSettings
  1

  2
none_device
  4
ISO_A3_(420.00_x_297.00_MM)
  6

 40
7.5
 41
20.0
 42
7.5
 43
20.0
 44
420.0
 45
297.0
 46
20.78282828282826
 47
0.0
 48
0.0
 49
0.0
140
0.0
141
0.0
142
1.0
143
1.155642023346303
 70
  1204
 72
     1
 73
     0
 74
     1
  7
monochrome.ctb
 75
     0
 76
     0
 77
     2
 78
   300
147
0.8653198653198654
148
-134.1869158878504
149
0.0
100
AcDbLayout
  1
Model
 70
     1
 71
     0
 10
0.0
 20
0.0
 11
420.0
 21
297.0
 12
0.0
 22
0.0
 32
0.0
 14
0.0
 24
0.0
 34
0.0
 15
52.58708537147536
 25
33.99999999999909
 35
0.0
146
0.0
 13
0.0
 23
0.0
 33
0.0
 16
1.0
 26
0.0
 36
0.0
 17
0.0
 27
1.0
 37
0.0
 76
     0
330
1F
331
29
  0
LAYOUT
  5
1E
102
{ACAD_REACTORS
330
1A
102
}
330
1A
100
AcDbPlotSettings
  1

  2
none_device
  4

  6

 40
0.0
 41
0.0
 42
0.0
 43
0.0
 44
0.0
 45
0.0
 46
0.0
 47
0.0
 48
0.0
 49
0.0
140
0.0
141
0.0
142
1.0
143
1.0
 70
   688
 72
     0
 73
     0
 74
     5
  7

 75
    16
 76
     0
 77
     2
 78
   300
147
1.0
148
0.0
149
0.0
100
AcDbLayout
  1
Sheet1
 70
     1
 71
     1
 10
0.0
 20
0.0
 11
420.0
 21
297.0
 12
0.0
 22
0.0
 32
0.0
 14
1.000000000000000E+20
 24
1.000000000000000E+20
 34
1.000000000000000E+20
 15
-1.000000000000000E+20
 25
-1.000000000000000E+20
 35
-1.000000000000000E+20
146
0.0
 13
0.0
 23
0.0
 33
0.0
 16
1.0
 26
0.0
 36
0.0
 17
0.0
 27
1.0
 37
0.0
 76
     0
330
1B
  0
LAYOUT
  5
26
102
{ACAD_REACTORS
330
1A
102
}
330
1A
100
AcDbPlotSettings
  1

  2
none_device
  4

  6

 40
0.0
 41
0.0
 42
0.0
 43
0.0
 44
0.0
 45
0.0
 46
0.0
 47
0.0
 48
0.0
 49
0.0
140
0.0
141
0.0
142
1.0
143
1.0
 70
   688
 72
     0
 73
     0
 74
     5
  7

 75
    16
 76
     0
 77
     2
 78
   300
147
1.0
148
0.0
149
0.0
100
AcDbLayout
  1
Sheet2
 70
     1
 71
     2
 10
0.0
 20
0.0
 11
0.0
 21
0.0
 12
0.0
 22
0.0
 32
0.0
 14
0.0
 24
0.0
 34
0.0
 15
0.0
 25
0.0
 35
0.0
146
0.0
 13
0.0
 23
0.0
 33
0.0
 16
1.0
 26
0.0
 36
0.0
 17
0.0
 27
1.0
 37
0.0
 76
     0
330
23
  0
MATERIAL
  5
74
102
{ACAD_REACTORS
330
72
102
}
330
72
100
AcDbMaterial
  1
ByBlock
 72
     1
 94
      127
  0
MATERIAL
  5
73
102
{ACAD_REACTORS
330
72
102
}
330
72
100
AcDbMaterial
  1
ByLayer
 72
     1
 94
      127
  0
MATERIAL
  5
75
102
{ACAD_REACTORS
330
72
102
}
330
72
100
AcDbMaterial
  1
Global
 72
     1
 94
      127
  0
MLEADERSTYLE
  5
BC
102
{ACAD_REACTORS
330
3F
102
}
330
3F
100
AcDbMLeaderStyle
179
     2
170
     2
171
     1
172
     0
 90
        2
 40
0.0
 41
0.0
173
     1
 91
-1056964608
340
14
 92
       -2
290
     1
 42
2.0
291
     1
 43
8.0
  3
Annotative
341
0
 44
4.0
300

342
11
174
     1
178
     1
175
     1
176
     0
 93
-1056964608
 45
4.0
292
     0
297
     0
 46
4.0
343
0
 94
-1056964608
 47
1.0
 49
1.0
140
1.0
293
     1
141
0.0
294
     1
177
     0
142
1.0
295
     0
296
     1
143
3.75
271
     0
272
     9
273
     9
298
     0
  0
MLEADERSTYLE
  5
B7
102
{ACAD_REACTORS
330
3F
102
}
330
3F
100
AcDbMLeaderStyle
179
     2
170
     2
171
     1
172
     0
 90
        2
 40
0.0
 41
0.0
173
     1
 91
-1056964608
340
14
 92
       -2
290
     1
 42
2.0
291
     1
 43
8.0
  3
Standard
341
0
 44
4.0
300

342
11
174
     1
178
     6
175
     1
176
     0
 93
-1056964608
 45
4.0
292
     0
297
     0
 46
4.0
343
0
 94
-1056964608
 47
1.0
 49
1.0
140
1.0
293
     1
141
0.0
294
     1
177
     0
142
1.0
295
     0
296
     0
143
3.75
271
     0
272
     9
273
     9
298
     0
  0
MLINESTYLE
  5
18
102
{ACAD_REACTORS
330
17
102
}
330
17
100
AcDbMlineStyle
  2
Standard
 70
     0
  3

 62
   256
 51
90.0
 52
90.0
 71
     2
 49
0.5
 62
   256
  6
BYLAYER
 49
-0.5
 62
   256
  6
BYLAYER
  0
ACDBPLACEHOLDER
  5
F
102
{ACAD_REACTORS
330
E
102
}
330
E
  0
SCALE
  5
41
102
{ACAD_REACTORS
330
40
102
}
330
40
100
AcDbScale
 70
     0
300
1:1
140
1.0
141
1.0
290
     1
  0
SCALE
  5
42
102
{ACAD_REACTORS
330
40
102
}
330
40
100
AcDbScale
 70
     0
300
1:2
140
1.0
141
2.0
290
     0
  0
SCALE
  5
43
102
{ACAD_REACTORS
330
40
102
}
330
40
100
AcDbScale
 70
     0
300
1:4
140
1.0
141
4.0
290
     0
  0
SCALE
  5
44
102
{ACAD_REACTORS
330
40
102
}
330
40
100
AcDbScale
 70
     0
300
1:5
140
1.0
141
5.0
290
     0
  0
SCALE
  5
45
102
{ACAD_REACTORS
330
40
102
}
330
40
100
AcDbScale
 70
     0
300
1:8
140
1.0
141
8.0
290
     0
  0
SCALE
  5
46
102
{ACAD_REACTORS
330
40
102
}
330
40
100
AcDbScale
 70
     0
300
1:10
140
1.0
141
10.0
290
     0
  0
SCALE
  5
47
102
{ACAD_REACTORS
330
40
102
}
330
40
100
AcDbScale
 70
     0
300
1:16
140
1.0
141
16.0
290
     0
  0
SCALE
  5
48
102
{ACAD_REACTORS
330
40
102
}
330
40
100
AcDbScale
 70
     0
300
1:20
140
1.0
141
20.0
290
     0
  0
SCALE
  5
49
102
{ACAD_REACTORS
330
40
102
}
330
40
100
AcDbScale
 70
     0
300
1:30
140
1.0
141
30.0
290
     0
  0
SCALE
  5
4A
102
{ACAD_REACTORS
330
40
102
}
330
40
100
AcDbScale
 70
     0
300
1:40
140
1.0
141
40.0
290
     0
  0
SCALE
  5
4B
102
{ACAD_REACTORS
330
40
102
}
330
40
100
AcDbScale
 70
     0
300
1:50
140
1.0
141
50.0
290
     0
  0
SCALE
  5
4C
102
{ACAD_REACTORS
330
40
102
}
330
40
100
AcDbScale
 70
     0
300
1:100
140
1.0
141
100.0
290
     0
  0
SCALE
  5
4D
102
{ACAD_REACTORS
330
40
102
}
330
40
100
AcDbScale
 70
     0
300
2:1
140
2.0
141
1.0
290
     0
  0
SCALE
  5
4E
102
{ACAD_REACTORS
330
40
102
}
330
40
100
AcDbScale
 70
     0
300
4:1
140
4.0
141
1.0
290
     0
  0
SCALE
  5
4F
102
{ACAD_REACTORS
330
40
102
}
330
40
100
AcDbScale
 70
     0
300
8:1
140
8.0
141
1.0
290
     0
  0
SCALE
  5
50
102
{ACAD_REACTORS
330
40
102
}
330
40
100
AcDbScale
 70
     0
300
10:1
140
10.0
141
1.0
290
     0
  0
SCALE
  5
51
102
{ACAD_REACTORS
330
40
102
}
330
40
100
AcDbScale
 70
     0
300
100:1
140
100.0
141
1.0
290
     0
  0
SCALE
  5
52
102
{ACAD_REACTORS
330
40
102
}
330
40
100
AcDbScale
 70
     0
300
1/128" = 1'-0"
140
0.0078125
141
12.0
290
     0
  0
SCALE
  5
53
102
{ACAD_REACTORS
330
40
102
}
330
40
100
AcDbScale
 70
     0
300
1/64" = 1'-0"
140
0.015625
141
12.0
290
     0
  0
SCALE
  5
54
102
{ACAD_REACTORS
330
40
102
}
330
40
100
AcDbScale
 70
     0
300
1/32" = 1'-0"
140
0.03125
141
12.0
290
     0
  0
SCALE
  5
55
102
{ACAD_REACTORS
330
40
102
}
330
40
100
AcDbScale
 70
     0
300
1/16" = 1'-0"
140
0.0625
141
12.0
290
     0
  0
SCALE
  5
56
102
{ACAD_REACTORS
330
40
102
}
330
40
100
AcDbScale
 70
     0
300
3/32" = 1'-0"
140
0.09375
141
12.0
290
     0
  0
SCALE
  5
57
102
{ACAD_REACTORS
330
40
102
}
330
40
100
AcDbScale
 70
     0
300
1/8" = 1'-0"
140
0.125
141
12.0
290
     0
  0
SCALE
  5
58
102
{ACAD_REACTORS
330
40
102
}
330
40
100
AcDbScale
 70
     0
300
3/16" = 1'-0"
140
0.1875
141
12.0
290
     0
  0
SCALE
  5
59
102
{ACAD_REACTORS
330
40
102
}
330
40
100
AcDbScale
 70
     0
300
1/4" = 1'-0"
140
0.25
141
12.0
290
     0
  0
SCALE
  5
5A
102
{ACAD_REACTORS
330
40
102
}
330
40
100
AcDbScale
 70
     0
300
3/8" = 1'-0"
140
0.375
141
12.0
290
     0
  0
SCALE
  5
5B
102
{ACAD_REACTORS
330
40
102
}
330
40
100
AcDbScale
 70
     0
300
1/2" = 1'-0"
140
0.5
141
12.0
290
     0
  0
SCALE
  5
5C
102
{ACAD_REACTORS
330
40
102
}
330
40
100
AcDbScale
 70
     0
300
3/4" = 1'-0"
140
0.75
141
12.0
290
     0
  0
SCALE
  5
5D
102
{ACAD_REACTORS
330
40
102
}
330
40
100
AcDbScale
 70
     0
300
1" = 1'-0"
140
1.0
141
12.0
290
     0
  0
SCALE
  5
5E
102
{ACAD_REACTORS
330
40
102
}
330
40
100
AcDbScale
 70
     0
300
1-1/2" = 1'-0"
140
1.5
141
12.0
290
     0
  0
SCALE
  5
5F
102
{ACAD_REACTORS
330
40
102
}
330
40
100
AcDbScale
 70
     0
300
3" = 1'-0"
140
3.0
141
12.0
290
     0
  0
SCALE
  5
60
102
{ACAD_REACTORS
330
40
102
}
330
40
100
AcDbScale
 70
     0
300
6" = 1'-0"
140
6.0
141
12.0
290
     0
  0
SCALE
  5
61
102
{ACAD_REACTORS
330
40
102
}
330
40
100
AcDbScale
 70
     0
300
1'-0" = 1'-0"
140
12.0
141
12.0
290
     0
  0
TABLESTYLE
  5
3C
102
{ACAD_REACTORS
330
3B
102
}
102
{ACAD_XDICTIONARY
360
3FB
102
}
330
3B
100
AcDbTableStyle
  3
Standard
 70
     0
 71
     0
 40
1.5
 41
1.5
280
     0
281
     0
  7
Standard
140
4.5
170
     2
 62
     0
 63
   257
283
     0
 90
      512
 91
        0
  1

274
    -2
284
     1
 64
     0
275
    -2
285
     1
 65
     0
276
    -2
286
     1
 66
     0
277
    -2
287
     1
 67
     0
278
    -2
288
     1
 68
     0
279
    -2
289
     1
 69
     0
  7
Standard
140
6.0
170
     5
 62
     0
 63
   257
283
     0
 90
      512
 91
        0
  1

274
    -2
284
     1
 64
     0
275
    -2
285
     1
 65
     0
276
    -2
286
     1
 66
     0
277
    -2
287
     1
 67
     0
278
    -2
288
     1
 68
     0
279
    -2
289
     1
 69
     0
  7
Standard
140
4.5
170
     5
 62
     0
 63
   257
283
     0
 90
      512
 91
        0
  1

274
    -2
284
     1
 64
     0
275
    -2
285
     1
 65
     0
276
    -2
286
     1
 66
     0
277
    -2
287
     1
 67
     0
278
    -2
288
     1
 68
     0
279
    -2
289
     1
 69
     0
  0
VISUALSTYLE
  5
2F
102
{ACAD_REACTORS
330
2A
102
}
330
2A
100
AcDbVisualStyle
  2
2dWireframe
 70
     4
177
     3
291
     0
 70
    58
 90
        0
176
     1
 90
        2
176
     1
 90
        0
176
     1
 90
        0
176
     1
 40
-0.6
176
     1
 40
-30.0
176
     1
 62
     7
420
 16777215
176
     1
 90
        1
176
     1
 90
        4
176
     1
 62
     7
176
     1
 62
   257
176
     1
 90
        1
176
     1
 90
        1
176
     1
 40
1.0
176
     1
 90
        0
176
     1
 62
   257
176
     1
 40
1.0
176
     1
 90
        1
176
     1
 90
        6
176
     1
 90
        2
176
     1
 62
     7
176
     1
 90
        5
176
     1
 90
        0
176
     1
 90
        0
176
     1
290
     0
176
     1
 90
        1
176
     1
 40
0.0
176
     1
 90
        0
176
     1
290
     1
176
     1
290
     1
176
     1
290
     0
176
     1
290
     0
176
     1
290
     0
176
     1
290
     0
176
     1
290
     0
176
     1
290
     0
176
     1
290
     0
176
     1
 90
       50
176
     1
 40
0.0
176
     1
 40
1.0
176
     1
 90
        0
176
     1
 62
   178
420
        0
176
     1
 90
       50
176
     1
 90
        3
176
     1
 62
     5
420
      255
176
     1
290
     0
176
     1
 90
       50
176
     1
 90
       50
176
     1
 90
       50
176
     1
290
     0
176
     1
 90
       50
176
     1
 62
   256
176
     0
 40
1.0
176
     0
 90
        2
176
     1
  1
strokes_ogs.tif
176
     1
290
     0
176
     1
 40
1.0
176
     1
 40
1.0
176
     1
  0
VISUALSTYLE
  5
31
102
{ACAD_REACTORS
330
2A
102
}
330
2A
100
AcDbVisualStyle
  2
3D Hidden
 70
     6
177
     3
291
     0
 70
    58
 90
        1
176
     1
 90
        2
176
     1
 90
        2
176
     1
 90
        0
176
     1
 40
-0.6
176
     1
 40
-30.0
176
     1
 62
     7
420
 16777215
176
     1
 90
        2
176
     1
 90
        2
176
     1
 62
     7
176
     1
 62
   257
176
     1
 90
        2
176
     1
 90
        1
176
     1
 40
40.0
176
     1
 90
        0
176
     1
 62
   257
176
     1
 40
1.0
176
     1
 90
        1
176
     1
 90
        6
176
     1
 90
        2
176
     1
 62
     7
176
     1
 90
        3
176
     1
 90
        0
176
     1
 90
        0
176
     1
290
     0
176
     1
 90
        1
176
     1
 40
0.0
176
     1
 90
        0
176
     1
290
     0
176
     1
290
     1
176
     1
290
     1
176
     1
290
     0
176
     1
290
     0
176
     1
290
     0
176
     1
290
     0
176
     1
290
     0
176
     1
290
     0
176
     1
 90
       50
176
     1
 40
0.0
176
     1
 40
1.0
176
     1
 90
        0
176
     1
 62
   178
420
        0
176
     1
 90
       50
176
     1
 90
        3
176
     1
 62
     5
420
      255
176
     1
290
     0
176
     1
 90
       50
176
     1
 90
       50
176
     1
 90
       50
176
     1
290
     0
176
     1
 90
       50
176
     1
 62
   256
176
     0
 40
1.0
176
     0
 90
        2
176
     1
  1
strokes_ogs.tif
176
     1
290
     0
176
     1
 40
1.0
176
     1
 40
1.0
176
     1
  0
VISUALSTYLE
  5
30
102
{ACAD_REACTORS
330
2A
102
}
330
2A
100
AcDbVisualStyle
  2
3dWireframe
 70
     5
177
     3
291
     0
 70
    58
 90
        0
176
     1
 90
        2
176
     1
 90
        0
176
     1
 90
        0
176
     1
 40
-0.6
176
     1
 40
-30.0
176
     1
 62
     7
420
 16777215
176
     1
 90
        1
176
     1
 90
        4
176
     1
 62
     7
176
     1
 62
   257
176
     1
 90
        1
176
     1
 90
        1
176
     1
 40
1.0
176
     1
 90
        0
176
     1
 62
   257
176
     1
 40
1.0
176
     1
 90
        1
176
     1
 90
        6
176
     1
 90
        2
176
     1
 62
     7
176
     1
 90
        5
176
     1
 90
        0
176
     1
 90
        0
176
     1
290
     0
176
     1
 90
        1
176
     1
 40
0.0
176
     1
 90
        0
176
     1
290
     0
176
     1
290
     1
176
     1
290
     1
176
     1
290
     0
176
     1
290
     0
176
     1
290
     0
176
     1
290
     0
176
     1
290
     0
176
     1
290
     0
176
     1
 90
       50
176
     1
 40
0.0
176
     1
 40
1.0
176
     1
 90
        0
176
     1
 62
   178
420
        0
176
     1
 90
       50
176
     1
 90
        3
176
     1
 62
     5
420
      255
176
     1
290
     0
176
     1
 90
       50
176
     1
 90
       50
176
     1
 90
       50
176
     1
290
     0
176
     1
 90
       50
176
     1
 62
   256
176
     0
 40
1.0
176
     0
 90
        2
176
     1
  1
strokes_ogs.tif
176
     1
290
     0
176
     1
 40
1.0
176
     1
 40
1.0
176
     1
  0
VISUALSTYLE
  5
32
102
{ACAD_REACTORS
330
2A
102
}
330
2A
100
AcDbVisualStyle
  2
Basic
 70
     7
177
     3
291
     1
 70
    58
 90
        1
176
     1
 90
        0
176
     1
 90
        1
176
     1
 90
        0
176
     1
 40
-0.6
176
     1
 40
-30.0
176
     1
 62
     7
420
 16777215
176
     1
 90
        0
176
     1
 90
        4
176
     1
 62
     7
176
     1
 62
   257
176
     1
 90
        1
176
     1
 90
        1
176
     1
 40
1.0
176
     1
 90
        8
176
     1
 62
     7
176
     1
 40
1.0
176
     1
 90
        1
176
     1
 90
        6
176
     1
 90
        2
176
     1
 62
     7
176
     1
 90
        5
176
     1
 90
        0
176
     1
 90
        0
176
     1
290
     0
176
     1
 90
        1
176
     1
 40
0.0
176
     1
 90
        0
176
     1
290
     0
176
     1
290
     1
176
     1
290
     1
176
     1
290
     0
176
     1
290
     0
176
     1
290
     0
176
     1
290
     0
176
     1
290
     0
176
     1
290
     0
176
     1
 90
       50
176
     1
 40
0.0
176
     1
 40
1.0
176
     1
 90
        0
176
     1
 62
   178
420
        0
176
     1
 90
       50
176
     1
 90
        3
176
     1
 62
     5
420
      255
176
     1
290
     0
176
     1
 90
       50
176
     1
 90
       50
176
     1
 90
       50
176
     1
290
     0
176
     1
 90
       50
176
     1
 62
   256
176
     0
 40
1.0
176
     0
 90
        2
176
     1
  1
strokes_ogs.tif
176
     1
290
     0
176
     1
 40
1.0
176
     1
 40
1.0
176
     1
  0
VISUALSTYLE
  5
36
102
{ACAD_REACTORS
330
2A
102
}
330
2A
100
AcDbVisualStyle
  2
Brighten
 70
    12
177
     3
291
     1
 70
    58
 90
        2
176
     1
 90
        2
176
     1
 90
        0
176
     1
 90
        0
176
     1
 40
-0.6
176
     1
 40
-30.0
176
     1
 62
     7
420
 16777215
176
     1
 90
        1
176
     1
 90
        4
176
     1
 62
     7
176
     1
 62
   257
176
     1
 90
        1
176
     1
 90
        1
176
     1
 40
1.0
176
     1
 90
        8
176
     1
 62
     7
176
     1
 40
1.0
176
     1
 90
        1
176
     1
 90
        6
176
     1
 90
        2
176
     1
 62
     7
176
     1
 90
        5
176
     1
 90
        0
176
     1
 90
        0
176
     1
290
     0
176
     1
 90
        1
176
     1
 40
50.0
176
     1
 90
        0
176
     1
290
     0
176
     1
290
     1
176
     1
290
     1
176
     1
290
     0
176
     1
290
     0
176
     1
290
     0
176
     1
290
     0
176
     1
290
     0
176
     1
290
     0
176
     1
 90
       50
176
     1
 40
0.0
176
     1
 40
1.0
176
     1
 90
        0
176
     1
 62
   178
420
        0
176
     1
 90
       50
176
     1
 90
        3
176
     1
 62
     5
420
      255
176
     1
290
     0
176
     1
 90
       50
176
     1
 90
       50
176
     1
 90
       50
176
     1
290
     0
176
     1
 90
       50
176
     1
 62
   256
176
     0
 40
1.0
176
     0
 90
        2
176
     1
  1
strokes_ogs.tif
176
     1
290
     0
176
     1
 40
1.0
176
     1
 40
1.0
176
     1
  0
VISUALSTYLE
  5
3A
102
{ACAD_REACTORS
330
2A
102
}
330
2A
100
AcDbVisualStyle
  2
ColorChange
 70
    16
177
     3
291
     1
 70
    58
 90
        2
176
     1
 90
        2
176
     1
 90
        3
176
     1
 90
        0
176
     1
 40
-0.6
176
     1
 40
-30.0
176
     1
 62
     8
420
  8421504
176
     1
 90
        1
176
     1
 90
        4
176
     1
 62
     7
176
     1
 62
   257
176
     1
 90
        1
176
     1
 90
        1
176
     1
 40
1.0
176
     1
 90
        8
176
     1
 62
     8
420
  8421504
176
     1
 40
1.0
176
     1
 90
        1
176
     1
 90
        6
176
     1
 90
        2
176
     1
 62
     7
176
     1
 90
        5
176
     1
 90
        0
176
     1
 90
        0
176
     1
290
     0
176
     1
 90
        1
176
     1
 40
0.0
176
     1
 90
        0
176
     1
290
     0
176
     1
290
     1
176
     1
290
     1
176
     1
290
     0
176
     1
290
     0
176
     1
290
     0
176
     1
290
     0
176
     1
290
     0
176
     1
290
     0
176
     1
 90
       50
176
     1
 40
0.0
176
     1
 40
1.0
176
     1
 90
        0
176
     1
 62
   178
420
        0
176
     1
 90
       50
176
     1
 90
        3
176
     1
 62
     5
420
      255
176
     1
290
     0
176
     1
 90
       50
176
     1
 90
       50
176
     1
 90
       50
176
     1
290
     0
176
     1
 90
       50
176
     1
 62
   256
176
     0
 40
1.0
176
     0
 90
        2
176
     1
  1
strokes_ogs.tif
176
     1
290
     0
176
     1
 40
1.0
176
     1
 40
1.0
176
     1
  0
VISUALSTYLE
  5
34
102
{ACAD_REACTORS
330
2A
102
}
330
2A
100
AcDbVisualStyle
  2
Conceptual
 70
     9
177
     3
291
     0
 70
    58
 90
        3
176
     1
 90
        2
176
     1
 90
        0
176
     1
 90
        0
176
     1
 40
-0.6
176
     1
 40
-30.0
176
     1
 62
     7
420
 16777215
176
     1
 90
        2
176
     1
 90
        2
176
     1
 62
     7
176
     1
 62
   257
176
     1
 90
        1
176
     1
 90
        1
176
     1
 40
40.0
176
     1
 90
        8
176
     1
 62
     7
176
     1
 40
1.0
176
     1
 90
        1
176
     1
 90
        6
176
     1
 90
        2
176
     1
 62
     7
176
     1
 90
        3
176
     1
 90
        0
176
     1
 90
        0
176
     1
290
     0
176
     1
 90
        1
176
     1
 40
0.0
176
     1
 90
        0
176
     1
290
     0
176
     1
290
     1
176
     1
290
     1
176
     1
290
     0
176
     1
290
     0
176
     1
290
     0
176
     1
290
     0
176
     1
290
     0
176
     1
290
     0
176
     1
 90
       50
176
     1
 40
0.0
176
     1
 40
1.0
176
     1
 90
        0
176
     1
 62
   178
420
        0
176
     1
 90
       50
176
     1
 90
        3
176
     1
 62
     5
420
      255
176
     1
290
     0
176
     1
 90
       50
176
     1
 90
       50
176
     1
 90
       50
176
     1
290
     0
176
     1
 90
       50
176
     1
 62
   256
176
     0
 40
1.0
176
     0
 90
        2
176
     1
  1
strokes_ogs.tif
176
     1
290
     0
176
     1
 40
1.0
176
     1
 40
1.0
176
     1
  0
VISUALSTYLE
  5
35
102
{ACAD_REACTORS
330
2A
102
}
330
2A
100
AcDbVisualStyle
  2
Dim
 70
    11
177
     3
291
     1
 70
    58
 90
        2
176
     1
 90
        2
176
     1
 90
        0
176
     1
 90
        0
176
     1
 40
-0.6
176
     1
 40
-30.0
176
     1
 62
     7
420
 16777215
176
     1
 90
        1
176
     1
 90
        4
176
     1
 62
     7
176
     1
 62
   257
176
     1
 90
        1
176
     1
 90
        1
176
     1
 40
1.0
176
     1
 90
        8
176
     1
 62
     7
176
     1
 40
1.0
176
     1
 90
        1
176
     1
 90
        6
176
     1
 90
        2
176
     1
 62
     7
176
     1
 90
        5
176
     1
 90
        0
176
     1
 90
        0
176
     1
290
     0
176
     1
 90
        1
176
     1
 40
-50.0
176
     1
 90
        0
176
     1
290
     0
176
     1
290
     1
176
     1
290
     1
176
     1
290
     0
176
     1
290
     0
176
     1
290
     0
176
     1
290
     0
176
     1
290
     0
176
     1
290
     0
176
     1
 90
       50
176
     1
 40
0.0
176
     1
 40
1.0
176
     1
 90
        0
176
     1
 62
   178
420
        0
176
     1
 90
       50
176
     1
 90
        3
176
     1
 62
     5
420
      255
176
     1
290
     0
176
     1
 90
       50
176
     1
 90
       50
176
     1
 90
       50
176
     1
290
     0
176
     1
 90
       50
176
     1
 62
   256
176
     0
 40
1.0
176
     0
 90
        2
176
     1
  1
strokes_ogs.tif
176
     1
290
     0
176
     1
 40
1.0
176
     1
 40
1.0
176
     1
  0
VISUALSTYLE
  5
7A
102
{ACAD_REACTORS
330
2A
102
}
330
2A
100
AcDbVisualStyle
  2
EdgeColorOff
 70
    22
177
     3
291
     1
 70
    58
 90
        2
176
     0
 90
        2
176
     0
 90
        0
176
     0
 90
        0
176
     0
 40
0.6
176
     0
 40
30.0
176
     0
 62
     7
420
 16777215
176
     0
 90
        1
176
     0
 90
        4
176
     0
 62
     7
176
     0
 62
   257
176
     0
 90
        1
176
     0
 90
        1
176
     0
 40
1.0
176
     0
 90
        8
176
     2
 62
     7
176
     0
 40
1.0
176
     0
 90
        1
176
     0
 90
        6
176
     0
 90
        2
176
     0
 62
     7
176
     0
 90
        5
176
     0
 90
        0
176
     0
 90
        0
176
     0
290
     0
176
     0
 90
        1
176
     0
 40
0.0
176
     0
 90
        0
176
     0
290
     0
176
     0
290
     1
176
     0
290
     1
176
     0
290
     0
176
     0
290
     0
176
     0
290
     0
176
     0
290
     0
176
     0
290
     0
176
     0
290
     0
176
     0
 90
       50
176
     0
 40
0.0
176
     0
 40
1.0
176
     0
 90
        0
176
     0
 62
   178
420
        0
176
     0
 90
       50
176
     0
 90
        3
176
     0
 62
     5
420
      255
176
     0
290
     0
176
     0
 90
       50
176
     0
 90
       50
176
     0
 90
       50
176
     0
290
     0
176
     0
 90
       50
176
     0
 62
   256
176
     0
 40
1.0
176
     0
 90
        2
176
     0
  1
strokes_ogs.tif
176
     0
290
     0
176
     0
 40
1.0
176
     0
 40
1.0
176
     0
  0
VISUALSTYLE
  5
39
102
{ACAD_REACTORS
330
2A
102
}
330
2A
100
AcDbVisualStyle
  2
Facepattern
 70
    15
177
     3
291
     1
 70
    58
 90
        2
176
     1
 90
        2
176
     1
 90
        0
176
     1
 90
        0
176
     1
 40
-0.6
176
     1
 40
-30.0
176
     1
 62
     7
420
 16777215
176
     1
 90
        1
176
     1
 90
        4
176
     1
 62
     7
176
     1
 62
   257
176
     1
 90
        1
176
     1
 90
        1
176
     1
 40
1.0
176
     1
 90
        8
176
     1
 62
     7
176
     1
 40
1.0
176
     1
 90
        1
176
     1
 90
        6
176
     1
 90
        2
176
     1
 62
     7
176
     1
 90
        5
176
     1
 90
        0
176
     1
 90
        0
176
     1
290
     0
176
     1
 90
        1
176
     1
 40
0.0
176
     1
 90
        0
176
     1
290
     0
176
     1
290
     1
176
     1
290
     1
176
     1
290
     0
176
     1
290
     0
176
     1
290
     0
176
     1
290
     0
176
     1
290
     0
176
     1
290
     0
176
     1
 90
       50
176
     1
 40
0.0
176
     1
 40
1.0
176
     1
 90
        0
176
     1
 62
   178
420
        0
176
     1
 90
       50
176
     1
 90
        3
176
     1
 62
     5
420
      255
176
     1
290
     0
176
     1
 90
       50
176
     1
 90
       50
176
     1
 90
       50
176
     1
290
     0
176
     1
 90
       50
176
     1
 62
   256
176
     0
 40
1.0
176
     0
 90
        2
176
     1
  1
strokes_ogs.tif
176
     1
290
     0
176
     1
 40
1.0
176
     1
 40
1.0
176
     1
  0
VISUALSTYLE
  5
2B
102
{ACAD_REACTORS
330
2A
102
}
330
2A
100
AcDbVisualStyle
  2
Flat
 70
     0
177
     3
291
     1
 70
    58
 90
        2
176
     1
 90
        1
176
     1
 90
        1
176
     1
 90
        2
176
     1
 40
-0.6
176
     1
 40
30.0
176
     1
 62
     7
420
 16777215
176
     1
 90
        0
176
     1
 90
        4
176
     1
 62
     7
176
     1
 62
   257
176
     1
 90
        1
176
     1
 90
        1
176
     1
 40
1.0
176
     1
 90
        8
176
     1
 62
     7
176
     1
 40
1.0
176
     1
 90
        1
176
     1
 90
        6
176
     1
 90
        2
176
     1
 62
     7
176
     1
 90
        5
176
     1
 90
        0
176
     1
 90
        0
176
     1
290
     0
176
     1
 90
       13
176
     1
 40
0.0
176
     1
 90
        0
176
     1
290
     0
176
     1
290
     1
176
     1
290
     1
176
     1
290
     0
176
     1
290
     0
176
     1
290
     0
176
     1
290
     0
176
     1
290
     0
176
     1
290
     0
176
     1
 90
       50
176
     1
 40
0.0
176
     1
 40
1.0
176
     1
 90
        0
176
     1
 62
   178
420
        0
176
     1
 90
       50
176
     1
 90
        3
176
     1
 62
     5
420
      255
176
     1
290
     0
176
     1
 90
       50
176
     1
 90
       50
176
     1
 90
       50
176
     1
290
     0
176
     1
 90
       50
176
     1
 62
   256
176
     0
 40
1.0
176
     0
 90
        2
176
     1
  1
strokes_ogs.tif
176
     1
290
     0
176
     1
 40
1.0
176
     1
 40
1.0
176
     1
  0
VISUALSTYLE
  5
2C
102
{ACAD_REACTORS
330
2A
102
}
330
2A
100
AcDbVisualStyle
  2
FlatWithEdges
 70
     1
177
     3
291
     1
 70
    58
 90
        2
176
     1
 90
        1
176
     1
 90
        1
176
     1
 90
        2
176
     1
 40
-0.6
176
     1
 40
30.0
176
     1
 62
     7
420
 16777215
176
     1
 90
        1
176
     1
 90
        4
176
     1
 62
     7
176
     1
 62
   257
176
     1
 90
        1
176
     1
 90
        1
176
     1
 40
1.0
176
     1
 90
        0
176
     1
 62
   257
176
     1
 40
1.0
176
     1
 90
        1
176
     1
 90
        6
176
     1
 90
        2
176
     1
 62
     7
176
     1
 90
        5
176
     1
 90
        0
176
     1
 90
        0
176
     1
290
     0
176
     1
 90
       13
176
     1
 40
0.0
176
     1
 90
        0
176
     1
290
     0
176
     1
290
     1
176
     1
290
     1
176
     1
290
     0
176
     1
290
     0
176
     1
290
     0
176
     1
290
     0
176
     1
290
     0
176
     1
290
     0
176
     1
 90
       50
176
     1
 40
0.0
176
     1
 40
1.0
176
     1
 90
        0
176
     1
 62
   178
420
        0
176
     1
 90
       50
176
     1
 90
        3
176
     1
 62
     5
420
      255
176
     1
290
     0
176
     1
 90
       50
176
     1
 90
       50
176
     1
 90
       50
176
     1
290
     0
176
     1
 90
       50
176
     1
 62
   256
176
     0
 40
1.0
176
     0
 90
        2
176
     1
  1
strokes_ogs.tif
176
     1
290
     0
176
     1
 40
1.0
176
     1
 40
1.0
176
     1
  0
VISUALSTYLE
  5
2D
102
{ACAD_REACTORS
330
2A
102
}
330
2A
100
AcDbVisualStyle
  2
Gouraud
 70
     2
177
     3
291
     1
 70
    58
 90
        2
176
     1
 90
        2
176
     1
 90
        1
176
     1
 90
        2
176
     1
 40
-0.6
176
     1
 40
30.0
176
     1
 62
     7
420
 16777215
176
     1
 90
        0
176
     1
 90
        4
176
     1
 62
     7
176
     1
 62
   257
176
     1
 90
        1
176
     1
 90
        1
176
     1
 40
1.0
176
     1
 90
        0
176
     1
 62
     7
176
     1
 40
1.0
176
     1
 90
        1
176
     1
 90
        6
176
     1
 90
        2
176
     1
 62
     7
176
     1
 90
        5
176
     1
 90
        0
176
     1
 90
        0
176
     1
290
     0
176
     1
 90
       13
176
     1
 40
0.0
176
     1
 90
        0
176
     1
290
     0
176
     1
290
     1
176
     1
290
     1
176
     1
290
     0
176
     1
290
     0
176
     1
290
     0
176
     1
290
     0
176
     1
290
     0
176
     1
290
     0
176
     1
 90
       50
176
     1
 40
0.0
176
     1
 40
1.0
176
     1
 90
        0
176
     1
 62
   178
420
        0
176
     1
 90
       50
176
     1
 90
        3
176
     1
 62
     5
420
      255
176
     1
290
     0
176
     1
 90
       50
176
     1
 90
       50
176
     1
 90
       50
176
     1
290
     0
176
     1
 90
       50
176
     1
 62
   256
176
     0
 40
1.0
176
     0
 90
        2
176
     1
  1
strokes_ogs.tif
176
     1
290
     0
176
     1
 40
1.0
176
     1
 40
1.0
176
     1
  0
VISUALSTYLE
  5
2E
102
{ACAD_REACTORS
330
2A
102
}
330
2A
100
AcDbVisualStyle
  2
GouraudWithEdges
 70
     3
177
     3
291
     1
 70
    58
 90
        2
176
     1
 90
        2
176
     1
 90
        1
176
     1
 90
        2
176
     1
 40
-0.6
176
     1
 40
30.0
176
     1
 62
     7
420
 16777215
176
     1
 90
        1
176
     1
 90
        4
176
     1
 62
     7
176
     1
 62
   257
176
     1
 90
        1
176
     1
 90
        1
176
     1
 40
1.0
176
     1
 90
        0
176
     1
 62
   257
176
     1
 40
1.0
176
     1
 90
        1
176
     1
 90
        6
176
     1
 90
        2
176
     1
 62
     7
176
     1
 90
        5
176
     1
 90
        0
176
     1
 90
        0
176
     1
290
     0
176
     1
 90
       13
176
     1
 40
0.0
176
     1
 90
        0
176
     1
290
     0
176
     1
290
     1
176
     1
290
     1
176
     1
290
     0
176
     1
290
     0
176
     1
290
     0
176
     1
290
     0
176
     1
290
     0
176
     1
290
     0
176
     1
 90
       50
176
     1
 40
0.0
176
     1
 40
1.0
176
     1
 90
        0
176
     1
 62
   178
420
        0
176
     1
 90
       50
176
     1
 90
        3
176
     1
 62
     5
420
      255
176
     1
290
     0
176
     1
 90
       50
176
     1
 90
       50
176
     1
 90
       50
176
     1
290
     0
176
     1
 90
       50
176
     1
 62
   256
176
     0
 40
1.0
176
     0
 90
        2
176
     1
  1
strokes_ogs.tif
176
     1
290
     0
176
     1
 40
1.0
176
     1
 40
1.0
176
     1
  0
VISUALSTYLE
  5
77
102
{ACAD_REACTORS
330
2A
102
}
330
2A
100
AcDbVisualStyle
  2
Hidden
 70
     6
177
     3
291
     0
 70
    58
 90
        1
176
     1
 90
        2
176
     1
 90
        2
176
     1
 90
        0
176
     1
 40
0.6
176
     1
 40
30.0
176
     1
 62
     7
420
 16777215
176
     1
 90
        2
176
     1
 90
        2
176
     1
 62
     7
176
     1
 62
   257
176
     1
 90
        2
176
     1
 90
        1
176
     1
 40
40.0
176
     1
 90
        0
176
     1
 62
   257
176
     1
 40
1.0
176
     1
 90
        1
176
     1
 90
        6
176
     1
 90
        2
176
     1
 62
     7
176
     1
 90
        3
176
     1
 90
        0
176
     1
 90
        0
176
     1
290
     0
176
     1
 90
        1
176
     1
 40
0.0
176
     1
 90
        0
176
     1
290
     0
176
     1
290
     1
176
     1
290
     1
176
     1
290
     0
176
     1
290
     0
176
     1
290
     0
176
     1
290
     0
176
     1
290
     0
176
     1
290
     0
176
     1
 90
       50
176
     1
 40
0.0
176
     1
 40
1.0
176
     1
 90
        0
176
     1
 62
   178
420
        0
176
     1
 90
       50
176
     1
 90
        3
176
     1
 62
     5
420
      255
176
     1
290
     0
176
     1
 90
       50
176
     1
 90
       50
176
     1
 90
       50
176
     1
290
     0
176
     1
 90
       50
176
     1
 62
   256
176
     0
 40
1.0
176
     0
 90
        2
176
     1
  1
strokes_ogs.tif
176
     1
290
     0
176
     1
 40
1.0
176
     1
 40
1.0
176
     1
  0
VISUALSTYLE
  5
78
102
{ACAD_REACTORS
330
2A
102
}
330
2A
100
AcDbVisualStyle
  2
JitterOff
 70
    20
177
     3
291
     1
 70
    58
 90
        2
176
     0
 90
        2
176
     0
 90
        0
176
     0
 90
        0
176
     0
 40
0.6
176
     0
 40
30.0
176
     0
 62
     7
420
 16777215
176
     0
 90
        1
176
     0
 90
        4
176
     0
 62
     7
176
     0
 62
   257
176
     0
 90
        1
176
     0
 90
        1
176
     0
 40
1.0
176
     0
 90
       10
176
     2
 62
     7
176
     0
 40
1.0
176
     0
 90
        1
176
     0
 90
        6
176
     0
 90
        2
176
     0
 62
     7
176
     0
 90
        5
176
     0
 90
        0
176
     0
 90
        0
176
     0
290
     0
176
     0
 90
        1
176
     0
 40
0.0
176
     0
 90
        0
176
     0
290
     0
176
     0
290
     1
176
     0
290
     1
176
     0
290
     0
176
     0
290
     0
176
     0
290
     0
176
     0
290
     0
176
     0
290
     0
176
     0
290
     0
176
     0
 90
       50
176
     0
 40
0.0
176
     0
 40
1.0
176
     0
 90
        0
176
     0
 62
   178
420
        0
176
     0
 90
       50
176
     0
 90
        3
176
     0
 62
     5
420
      255
176
     0
290
     0
176
     0
 90
       50
176
     0
 90
       50
176
     0
 90
       50
176
     0
290
     0
176
     0
 90
       50
176
     0
 62
   256
176
     0
 40
1.0
176
     0
 90
        2
176
     0
  1
strokes_ogs.tif
176
     0
290
     0
176
     0
 40
1.0
176
     0
 40
1.0
176
     0
  0
VISUALSTYLE
  5
38
102
{ACAD_REACTORS
330
2A
102
}
330
2A
100
AcDbVisualStyle
  2
Linepattern
 70
    14
177
     3
291
     1
 70
    58
 90
        2
176
     1
 90
        2
176
     1
 90
        0
176
     1
 90
        0
176
     1
 40
-0.6
176
     1
 40
-30.0
176
     1
 62
     7
420
 16777215
176
     1
 90
        1
176
     1
 90
        4
176
     1
 62
     7
176
     1
 62
   257
176
     1
 90
        7
176
     1
 90
        7
176
     1
 40
1.0
176
     1
 90
        8
176
     1
 62
     7
176
     1
 40
1.0
176
     1
 90
        1
176
     1
 90
        6
176
     1
 90
        2
176
     1
 62
     7
176
     1
 90
        5
176
     1
 90
        0
176
     1
 90
        0
176
     1
290
     0
176
     1
 90
        1
176
     1
 40
0.0
176
     1
 90
        0
176
     1
290
     0
176
     1
290
     1
176
     1
290
     1
176
     1
290
     0
176
     1
290
     0
176
     1
290
     0
176
     1
290
     0
176
     1
290
     0
176
     1
290
     0
176
     1
 90
       50
176
     1
 40
0.0
176
     1
 40
1.0
176
     1
 90
        0
176
     1
 62
   178
420
        0
176
     1
 90
       50
176
     1
 90
        3
176
     1
 62
     5
420
      255
176
     1
290
     0
176
     1
 90
       50
176
     1
 90
       50
176
     1
 90
       50
176
     1
290
     0
176
     1
 90
       50
176
     1
 62
   256
176
     0
 40
1.0
176
     0
 90
        2
176
     1
  1
strokes_ogs.tif
176
     1
290
     0
176
     1
 40
1.0
176
     1
 40
1.0
176
     1
  0
VISUALSTYLE
  5
79
102
{ACAD_REACTORS
330
2A
102
}
330
2A
100
AcDbVisualStyle
  2
OverhangOff
 70
    21
177
     3
291
     1
 70
    58
 90
        2
176
     0
 90
        2
176
     0
 90
        0
176
     0
 90
        0
176
     0
 40
0.6
176
     0
 40
30.0
176
     0
 62
     7
420
 16777215
176
     0
 90
        1
176
     0
 90
        4
176
     0
 62
     7
176
     0
 62
   257
176
     0
 90
        1
176
     0
 90
        1
176
     0
 40
1.0
176
     0
 90
        9
176
     2
 62
     7
176
     0
 40
1.0
176
     0
 90
        1
176
     0
 90
        6
176
     0
 90
        2
176
     0
 62
     7
176
     0
 90
        5
176
     0
 90
        0
176
     0
 90
        0
176
     0
290
     0
176
     0
 90
        1
176
     0
 40
0.0
176
     0
 90
        0
176
     0
290
     0
176
     0
290
     1
176
     0
290
     1
176
     0
290
     0
176
     0
290
     0
176
     0
290
     0
176
     0
290
     0
176
     0
290
     0
176
     0
290
     0
176
     0
 90
       50
176
     0
 40
0.0
176
     0
 40
1.0
176
     0
 90
        0
176
     0
 62
   178
420
        0
176
     0
 90
       50
176
     0
 90
        3
176
     0
 62
     5
420
      255
176
     0
290
     0
176
     0
 90
       50
176
     0
 90
       50
176
     0
 90
       50
176
     0
290
     0
176
     0
 90
       50
176
     0
 62
   256
176
     0
 40
1.0
176
     0
 90
        2
176
     0
  1
strokes_ogs.tif
176
     0
290
     0
176
     0
 40
1.0
176
     0
 40
1.0
176
     0
  0
VISUALSTYLE
  5
33
102
{ACAD_REACTORS
330
2A
102
}
330
2A
100
AcDbVisualStyle
  2
Realistic
 70
     8
177
     3
291
     0
 70
    58
 90
        2
176
     1
 90
        2
176
     1
 90
        0
176
     1
 90
        0
176
     1
 40
-0.6
176
     1
 40
-30.0
176
     1
 62
     7
420
 16777215
176
     1
 90
        1
176
     1
 90
        0
176
     1
 62
     7
176
     1
 62
   257
176
     1
 90
        1
176
     1
 90
        1
176
     1
 40
1.0
176
     1
 90
        8
176
     1
 62
     8
420
  7895160
176
     1
 40
1.0
176
     1
 90
        1
176
     1
 90
        6
176
     1
 90
        2
176
     1
 62
     7
176
     1
 90
        5
176
     1
 90
        0
176
     1
 90
        0
176
     1
290
     0
176
     1
 90
       13
176
     1
 40
0.0
176
     1
 90
        0
176
     1
290
     0
176
     1
290
     1
176
     1
290
     1
176
     1
290
     0
176
     1
290
     0
176
     1
290
     0
176
     1
290
     0
176
     1
290
     0
176
     1
290
     0
176
     1
 90
       50
176
     1
 40
0.0
176
     1
 40
1.0
176
     1
 90
        0
176
     1
 62
   178
420
        0
176
     1
 90
       50
176
     1
 90
        3
176
     1
 62
     5
420
      255
176
     1
290
     0
176
     1
 90
       50
176
     1
 90
       50
176
     1
 90
       50
176
     1
290
     0
176
     1
 90
       50
176
     1
 62
   256
176
     0
 40
1.0
176
     0
 90
        2
176
     1
  1
strokes_ogs.tif
176
     1
290
     0
176
     1
 40
1.0
176
     1
 40
1.0
176
     1
  0
VISUALSTYLE
  5
7F
102
{ACAD_REACTORS
330
2A
102
}
330
2A
100
AcDbVisualStyle
  2
Shaded
 70
    27
177
     3
291
     0
 70
    58
 90
        2
176
     1
 90
        2
176
     1
 90
        1
176
     1
 90
        2
176
     1
 40
0.6
176
     1
 40
30.0
176
     1
 62
     7
420
 16777215
176
     1
 90
        0
176
     1
 90
        4
176
     1
 62
     7
176
     1
 62
   257
176
     1
 90
        1
176
     1
 90
        1
176
     1
 40
1.0
176
     1
 90
        8
176
     1
 62
   257
176
     1
 40
1.0
176
     1
 90
        1
176
     1
 90
        6
176
     1
 90
        2
176
     1
 62
     8
420
  7895160
176
     1
 90
        3
176
     1
 90
        0
176
     1
 90
        0
176
     1
290
     0
176
     1
 90
        5
176
     1
 40
0.0
176
     1
 90
        0
176
     1
290
     0
176
     1
290
     1
176
     1
290
     1
176
     1
290
     0
176
     1
290
     0
176
     1
290
     0
176
     1
290
     0
176
     1
290
     0
176
     1
290
     0
176
     1
 90
       50
176
     1
 40
0.0
176
     1
 40
1.0
176
     1
 90
        0
176
     1
 62
   178
420
        0
176
     1
 90
       50
176
     1
 90
        3
176
     1
 62
     5
420
      255
176
     1
290
     0
176
     1
 90
       50
176
     1
 90
       50
176
     1
 90
       50
176
     1
290
     0
176
     1
 90
       50
176
     1
 62
   256
176
     0
 40
1.0
176
     0
 90
        2
176
     1
  1
strokes_ogs.tif
176
     1
290
     0
176
     1
 40
1.0
176
     1
 40
1.0
176
     1
  0
VISUALSTYLE
  5
7E
102
{ACAD_REACTORS
330
2A
102
}
330
2A
100
AcDbVisualStyle
  2
Shaded with edges
 70
    26
177
     3
291
     0
 70
    58
 90
        2
176
     1
 90
        2
176
     1
 90
        1
176
     1
 90
        2
176
     1
 40
0.6
176
     1
 40
30.0
176
     1
 62
     7
420
 16777215
176
     1
 90
        1
176
     1
 90
       10
176
     1
 62
     7
176
     1
 62
   257
176
     1
 90
        2
176
     1
 90
        1
176
     1
 40
1.0
176
     1
 90
        8
176
     1
 62
   257
176
     1
 40
1.0
176
     1
 90
        1
176
     1
 90
        6
176
     1
 90
        2
176
     1
 62
     7
176
     1
 90
        3
176
     1
 90
        0
176
     1
 90
        0
176
     1
290
     0
176
     1
 90
        5
176
     1
 40
0.0
176
     1
 90
        0
176
     1
290
     0
176
     1
290
     1
176
     1
290
     1
176
     1
290
     0
176
     1
290
     0
176
     1
290
     0
176
     1
290
     0
176
     1
290
     0
176
     1
290
     0
176
     1
 90
       50
176
     1
 40
0.0
176
     1
 40
1.0
176
     1
 90
        0
176
     1
 62
   178
420
        0
176
     1
 90
       50
176
     1
 90
        3
176
     1
 62
     5
420
      255
176
     1
290
     0
176
     1
 90
       50
176
     1
 90
       50
176
     1
 90
       50
176
     1
290
     0
176
     1
 90
       50
176
     1
 62
   256
176
     0
 40
1.0
176
     0
 90
        2
176
     1
  1
strokes_ogs.tif
176
     1
290
     0
176
     1
 40
1.0
176
     1
 40
1.0
176
     1
  0
VISUALSTYLE
  5
7B
102
{ACAD_REACTORS
330
2A
102
}
330
2A
100
AcDbVisualStyle
  2
Shades of Gray
 70
    23
177
     3
291
     0
 70
    58
 90
        2
176
     1
 90
        2
176
     1
 90
        3
176
     1
 90
        0
176
     1
 40
0.6
176
     1
 40
30.0
176
     1
 62
     7
420
 16777215
176
     1
 90
        2
176
     1
 90
        2
176
     1
 62
     7
176
     1
 62
     7
176
     1
 90
        1
176
     1
 90
        1
176
     1
 40
40.0
176
     1
 90
        8
176
     1
 62
     7
176
     1
 40
1.0
176
     1
 90
        1
176
     1
 90
        6
176
     1
 90
        2
176
     1
 62
     7
176
     1
 90
        3
176
     1
 90
        0
176
     1
 90
        0
176
     1
290
     0
176
     1
 90
        1
176
     1
 40
0.0
176
     1
 90
        0
176
     1
290
     0
176
     1
290
     1
176
     1
290
     1
176
     1
290
     0
176
     1
290
     0
176
     1
290
     0
176
     1
290
     0
176
     1
290
     0
176
     1
290
     0
176
     1
 90
       50
176
     1
 40
0.0
176
     1
 40
1.0
176
     1
 90
        0
176
     1
 62
   178
420
        0
176
     1
 90
       50
176
     1
 90
        3
176
     1
 62
     5
420
      255
176
     1
290
     0
176
     1
 90
       50
176
     1
 90
       50
176
     1
 90
       50
176
     1
290
     0
176
     1
 90
       50
176
     1
 62
   256
176
     0
 40
1.0
176
     0
 90
        2
176
     1
  1
strokes_ogs.tif
176
     1
290
     0
176
     1
 40
1.0
176
     1
 40
1.0
176
     1
  0
VISUALSTYLE
  5
7C
102
{ACAD_REACTORS
330
2A
102
}
330
2A
100
AcDbVisualStyle
  2
Sketchy
 70
    24
177
     3
291
     0
 70
    58
 90
        1
176
     1
 90
        2
176
     1
 90
        2
176
     1
 90
        0
176
     1
 40
0.6
176
     1
 40
30.0
176
     1
 62
     7
420
 16777215
176
     1
 90
        2
176
     1
 90
        2
176
     1
 62
     7
176
     1
 62
     7
176
     1
 90
        1
176
     1
 90
        1
176
     1
 40
40.0
176
     1
 90
       11
176
     1
 62
     7
176
     1
 40
1.0
176
     1
 90
        1
176
     1
 90
        6
176
     1
 90
        2
176
     1
 62
     7
176
     1
 90
        6
176
     1
 90
        0
176
     1
 90
        0
176
     1
290
     0
176
     1
 90
        1
176
     1
 40
0.0
176
     1
 90
        0
176
     1
290
     0
176
     1
290
     1
176
     1
290
     1
176
     1
290
     0
176
     1
290
     0
176
     1
290
     0
176
     1
290
     0
176
     1
290
     0
176
     1
290
     0
176
     1
 90
       50
176
     1
 40
0.0
176
     1
 40
1.0
176
     1
 90
        0
176
     1
 62
   178
420
        0
176
     1
 90
       50
176
     1
 90
        3
176
     1
 62
     5
420
      255
176
     1
290
     0
176
     1
 90
       50
176
     1
 90
       50
176
     1
 90
       50
176
     1
290
     0
176
     1
 90
       50
176
     1
 62
   256
176
     0
 40
1.0
176
     0
 90
        2
176
     1
  1
strokes_ogs.tif
176
     1
290
     0
176
     1
 40
1.0
176
     1
 40
1.0
176
     1
  0
VISUALSTYLE
  5
37
102
{ACAD_REACTORS
330
2A
102
}
330
2A
100
AcDbVisualStyle
  2
Thicken
 70
    13
177
     3
291
     1
 70
    58
 90
        2
176
     1
 90
        2
176
     1
 90
        0
176
     1
 90
        0
176
     1
 40
-0.6
176
     1
 40
-30.0
176
     1
 62
     7
420
 16777215
176
     1
 90
        1
176
     1
 90
        4
176
     1
 62
     7
176
     1
 62
   257
176
     1
 90
        1
176
     1
 90
        1
176
     1
 40
1.0
176
     1
 90
       12
176
     1
 62
     7
176
     1
 40
1.0
176
     1
 90
        1
176
     1
 90
        6
176
     1
 90
        2
176
     1
 62
     7
176
     1
 90
        5
176
     1
 90
        0
176
     1
 90
        0
176
     1
290
     0
176
     1
 90
        1
176
     1
 40
0.0
176
     1
 90
        0
176
     1
290
     0
176
     1
290
     1
176
     1
290
     1
176
     1
290
     0
176
     1
290
     0
176
     1
290
     0
176
     1
290
     0
176
     1
290
     0
176
     1
290
     0
176
     1
 90
       50
176
     1
 40
0.0
176
     1
 40
1.0
176
     1
 90
        0
176
     1
 62
   178
420
        0
176
     1
 90
       50
176
     1
 90
        3
176
     1
 62
     5
420
      255
176
     1
290
     0
176
     1
 90
       50
176
     1
 90
       50
176
     1
 90
       50
176
     1
290
     0
176
     1
 90
       50
176
     1
 62
   256
176
     0
 40
1.0
176
     0
 90
        2
176
     1
  1
strokes_ogs.tif
176
     1
290
     0
176
     1
 40
1.0
176
     1
 40
1.0
176
     1
  0
VISUALSTYLE
  5
76
102
{ACAD_REACTORS
330
2A
102
}
330
2A
100
AcDbVisualStyle
  2
Wireframe
 70
     5
177
     3
291
     0
 70
    58
 90
        0
176
     1
 90
        2
176
     1
 90
        0
176
     1
 90
        0
176
     1
 40
0.6
176
     1
 40
30.0
176
     1
 62
     7
420
 16777215
176
     1
 90
        1
176
     1
 90
        4
176
     1
 62
     7
176
     1
 62
   257
176
     1
 90
        1
176
     1
 90
        1
176
     1
 40
1.0
176
     1
 90
        0
176
     1
 62
   257
176
     1
 40
1.0
176
     1
 90
        1
176
     1
 90
        6
176
     1
 90
        2
176
     1
 62
     7
176
     1
 90
        3
176
     1
 90
        0
176
     1
 90
        0
176
     1
290
     0
176
     1
 90
        1
176
     1
 40
0.0
176
     1
 90
        0
176
     1
290
     0
176
     1
290
     1
176
     1
290
     1
176
     1
290
     0
176
     1
290
     0
176
     1
290
     0
176
     1
290
     0
176
     1
290
     0
176
     1
290
     0
176
     1
 90
       50
176
     1
 40
0.0
176
     1
 40
1.0
176
     1
 90
        0
176
     1
 62
   178
420
        0
176
     1
 90
       50
176
     1
 90
        3
176
     1
 62
     5
420
      255
176
     1
290
     0
176
     1
 90
       50
176
     1
 90
       50
176
     1
 90
       50
176
     1
290
     0
176
     1
 90
       50
176
     1
 62
   256
176
     0
 40
1.0
176
     0
 90
        2
176
     1
  1
strokes_ogs.tif
176
     1
290
     0
176
     1
 40
1.0
176
     1
 40
1.0
176
     1
  0
VISUALSTYLE
  5
7D
102
{ACAD_REACTORS
330
2A
102
}
330
2A
100
AcDbVisualStyle
  2
X-Ray
 70
    25
177
     3
291
     0
 70
    58
 90
        2
176
     1
 90
        2
176
     1
 90
        1
176
     1
 90
        1
176
     1
 40
0.5
176
     1
 40
30.0
176
     1
 62
     7
420
 16777215
176
     1
 90
        1
176
     1
 90
        0
176
     1
 62
     7
176
     1
 62
   257
176
     1
 90
        1
176
     1
 90
        1
176
     1
 40
1.0
176
     1
 90
        8
176
     1
 62
     7
176
     1
 40
1.0
176
     1
 90
        1
176
     1
 90
        6
176
     1
 90
        2
176
     1
 62
     7
176
     1
 90
        3
176
     1
 90
        0
176
     1
 90
        0
176
     1
290
     0
176
     1
 90
       13
176
     1
 40
0.0
176
     1
 90
        0
176
     1
290
     0
176
     1
290
     1
176
     1
290
     1
176
     1
290
     0
176
     1
290
     0
176
     1
290
     0
176
     1
290
     0
176
     1
290
     0
176
     1
290
     0
176
     1
 90
       50
176
     1
 40
0.0
176
     1
 40
1.0
176
     1
 90
        0
176
     1
 62
   178
420
        0
176
     1
 90
       50
176
     1
 90
        3
176
     1
 62
     5
420
      255
176
     1
290
     0
176
     1
 90
       50
176
     1
 90
       50
176
     1
 90
       50
176
     1
290
     0
176
     1
 90
       50
176
     1
 62
   256
176
     0
 40
1.0
176
     0
 90
        2
176
     1
  1
strokes_ogs.tif
176
     1
290
     0
176
     1
 40
1.0
176
     1
 40
1.0
176
     1
  0
DICTIONARYVAR
  5
62
102
{ACAD_REACTORS
330
3D
102
}
330
3D
100
DictionaryVariables
280
     0
  1
1:1
  0
DICTIONARYVAR
  5
BB
102
{ACAD_REACTORS
330
3D
102
}
330
3D
100
DictionaryVariables
280
     0
  1
Standard
  0
DICTIONARYVAR
  5
3E
102
{ACAD_REACTORS
330
3D
102
}
330
3D
100
DictionaryVariables
280
     0
  1
Standard
  0
DICTIONARYVAR
  5
6F
102
{ACAD_REACTORS
330
3D
102
}
330
3D
100
DictionaryVariables
280
     0
  1
0
  0
DICTIONARYVAR
  5
70
102
{ACAD_REACTORS
330
3D
102
}
330
3D
100
DictionaryVariables
280
     0
  1
0
  0
DICTIONARY
  5
3FB
330
3C
100
AcDbDictionary
280
     1
281
     1
  3
ACAD_ROUNDTRIP_2008_TABLESTYLE_CELLSTYLEMAP
360
3FC
  0
CELLSTYLEMAP
  5
3FC
102
{ACAD_REACTORS
330
3FB
102
}
330
3FB
100
AcDbCellStyleMap
 90
        3
300
CELLSTYLE
  1
TABLEFORMAT_BEGIN
 90
        5
170
     1
 91
        0
 92
    32768
 62
   257
 93
        1
300
CONTENTFORMAT
  1
CONTENTFORMAT_BEGIN
 90
        0
 91
        0
 92
      512
 93
        0
300

 40
0.0
140
1.0
 94
        5
 62
     0
340
11
144
6.0
309
CONTENTFORMAT_END
171
     1
301
MARGIN
  1
CELLMARGIN_BEGIN
 40
1.5
 40
1.5
 40
1.5
 40
1.5
 40
0.18
 40
0.18
309
CELLMARGIN_END
 94
        6
 95
        1
302
GRIDFORMAT
  1
GRIDFORMAT_BEGIN
 90
        0
 91
        1
 62
     0
 92
       -2
340
0
 93
        0
 40
0.045
309
GRIDFORMAT_END
 95
        2
302
GRIDFORMAT
  1
GRIDFORMAT_BEGIN
 90
        0
 91
        1
 62
     0
 92
       -2
340
0
 93
        0
 40
0.045
309
GRIDFORMAT_END
 95
        4
302
GRIDFORMAT
  1
GRIDFORMAT_BEGIN
 90
        0
 91
        1
 62
     0
 92
       -2
340
0
 93
        0
 40
0.045
309
GRIDFORMAT_END
 95
        8
302
GRIDFORMAT
  1
GRIDFORMAT_BEGIN
 90
        0
 91
        1
 62
     0
 92
       -2
340
0
 93
        0
 40
0.045
309
GRIDFORMAT_END
 95
       16
302
GRIDFORMAT
  1
GRIDFORMAT_BEGIN
 90
        0
 91
        1
 62
     0
 92
       -2
340
0
 93
        0
 40
0.045
309
GRIDFORMAT_END
 95
       32
302
GRIDFORMAT
  1
GRIDFORMAT_BEGIN
 90
        0
 91
        1
 62
     0
 92
       -2
340
0
 93
        0
 40
0.045
309
GRIDFORMAT_END
309
TABLEFORMAT_END
  1
CELLSTYLE_BEGIN
 90
        1
 91
        1
300
_TITLE
309
CELLSTYLE_END
300
CELLSTYLE
  1
TABLEFORMAT_BEGIN
 90
        5
170
     1
 91
        0
 92
        0
 62
   257
 93
        1
300
CONTENTFORMAT
  1
CONTENTFORMAT_BEGIN
 90
        0
 91
        0
 92
      512
 93
        0
300

 40
0.0
140
1.0
 94
        5
 62
     0
340
11
144
4.5
309
CONTENTFORMAT_END
171
     1
301
MARGIN
  1
CELLMARGIN_BEGIN
 40
1.5
 40
1.5
 40
1.5
 40
1.5
 40
0.18
 40
0.18
309
CELLMARGIN_END
 94
        6
 95
        1
302
GRIDFORMAT
  1
GRIDFORMAT_BEGIN
 90
        0
 91
        1
 62
     0
 92
       -2
340
0
 93
        0
 40
0.045
309
GRIDFORMAT_END
 95
        2
302
GRIDFORMAT
  1
GRIDFORMAT_BEGIN
 90
        0
 91
        1
 62
     0
 92
       -2
340
0
 93
        0
 40
0.045
309
GRIDFORMAT_END
 95
        4
302
GRIDFORMAT
  1
GRIDFORMAT_BEGIN
 90
        0
 91
        1
 62
     0
 92
       -2
340
0
 93
        0
 40
0.045
309
GRIDFORMAT_END
 95
        8
302
GRIDFORMAT
  1
GRIDFORMAT_BEGIN
 90
        0
 91
        1
 62
     0
 92
       -2
340
0
 93
        0
 40
0.045
309
GRIDFORMAT_END
 95
       16
302
GRIDFORMAT
  1
GRIDFORMAT_BEGIN
 90
        0
 91
        1
 62
     0
 92
       -2
340
0
 93
        0
 40
0.045
309
GRIDFORMAT_END
 95
       32
302
GRIDFORMAT
  1
GRIDFORMAT_BEGIN
 90
        0
 91
        1
 62
     0
 92
       -2
340
0
 93
        0
 40
0.045
309
GRIDFORMAT_END
309
TABLEFORMAT_END
  1
CELLSTYLE_BEGIN
 90
        2
 91
        1
300
_HEADER
309
CELLSTYLE_END
300
CELLSTYLE
  1
TABLEFORMAT_BEGIN
 90
        5
170
     1
 91
        0
 92
        0
 62
   257
 93
        1
300
CONTENTFORMAT
  1
CONTENTFORMAT_BEGIN
 90
        0
 91
        0
 92
      512
 93
        0
300

 40
0.0
140
1.0
 94
        2
 62
     0
340
11
144
4.5
309
CONTENTFORMAT_END
171
     1
301
MARGIN
  1
CELLMARGIN_BEGIN
 40
1.5
 40
1.5
 40
1.5
 40
1.5
 40
0.18
 40
0.18
309
CELLMARGIN_END
 94
        6
 95
        1
302
GRIDFORMAT
  1
GRIDFORMAT_BEGIN
 90
        0
 91
        1
 62
     0
 92
       -2
340
0
 93
        0
 40
0.045
309
GRIDFORMAT_END
 95
        2
302
GRIDFORMAT
  1
GRIDFORMAT_BEGIN
 90
        0
 91
        1
 62
     0
 92
       -2
340
0
 93
        0
 40
0.045
309
GRIDFORMAT_END
 95
        4
302
GRIDFORMAT
  1
GRIDFORMAT_BEGIN
 90
        0
 91
        1
 62
     0
 92
       -2
340
0
 93
        0
 40
0.045
309
GRIDFORMAT_END
 95
        8
302
GRIDFORMAT
  1
GRIDFORMAT_BEGIN
 90
        0
 91
        1
 62
     0
 92
       -2
340
0
 93
        0
 40
0.045
309
GRIDFORMAT_END
 95
       16
302
GRIDFORMAT
  1
GRIDFORMAT_BEGIN
 90
        0
 91
        1
 62
     0
 92
       -2
340
0
 93
        0
 40
0.045
309
GRIDFORMAT_END
 95
       32
302
GRIDFORMAT
  1
GRIDFORMAT_BEGIN
 90
        0
 91
        1
 62
     0
 92
       -2
340
0
 93
        0
 40
0.045
309
GRIDFORMAT_END
309
TABLEFORMAT_END
  1
CELLSTYLE_BEGIN
 90
        3
 91
        2
300
_DATA
309
CELLSTYLE_END
  0
ENDSEC
  0
EOF
