<?xml version="1.0" encoding="UTF-8" standalone="no"?>
<svg width="291.548mm" height="115.168mm"
 viewBox="0 0 1848 730"
 xmlns="http://www.w3.org/2000/svg" xmlns:xlink="http://www.w3.org/1999/xlink"  version="1.2" baseProfile="tiny">
<title>Qt SVG Document</title>
<desc>Generated with Qt</desc>
<defs>
</defs>
<g fill="none" stroke="black" stroke-width="1" fill-rule="evenodd" stroke-linecap="square" stroke-linejoin="bevel" >

<g fill="#000000" fill-opacity="1" stroke="none" transform="matrix(1,0,0,1,0,0)"
font-family="Sans Serif" font-size="20.125" font-weight="400" font-style="normal" 
>
<rect x="0" y="0" width="1848" height="730"/>
</g>

<g fill="none" stroke="#000000" stroke-opacity="1" stroke-width="1" stroke-linecap="square" stroke-linejoin="bevel" transform="matrix(1,0,0,1,0,0)"
font-family="Sans Serif" font-size="20.125" font-weight="400" font-style="normal" 
>
</g>

<g fill="#000000" fill-opacity="1" stroke="#000000" stroke-opacity="1" stroke-width="1" stroke-linecap="butt" stroke-linejoin="miter" stroke-miterlimit="2" transform="matrix(1,0,0,1,0,0)"
font-family="Sans Serif" font-size="20.125" font-weight="400" font-style="normal" 
>
</g>

<g fill="#000000" fill-opacity="1" stroke="#000000" stroke-opacity="1" stroke-width="1" stroke-linecap="butt" stroke-linejoin="miter" stroke-miterlimit="2" transform="matrix(1,0,0,1,0,0)"
font-family="Sans Serif" font-size="20.125" font-weight="400" font-style="normal" 
>
</g>

<g fill="#ffffff" fill-opacity="1" stroke="#ffffff" stroke-opacity="1" stroke-width="2" stroke-linecap="square" stroke-linejoin="bevel" transform="matrix(1,0,0,1,0,0)"
font-family="Sans Serif" font-size="20.125" font-weight="400" font-style="normal" 
>
<polyline fill="none" vector-effect="none" points="332.127,687.059 976.245,687.059 976.245,42.9412 332.127,42.9412 332.127,687.059 " />
<polyline fill="none" vector-effect="none" points="396.539,622.647 396.539,497.044 611.245,497.044 " />
<polyline fill="none" vector-effect="none" points="611.245,497.044 611.525,497.026 611.801,496.971 612.067,496.881 612.319,496.756 612.552,496.6 612.763,496.415 612.948,496.204 613.105,495.971 613.229,495.719 613.319,495.453 613.374,495.177 613.392,494.897 613.374,494.617 613.319,494.341 613.229,494.075 613.105,493.824 612.948,493.59 612.763,493.379 612.552,493.194 612.319,493.038 612.067,492.913 611.801,492.823 611.525,492.768 611.245,492.75 " />
<polyline fill="none" vector-effect="none" points="611.245,492.75 396.539,492.75 396.539,367.147 611.245,367.147 " />
<polyline fill="none" vector-effect="none" points="611.245,367.147 611.525,367.129 611.801,367.074 612.067,366.984 612.319,366.859 612.552,366.703 612.763,366.518 612.948,366.307 613.105,366.074 613.229,365.822 613.319,365.556 613.374,365.28 613.392,365 613.374,364.72 613.319,364.444 613.229,364.178 613.105,363.926 612.948,363.693 612.763,363.482 612.552,363.297 612.319,363.141 612.067,363.016 611.801,362.926 611.525,362.871 611.245,362.853 " />
<polyline fill="none" vector-effect="none" points="611.245,362.853 396.539,362.853 396.539,237.25 611.245,237.25 " />
<polyline fill="none" vector-effect="none" points="611.245,237.25 611.525,237.232 611.801,237.177 612.067,237.087 612.319,236.962 612.552,236.806 612.763,236.621 612.948,236.41 613.105,236.176 613.229,235.925 613.319,235.659 613.374,235.383 613.392,235.103 613.374,234.823 613.319,234.547 613.229,234.281 613.105,234.029 612.948,233.796 612.763,233.585 612.552,233.4 612.319,233.244 612.067,233.119 611.801,233.029 611.525,232.974 611.245,232.956 " />
<polyline fill="none" vector-effect="none" points="611.245,232.956 396.539,232.956 396.539,107.353 608.561,107.353 " />
<polyline fill="none" vector-effect="none" points="608.561,107.353 608.885,107.333 609.204,107.275 609.513,107.179 609.809,107.046 610.086,106.878 610.341,106.678 610.57,106.449 610.77,106.194 610.938,105.916 611.071,105.621 611.167,105.311 611.226,104.993 611.245,104.669 " />
<polyline fill="none" vector-effect="none" points="611.245,104.669 611.245,67.0956 " />
<polyline fill="none" vector-effect="none" points="611.245,67.0956 611.226,66.7721 611.167,66.4533 611.071,66.1439 610.938,65.8484 610.77,65.571 610.57,65.3159 610.341,65.0867 610.086,64.8868 609.809,64.7192 609.513,64.5862 609.204,64.4898 608.885,64.4313 608.561,64.4118 " />
<polyline fill="none" vector-effect="none" points="608.561,64.4118 356.282,64.4118 " />
<polyline fill="none" vector-effect="none" points="356.282,64.4118 355.958,64.4313 355.64,64.4898 355.33,64.5862 355.035,64.7192 354.757,64.8868 354.502,65.0867 354.273,65.3159 354.073,65.571 353.905,65.8484 353.772,66.1439 353.676,66.4533 353.618,66.7721 353.598,67.0956 " />
<polyline fill="none" vector-effect="none" points="353.598,67.0956 353.598,662.904 " />
<polyline fill="none" vector-effect="none" points="353.598,662.904 353.618,663.228 353.676,663.547 353.772,663.856 353.905,664.152 354.073,664.429 354.273,664.684 354.502,664.913 354.757,665.113 355.035,665.281 355.33,665.414 355.64,665.51 355.958,665.569 356.282,665.588 " />
<polyline fill="none" vector-effect="none" points="356.282,665.588 952.091,665.588 " />
<polyline fill="none" vector-effect="none" points="952.091,665.588 952.414,665.569 952.733,665.51 953.042,665.414 953.338,665.281 953.615,665.113 953.87,664.913 954.1,664.684 954.299,664.429 954.467,664.152 954.6,663.856 954.697,663.547 954.755,663.228 954.775,662.904 " />
<polyline fill="none" vector-effect="none" points="954.775,662.904 954.775,67.0956 " />
<polyline fill="none" vector-effect="none" points="954.775,67.0956 954.755,66.7721 954.697,66.4533 954.6,66.1439 954.467,65.8484 954.299,65.571 954.1,65.3159 953.87,65.0867 953.615,64.8868 953.338,64.7192 953.042,64.5862 952.733,64.4898 952.414,64.4313 952.091,64.4118 " />
<polyline fill="none" vector-effect="none" points="952.091,64.4118 699.811,64.4118 " />
<polyline fill="none" vector-effect="none" points="699.811,64.4118 699.488,64.4313 699.169,64.4898 698.86,64.5862 698.564,64.7192 698.287,64.8868 698.032,65.0867 697.802,65.3159 697.603,65.571 697.435,65.8484 697.302,66.1439 697.205,66.4533 697.147,66.7721 697.127,67.0956 " />
<polyline fill="none" vector-effect="none" points="697.127,67.0956 697.127,104.669 " />
<polyline fill="none" vector-effect="none" points="697.127,104.669 697.147,104.993 697.205,105.311 697.302,105.621 697.435,105.916 697.603,106.194 697.802,106.449 698.032,106.678 698.287,106.878 698.564,107.046 698.86,107.179 699.169,107.275 699.488,107.333 699.811,107.353 " />
<polyline fill="none" vector-effect="none" points="699.811,107.353 911.833,107.353 911.833,232.956 697.127,232.956 " />
<polyline fill="none" vector-effect="none" points="697.127,232.956 696.847,232.974 696.572,233.029 696.306,233.119 696.054,233.244 695.82,233.4 695.609,233.585 695.424,233.796 695.268,234.029 695.144,234.281 695.054,234.547 694.999,234.823 694.98,235.103 694.999,235.383 695.054,235.659 695.144,235.925 695.268,236.176 695.424,236.41 695.609,236.621 695.82,236.806 696.054,236.962 696.306,237.087 696.572,237.177 696.847,237.232 697.127,237.25 " />
<polyline fill="none" vector-effect="none" points="697.127,237.25 911.833,237.25 911.833,362.853 697.127,362.853 " />
<polyline fill="none" vector-effect="none" points="697.127,362.853 696.847,362.871 696.572,362.926 696.306,363.016 696.054,363.141 695.82,363.297 695.609,363.482 695.424,363.693 695.268,363.926 695.144,364.178 695.054,364.444 694.999,364.72 694.98,365 694.999,365.28 695.054,365.556 695.144,365.822 695.268,366.074 695.424,366.307 695.609,366.518 695.82,366.703 696.054,366.859 696.306,366.984 696.572,367.074 696.847,367.129 697.127,367.147 " />
<polyline fill="none" vector-effect="none" points="697.127,367.147 911.833,367.147 911.833,492.75 697.127,492.75 " />
<polyline fill="none" vector-effect="none" points="697.127,492.75 696.847,492.768 696.572,492.823 696.306,492.913 696.054,493.038 695.82,493.194 695.609,493.379 695.424,493.59 695.268,493.824 695.144,494.075 695.054,494.341 694.999,494.617 694.98,494.897 694.999,495.177 695.054,495.453 695.144,495.719 695.268,495.971 695.424,496.204 695.609,496.415 695.82,496.6 696.054,496.756 696.306,496.881 696.572,496.971 696.847,497.026 697.127,497.044 " />
<polyline fill="none" vector-effect="none" points="697.127,497.044 911.833,497.044 911.833,622.647 396.539,622.647 " />
<polyline fill="none" vector-effect="none" points="353.598,665.588 954.775,665.588 954.775,64.4118 353.598,64.4118 353.598,665.588 " />
<polyline fill="none" vector-effect="none" points="392.245,626.941 916.127,626.941 916.127,103.059 392.245,103.059 392.245,626.941 " />
<polyline fill="none" vector-effect="none" points="332.127,687.059 332.127,626.941 976.245,626.941 976.245,687.059 332.127,687.059 " />
</g>

<g fill="none" stroke="#000000" stroke-opacity="1" stroke-width="1" stroke-linecap="square" stroke-linejoin="bevel" transform="matrix(1,0,0,1,0,0)"
font-family="Sans Serif" font-size="20.125" font-weight="400" font-style="normal" 
>
</g>
</g>
</svg>
