<?xml version="1.0" encoding="UTF-8" standalone="no"?>
<svg width="291.548mm" height="115.168mm"
 viewBox="0 0 1848 730"
 xmlns="http://www.w3.org/2000/svg" xmlns:xlink="http://www.w3.org/1999/xlink"  version="1.2" baseProfile="tiny">
<title>Qt SVG Document</title>
<desc>Generated with Qt</desc>
<defs>
</defs>
<g fill="none" stroke="black" stroke-width="1" fill-rule="evenodd" stroke-linecap="square" stroke-linejoin="bevel" >

<g fill="#000000" fill-opacity="1" stroke="none" transform="matrix(1,0,0,1,0,0)"
font-family="Sans Serif" font-size="20.125" font-weight="400" font-style="normal" 
>
<rect x="0" y="0" width="1848" height="730"/>
</g>

<g fill="none" stroke="#000000" stroke-opacity="1" stroke-width="1" stroke-linecap="square" stroke-linejoin="bevel" transform="matrix(1,0,0,1,0,0)"
font-family="Sans Serif" font-size="20.125" font-weight="400" font-style="normal" 
>
</g>

<g fill="#000000" fill-opacity="1" stroke="#000000" stroke-opacity="1" stroke-width="1" stroke-linecap="butt" stroke-linejoin="miter" stroke-miterlimit="2" transform="matrix(1,0,0,1,0,0)"
font-family="Sans Serif" font-size="20.125" font-weight="400" font-style="normal" 
>
</g>

<g fill="#000000" fill-opacity="1" stroke="#000000" stroke-opacity="1" stroke-width="1" stroke-linecap="butt" stroke-linejoin="miter" stroke-miterlimit="2" transform="matrix(1,0,0,1,0,0)"
font-family="Sans Serif" font-size="20.125" font-weight="400" font-style="normal" 
>
</g>

<g fill="#ffffff" fill-opacity="1" stroke="#ffffff" stroke-opacity="1" stroke-width="2" stroke-linecap="square" stroke-linejoin="bevel" transform="matrix(1,0,0,1,0,0)"
font-family="Sans Serif" font-size="20.125" font-weight="400" font-style="normal" 
>
<polyline fill="none" vector-effect="none" points="410.656,110.949 444.188,77.4179 " />
<polyline fill="none" vector-effect="none" points="410.656,145.498 430.2,125.954 " />
<polyline fill="none" vector-effect="none" points="410.656,180.046 430.2,160.503 " />
<polyline fill="none" vector-effect="none" points="459.193,96.9614 478.736,77.4179 " />
<polyline fill="none" vector-effect="none" points="493.741,96.9614 513.285,77.4179 " />
<polyline fill="none" vector-effect="none" points="410.656,214.595 430.2,195.051 " />
<polyline fill="none" vector-effect="none" points="410.656,249.143 430.2,229.599 " />
<polyline fill="none" vector-effect="none" points="410.656,283.691 430.2,264.148 " />
<polyline fill="none" vector-effect="none" points="469.287,155.964 489.202,136.048 " />
<polyline fill="none" vector-effect="none" points="469.287,190.512 523.751,136.048 " />
<polyline fill="none" vector-effect="none" points="469.287,225.061 558.299,136.048 " />
<polyline fill="none" vector-effect="none" points="528.29,96.9614 547.833,77.4179 " />
<polyline fill="none" vector-effect="none" points="562.838,96.9614 582.381,77.4179 " />
<polyline fill="none" vector-effect="none" points="597.386,96.9614 616.93,77.4179 " />
<polyline fill="none" vector-effect="none" points="410.656,318.24 430.2,298.696 " />
<polyline fill="none" vector-effect="none" points="469.287,259.609 474.609,254.287 " />
<polyline fill="none" vector-effect="none" points="478.518,250.378 592.848,136.048 " />
<polyline fill="none" vector-effect="none" points="631.935,96.9614 651.478,77.4179 " />
<polyline fill="none" vector-effect="none" points="410.656,352.788 430.2,333.245 " />
<polyline fill="none" vector-effect="none" points="469.287,294.158 509.158,254.287 " />
<polyline fill="none" vector-effect="none" points="513.066,250.378 627.396,136.048 " />
<polyline fill="none" vector-effect="none" points="664.645,98.7995 686.027,77.4179 " />
<polyline fill="none" vector-effect="none" points="410.656,387.337 430.2,367.793 " />
<polyline fill="none" vector-effect="none" points="469.287,328.706 543.706,254.287 " />
<polyline fill="none" vector-effect="none" points="547.615,250.378 661.945,136.048 " />
<polyline fill="none" vector-effect="none" points="664.722,133.271 720.575,77.4179 " />
<polyline fill="none" vector-effect="none" points="410.656,421.885 430.2,402.342 " />
<polyline fill="none" vector-effect="none" points="469.287,363.254 578.255,254.287 " />
<polyline fill="none" vector-effect="none" points="582.163,250.378 755.124,77.4179 " />
<polyline fill="none" vector-effect="none" points="410.656,456.433 430.2,436.89 " />
<polyline fill="none" vector-effect="none" points="469.287,397.803 494.565,372.525 " />
<polyline fill="none" vector-effect="none" points="498.473,368.617 612.803,254.287 " />
<polyline fill="none" vector-effect="none" points="616.712,250.378 742.897,124.193 " />
<polyline fill="none" vector-effect="none" points="770.128,96.9614 789.672,77.4179 " />
<polyline fill="none" vector-effect="none" points="410.656,490.982 430.2,471.438 " />
<polyline fill="none" vector-effect="none" points="469.287,432.351 529.113,372.525 " />
<polyline fill="none" vector-effect="none" points="533.022,368.617 647.351,254.287 " />
<polyline fill="none" vector-effect="none" points="651.26,250.378 765.59,136.048 " />
<polyline fill="none" vector-effect="none" points="804.677,96.9614 824.22,77.4179 " />
<polyline fill="none" vector-effect="none" points="410.656,525.53 430.2,505.987 " />
<polyline fill="none" vector-effect="none" points="469.287,466.9 563.661,372.525 " />
<polyline fill="none" vector-effect="none" points="567.57,368.617 800.138,136.048 " />
<polyline fill="none" vector-effect="none" points="839.225,96.9614 858.769,77.4179 " />
<polyline fill="none" vector-effect="none" points="410.656,560.079 430.2,540.535 " />
<polyline fill="none" vector-effect="none" points="469.287,501.448 479.971,490.764 " />
<polyline fill="none" vector-effect="none" points="483.88,486.855 598.21,372.525 " />
<polyline fill="none" vector-effect="none" points="602.119,368.617 834.687,136.048 " />
<polyline fill="none" vector-effect="none" points="873.774,96.9614 893.317,77.4179 " />
<polyline fill="none" vector-effect="none" points="410.656,594.627 430.2,575.084 " />
<polyline fill="none" vector-effect="none" points="469.287,535.997 514.52,490.764 " />
<polyline fill="none" vector-effect="none" points="518.429,486.855 632.758,372.525 " />
<polyline fill="none" vector-effect="none" points="636.667,368.617 750.997,254.287 " />
<polyline fill="none" vector-effect="none" points="754.905,250.378 869.235,136.048 " />
<polyline fill="none" vector-effect="none" points="908.322,96.9614 927.866,77.4179 " />
<polyline fill="none" vector-effect="none" points="410.656,629.176 430.2,609.632 " />
<polyline fill="none" vector-effect="none" points="469.287,570.545 549.068,490.764 " />
<polyline fill="none" vector-effect="none" points="552.977,486.855 785.545,254.287 " />
<polyline fill="none" vector-effect="none" points="789.454,250.378 903.784,136.048 " />
<polyline fill="none" vector-effect="none" points="942.871,96.9614 962.414,77.4179 " />
<polyline fill="none" vector-effect="none" points="410.656,663.724 430.919,643.462 " />
<polyline fill="none" vector-effect="none" points="469.287,605.093 583.617,490.764 " />
<polyline fill="none" vector-effect="none" points="587.525,486.855 820.094,254.287 " />
<polyline fill="none" vector-effect="none" points="824.002,250.378 938.332,136.048 " />
<polyline fill="none" vector-effect="none" points="976.7,97.6801 996.963,77.4179 " />
<polyline fill="none" vector-effect="none" points="445.205,663.724 464.748,644.18 " />
<polyline fill="none" vector-effect="none" points="503.835,605.093 618.165,490.764 " />
<polyline fill="none" vector-effect="none" points="622.074,486.855 854.642,254.287 " />
<polyline fill="none" vector-effect="none" points="858.551,250.378 938.332,170.597 " />
<polyline fill="none" vector-effect="none" points="977.419,131.51 996.963,111.966 " />
<polyline fill="none" vector-effect="none" points="479.753,663.724 499.297,644.18 " />
<polyline fill="none" vector-effect="none" points="538.384,605.093 652.714,490.764 " />
<polyline fill="none" vector-effect="none" points="656.622,486.855 770.952,372.525 " />
<polyline fill="none" vector-effect="none" points="774.861,368.617 889.19,254.287 " />
<polyline fill="none" vector-effect="none" points="893.099,250.378 938.332,205.145 " />
<polyline fill="none" vector-effect="none" points="977.419,166.058 996.963,146.515 " />
<polyline fill="none" vector-effect="none" points="514.302,663.724 533.845,644.18 " />
<polyline fill="none" vector-effect="none" points="572.932,605.093 805.5,372.525 " />
<polyline fill="none" vector-effect="none" points="809.409,368.617 923.739,254.287 " />
<polyline fill="none" vector-effect="none" points="927.647,250.378 938.332,239.694 " />
<polyline fill="none" vector-effect="none" points="977.419,200.607 996.963,181.063 " />
<polyline fill="none" vector-effect="none" points="548.85,663.724 568.394,644.18 " />
<polyline fill="none" vector-effect="none" points="607.481,605.093 840.049,372.525 " />
<polyline fill="none" vector-effect="none" points="843.958,368.617 938.332,274.242 " />
<polyline fill="none" vector-effect="none" points="977.419,235.155 996.963,215.612 " />
<polyline fill="none" vector-effect="none" points="583.398,663.724 602.942,644.18 " />
<polyline fill="none" vector-effect="none" points="617.947,663.724 637.49,644.18 " />
<polyline fill="none" vector-effect="none" points="642.029,605.093 756.359,490.764 " />
<polyline fill="none" vector-effect="none" points="676.578,605.093 790.907,490.764 " />
<polyline fill="none" vector-effect="none" points="760.268,486.855 874.597,372.525 " />
<polyline fill="none" vector-effect="none" points="794.816,486.855 909.146,372.525 " />
<polyline fill="none" vector-effect="none" points="878.506,368.617 938.332,308.791 " />
<polyline fill="none" vector-effect="none" points="913.054,368.617 938.332,343.339 " />
<polyline fill="none" vector-effect="none" points="977.419,269.704 996.963,250.16 " />
<polyline fill="none" vector-effect="none" points="977.419,304.252 996.963,284.708 " />
<polyline fill="none" vector-effect="none" points="652.495,663.724 672.039,644.18 " />
<polyline fill="none" vector-effect="none" points="687.044,663.724 706.587,644.18 " />
<polyline fill="none" vector-effect="none" points="721.592,663.724 741.136,644.18 " />
<polyline fill="none" vector-effect="none" points="756.141,663.724 775.684,644.18 " />
<polyline fill="none" vector-effect="none" points="711.126,605.093 825.456,490.764 " />
<polyline fill="none" vector-effect="none" points="745.674,605.093 860.004,490.764 " />
<polyline fill="none" vector-effect="none" points="780.223,605.093 894.552,490.764 " />
<polyline fill="none" vector-effect="none" points="814.771,605.093 929.101,490.764 " />
<polyline fill="none" vector-effect="none" points="829.364,486.855 938.332,377.887 " />
<polyline fill="none" vector-effect="none" points="863.913,486.855 938.332,412.436 " />
<polyline fill="none" vector-effect="none" points="898.461,486.855 938.332,446.984 " />
<polyline fill="none" vector-effect="none" points="933.01,486.855 938.332,481.533 " />
<polyline fill="none" vector-effect="none" points="977.419,338.8 996.963,319.257 " />
<polyline fill="none" vector-effect="none" points="977.419,373.349 996.963,353.805 " />
<polyline fill="none" vector-effect="none" points="977.419,407.897 996.963,388.354 " />
<polyline fill="none" vector-effect="none" points="977.419,442.446 996.963,422.902 " />
<polyline fill="none" vector-effect="none" points="790.689,663.724 810.233,644.18 " />
<polyline fill="none" vector-effect="none" points="825.237,663.724 844.781,644.18 " />
<polyline fill="none" vector-effect="none" points="859.786,663.724 879.329,644.18 " />
<polyline fill="none" vector-effect="none" points="849.32,605.093 938.332,516.081 " />
<polyline fill="none" vector-effect="none" points="883.868,605.093 938.332,550.63 " />
<polyline fill="none" vector-effect="none" points="918.416,605.093 938.332,585.178 " />
<polyline fill="none" vector-effect="none" points="977.419,476.994 996.963,457.45 " />
<polyline fill="none" vector-effect="none" points="977.419,511.542 996.963,491.999 " />
<polyline fill="none" vector-effect="none" points="977.419,546.091 996.963,526.547 " />
<polyline fill="none" vector-effect="none" points="894.334,663.724 913.878,644.18 " />
<polyline fill="none" vector-effect="none" points="928.883,663.724 948.426,644.18 " />
<polyline fill="none" vector-effect="none" points="977.419,580.639 996.963,561.096 " />
<polyline fill="none" vector-effect="none" points="977.419,615.188 996.963,595.644 " />
<polyline fill="none" vector-effect="none" points="963.431,663.724 996.963,630.193 " />
<polyline fill="none" vector-effect="none" points="410.656,663.724 996.963,663.724 996.963,77.4179 410.656,77.4179 410.656,663.724 " />
<polyline fill="none" vector-effect="none" points="469.287,605.093 469.287,490.764 664.722,490.764 " />
<polyline fill="none" vector-effect="none" points="664.722,490.764 665.001,490.744 665.273,490.685 665.534,490.587 665.779,490.453 666.002,490.286 666.199,490.089 666.366,489.866 666.5,489.621 666.598,489.36 666.657,489.087 666.677,488.809 666.657,488.531 666.598,488.259 666.5,487.997 666.366,487.753 666.199,487.53 666.002,487.332 665.779,487.165 665.534,487.032 665.273,486.934 665.001,486.875 664.722,486.855 " />
<polyline fill="none" vector-effect="none" points="664.722,486.855 469.287,486.855 469.287,372.525 664.722,372.525 " />
<polyline fill="none" vector-effect="none" points="664.722,372.525 665.001,372.505 665.273,372.446 665.534,372.349 665.779,372.215 666.002,372.048 666.199,371.851 666.366,371.628 666.5,371.383 666.598,371.122 666.657,370.849 666.677,370.571 666.657,370.293 666.598,370.02 666.5,369.759 666.366,369.514 666.199,369.291 666.002,369.094 665.779,368.927 665.534,368.793 665.273,368.696 665.001,368.636 664.722,368.617 " />
<polyline fill="none" vector-effect="none" points="664.722,368.617 469.287,368.617 469.287,254.287 664.722,254.287 " />
<polyline fill="none" vector-effect="none" points="664.722,254.287 665.001,254.267 665.273,254.208 665.534,254.11 665.779,253.977 666.002,253.81 666.199,253.612 666.366,253.389 666.5,253.144 666.598,252.883 666.657,252.611 666.677,252.333 666.657,252.054 666.598,251.782 666.5,251.521 666.366,251.276 666.199,251.053 666.002,250.856 665.779,250.688 665.534,250.555 665.273,250.457 665.001,250.398 664.722,250.378 " />
<polyline fill="none" vector-effect="none" points="664.722,250.378 469.287,250.378 469.287,136.048 662.279,136.048 " />
<polyline fill="none" vector-effect="none" points="662.279,136.048 662.574,136.031 662.864,135.977 663.146,135.89 663.415,135.769 663.667,135.616 663.899,135.434 664.108,135.225 664.29,134.993 664.443,134.741 664.564,134.472 664.651,134.19 664.705,133.9 664.722,133.606 " />
<polyline fill="none" vector-effect="none" points="664.722,133.606 664.722,99.4043 " />
<polyline fill="none" vector-effect="none" points="664.722,99.4043 664.705,99.1099 664.651,98.8197 664.564,98.5381 664.443,98.269 664.29,98.0166 664.108,97.7844 663.899,97.5758 663.667,97.3938 663.415,97.2412 663.146,97.1201 662.864,97.0324 662.574,96.9792 662.279,96.9614 " />
<polyline fill="none" vector-effect="none" points="662.279,96.9614 432.643,96.9614 " />
<polyline fill="none" vector-effect="none" points="432.643,96.9614 432.348,96.9792 432.058,97.0324 431.777,97.1201 431.508,97.2412 431.255,97.3938 431.023,97.5758 430.814,97.7844 430.632,98.0166 430.48,98.269 430.359,98.5381 430.271,98.8197 430.218,99.1099 430.2,99.4043 " />
<polyline fill="none" vector-effect="none" points="430.2,99.4043 430.2,641.738 " />
<polyline fill="none" vector-effect="none" points="430.2,641.738 430.218,642.032 430.271,642.322 430.359,642.604 430.48,642.873 430.632,643.125 430.814,643.358 431.023,643.566 431.255,643.748 431.508,643.901 431.777,644.022 432.058,644.109 432.348,644.163 432.643,644.18 " />
<polyline fill="none" vector-effect="none" points="432.643,644.18 974.976,644.18 " />
<polyline fill="none" vector-effect="none" points="974.976,644.18 975.271,644.163 975.561,644.109 975.842,644.022 976.111,643.901 976.364,643.748 976.596,643.566 976.805,643.358 976.987,643.125 977.139,642.873 977.26,642.604 977.348,642.322 977.401,642.032 977.419,641.738 " />
<polyline fill="none" vector-effect="none" points="977.419,641.738 977.419,99.4043 " />
<polyline fill="none" vector-effect="none" points="977.419,99.4043 977.401,99.1099 977.348,98.8197 977.26,98.5381 977.139,98.269 976.987,98.0166 976.805,97.7844 976.596,97.5758 976.364,97.3938 976.111,97.2412 975.842,97.1201 975.561,97.0324 975.271,96.9792 974.976,96.9614 " />
<polyline fill="none" vector-effect="none" points="974.976,96.9614 745.339,96.9614 " />
<polyline fill="none" vector-effect="none" points="745.339,96.9614 745.045,96.9792 744.755,97.0324 744.473,97.1201 744.204,97.2412 743.952,97.3938 743.72,97.5758 743.511,97.7844 743.329,98.0166 743.176,98.269 743.055,98.5381 742.968,98.8197 742.914,99.1099 742.897,99.4043 " />
<polyline fill="none" vector-effect="none" points="742.897,99.4043 742.897,133.606 " />
<polyline fill="none" vector-effect="none" points="742.897,133.606 742.914,133.9 742.968,134.19 743.055,134.472 743.176,134.741 743.329,134.993 743.511,135.225 743.72,135.434 743.952,135.616 744.204,135.769 744.473,135.89 744.755,135.977 745.045,136.031 745.339,136.048 " />
<polyline fill="none" vector-effect="none" points="745.339,136.048 938.332,136.048 938.332,250.378 742.897,250.378 " />
<polyline fill="none" vector-effect="none" points="742.897,250.378 742.618,250.398 742.346,250.457 742.085,250.555 741.84,250.688 741.617,250.856 741.42,251.053 741.252,251.276 741.119,251.521 741.021,251.782 740.962,252.054 740.942,252.333 740.962,252.611 741.021,252.883 741.119,253.144 741.252,253.389 741.42,253.612 741.617,253.81 741.84,253.977 742.085,254.11 742.346,254.208 742.618,254.267 742.897,254.287 " />
<polyline fill="none" vector-effect="none" points="742.897,254.287 938.332,254.287 938.332,368.617 742.897,368.617 " />
<polyline fill="none" vector-effect="none" points="742.897,368.617 742.618,368.636 742.346,368.696 742.085,368.793 741.84,368.927 741.617,369.094 741.42,369.291 741.252,369.514 741.119,369.759 741.021,370.02 740.962,370.293 740.942,370.571 740.962,370.849 741.021,371.122 741.119,371.383 741.252,371.628 741.42,371.851 741.617,372.048 741.84,372.215 742.085,372.349 742.346,372.446 742.618,372.505 742.897,372.525 " />
<polyline fill="none" vector-effect="none" points="742.897,372.525 938.332,372.525 938.332,486.855 742.897,486.855 " />
<polyline fill="none" vector-effect="none" points="742.897,486.855 742.618,486.875 742.346,486.934 742.085,487.032 741.84,487.165 741.617,487.332 741.42,487.53 741.252,487.753 741.119,487.997 741.021,488.259 740.962,488.531 740.942,488.809 740.962,489.087 741.021,489.36 741.119,489.621 741.252,489.866 741.42,490.089 741.617,490.286 741.84,490.453 742.085,490.587 742.346,490.685 742.618,490.744 742.897,490.764 " />
<polyline fill="none" vector-effect="none" points="742.897,490.764 938.332,490.764 938.332,605.093 469.287,605.093 " />
<polyline fill="none" vector-effect="none" points="770.864,180.021 735.686,180.021 " />
<polyline fill="none" vector-effect="none" points="735.686,180.021 735.686,250.378 " />
<polyline fill="none" vector-effect="none" points="676.937,250.378 770.864,250.378 " />
<polyline fill="none" vector-effect="none" points="676.937,254.287 770.864,254.287 " />
<polyline fill="none" vector-effect="none" points="735.686,289.465 735.686,324.644 " />
</g>

<g fill="#ffffff" fill-opacity="1" stroke="none" transform="matrix(1,0,0,1,0,0)"
font-family="Sans Serif" font-size="20.125" font-weight="400" font-style="normal" 
>
<path vector-effect="none" fill-rule="evenodd" d="M729.823,215.2 L735.686,250.378 L741.549,215.2 L729.823,215.2"/>
</g>

<g fill="#ffffff" fill-opacity="1" stroke="#ffffff" stroke-opacity="1" stroke-width="2" stroke-linecap="square" stroke-linejoin="bevel" transform="matrix(1,0,0,1,0,0)"
font-family="Sans Serif" font-size="20.125" font-weight="400" font-style="normal" 
>
</g>

<g fill="#ffffff" fill-opacity="1" stroke="none" transform="matrix(1,0,0,1,0,0)"
font-family="Sans Serif" font-size="20.125" font-weight="400" font-style="normal" 
>
<path vector-effect="none" fill-rule="evenodd" d="M741.549,289.465 L735.686,254.287 L729.823,289.465 L741.549,289.465"/>
</g>

<g fill="#ffffff" fill-opacity="1" stroke="#ffffff" stroke-opacity="1" stroke-width="2" stroke-linecap="square" stroke-linejoin="bevel" transform="matrix(1,0,0,1,0,0)"
font-family="Sans Serif" font-size="20.125" font-weight="400" font-style="normal" 
>
</g>

<g fill="#ffffff" fill-opacity="1" stroke="#ffffff" stroke-opacity="1" stroke-width="2" stroke-linecap="round" stroke-linejoin="bevel" transform="matrix(1,0,0,1,0,0)"
font-family="Sans Serif" font-size="20.125" font-weight="400" font-style="normal" 
>
<polyline fill="none" vector-effect="none" points="801.854,197.611 806.88,195.935 810.23,190.91 811.905,182.534 811.905,177.509 810.23,169.133 806.88,164.107 801.854,162.432 798.504,162.432 793.479,164.107 790.128,169.133 788.453,177.509 788.453,182.534 790.128,190.91 793.479,195.935 798.504,197.611 801.854,197.611 " />
<polyline fill="none" vector-effect="none" points="825.307,197.611 826.982,195.935 825.307,194.26 823.632,195.935 825.307,197.611 " />
<polyline fill="none" vector-effect="none" points="840.383,170.808 840.383,169.133 842.058,165.783 843.733,164.107 847.084,162.432 853.784,162.432 857.135,164.107 858.81,165.783 860.485,169.133 860.485,172.483 858.81,175.834 855.46,180.859 838.708,197.611 862.16,197.611 " />
<polyline fill="none" vector-effect="none" points="885.613,197.611 890.638,195.935 893.988,190.91 895.663,182.534 895.663,177.509 893.988,169.133 890.638,164.107 885.613,162.432 882.262,162.432 877.237,164.107 873.886,169.133 872.211,177.509 872.211,182.534 873.886,190.91 877.237,195.935 882.262,197.611 885.613,197.611 " />
</g>

<g fill="#ffffff" fill-opacity="1" stroke="#ffffff" stroke-opacity="1" stroke-width="2" stroke-linecap="square" stroke-linejoin="bevel" transform="matrix(1,0,0,1,0,0)"
font-family="Sans Serif" font-size="20.125" font-weight="400" font-style="normal" 
>
<polyline fill="none" vector-effect="none" points="664.722,104.29 664.722,-1.13687e-13 " />
<polyline fill="none" vector-effect="none" points="742.897,104.29 742.897,-1.13687e-13 " />
<polyline fill="none" vector-effect="none" points="778.075,35.1784 813.253,35.1784 " />
<polyline fill="none" vector-effect="none" points="629.544,35.1784 594.366,35.1784 " />
</g>

<g fill="#ffffff" fill-opacity="1" stroke="none" transform="matrix(1,0,0,1,0,0)"
font-family="Sans Serif" font-size="20.125" font-weight="400" font-style="normal" 
>
<path vector-effect="none" fill-rule="evenodd" d="M629.544,41.0414 L664.722,35.1784 L629.544,29.3153 L629.544,41.0414"/>
</g>

<g fill="#ffffff" fill-opacity="1" stroke="#ffffff" stroke-opacity="1" stroke-width="2" stroke-linecap="square" stroke-linejoin="bevel" transform="matrix(1,0,0,1,0,0)"
font-family="Sans Serif" font-size="20.125" font-weight="400" font-style="normal" 
>
</g>

<g fill="#ffffff" fill-opacity="1" stroke="none" transform="matrix(1,0,0,1,0,0)"
font-family="Sans Serif" font-size="20.125" font-weight="400" font-style="normal" 
>
<path vector-effect="none" fill-rule="evenodd" d="M778.075,29.3153 L742.897,35.1784 L778.075,41.0414 L778.075,29.3153"/>
</g>

<g fill="#ffffff" fill-opacity="1" stroke="#ffffff" stroke-opacity="1" stroke-width="2" stroke-linecap="square" stroke-linejoin="bevel" transform="matrix(1,0,0,1,0,0)"
font-family="Sans Serif" font-size="20.125" font-weight="400" font-style="normal" 
>
</g>

<g fill="#ffffff" fill-opacity="1" stroke="#ffffff" stroke-opacity="1" stroke-width="2" stroke-linecap="round" stroke-linejoin="bevel" transform="matrix(1,0,0,1,0,0)"
font-family="Sans Serif" font-size="20.125" font-weight="400" font-style="normal" 
>
<polyline fill="none" vector-effect="none" points="847.594,52.7676 847.594,17.5892 830.842,41.0414 855.97,41.0414 " />
<polyline fill="none" vector-effect="none" points="867.696,52.7676 869.371,51.0924 867.696,49.4172 866.021,51.0924 867.696,52.7676 " />
<polyline fill="none" vector-effect="none" points="894.499,52.7676 899.524,51.0924 902.874,46.0669 904.55,37.6911 904.55,32.6656 902.874,24.2898 899.524,19.2643 894.499,17.5892 891.148,17.5892 886.123,19.2643 882.772,24.2898 881.097,32.6656 881.097,37.6911 882.772,46.0669 886.123,51.0924 891.148,52.7676 894.499,52.7676 " />
<polyline fill="none" vector-effect="none" points="928.002,52.7676 933.027,51.0924 936.378,46.0669 938.053,37.6911 938.053,32.6656 936.378,24.2898 933.027,19.2643 928.002,17.5892 924.651,17.5892 919.626,19.2643 916.276,24.2898 914.6,32.6656 914.6,37.6911 916.276,46.0669 919.626,51.0924 924.651,52.7676 928.002,52.7676 " />
</g>

<g fill="#ffffff" fill-opacity="1" stroke="#ffffff" stroke-opacity="1" stroke-width="2" stroke-linecap="square" stroke-linejoin="bevel" transform="matrix(1,0,0,1,0,0)"
font-family="Sans Serif" font-size="20.125" font-weight="400" font-style="normal" 
>
<polyline fill="none" vector-effect="none" points="977.419,653.952 977.419,730 " />
<polyline fill="none" vector-effect="none" points="996.963,675.939 996.963,730 " />
<polyline fill="none" vector-effect="none" points="977.419,694.822 873.559,694.822 " />
<polyline fill="none" vector-effect="none" points="942.241,694.822 907.062,694.822 " />
<polyline fill="none" vector-effect="none" points="1032.14,694.822 1067.32,694.822 " />
</g>

<g fill="#ffffff" fill-opacity="1" stroke="none" transform="matrix(1,0,0,1,0,0)"
font-family="Sans Serif" font-size="20.125" font-weight="400" font-style="normal" 
>
<path vector-effect="none" fill-rule="evenodd" d="M942.241,700.685 L977.419,694.822 L942.241,688.959 L942.241,700.685"/>
</g>

<g fill="#ffffff" fill-opacity="1" stroke="#ffffff" stroke-opacity="1" stroke-width="2" stroke-linecap="square" stroke-linejoin="bevel" transform="matrix(1,0,0,1,0,0)"
font-family="Sans Serif" font-size="20.125" font-weight="400" font-style="normal" 
>
</g>

<g fill="#ffffff" fill-opacity="1" stroke="none" transform="matrix(1,0,0,1,0,0)"
font-family="Sans Serif" font-size="20.125" font-weight="400" font-style="normal" 
>
<path vector-effect="none" fill-rule="evenodd" d="M1032.14,688.959 L996.963,694.822 L1032.14,700.685 L1032.14,688.959"/>
</g>

<g fill="#ffffff" fill-opacity="1" stroke="#ffffff" stroke-opacity="1" stroke-width="2" stroke-linecap="square" stroke-linejoin="bevel" transform="matrix(1,0,0,1,0,0)"
font-family="Sans Serif" font-size="20.125" font-weight="400" font-style="normal" 
>
</g>

<g fill="#ffffff" fill-opacity="1" stroke="#ffffff" stroke-opacity="1" stroke-width="2" stroke-linecap="round" stroke-linejoin="bevel" transform="matrix(1,0,0,1,0,0)"
font-family="Sans Serif" font-size="20.125" font-weight="400" font-style="normal" 
>
<polyline fill="none" vector-effect="none" points="753.785,683.933 757.135,682.258 762.161,677.232 762.161,712.411 " />
<polyline fill="none" vector-effect="none" points="785.613,712.411 787.288,710.736 785.613,709.06 783.938,710.736 785.613,712.411 " />
<polyline fill="none" vector-effect="none" points="812.416,712.411 817.441,710.736 820.792,705.71 822.467,697.334 822.467,692.309 820.792,683.933 817.441,678.908 812.416,677.232 809.065,677.232 804.04,678.908 800.69,683.933 799.014,692.309 799.014,697.334 800.69,705.71 804.04,710.736 809.065,712.411 812.416,712.411 " />
<polyline fill="none" vector-effect="none" points="845.919,712.411 850.944,710.736 854.295,705.71 855.97,697.334 855.97,692.309 854.295,683.933 850.944,678.908 845.919,677.232 842.569,677.232 837.543,678.908 834.193,683.933 832.518,692.309 832.518,697.334 834.193,705.71 837.543,710.736 842.569,712.411 845.919,712.411 " />
</g>

<g fill="#ffffff" fill-opacity="1" stroke="#ffffff" stroke-opacity="1" stroke-width="2" stroke-linecap="square" stroke-linejoin="bevel" transform="matrix(1,0,0,1,0,0)"
font-family="Sans Serif" font-size="20.125" font-weight="400" font-style="normal" 
>
<polyline fill="none" vector-effect="none" points="755.111,486.855 862.821,486.855 " />
<polyline fill="none" vector-effect="none" points="755.111,372.525 862.821,372.525 " />
<polyline fill="none" vector-effect="none" points="827.643,522.033 827.643,557.212 " />
<polyline fill="none" vector-effect="none" points="827.643,337.347 827.643,302.169 " />
</g>

<g fill="#ffffff" fill-opacity="1" stroke="none" transform="matrix(1,0,0,1,0,0)"
font-family="Sans Serif" font-size="20.125" font-weight="400" font-style="normal" 
>
<path vector-effect="none" fill-rule="evenodd" d="M833.506,522.033 L827.643,486.855 L821.78,522.033 L833.506,522.033"/>
</g>

<g fill="#ffffff" fill-opacity="1" stroke="#ffffff" stroke-opacity="1" stroke-width="2" stroke-linecap="square" stroke-linejoin="bevel" transform="matrix(1,0,0,1,0,0)"
font-family="Sans Serif" font-size="20.125" font-weight="400" font-style="normal" 
>
</g>

<g fill="#ffffff" fill-opacity="1" stroke="none" transform="matrix(1,0,0,1,0,0)"
font-family="Sans Serif" font-size="20.125" font-weight="400" font-style="normal" 
>
<path vector-effect="none" fill-rule="evenodd" d="M821.78,337.347 L827.643,372.525 L833.506,337.347 L821.78,337.347"/>
</g>

<g fill="#ffffff" fill-opacity="1" stroke="#ffffff" stroke-opacity="1" stroke-width="2" stroke-linecap="square" stroke-linejoin="bevel" transform="matrix(1,0,0,1,0,0)"
font-family="Sans Serif" font-size="20.125" font-weight="400" font-style="normal" 
>
</g>

<g fill="#ffffff" fill-opacity="1" stroke="#ffffff" stroke-opacity="1" stroke-width="2" stroke-linecap="round" stroke-linejoin="bevel" transform="matrix(1,0,0,1,0,0)"
font-family="Sans Serif" font-size="20.125" font-weight="400" font-style="normal" 
>
<polyline fill="none" vector-effect="none" points="774.038,439.893 775.713,443.243 777.388,444.918 782.414,446.593 787.439,446.593 792.465,444.918 795.815,441.568 797.49,436.542 797.49,433.192 795.815,428.167 792.465,424.816 787.439,423.141 782.414,423.141 777.388,424.816 775.713,426.491 777.388,411.415 794.14,411.415 " />
<polyline fill="none" vector-effect="none" points="810.891,446.593 812.566,444.918 810.891,443.243 809.216,444.918 810.891,446.593 " />
<polyline fill="none" vector-effect="none" points="832.668,446.593 839.369,446.593 844.395,444.918 846.07,443.243 847.745,439.893 847.745,434.867 846.07,431.517 842.719,428.167 837.694,426.491 830.993,424.816 827.643,423.141 825.968,419.791 825.968,416.441 827.643,413.09 832.668,411.415 839.369,411.415 844.395,413.09 846.07,416.441 846.07,419.791 844.395,423.141 841.044,424.816 834.344,426.491 829.318,428.167 825.968,431.517 824.293,434.867 824.293,439.893 825.968,443.243 827.643,444.918 832.668,446.593 " />
<polyline fill="none" vector-effect="none" points="857.796,439.893 859.471,443.243 861.146,444.918 866.172,446.593 871.197,446.593 876.223,444.918 879.573,441.568 881.248,436.542 881.248,433.192 879.573,428.167 876.223,424.816 871.197,423.141 866.172,423.141 861.146,424.816 859.471,426.491 861.146,411.415 877.898,411.415 " />
</g>

<g fill="#ffffff" fill-opacity="1" stroke="#ffffff" stroke-opacity="1" stroke-width="2" stroke-linecap="square" stroke-linejoin="bevel" transform="matrix(1,0,0,1,0,0)"
font-family="Sans Serif" font-size="20.125" font-weight="400" font-style="normal" 
>
<polyline fill="none" vector-effect="none" points="469.287,502.978 469.287,576.682 " />
<polyline fill="none" vector-effect="none" points="430.2,502.978 430.2,576.682 " />
<polyline fill="none" vector-effect="none" points="469.287,541.503 573.147,541.503 " />
<polyline fill="none" vector-effect="none" points="504.465,541.503 539.644,541.503 " />
<polyline fill="none" vector-effect="none" points="395.022,541.503 359.843,541.503 " />
</g>

<g fill="#ffffff" fill-opacity="1" stroke="none" transform="matrix(1,0,0,1,0,0)"
font-family="Sans Serif" font-size="20.125" font-weight="400" font-style="normal" 
>
<path vector-effect="none" fill-rule="evenodd" d="M504.465,535.64 L469.287,541.503 L504.465,547.366 L504.465,535.64"/>
</g>

<g fill="#ffffff" fill-opacity="1" stroke="#ffffff" stroke-opacity="1" stroke-width="2" stroke-linecap="square" stroke-linejoin="bevel" transform="matrix(1,0,0,1,0,0)"
font-family="Sans Serif" font-size="20.125" font-weight="400" font-style="normal" 
>
</g>

<g fill="#ffffff" fill-opacity="1" stroke="none" transform="matrix(1,0,0,1,0,0)"
font-family="Sans Serif" font-size="20.125" font-weight="400" font-style="normal" 
>
<path vector-effect="none" fill-rule="evenodd" d="M395.022,547.366 L430.2,541.503 L395.022,535.64 L395.022,547.366"/>
</g>

<g fill="#ffffff" fill-opacity="1" stroke="#ffffff" stroke-opacity="1" stroke-width="2" stroke-linecap="square" stroke-linejoin="bevel" transform="matrix(1,0,0,1,0,0)"
font-family="Sans Serif" font-size="20.125" font-weight="400" font-style="normal" 
>
</g>

<g fill="#ffffff" fill-opacity="1" stroke="#ffffff" stroke-opacity="1" stroke-width="2" stroke-linecap="round" stroke-linejoin="bevel" transform="matrix(1,0,0,1,0,0)"
font-family="Sans Serif" font-size="20.125" font-weight="400" font-style="normal" 
>
<polyline fill="none" vector-effect="none" points="592.411,532.29 592.411,530.615 594.086,527.264 595.762,525.589 599.112,523.914 605.813,523.914 609.163,525.589 610.838,527.264 612.513,530.615 612.513,533.965 610.838,537.315 607.488,542.341 590.736,559.092 614.188,559.092 " />
<polyline fill="none" vector-effect="none" points="627.59,559.092 629.265,557.417 627.59,555.742 625.915,557.417 627.59,559.092 " />
<polyline fill="none" vector-effect="none" points="654.392,559.092 659.418,557.417 662.768,552.392 664.443,544.016 664.443,538.991 662.768,530.615 659.418,525.589 654.392,523.914 651.042,523.914 646.016,525.589 642.666,530.615 640.991,538.991 640.991,544.016 642.666,552.392 646.016,557.417 651.042,559.092 654.392,559.092 " />
<polyline fill="none" vector-effect="none" points="687.895,559.092 692.921,557.417 696.271,552.392 697.946,544.016 697.946,538.991 696.271,530.615 692.921,525.589 687.895,523.914 684.545,523.914 679.52,525.589 676.169,530.615 674.494,538.991 674.494,544.016 676.169,552.392 679.52,557.417 684.545,559.092 687.895,559.092 " />
</g>

<g fill="none" stroke="#000000" stroke-opacity="1" stroke-width="1" stroke-linecap="square" stroke-linejoin="bevel" transform="matrix(1,0,0,1,0,0)"
font-family="Sans Serif" font-size="20.125" font-weight="400" font-style="normal" 
>
</g>
</g>
</svg>
