<?xml version="1.0" encoding="UTF-8" standalone="no"?>
<svg width="291.548mm" height="115.168mm"
 viewBox="0 0 1848 730"
 xmlns="http://www.w3.org/2000/svg" xmlns:xlink="http://www.w3.org/1999/xlink"  version="1.2" baseProfile="tiny">
<title>Qt SVG Document</title>
<desc>Generated with Qt</desc>
<defs>
</defs>
<g fill="none" stroke="black" stroke-width="1" fill-rule="evenodd" stroke-linecap="square" stroke-linejoin="bevel" >

<g fill="#000000" fill-opacity="1" stroke="none" transform="matrix(1,0,0,1,0,0)"
font-family="Sans Serif" font-size="20.125" font-weight="400" font-style="normal" 
>
<rect x="0" y="0" width="1848" height="730"/>
</g>

<g fill="none" stroke="#000000" stroke-opacity="1" stroke-width="1" stroke-linecap="square" stroke-linejoin="bevel" transform="matrix(1,0,0,1,0,0)"
font-family="Sans Serif" font-size="20.125" font-weight="400" font-style="normal" 
>
</g>

<g fill="#000000" fill-opacity="1" stroke="#000000" stroke-opacity="1" stroke-width="1" stroke-linecap="butt" stroke-linejoin="miter" stroke-miterlimit="2" transform="matrix(1,0,0,1,0,0)"
font-family="Sans Serif" font-size="20.125" font-weight="400" font-style="normal" 
>
</g>

<g fill="#000000" fill-opacity="1" stroke="#000000" stroke-opacity="1" stroke-width="1" stroke-linecap="butt" stroke-linejoin="miter" stroke-miterlimit="2" transform="matrix(1,0,0,1,0,0)"
font-family="Sans Serif" font-size="20.125" font-weight="400" font-style="normal" 
>
</g>

<g fill="#ffffff" fill-opacity="1" stroke="#ffffff" stroke-opacity="1" stroke-width="2" stroke-linecap="square" stroke-linejoin="bevel" transform="matrix(1,0,0,1,0,0)"
font-family="Sans Serif" font-size="20.125" font-weight="400" font-style="normal" 
>
<polyline fill="none" vector-effect="none" points="358.728,76.1933 393.911,41.0112 " />
<polyline fill="none" vector-effect="none" points="358.728,112.442 430.16,41.0112 " />
<polyline fill="none" vector-effect="none" points="358.728,148.692 466.409,41.0112 " />
<polyline fill="none" vector-effect="none" points="358.728,184.941 502.658,41.0112 " />
<polyline fill="none" vector-effect="none" points="358.728,221.19 538.907,41.0112 " />
<polyline fill="none" vector-effect="none" points="358.728,257.439 575.156,41.0112 " />
<polyline fill="none" vector-effect="none" points="358.728,293.688 611.405,41.0112 " />
<polyline fill="none" vector-effect="none" points="358.728,329.937 647.655,41.0112 " />
<polyline fill="none" vector-effect="none" points="358.728,366.187 683.904,41.0112 " />
<polyline fill="none" vector-effect="none" points="358.728,402.436 720.153,41.0112 " />
<polyline fill="none" vector-effect="none" points="358.728,438.685 756.402,41.0112 " />
<polyline fill="none" vector-effect="none" points="358.728,474.934 792.651,41.0112 " />
<polyline fill="none" vector-effect="none" points="358.728,511.183 828.9,41.0112 " />
<polyline fill="none" vector-effect="none" points="358.728,547.432 865.15,41.0112 " />
<polyline fill="none" vector-effect="none" points="358.728,583.681 901.399,41.0112 " />
<polyline fill="none" vector-effect="none" points="379.895,598.764 937.648,41.0112 " />
<polyline fill="none" vector-effect="none" points="416.144,598.764 973.897,41.0112 " />
<polyline fill="none" vector-effect="none" points="416.144,598.764 973.897,41.0112 " />
<polyline fill="none" vector-effect="none" points="452.393,598.764 973.897,77.2604 " />
<polyline fill="none" vector-effect="none" points="488.643,598.764 973.897,113.51 " />
<polyline fill="none" vector-effect="none" points="524.892,598.764 973.897,149.759 " />
<polyline fill="none" vector-effect="none" points="561.141,598.764 973.897,186.008 " />
<polyline fill="none" vector-effect="none" points="597.39,598.764 973.897,222.257 " />
<polyline fill="none" vector-effect="none" points="633.639,598.764 973.897,258.506 " />
<polyline fill="none" vector-effect="none" points="669.888,598.764 973.897,294.755 " />
<polyline fill="none" vector-effect="none" points="706.137,598.764 973.897,331.004 " />
<polyline fill="none" vector-effect="none" points="742.387,598.764 973.897,367.254 " />
<polyline fill="none" vector-effect="none" points="778.636,598.764 973.897,403.503 " />
<polyline fill="none" vector-effect="none" points="814.885,598.764 973.897,439.752 " />
<polyline fill="none" vector-effect="none" points="851.134,598.764 973.897,476.001 " />
<polyline fill="none" vector-effect="none" points="887.383,598.764 973.897,512.25 " />
<polyline fill="none" vector-effect="none" points="923.632,598.764 973.897,548.499 " />
<polyline fill="none" vector-effect="none" points="959.882,598.764 973.897,584.749 " />
<polyline fill="none" vector-effect="none" points="358.728,656.18 973.897,656.18 973.897,41.0112 358.728,41.0112 358.728,656.18 " />
<polyline fill="none" vector-effect="none" points="358.728,656.18 358.728,598.764 973.897,598.764 973.897,656.18 358.728,656.18 " />
<polyline fill="none" vector-effect="none" points="986.713,656.18 1045.72,656.18 " />
<polyline fill="none" vector-effect="none" points="986.713,598.764 1045.72,598.764 " />
<polyline fill="none" vector-effect="none" points="1008.81,524.944 1045.72,524.944 " />
<polyline fill="none" vector-effect="none" points="1008.81,693.09 1008.81,730 " />
<polyline fill="none" vector-effect="none" points="1008.81,561.854 1008.81,524.944 " />
</g>

<g fill="#ffffff" fill-opacity="1" stroke="none" transform="matrix(1,0,0,1,0,0)"
font-family="Sans Serif" font-size="20.125" font-weight="400" font-style="normal" 
>
<path vector-effect="none" fill-rule="evenodd" d="M1014.96,693.09 L1008.81,656.18 L1002.66,693.09 L1014.96,693.09"/>
</g>

<g fill="#ffffff" fill-opacity="1" stroke="#ffffff" stroke-opacity="1" stroke-width="2" stroke-linecap="square" stroke-linejoin="bevel" transform="matrix(1,0,0,1,0,0)"
font-family="Sans Serif" font-size="20.125" font-weight="400" font-style="normal" 
>
</g>

<g fill="#ffffff" fill-opacity="1" stroke="none" transform="matrix(1,0,0,1,0,0)"
font-family="Sans Serif" font-size="20.125" font-weight="400" font-style="normal" 
>
<path vector-effect="none" fill-rule="evenodd" d="M1002.66,561.854 L1008.81,598.764 L1014.96,561.854 L1002.66,561.854"/>
</g>

<g fill="#ffffff" fill-opacity="1" stroke="#ffffff" stroke-opacity="1" stroke-width="2" stroke-linecap="square" stroke-linejoin="bevel" transform="matrix(1,0,0,1,0,0)"
font-family="Sans Serif" font-size="20.125" font-weight="400" font-style="normal" 
>
</g>

<g fill="#ffffff" fill-opacity="1" stroke="#ffffff" stroke-opacity="1" stroke-width="2" stroke-linecap="round" stroke-linejoin="bevel" transform="matrix(1,0,0,1,0,0)"
font-family="Sans Serif" font-size="20.125" font-weight="400" font-style="normal" 
>
<polyline fill="none" vector-effect="none" points="1065.94,515.277 1065.94,513.519 1067.69,510.004 1069.45,508.246 1072.97,506.489 1080,506.489 1083.51,508.246 1085.27,510.004 1087.03,513.519 1087.03,517.035 1085.27,520.55 1081.75,525.823 1064.18,543.399 1088.78,543.399 " />
<polyline fill="none" vector-effect="none" points="1102.85,543.399 1104.6,541.641 1102.85,539.884 1101.09,541.641 1102.85,543.399 " />
<polyline fill="none" vector-effect="none" points="1125.69,543.399 1132.73,543.399 1138,541.641 1139.76,539.884 1141.51,536.368 1141.51,531.096 1139.76,527.58 1136.24,524.065 1130.97,522.307 1123.94,520.55 1120.42,518.792 1118.66,515.277 1118.66,511.762 1120.42,508.246 1125.69,506.489 1132.73,506.489 1138,508.246 1139.76,511.762 1139.76,515.277 1138,518.792 1134.48,520.55 1127.45,522.307 1122.18,524.065 1118.66,527.58 1116.91,531.096 1116.91,536.368 1118.66,539.884 1120.42,541.641 1125.69,543.399 " />
<polyline fill="none" vector-effect="none" points="1166.12,543.399 1171.39,541.641 1174.91,536.368 1176.67,527.58 1176.67,522.307 1174.91,513.519 1171.39,508.246 1166.12,506.489 1162.6,506.489 1157.33,508.246 1153.82,513.519 1152.06,522.307 1152.06,527.58 1153.82,536.368 1157.33,541.641 1162.6,543.399 1166.12,543.399 " />
</g>

<g fill="none" stroke="#000000" stroke-opacity="1" stroke-width="1" stroke-linecap="square" stroke-linejoin="bevel" transform="matrix(1,0,0,1,0,0)"
font-family="Sans Serif" font-size="20.125" font-weight="400" font-style="normal" 
>
</g>
</g>
</svg>
