<?xml version="1.0" encoding="UTF-8" standalone="no"?>
<svg width="291.548mm" height="115.168mm"
 viewBox="0 0 1848 730"
 xmlns="http://www.w3.org/2000/svg" xmlns:xlink="http://www.w3.org/1999/xlink"  version="1.2" baseProfile="tiny">
<title>Qt SVG Document</title>
<desc>Generated with Qt</desc>
<defs>
</defs>
<g fill="none" stroke="black" stroke-width="1" fill-rule="evenodd" stroke-linecap="square" stroke-linejoin="bevel" >

<g fill="#000000" fill-opacity="1" stroke="none" transform="matrix(1,0,0,1,0,0)"
font-family="Sans Serif" font-size="20.125" font-weight="400" font-style="normal" 
>
<rect x="0" y="0" width="1848" height="730"/>
</g>

<g fill="none" stroke="#000000" stroke-opacity="1" stroke-width="1" stroke-linecap="square" stroke-linejoin="bevel" transform="matrix(1,0,0,1,0,0)"
font-family="Sans Serif" font-size="20.125" font-weight="400" font-style="normal" 
>
</g>

<g fill="#000000" fill-opacity="1" stroke="#000000" stroke-opacity="1" stroke-width="1" stroke-linecap="butt" stroke-linejoin="miter" stroke-miterlimit="2" transform="matrix(1,0,0,1,0,0)"
font-family="Sans Serif" font-size="20.125" font-weight="400" font-style="normal" 
>
</g>

<g fill="#000000" fill-opacity="1" stroke="#000000" stroke-opacity="1" stroke-width="1" stroke-linecap="butt" stroke-linejoin="miter" stroke-miterlimit="2" transform="matrix(1,0,0,1,0,0)"
font-family="Sans Serif" font-size="20.125" font-weight="400" font-style="normal" 
>
</g>

<g fill="#ffffff" fill-opacity="1" stroke="#ffffff" stroke-opacity="1" stroke-width="2" stroke-linecap="square" stroke-linejoin="bevel" transform="matrix(1,0,0,1,0,0)"
font-family="Sans Serif" font-size="20.125" font-weight="400" font-style="normal" 
>
<polyline fill="none" vector-effect="none" points="332.127,79.7789 368.965,42.9412 " />
<polyline fill="none" vector-effect="none" points="332.127,117.734 406.92,42.9412 " />
<polyline fill="none" vector-effect="none" points="332.127,155.689 444.875,42.9412 " />
<polyline fill="none" vector-effect="none" points="332.127,193.644 392.245,133.526 " />
<polyline fill="none" vector-effect="none" points="332.127,231.599 392.245,171.481 " />
<polyline fill="none" vector-effect="none" points="332.127,269.554 392.245,209.436 " />
<polyline fill="none" vector-effect="none" points="332.127,307.509 392.245,247.391 " />
<polyline fill="none" vector-effect="none" points="332.127,345.464 392.245,285.346 " />
<polyline fill="none" vector-effect="none" points="332.127,383.419 392.245,323.301 " />
<polyline fill="none" vector-effect="none" points="332.127,421.374 392.245,361.256 " />
<polyline fill="none" vector-effect="none" points="332.127,459.329 392.245,399.211 " />
<polyline fill="none" vector-effect="none" points="332.127,497.284 392.245,437.166 " />
<polyline fill="none" vector-effect="none" points="332.127,535.239 392.245,475.121 " />
<polyline fill="none" vector-effect="none" points="332.127,573.194 392.245,513.076 " />
<polyline fill="none" vector-effect="none" points="332.127,611.149 392.245,551.031 " />
<polyline fill="none" vector-effect="none" points="332.127,649.104 392.245,588.986 " />
<polyline fill="none" vector-effect="none" points="332.127,687.059 392.245,626.941 " />
<polyline fill="none" vector-effect="none" points="422.712,103.059 482.83,42.9412 " />
<polyline fill="none" vector-effect="none" points="460.667,103.059 520.785,42.9412 " />
<polyline fill="none" vector-effect="none" points="498.622,103.059 558.74,42.9412 " />
<polyline fill="none" vector-effect="none" points="536.577,103.059 596.695,42.9412 " />
<polyline fill="none" vector-effect="none" points="574.532,103.059 634.65,42.9412 " />
<polyline fill="none" vector-effect="none" points="612.487,103.059 672.605,42.9412 " />
<polyline fill="none" vector-effect="none" points="650.442,103.059 710.56,42.9412 " />
<polyline fill="none" vector-effect="none" points="688.397,103.059 748.515,42.9412 " />
<polyline fill="none" vector-effect="none" points="726.352,103.059 786.47,42.9412 " />
<polyline fill="none" vector-effect="none" points="764.307,103.059 824.425,42.9412 " />
<polyline fill="none" vector-effect="none" points="802.262,103.059 862.38,42.9412 " />
<polyline fill="none" vector-effect="none" points="840.217,103.059 900.335,42.9412 " />
<polyline fill="none" vector-effect="none" points="878.172,103.059 938.29,42.9412 " />
<polyline fill="none" vector-effect="none" points="916.127,103.059 976.245,42.9412 " />
<polyline fill="none" vector-effect="none" points="332.127,687.059 392.245,626.941 " />
<polyline fill="none" vector-effect="none" points="916.127,103.059 976.245,42.9412 " />
<polyline fill="none" vector-effect="none" points="370.082,687.059 430.2,626.941 " />
<polyline fill="none" vector-effect="none" points="408.037,687.059 468.155,626.941 " />
<polyline fill="none" vector-effect="none" points="445.992,687.059 506.11,626.941 " />
<polyline fill="none" vector-effect="none" points="483.947,687.059 544.065,626.941 " />
<polyline fill="none" vector-effect="none" points="521.902,687.059 582.02,626.941 " />
<polyline fill="none" vector-effect="none" points="559.857,687.059 619.975,626.941 " />
<polyline fill="none" vector-effect="none" points="597.812,687.059 657.93,626.941 " />
<polyline fill="none" vector-effect="none" points="635.767,687.059 695.885,626.941 " />
<polyline fill="none" vector-effect="none" points="673.722,687.059 733.84,626.941 " />
<polyline fill="none" vector-effect="none" points="711.677,687.059 771.795,626.941 " />
<polyline fill="none" vector-effect="none" points="749.632,687.059 809.75,626.941 " />
<polyline fill="none" vector-effect="none" points="787.587,687.059 847.705,626.941 " />
<polyline fill="none" vector-effect="none" points="825.542,687.059 885.66,626.941 " />
<polyline fill="none" vector-effect="none" points="916.127,141.014 976.245,80.8962 " />
<polyline fill="none" vector-effect="none" points="916.127,178.969 976.245,118.851 " />
<polyline fill="none" vector-effect="none" points="916.127,216.924 976.245,156.806 " />
<polyline fill="none" vector-effect="none" points="916.127,254.879 976.245,194.761 " />
<polyline fill="none" vector-effect="none" points="916.127,292.834 976.245,232.716 " />
<polyline fill="none" vector-effect="none" points="916.127,330.789 976.245,270.671 " />
<polyline fill="none" vector-effect="none" points="916.127,368.744 976.245,308.626 " />
<polyline fill="none" vector-effect="none" points="916.127,406.699 976.245,346.581 " />
<polyline fill="none" vector-effect="none" points="916.127,444.654 976.245,384.536 " />
<polyline fill="none" vector-effect="none" points="916.127,482.609 976.245,422.491 " />
<polyline fill="none" vector-effect="none" points="916.127,520.564 976.245,460.446 " />
<polyline fill="none" vector-effect="none" points="916.127,558.519 976.245,498.401 " />
<polyline fill="none" vector-effect="none" points="916.127,596.474 976.245,536.356 " />
<polyline fill="none" vector-effect="none" points="863.497,687.059 976.245,574.311 " />
<polyline fill="none" vector-effect="none" points="901.452,687.059 976.245,612.266 " />
<polyline fill="none" vector-effect="none" points="939.407,687.059 976.245,650.221 " />
<polyline fill="none" vector-effect="none" points="332.127,687.059 976.245,687.059 976.245,42.9412 332.127,42.9412 332.127,687.059 " />
<polyline fill="none" vector-effect="none" points="392.245,626.941 916.127,626.941 916.127,103.059 392.245,103.059 392.245,626.941 " />
<polyline fill="none" vector-effect="none" points="976.245,56.3603 976.245,191.831 " />
<polyline fill="none" vector-effect="none" points="916.127,116.478 916.127,191.831 " />
<polyline fill="none" vector-effect="none" points="877.48,153.184 838.833,153.184 " />
<polyline fill="none" vector-effect="none" points="1014.89,153.184 1053.54,153.184 " />
</g>

<g fill="#ffffff" fill-opacity="1" stroke="none" transform="matrix(1,0,0,1,0,0)"
font-family="Sans Serif" font-size="20.125" font-weight="400" font-style="normal" 
>
<path vector-effect="none" fill-rule="evenodd" d="M1014.89,146.743 L976.245,153.184 L1014.89,159.625 L1014.89,146.743"/>
</g>

<g fill="#ffffff" fill-opacity="1" stroke="#ffffff" stroke-opacity="1" stroke-width="2" stroke-linecap="square" stroke-linejoin="bevel" transform="matrix(1,0,0,1,0,0)"
font-family="Sans Serif" font-size="20.125" font-weight="400" font-style="normal" 
>
</g>

<g fill="#ffffff" fill-opacity="1" stroke="none" transform="matrix(1,0,0,1,0,0)"
font-family="Sans Serif" font-size="20.125" font-weight="400" font-style="normal" 
>
<path vector-effect="none" fill-rule="evenodd" d="M877.48,159.625 L916.127,153.184 L877.48,146.743 L877.48,159.625"/>
</g>

<g fill="#ffffff" fill-opacity="1" stroke="#ffffff" stroke-opacity="1" stroke-width="2" stroke-linecap="square" stroke-linejoin="bevel" transform="matrix(1,0,0,1,0,0)"
font-family="Sans Serif" font-size="20.125" font-weight="400" font-style="normal" 
>
</g>

<g fill="#ffffff" fill-opacity="1" stroke="#ffffff" stroke-opacity="1" stroke-width="2" stroke-linecap="round" stroke-linejoin="bevel" transform="matrix(1,0,0,1,0,0)"
font-family="Sans Serif" font-size="20.125" font-weight="400" font-style="normal" 
>
<polyline fill="none" vector-effect="none" points="703.569,143.062 703.569,141.222 705.409,137.541 707.249,135.701 710.93,133.861 718.291,133.861 721.972,135.701 723.812,137.541 725.653,141.222 725.653,144.903 723.812,148.583 720.132,154.104 701.728,172.508 727.493,172.508 " />
<polyline fill="none" vector-effect="none" points="742.216,172.508 744.056,170.667 742.216,168.827 740.375,170.667 742.216,172.508 " />
<polyline fill="none" vector-effect="none" points="766.14,172.508 773.501,172.508 779.022,170.667 780.863,168.827 782.703,165.146 782.703,159.625 780.863,155.945 777.182,152.264 771.661,150.424 764.3,148.583 760.619,146.743 758.779,143.062 758.779,139.382 760.619,135.701 766.14,133.861 773.501,133.861 779.022,135.701 780.863,139.382 780.863,143.062 779.022,146.743 775.342,148.583 767.98,150.424 762.459,152.264 758.779,155.945 756.938,159.625 756.938,165.146 758.779,168.827 760.619,170.667 766.14,172.508 " />
<polyline fill="none" vector-effect="none" points="808.468,172.508 813.989,170.667 817.669,165.146 819.51,155.945 819.51,150.424 817.669,141.222 813.989,135.701 808.468,133.861 804.787,133.861 799.266,135.701 795.585,141.222 793.745,150.424 793.745,155.945 795.585,165.146 799.266,170.667 804.787,172.508 808.468,172.508 " />
</g>

<g fill="#ffffff" fill-opacity="1" stroke="#ffffff" stroke-opacity="1" stroke-width="2" stroke-linecap="square" stroke-linejoin="bevel" transform="matrix(1,0,0,1,0,0)"
font-family="Sans Serif" font-size="20.125" font-weight="400" font-style="normal" 
>
<polyline fill="none" vector-effect="none" points="916.127,351.581 916.127,314.996 " />
<polyline fill="none" vector-effect="none" points="392.245,351.581 392.245,314.996 " />
<polyline fill="none" vector-effect="none" points="877.48,353.643 750.804,353.643 " />
<polyline fill="none" vector-effect="none" points="430.892,353.643 557.569,353.643 " />
</g>

<g fill="#ffffff" fill-opacity="1" stroke="none" transform="matrix(1,0,0,1,0,0)"
font-family="Sans Serif" font-size="20.125" font-weight="400" font-style="normal" 
>
<path vector-effect="none" fill-rule="evenodd" d="M877.48,360.084 L916.127,353.643 L877.48,347.202 L877.48,360.084"/>
</g>

<g fill="#ffffff" fill-opacity="1" stroke="#ffffff" stroke-opacity="1" stroke-width="2" stroke-linecap="square" stroke-linejoin="bevel" transform="matrix(1,0,0,1,0,0)"
font-family="Sans Serif" font-size="20.125" font-weight="400" font-style="normal" 
>
</g>

<g fill="#ffffff" fill-opacity="1" stroke="none" transform="matrix(1,0,0,1,0,0)"
font-family="Sans Serif" font-size="20.125" font-weight="400" font-style="normal" 
>
<path vector-effect="none" fill-rule="evenodd" d="M430.892,347.202 L392.245,353.643 L430.892,360.084 L430.892,347.202"/>
</g>

<g fill="#ffffff" fill-opacity="1" stroke="#ffffff" stroke-opacity="1" stroke-width="2" stroke-linecap="square" stroke-linejoin="bevel" transform="matrix(1,0,0,1,0,0)"
font-family="Sans Serif" font-size="20.125" font-weight="400" font-style="normal" 
>
</g>

<g fill="#ffffff" fill-opacity="1" stroke="#ffffff" stroke-opacity="1" stroke-width="2" stroke-linecap="round" stroke-linejoin="bevel" transform="matrix(1,0,0,1,0,0)"
font-family="Sans Serif" font-size="20.125" font-weight="400" font-style="normal" 
>
<polyline fill="none" vector-effect="none" points="578.732,343.521 578.732,341.681 580.573,338 582.413,336.16 586.094,334.319 593.455,334.319 597.136,336.16 598.976,338 600.817,341.681 600.817,345.361 598.976,349.042 595.296,354.563 576.892,372.966 602.657,372.966 " />
<polyline fill="none" vector-effect="none" points="632.102,372.966 632.102,334.319 613.699,360.084 641.304,360.084 " />
<polyline fill="none" vector-effect="none" points="654.186,372.966 656.027,371.126 654.186,369.286 652.346,371.126 654.186,372.966 " />
<polyline fill="none" vector-effect="none" points="687.312,372.966 687.312,334.319 668.909,360.084 696.514,360.084 " />
<polyline fill="none" vector-effect="none" points="720.438,372.966 725.959,371.126 729.64,365.605 731.48,356.403 731.48,350.882 729.64,341.681 725.959,336.16 720.438,334.319 716.758,334.319 711.237,336.16 707.556,341.681 705.716,350.882 705.716,356.403 707.556,365.605 711.237,371.126 716.758,372.966 720.438,372.966 " />
</g>

<g fill="none" stroke="#000000" stroke-opacity="1" stroke-width="1" stroke-linecap="square" stroke-linejoin="bevel" transform="matrix(1,0,0,1,0,0)"
font-family="Sans Serif" font-size="20.125" font-weight="400" font-style="normal" 
>
</g>
</g>
</svg>
