  0
SECTION
  2
HEADER
  9
$ACADVER
  1
AC1032
  9
$ACADMAINTVER
 90
        4
  9
$DWGCODEPAGE
  3
ANSI_1252
  9
$LASTSAVEDBY
  1
grey
  9
$REQUIREDVERSIONS
160
                 0
  9
$INSBASE
 10
0.0
 20
0.0
 30
0.0
  9
$EXTMIN
 10
-50.30000000000001
 20
-50.29999999999998
 30
0.0
  9
$EXTMAX
 10
50.30000000000001
 20
50.29999999999998
 30
0.0
  9
$LIMMIN
 10
0.0
 20
0.0
  9
$LIMMAX
 10
420.0
 20
297.0
  9
$ORTHOMODE
 70
     0
  9
$REGENMODE
 70
     1
  9
$FILLMODE
 70
     1
  9
$QTEXTMODE
 70
     0
  9
$MIRRTEXT
 70
     0
  9
$LTSCALE
 40
1.0
  9
$ATTMODE
 70
     1
  9
$TEXTSIZE
 40
2.5
  9
$TRACEWID
 40
1.0
  9
$TEXTSTYLE
  7
Standard
  9
$CLAYER
  8
hoye_holder
  9
$CELTYPE
  6
ByLayer
  9
$CECOLOR
 62
   256
  9
$CELTSCALE
 40
1.0
  9
$DISPSILH
 70
     0
  9
$DIMSCALE
 40
1.0
  9
$DIMASZ
 40
2.5
  9
$DIMEXO
 40
0.625
  9
$DIMDLI
 40
3.75
  9
$DIMRND
 40
0.0
  9
$DIMDLE
 40
0.0
  9
$DIMEXE
 40
1.25
  9
$DIMTP
 40
0.0
  9
$DIMTM
 40
0.0
  9
$DIMTXT
 40
2.5
  9
$DIMCEN
 40
-2.5
  9
$DIMTSZ
 40
0.0
  9
$DIMTOL
 70
     0
  9
$DIMLIM
 70
     0
  9
$DIMTIH
 70
     0
  9
$DIMTOH
 70
     0
  9
$DIMSE1
 70
     0
  9
$DIMSE2
 70
     0
  9
$DIMTAD
 70
     1
  9
$DIMZIN
 70
     8
  9
$DIMBLK
  1

  9
$DIMASO
 70
     1
  9
$DIMSHO
 70
     1
  9
$DIMPOST
  1

  9
$DIMAPOST
  1

  9
$DIMALT
 70
     0
  9
$DIMALTD
 70
     3
  9
$DIMALTF
 40
0.03937007874016
  9
$DIMLFAC
 40
1.0
  9
$DIMTOFL
 70
     1
  9
$DIMTVP
 40
0.0
  9
$DIMTIX
 70
     0
  9
$DIMSOXD
 70
     0
  9
$DIMSAH
 70
     0
  9
$DIMBLK1
  1

  9
$DIMBLK2
  1

  9
$DIMSTYLE
  2
ISO-25
  9
$DIMCLRD
 70
     0
  9
$DIMCLRE
 70
     0
  9
$DIMCLRT
 70
     0
  9
$DIMTFAC
 40
1.0
  9
$DIMGAP
 40
0.625
  9
$DIMJUST
 70
     0
  9
$DIMSD1
 70
     0
  9
$DIMSD2
 70
     0
  9
$DIMTOLJ
 70
     0
  9
$DIMTZIN
 70
     8
  9
$DIMALTZ
 70
     0
  9
$DIMALTTZ
 70
     0
  9
$DIMUPT
 70
     0
  9
$DIMDEC
 70
     2
  9
$DIMTDEC
 70
     2
  9
$DIMALTU
 70
     2
  9
$DIMALTTD
 70
     3
  9
$DIMTXSTY
  7
Standard
  9
$DIMAUNIT
 70
     0
  9
$DIMADEC
 70
     0
  9
$DIMALTRND
 40
0.0
  9
$DIMAZIN
 70
     0
  9
$DIMDSEP
 70
    44
  9
$DIMATFIT
 70
     3
  9
$DIMFRAC
 70
     0
  9
$DIMLDRBLK
  1

  9
$DIMLUNIT
 70
     2
  9
$DIMLWD
 70
    -2
  9
$DIMLWE
 70
    -2
  9
$DIMTMOVE
 70
     0
  9
$DIMFXL
 40
1.0
  9
$DIMFXLON
 70
     0
  9
$DIMJOGANG
 40
0.7853981633974483
  9
$DIMTFILL
 70
     0
  9
$DIMTFILLCLR
 70
     0
  9
$DIMARCSYM
 70
     0
  9
$DIMLTYPE
  6

  9
$DIMLTEX1
  6

  9
$DIMLTEX2
  6

  9
$DIMTXTDIRECTION
 70
     0
  9
$LUNITS
 70
     2
  9
$LUPREC
 70
     3
  9
$SKETCHINC
 40
1.0
  9
$FILLETRAD
 40
0.25
  9
$AUNITS
 70
     0
  9
$AUPREC
 70
     0
  9
$MENU
  1
.
  9
$ELEVATION
 40
0.0
  9
$PELEVATION
 40
0.0
  9
$THICKNESS
 40
0.0
  9
$LIMCHECK
 70
     0
  9
$CHAMFERA
 40
10.0
  9
$CHAMFERB
 40
10.0
  9
$CHAMFERC
 40
20.0
  9
$CHAMFERD
 40
0.0
  9
$SKPOLY
 70
     0
  9
$TDCREATE
 40
2455022.345692847
  9
$TDUCREATE
 40
2455022.637359514
  9
$TDUPDATE
 40
2458909.580585509
  9
$TDUUPDATE
 40
2458909.872252176
  9
$TDINDWG
 40
0.0000000231
  9
$TDUSRTIMER
 40
0.0000847454
  9
$USRTIMER
 70
     1
  9
$ANGBASE
 50
0.0
  9
$ANGDIR
 70
     0
  9
$PDMODE
 70
     0
  9
$PDSIZE
 40
0.0
  9
$PLINEWID
 40
0.0
  9
$SPLFRAME
 70
     0
  9
$SPLINETYPE
 70
     6
  9
$SPLINESEGS
 70
     8
  9
$HANDSEED
  5
51E
  9
$SURFTAB1
 70
     6
  9
$SURFTAB2
 70
     6
  9
$SURFTYPE
 70
     6
  9
$SURFU
 70
     6
  9
$SURFV
 70
     6
  9
$UCSBASE
  2

  9
$UCSNAME
  2

  9
$UCSORG
 10
0.0
 20
0.0
 30
0.0
  9
$UCSXDIR
 10
1.0
 20
0.0
 30
0.0
  9
$UCSYDIR
 10
0.0
 20
1.0
 30
0.0
  9
$UCSORTHOREF
  2

  9
$UCSORTHOVIEW
 70
     0
  9
$UCSORGTOP
 10
0.0
 20
0.0
 30
0.0
  9
$UCSORGBOTTOM
 10
0.0
 20
0.0
 30
0.0
  9
$UCSORGLEFT
 10
0.0
 20
0.0
 30
0.0
  9
$UCSORGRIGHT
 10
0.0
 20
0.0
 30
0.0
  9
$UCSORGFRONT
 10
0.0
 20
0.0
 30
0.0
  9
$UCSORGBACK
 10
0.0
 20
0.0
 30
0.0
  9
$PUCSBASE
  2

  9
$PUCSNAME
  2

  9
$PUCSORG
 10
0.0
 20
0.0
 30
0.0
  9
$PUCSXDIR
 10
1.0
 20
0.0
 30
0.0
  9
$PUCSYDIR
 10
0.0
 20
1.0
 30
0.0
  9
$PUCSORTHOREF
  2

  9
$PUCSORTHOVIEW
 70
     0
  9
$PUCSORGTOP
 10
0.0
 20
0.0
 30
0.0
  9
$PUCSORGBOTTOM
 10
0.0
 20
0.0
 30
0.0
  9
$PUCSORGLEFT
 10
0.0
 20
0.0
 30
0.0
  9
$PUCSORGRIGHT
 10
0.0
 20
0.0
 30
0.0
  9
$PUCSORGFRONT
 10
0.0
 20
0.0
 30
0.0
  9
$PUCSORGBACK
 10
0.0
 20
0.0
 30
0.0
  9
$USERI1
 70
     0
  9
$USERI2
 70
     0
  9
$USERI3
 70
     0
  9
$USERI4
 70
     0
  9
$USERI5
 70
     0
  9
$USERR1
 40
0.0
  9
$USERR2
 40
0.0
  9
$USERR3
 40
0.0
  9
$USERR4
 40
0.0
  9
$USERR5
 40
0.0
  9
$WORLDVIEW
 70
     1
  9
$SHADEDGE
 70
     3
  9
$SHADEDIF
 70
    70
  9
$TILEMODE
 70
     1
  9
$MAXACTVP
 70
    64
  9
$PINSBASE
 10
0.0
 20
0.0
 30
0.0
  9
$PLIMCHECK
 70
     0
  9
$PEXTMIN
 10
1.000000000000000E+20
 20
1.000000000000000E+20
 30
1.000000000000000E+20
  9
$PEXTMAX
 10
-1.000000000000000E+20
 20
-1.000000000000000E+20
 30
-1.000000000000000E+20
  9
$PLIMMIN
 10
0.0
 20
0.0
  9
$PLIMMAX
 10
0.0
 20
0.0
  9
$UNITMODE
 70
     0
  9
$VISRETAIN
 70
     1
  9
$PLINEGEN
 70
     0
  9
$PSLTSCALE
 70
     1
  9
$TREEDEPTH
 70
  3020
  9
$CMLSTYLE
  2
Standard
  9
$CMLJUST
 70
     0
  9
$CMLSCALE
 40
20.0
  9
$PROXYGRAPHICS
 70
     1
  9
$MEASUREMENT
 70
     1
  9
$CELWEIGHT
370
    -1
  9
$ENDCAPS
280
     0
  9
$JOINSTYLE
280
     0
  9
$LWDISPLAY
290
     0
  9
$INSUNITS
 70
     4
  9
$HYPERLINKBASE
  1

  9
$STYLESHEET
  1

  9
$XEDIT
290
     1
  9
$CEPSNTYPE
380
     0
  9
$PSTYLEMODE
290
     0
  9
$FINGERPRINTGUID
  2
{EC6BB858-51AA-46EC-B484-6C9CC7AB3E2E}
  9
$VERSIONGUID
  2
{FAEB1C32-E019-11D5-929B-00C0DF256EC4}
  9
$EXTNAMES
290
     1
  9
$PSVPSCALE
 40
0.0
  9
$OLESTARTUP
290
     0
  9
$SORTENTS
280
   127
  9
$INDEXCTL
280
     0
  9
$HIDETEXT
280
     1
  9
$XCLIPFRAME
280
     0
  9
$HALOGAP
280
     0
  9
$OBSCOLOR
 70
   257
  9
$OBSLTYPE
280
     0
  9
$INTERSECTIONDISPLAY
280
     0
  9
$INTERSECTIONCOLOR
 70
   257
  9
$DIMASSOC
280
     2
  9
$PROJECTNAME
  1

  9
$CAMERADISPLAY
290
     0
  9
$LENSLENGTH
 40
50.0
  9
$CAMERAHEIGHT
 40
0.0
  9
$STEPSPERSEC
 40
2.0
  9
$STEPSIZE
 40
6.0
  9
$3DDWFPREC
 40
2.0
  9
$PSOLWIDTH
 40
5.0
  9
$PSOLHEIGHT
 40
80.0
  9
$LOFTANG1
 40
1.570796326794897
  9
$LOFTANG2
 40
1.570796326794897
  9
$LOFTMAG1
 40
0.0
  9
$LOFTMAG2
 40
0.0
  9
$LOFTPARAM
 70
     7
  9
$LOFTNORMALS
280
     1
  9
$LATITUDE
 40
37.795
  9
$LONGITUDE
 40
-122.394
  9
$NORTHDIRECTION
 40
0.0
  9
$TIMEZONE
 70
 -8000
  9
$LIGHTGLYPHDISPLAY
280
     1
  9
$TILEMODELIGHTSYNCH
280
     1
  9
$SOLIDHIST
280
     1
  9
$SHOWHIST
280
     1
  9
$DWFFRAME
280
     2
  9
$DGNFRAME
280
     2
  9
$REALWORLDSCALE
290
     1
  9
$INTERFERECOLOR
 62
   256
  9
$CSHADOW
280
     0
  9
$SHADOWPLANELOCATION
 40
0.0
  0
ENDSEC
  0
SECTION
  2
CLASSES
  0
CLASS
  1
ACDBDICTIONARYWDFLT
  2
AcDbDictionaryWithDefault
  3
ObjectDBX Classes
 90
        0
 91
        3
280
     0
281
     0
  0
CLASS
  1
VISUALSTYLE
  2
AcDbVisualStyle
  3
ObjectDBX Classes
 90
     4095
 91
        3
280
     0
281
     0
  0
CLASS
  1
TABLESTYLE
  2
AcDbTableStyle
  3
ObjectDBX Classes
 90
     4095
 91
        3
280
     0
281
     0
  0
CLASS
  1
DICTIONARYVAR
  2
AcDbDictionaryVar
  3
ObjectDBX Classes
 90
        0
 91
        3
280
     0
281
     0
  0
CLASS
  1
SCALE
  2
AcDbScale
  3
ObjectDBX Classes
 90
     1153
 91
        3
280
     0
281
     0
  0
CLASS
  1
CELLSTYLEMAP
  2
AcDbCellStyleMap
  3
ObjectDBX Classes
 90
     1152
 91
        3
280
     0
281
     0
  0
CLASS
  1
RASTERVARIABLES
  2
AcDbRasterVariables
  3
ISM
 90
        0
 91
        3
280
     0
281
     0
  0
CLASS
  1
MATERIAL
  2
AcDbMaterial
  3
ObjectDBX Classes
 90
     1153
 91
        3
280
     0
281
     0
  0
CLASS
  1
SUN
  2
AcDbSun
  3
SCENEOE
 90
     1153
 91
        3
280
     0
281
     0
  0
CLASS
  1
MLEADERSTYLE
  2
AcDbMLeaderStyle
  3
ACDB_MLEADERSTYLE_CLASS
 90
     4095
 91
        3
280
     0
281
     0
  0
CLASS
  1
SORTENTSTABLE
  2
AcDbSortentsTable
  3
ObjectDBX Classes
 90
        0
 91
        3
280
     0
281
     0
  0
ENDSEC
  0
SECTION
  2
TABLES
  0
TABLE
  2
VPORT
  5
8
330
0
100
AcDbSymbolTable
 70
     1
  0
VPORT
  5
29
330
8
100
AcDbSymbolTableRecord
100
AcDbViewportTableRecord
  2
*Active
 70
     0
 10
0.0
 20
0.0
 11
1.0
 21
1.0
 12
125.0330343396166
 22
0.7859985637775715
 13
0.0
 23
0.0
 14
10.0
 24
10.0
 15
10.0
 25
10.0
 16
0.0
 26
0.0
 36
1.0
 17
-134.1869158878504
 27
0.0
 37
0.0
 40
107.5932837721945
 41
2.112328767123288
 42
50.0
 43
0.0
 44
0.0
 50
0.0
 51
0.0
 71
    16
 72
  1000
 73
     1
 74
     3
 75
     0
 76
     0
 77
     0
 78
     0
281
     0
 65
     1
110
0.0
120
0.0
130
0.0
111
1.0
121
0.0
131
0.0
112
0.0
122
1.0
132
0.0
 79
     0
146
0.0
348
2F
 60
     3
 61
     5
292
     1
282
     1
141
0.0
142
0.0
 63
   256
361
80
  0
ENDTAB
  0
TABLE
  2
LTYPE
  5
5
330
0
100
AcDbSymbolTable
 70
     1
  0
LTYPE
  5
14
330
5
100
AcDbSymbolTableRecord
100
AcDbLinetypeTableRecord
  2
ByBlock
 70
     0
  3

 72
    65
 73
     0
 40
0.0
  0
LTYPE
  5
15
330
5
100
AcDbSymbolTableRecord
100
AcDbLinetypeTableRecord
  2
ByLayer
 70
     0
  3

 72
    65
 73
     0
 40
0.0
  0
LTYPE
  5
16
330
5
100
AcDbSymbolTableRecord
100
AcDbLinetypeTableRecord
  2
Continuous
 70
     0
  3
Solid line
 72
    65
 73
     0
 40
0.0
  0
ENDTAB
  0
TABLE
  2
LAYER
  5
2
102
{ACAD_XDICTIONARY
360
C2
102
}
330
0
100
AcDbSymbolTable
 70
     9
  0
LAYER
  5
10
330
2
100
AcDbSymbolTableRecord
100
AcDbLayerTableRecord
  2
0
 70
     0
 62
    -7
  6
Continuous
370
    -3
390
F
347
75
348
0
  0
LAYER
  5
C5
330
2
100
AcDbSymbolTableRecord
100
AcDbLayerTableRecord
  2
hoye_holder
 70
     0
 62
     7
  6
Continuous
370
    -3
390
F
347
75
348
0
1001
AcAecLayerStandard
1000

1000

  0
LAYER
  5
CA
330
2
100
AcDbSymbolTableRecord
100
AcDbLayerTableRecord
  2
evap_slot
 70
     0
 62
    -1
  6
Continuous
370
    -3
390
F
347
75
348
0
1001
AcAecLayerStandard
1000

1000

  0
LAYER
  5
DA
330
2
100
AcDbSymbolTableRecord
100
AcDbLayerTableRecord
  2
evap_shelf
 70
     0
 62
    -1
  6
Continuous
370
    -3
390
F
347
75
348
0
1001
AcAecLayerStandard
1000

1000

  0
LAYER
  5
E9
330
2
100
AcDbSymbolTableRecord
100
AcDbLayerTableRecord
  2
dimensions
 70
     0
 62
    -3
  6
Continuous
370
    -3
390
F
347
75
348
0
1001
AcAecLayerStandard
1000

1000

1001
ACCMTRANSPARENCY
1071
 33554687
  0
LAYER
  5
1A4
330
2
100
AcDbSymbolTableRecord
100
AcDbLayerTableRecord
  2
hoye_metal_feature
 70
     0
 62
     4
  6
Continuous
370
    -3
390
F
347
75
348
0
1001
AcAecLayerStandard
1000

1000

  0
LAYER
  5
1CD
330
2
100
AcDbSymbolTableRecord
100
AcDbLayerTableRecord
  2
hoye_shim
 70
     0
 62
     5
  6
Continuous
370
    -3
390
F
347
75
348
0
1001
AcAecLayerStandard
1000

1000

1001
ACCMTRANSPARENCY
1071
 33554687
  0
LAYER
  5
305
330
2
100
AcDbSymbolTableRecord
100
AcDbLayerTableRecord
  2
shelf_riser
 70
     0
 62
     6
  6
Continuous
370
    -3
390
F
347
75
348
0
1001
AcAecLayerStandard
1000

1000

1001
ACCMTRANSPARENCY
1071
 33554687
  0
LAYER
  5
34C
330
2
100
AcDbSymbolTableRecord
100
AcDbLayerTableRecord
  2
hoye_holder_extents
 70
     0
 62
     7
  6
Continuous
370
    -3
390
F
347
75
348
0
1001
AcAecLayerStandard
1000

1000

1001
ACCMTRANSPARENCY
1071
 33554687
  0
ENDTAB
  0
TABLE
  2
STYLE
  5
3
330
0
100
AcDbSymbolTable
 70
     2
  0
STYLE
  5
11
330
3
100
AcDbSymbolTableRecord
100
AcDbTextStyleTableRecord
  2
Standard
 70
     0
 40
0.0
 41
1.0
 50
0.0
 71
     0
 42
2.5
  3
arial.ttf
  4

1001
ACAD
1000
Arial
1071
        0
  0
STYLE
  5
B8
330
3
100
AcDbSymbolTableRecord
100
AcDbTextStyleTableRecord
  2
Annotative
 70
     0
 40
0.0
 41
1.0
 50
0.0
 71
     0
 42
2.5
  3
arial.ttf
  4

1001
ACAD
1000
Arial
1071
        0
1001
AcadAnnotative
1000
AnnotativeData
1002
{
1070
     1
1070
     1
1002
}
  0
ENDTAB
  0
TABLE
  2
VIEW
  5
6
330
0
100
AcDbSymbolTable
 70
     0
  0
ENDTAB
  0
TABLE
  2
UCS
  5
7
330
0
100
AcDbSymbolTable
 70
     0
  0
ENDTAB
  0
TABLE
  2
APPID
  5
9
330
0
100
AcDbSymbolTable
 70
     7
  0
APPID
  5
12
330
9
100
AcDbSymbolTableRecord
100
AcDbRegAppTableRecord
  2
ACAD
 70
     0
  0
APPID
  5
B9
330
9
100
AcDbSymbolTableRecord
100
AcDbRegAppTableRecord
  2
AcadAnnotative
 70
     0
  0
APPID
  5
C6
330
9
100
AcDbSymbolTableRecord
100
AcDbRegAppTableRecord
  2
AcAecLayerStandard
 70
     0
  0
APPID
  5
E2
330
9
100
AcDbSymbolTableRecord
100
AcDbRegAppTableRecord
  2
ACCMTRANSPARENCY
 70
     0
  0
APPID
  5
ED
330
9
100
AcDbSymbolTableRecord
100
AcDbRegAppTableRecord
  2
ACAD_DSTYLE_DIMBREAK
 70
     0
  0
APPID
  5
EE
330
9
100
AcDbSymbolTableRecord
100
AcDbRegAppTableRecord
  2
ACAD_DSTYLE_DIMJAG
 70
     0
  0
APPID
  5
F7
330
9
100
AcDbSymbolTableRecord
100
AcDbRegAppTableRecord
  2
ACAD_NAV_VCDISPLAY
 70
     0
  0
ENDTAB
  0
TABLE
  2
DIMSTYLE
  5
A
330
0
100
AcDbSymbolTable
 70
     8
100
AcDbDimStyleTable
  0
DIMSTYLE
105
27
330
A
100
AcDbSymbolTableRecord
100
AcDbDimStyleTableRecord
  2
ISO-25
 70
     0
 41
2.5
 42
0.625
 43
3.75
 44
1.25
 73
     0
 74
     0
 77
     1
 78
     8
140
2.5
141
-2.5
143
0.03937007874016
147
0.625
171
     3
172
     1
178
     0
271
     2
272
     2
274
     3
278
    44
283
     0
284
     8
340
11
  0
DIMSTYLE
105
BA
330
A
100
AcDbSymbolTableRecord
100
AcDbDimStyleTableRecord
  2
Annotative
 70
     0
 40
0.0
 41
2.5
 42
0.625
 43
3.75
 44
1.25
 73
     0
 74
     0
 77
     1
 78
     8
140
2.5
141
-2.5
143
0.03937007874016
147
0.625
171
     3
172
     1
178
     0
271
     2
272
     2
274
     3
278
    44
283
     0
284
     8
340
11
1001
AcadAnnotative
1000
AnnotativeData
1002
{
1070
     1
1070
     1
1002
}
  0
DIMSTYLE
105
EA
330
A
100
AcDbSymbolTableRecord
100
AcDbDimStyleTableRecord
  2
Standard
 70
     0
 40
10.0
178
     0
271
     2
340
11
  0
DIMSTYLE
105
EC
330
A
100
AcDbSymbolTableRecord
100
AcDbDimStyleTableRecord
  2
AM_ANSI$3
 70
     0
  4
mm
 41
0.12
 42
0.05
 43
0.5
 44
0.1
 47
0.1
 48
0.1
 90
        1
 78
     7
 79
     2
140
0.12
141
0.0
146
0.71
147
0.06
176
   256
177
   256
178
     2
274
     4
284
     7
288
     1
289
     0
340
11
371
    -1
372
    -1
345
14
346
14
347
14
1001
ACAD_DSTYLE_DIMBREAK
1070
   391
1040
0.125
1001
ACAD_DSTYLE_DIMJAG
1070
   388
1040
1.5
  0
DIMSTYLE
105
EF
330
A
100
AcDbSymbolTableRecord
100
AcDbDimStyleTableRecord
  2
AM_ANSI$4
 70
     0
  4
mm
 41
0.12
 42
0.05
 43
0.5
 44
0.1
 47
0.1
 48
0.1
 90
        1
 78
     7
 79
     2
140
0.12
141
0.0
146
0.71
147
0.06
176
   256
177
   256
178
     2
274
     4
284
     7
288
     1
289
     0
340
11
371
    -1
372
    -1
345
14
346
14
347
14
1001
ACAD_DSTYLE_DIMBREAK
1070
   391
1040
0.125
1001
ACAD_DSTYLE_DIMJAG
1070
   388
1040
1.5
  0
DIMSTYLE
105
F0
330
A
100
AcDbSymbolTableRecord
100
AcDbDimStyleTableRecord
  2
AM_ANSI$7
 70
     0
  4
mm
 41
0.12
 42
0.05
 43
0.5
 44
0.1
 47
0.1
 48
0.1
 90
        1
 78
     7
 79
     2
140
0.12
141
0.0
146
0.71
147
0.06
176
   256
177
   256
178
     2
274
     4
284
     7
340
11
371
    -1
372
    -1
345
14
346
14
347
14
1001
ACAD_DSTYLE_DIMBREAK
1070
   391
1040
0.125
1001
ACAD_DSTYLE_DIMJAG
1070
   388
1040
1.5
  0
DIMSTYLE
105
F1
330
A
100
AcDbSymbolTableRecord
100
AcDbDimStyleTableRecord
  2
AM_ANSI$SF
 70
     0
  4
mm
 41
0.12
 42
0.05
 43
0.5
 44
0.1
 47
0.1
 48
0.1
 90
        1
 75
     1
 76
     1
 78
     7
 79
     2
140
0.12
141
0.0
146
0.71
147
0.06
176
   256
177
   256
178
     2
274
     4
284
     7
340
11
371
    -1
372
    -1
345
14
346
14
347
14
1001
ACAD_DSTYLE_DIMBREAK
1070
   391
1040
0.125
1001
ACAD_DSTYLE_DIMJAG
1070
   388
1040
1.5
  0
DIMSTYLE
105
F2
330
A
100
AcDbSymbolTableRecord
100
AcDbDimStyleTableRecord
  2
AM_ANSI$SH
 70
     0
  4
mm
 41
0.12
 42
0.05
 43
0.5
 44
0.1
 47
0.1
 48
0.1
 90
        1
 75
     1
 76
     1
 78
     7
 79
     2
140
0.12
141
0.0
146
0.71
147
0.06
173
     1
176
   256
177
   256
178
     2
274
     4
284
     7
340
11
343
F3
371
    -1
372
    -1
345
14
346
14
347
14
1001
ACAD_DSTYLE_DIMBREAK
1070
   391
1040
0.125
1001
ACAD_DSTYLE_DIMJAG
1070
   388
1040
1.5
  0
ENDTAB
  0
TABLE
  2
BLOCK_RECORD
  5
1
330
0
100
AcDbSymbolTable
 70
     2
  0
BLOCK_RECORD
  5
1F
330
1
100
AcDbSymbolTableRecord
100
AcDbBlockTableRecord
  2
*Model_Space
340
22
 70
     0
280
     1
281
     0
  0
BLOCK_RECORD
  5
1B
330
1
100
AcDbSymbolTableRecord
100
AcDbBlockTableRecord
  2
*Paper_Space
340
1E
 70
     0
280
     1
281
     0
  0
BLOCK_RECORD
  5
23
330
1
100
AcDbSymbolTableRecord
100
AcDbBlockTableRecord
  2
*Paper_Space0
340
26
 70
     0
280
     1
281
     0
  0
BLOCK_RECORD
  5
F3
330
1
100
AcDbSymbolTableRecord
100
AcDbBlockTableRecord
  2
GENAXEH
340
0
 70
     0
280
     1
281
     0
  0
ENDTAB
  0
ENDSEC
  0
SECTION
  2
BLOCKS
  0
BLOCK
  5
20
330
1F
100
AcDbEntity
  8
0
100
AcDbBlockBegin
  2
*Model_Space
 70
     0
 10
0.0
 20
0.0
 30
0.0
  3
*Model_Space
  1

  0
ENDBLK
  5
21
330
1F
100
AcDbEntity
  8
0
100
AcDbBlockEnd
  0
BLOCK
  5
1C
330
1B
100
AcDbEntity
 67
     1
  8
0
100
AcDbBlockBegin
  2
*Paper_Space
 70
     0
 10
0.0
 20
0.0
 30
0.0
  3
*Paper_Space
  1

  0
ENDBLK
  5
1D
330
1B
100
AcDbEntity
 67
     1
  8
0
100
AcDbBlockEnd
  0
BLOCK
  5
24
330
23
100
AcDbEntity
  8
0
100
AcDbBlockBegin
  2
*Paper_Space0
 70
     0
 10
0.0
 20
0.0
 30
0.0
  3
*Paper_Space0
  1

  0
ENDBLK
  5
25
330
23
100
AcDbEntity
  8
0
100
AcDbBlockEnd
  0
BLOCK
  5
F4
330
F3
100
AcDbEntity
  8
0
100
AcDbBlockBegin
  2
GENAXEH
 70
     0
 10
0.0
 20
0.0
 30
0.0
  3
GENAXEH
  1

  0
LINE
  5
F5
330
F3
100
AcDbEntity
  8
0
100
AcDbLine
 10
-1.0
 20
0.0
 30
0.0
 11
1.0
 21
0.0
 31
0.0
  0
ENDBLK
  5
F6
330
F3
100
AcDbEntity
  8
0
100
AcDbBlockEnd
  0
ENDSEC
  0
SECTION
  2
ENTITIES
  0
LWPOLYLINE
  5
C8
330
1F
100
AcDbEntity
  8
evap_slot
100
AcDbPolyline
 90
        8
 70
     1
 43
0.0
 10
-50.3
 20
-50.04999999999998
 10
-50.3
 20
50.04999999999998
 42
-0.414213562373095
 10
-50.05
 20
50.29999999999998
 10
50.05
 20
50.29999999999998
 42
-0.414213562373095
 10
50.3
 20
50.04999999999998
 10
50.3
 20
-50.04999999999998
 42
-0.414213562373095
 10
50.05
 20
-50.29999999999998
 10
-50.05
 20
-50.29999999999998
 42
-0.414213562373095
  0
LWPOLYLINE
  5
D8
330
1F
100
AcDbEntity
  8
evap_shelf
100
AcDbPolyline
 90
        8
 70
     1
 43
0.0
 10
-47.49999999999997
 20
-47.24999999999998
 10
-47.49999999999997
 20
47.24999999999999
 42
-0.414213562373095
 10
-47.24999999999997
 20
47.49999999999999
 10
47.25
 20
47.49999999999999
 42
-0.414213562373095
 10
47.5
 20
47.24999999999999
 10
47.5
 20
-47.24999999999999
 42
-0.414213562373095
 10
47.25
 20
-47.49999999999999
 10
-47.24999999999997
 20
-47.49999999999998
 42
-0.414213562373095
  0
LWPOLYLINE
  5
142
330
1F
100
AcDbEntity
  8
hoye_metal_feature
100
AcDbPolyline
 90
       30
 70
     1
 43
0.0
 10
-0.3535532342293806
 20
20.15254310745274
 10
-4.23556849144677
 20
16.27052785023535
 42
0.4142135623730898
 10
-4.235568491446791
 20
15.56342106904881
 10
-0.7567237601086774
 20
12.08457633771079
 42
0.1832324495141107
 10
-0.6758944834243579
 20
12.04819345291284
 42
-0.1832325884915771
 10
-0.1909185380794085
 20
11.82989585888599
 10
-0.1280883351276358
 20
11.7670656559342
 42
0.4142135623730948
 10
0.5790184460589103
 20
11.76706565593422
 10
1.83060201028443
 20
13.01864922015976
 42
-0.4142121397446039
 10
3.951917202035482
 20
13.01865437194333
 10
6.894281547112122
 20
10.07631860979626
 42
-0.414214985003017
 10
6.894286698920745
 20
7.954993114453046
 10
0.1767750462478404
 20
1.237481461780106
 42
0.4142134328372875
 10
0.1767748898843138
 20
0.5303748369571508
 10
0.5303746805730256
 20
0.1767747335001673
 42
0.4142136919089147
 10
1.237481618123098
 20
0.1767745771365554
 10
7.954994262175624
 20
6.894287221189131
 42
-0.4142154503495637
 10
10.07632144267626
 20
6.89428038420408
 10
13.01865253004517
 20
3.951911364349229
 42
-0.4142116743991466
 10
13.01864569310418
 20
1.830597857774663
 10
11.76706565593422
 20
0.5790184460588534
 42
0.4142135623730961
 10
11.76706565593422
 20
-0.1280883351276998
 10
11.829895858886
 20
-0.1909185380794725
 42
-0.1832325884915763
 10
12.04819345291284
 20
-0.6758944834244005
 42
0.183232449514118
 10
12.0845763377108
 20
-0.7567237601087271
 10
15.56342138177597
 20
-4.235568804173823
 42
0.4142135623730893
 10
16.27052816296251
 20
-4.235568804173823
 10
20.15254342017984
 20
-0.3535535469564905
 42
0.4142135623730947
 10
20.15254342017985
 20
0.3535532342300485
 10
0.3535535469571727
 20
20.15254310745273
 42
0.4142135623730957
  0
LWPOLYLINE
  5
143
330
1F
100
AcDbEntity
  8
hoye_metal_feature
100
AcDbPolyline
 90
       12
 70
     1
 43
0.0
 10
3.522202466687382
 20
-9.7871657122015
 42
0.4142135623730951
 10
3.522202466687382
 20
-9.080058931014946
 10
2.461542294907559
 20
-8.01939875923513
 10
3.168649076094106
 20
-7.312291978048577
 10
6.413460079624571
 20
-10.55710298157906
 42
-0.4142135623730888
 10
6.413460079624556
 20
-11.2642097627656
 42
0.9999999999999964
 10
7.120566860811081
 20
-11.97131654395218
 42
-1.000000000000003
 10
7.827673641997592
 20
-12.67842332513874
 10
5.494220292587478
 20
-15.01187667454887
 42
-0.4142139057686321
 10
4.787113096886145
 20
-15.0118762600336
 10
1.895856552678453
 20
-12.12061776283522
 42
-0.414213295386901
 10
1.895856874959193
 20
-11.41351130392968
  0
LWPOLYLINE
  5
144
330
1F
100
AcDbEntity
  8
hoye_metal_feature
100
AcDbPolyline
 90
       10
 70
     1
 43
0.0
 10
9.787166683697414
 20
-3.522201495191467
 42
-0.4142135623730951
 10
9.080059902510861
 20
-3.522201495191467
 10
8.019399730731038
 20
-2.461541323411652
 10
7.312292949544492
 20
-3.168648104598191
 10
11.97131791627584
 20
-7.8276721785208
 42
0.4142135985040851
 10
12.67842474107634
 20
-7.82767213490682
 10
15.01187901525398
 20
-5.494217285024305
 42
0.414213793228341
 10
15.01187864935898
 20
-4.787110225171006
 10
12.12061873433112
 20
-1.895855581182559
 42
0.414213295386901
 10
11.41351227542561
 20
-1.895855903463271
  0
LWPOLYLINE
  5
145
330
1F
100
AcDbEntity
  8
hoye_metal_feature
100
AcDbPolyline
 90
       24
 70
     1
 43
0.0
 10
5.594023917664778
 20
-4.886917136478218
 10
5.947577308209148
 20
-5.240470527022552
 42
0.4142139828329349
 10
6.654684596935184
 20
-5.240470019482345
 10
7.114300421208291
 20
-4.780853602778024
 42
-0.4142134077428319
 10
7.82140701573929
 20
-4.780852960403394
 10
11.41977522950593
 20
-8.379214127413817
 42
-0.4142139057686324
 10
11.41977564402121
 20
-9.086321323115143
 10
9.086322294611058
 20
-11.41977467252531
 42
-0.4142135623730919
 10
8.37921551342452
 20
-11.41977467252531
 10
4.7808511192992
 20
-7.82141027840008
 42
-0.4142135623739431
 10
4.780851119300216
 20
-7.114303497212518
 10
5.240470019531301
 20
-6.654684596984055
 42
0.414213982832939
 10
5.240470527071508
 20
-5.947577308258033
 10
4.886917136478232
 20
-5.594023917664757
 42
0.4142135623730951
 10
4.179810355291686
 20
-5.594023917664771
 10
-2.360927370683875
 20
-12.13476164364033
 42
-0.4142135623730951
 10
-3.421587542463705
 20
-12.13476164364032
 10
-6.010407483722425
 20
-9.545941702381597
 42
-0.4142135623730951
 10
-6.010407483722425
 20
-8.485281530601782
 10
8.485281530601796
 20
6.010407483722446
 42
-0.4142135623730951
 10
9.545941702381626
 20
6.010407483722446
 10
12.13476164364035
 20
3.421587542463726
 42
-0.4142135623730951
 10
12.13476164364035
 20
2.360927370683896
 10
5.594023917664785
 20
-4.179810355291664
 42
0.4142135623730951
  0
LWPOLYLINE
  5
146
330
1F
100
AcDbEntity
  8
hoye_metal_feature
100
AcDbPolyline
 90
       30
 70
     1
 43
0.0
 10
-20.15254310745271
 20
0.353553234229409
 10
-16.27052785023532
 20
4.235568491446799
 42
-0.4142135623730898
 10
-15.56342106904879
 20
4.235568491446799
 10
-12.08457633771076
 20
0.7567237601086987
 42
-0.1832324495141107
 10
-12.04819345291282
 20
0.6758944834243721
 42
0.1832325884915771
 10
-11.82989585888595
 20
0.190918538079444
 10
-11.76706565593418
 20
0.1280883351276572
 42
-0.4142135623730948
 10
-11.76706565593418
 20
-0.5790184460588819
 10
-13.01864922015974
 20
-1.830602010284409
 42
0.4142121397446039
 10
-13.01865437194331
 20
-3.95191720203546
 10
-10.07631860979624
 20
-6.894281547112087
 42
0.414214985003017
 10
-7.954993114453011
 20
-6.894286698920723
 10
-1.237481461780071
 20
-0.1767750462478119
 42
-0.4142134328372875
 10
-0.5303748369571295
 20
-0.1767748898842854
 10
-0.1767747335001388
 20
-0.5303746805730043
 42
-0.4142136919089147
 10
-0.1767745771365341
 20
-1.23748161812307
 10
-6.89428722118911
 20
-7.954994262175603
 42
0.4142154503495637
 10
-6.894280384204059
 20
-10.07632144267623
 10
-3.951911364349222
 20
-13.01865253004514
 42
0.4142116743991466
 10
-1.830597857774634
 20
-13.01864569310416
 10
-0.5790184460588321
 20
-11.7670656559342
 42
-0.4142135623730961
 10
0.128088335127714
 20
-11.7670656559342
 10
0.1909185380794867
 20
-11.82989585888598
 42
0.1832325884915763
 10
0.6758944834244218
 20
-12.04819345291281
 42
-0.183232449514118
 10
0.7567237601087484
 20
-12.08457633771077
 10
4.235568804173845
 20
-15.56342138177595
 42
-0.4142135623730893
 10
4.235568804173838
 20
-16.27052816296249
 10
0.3535535469565119
 20
-20.15254342017982
 42
-0.4142135623730947
 10
-0.3535532342300343
 20
-20.15254342017982
 10
-20.15254310745271
 20
-0.3535535469571442
 42
-0.4142135623730957
  0
LWPOLYLINE
  5
147
330
1F
100
AcDbEntity
  8
hoye_metal_feature
100
AcDbPolyline
 90
       24
 70
     1
 43
0.0
 10
-7.114300146856472
 20
4.780853844201999
 10
-6.654682484792581
 20
5.240471506265891
 42
-0.4142136619340953
 10
-5.947575583425284
 20
5.240471386085105
 10
-5.594022313014456
 20
4.886917875312776
 42
-0.4142134628121017
 10
-5.594022433195185
 20
4.179811214306994
 10
-6.445920777116108
 20
3.327912870386058
 42
0.414213562373095
 10
-6.445920777116122
 20
2.267252698606228
 10
-3.857100835857395
 20
-0.3215672426524918
 42
0.414213562373095
 10
-2.796440664077565
 20
-0.3215672426524918
 10
0.3215682141483782
 20
2.796441635573501
 42
0.414213562373095
 10
0.3215682141483853
 20
3.857101807353317
 10
-2.26725172711032
 20
6.445921748612022
 42
0.4142135623730955
 10
-3.327911898890143
 20
6.445921748612022
 10
-4.179808845151861
 20
5.594024802350305
 42
-0.4142136875578508
 10
-4.886915777449751
 20
5.594024953461684
 10
-5.240469016929985
 20
5.947578495164649
 42
-0.4142134371883504
 10
-5.240468865818663
 20
6.654685125239808
 10
-4.780850320824094
 20
7.114303670234364
 42
0.4142135623730983
 10
-4.780850320824094
 20
7.821410451420917
 10
-8.379214714949434
 20
11.41977484554616
 42
0.4142135623730935
 10
-9.086321496135973
 20
11.41977484554614
 10
-11.41977484554611
 20
9.08632149613598
 42
0.4142138491627189
 10
-11.41977449936028
 20
8.37921436876394
 10
-7.821406581857168
 20
4.780853498016512
 42
0.4142132755835278
  0
LWPOLYLINE
  5
148
330
1F
100
AcDbEntity
  8
hoye_metal_feature
100
AcDbPolyline
 90
       24
 70
     1
 43
0.0
 10
-11.05995861371336
 20
0.8351953773453431
 10
-10.35285179821714
 20
0.1280886990942349
 42
-0.4142135907974912
 10
-10.35285176390584
 20
-0.5790181164035744
 10
-12.13476135718549
 20
-2.360927709683239
 42
0.4142135623730955
 10
-12.1347613571855
 20
-3.421587881463054
 10
-9.545941415926784
 20
-6.010407822721788
 42
0.4142135623730945
 10
-8.485281244146968
 20
-6.010407822721788
 10
-5.367272365920989
 20
-2.89239894449581
 42
0.414213562373095
 10
-5.367272365920989
 20
-1.831738772715994
 10
-7.956092307179709
 20
0.7570811685427259
 42
0.388525753963133
 10
-8.967808022629221
 20
0.8018753089322388
 42
-0.388525753963134
 10
-9.642285166262234
 20
0.8317380691919425
 10
-9.999297153471609
 20
1.188750056401304
 42
-0.4142135623733903
 10
-9.999297153471254
 20
1.895856837588212
 10
-9.539678047330476
 20
2.355475943728067
 42
0.356393958694504
 10
-9.476110598291378
 20
2.984728817719073
 42
-0.3563939586936972
 10
-9.460218736031855
 20
3.14204203621658
 10
-8.72650667186722
 20
3.875754100381243
 42
0.414213562373096
 10
-8.726506671867206
 20
4.582860881567797
 10
-11.97131767539748
 20
7.827671885098084
 42
0.4142135623730946
 10
-12.67842445658403
 20
7.827671885098084
 10
-15.01187678195335
 20
5.49421955972872
 42
0.4142136173000202
 10
-15.01187671565069
 20
4.787112712239519
 10
-12.15311860620148
 20
1.928356694421367
  0
LWPOLYLINE
  5
149
330
1F
100
AcDbEntity
  8
hoye_metal_feature
100
AcDbPolyline
 90
       24
 70
     1
 43
0.0
 10
-7.827671049106748
 20
11.97131851139011
 10
-4.58286004557646
 20
8.726507507859822
 42
0.4142135623730959
 10
-3.875753264389907
 20
8.726507507859836
 10
-3.142041200225258
 20
9.460219572024485
 42
-0.3563939586936971
 10
-2.984727981727751
 20
9.476111434284007
 42
0.356393958694504
 10
-2.355475107736737
 20
9.539678883323091
 10
-1.89585600159689
 20
9.99929798946387
 42
-0.41421356237339
 10
-1.188749220409989
 20
9.999297989464225
 10
-0.8317372332006059
 20
9.642286002254849
 42
-0.388525753963134
 10
-0.8018744729409235
 20
8.96780885862185
 42
0.388525753963133
 10
-0.7570803325514035
 20
7.956093143172325
 10
1.831739608707316
 20
5.367273201913605
 42
0.4142135623730949
 10
2.892399780487125
 20
5.367273201913605
 10
6.010408658713111
 20
8.485282080139598
 42
0.4142135623730945
 10
6.010408658713118
 20
9.545942251919428
 10
3.421588717454405
 20
12.13476219317813
 42
0.414213562373095
 10
2.360928545674575
 20
12.13476219317813
 10
0.5790177325551582
 20
10.35285138005874
 42
-0.4142135623730948
 10
-0.1280890486313808
 20
10.35285138005872
 10
-0.835195829816314
 20
11.05995816124364
 10
-1.928356626884735
 20
12.1531185386649
 10
-4.787113614534768
 20
15.01187594596209
 42
0.4142135623730953
 10
-5.494220395721307
 20
15.01187594596209
 10
-7.827671049106733
 20
12.67842529257666
 42
0.414213562373095
  0
LWPOLYLINE
  5
17D
330
1F
100
AcDbEntity
  8
hoye_metal_feature
100
AcDbPolyline
 90
       30
 70
     1
 43
0.0
 10
44.33311056278475
 20
44.83311034165281
 10
38.84311193668864
 20
44.83311034165281
 42
0.4142135623730898
 10
38.34311193668864
 20
44.33311034165283
 10
38.3431119366887
 20
39.41328094120434
 42
0.1832324495141107
 10
38.37454028179083
 20
39.3303994269827
 42
-0.1832325884915771
 10
38.5631103524035
 20
38.83310993826384
 10
38.5631103524035
 20
38.74425461312278
 42
0.4142135623730948
 10
39.0631103524035
 20
38.24425461312278
 10
40.83311680337451
 20
38.2442546131228
 42
-0.4142121397446039
 10
42.33311680335682
 20
36.7442618988627
 10
42.33313701454014
 20
32.5831505477956
 42
-0.414214985003017
 10
40.83313701455785
 20
31.08314326205569
 10
31.3331409299485
 20
31.08314326205566
 42
0.4142134328372875
 10
30.83314092994856
 20
30.58314348318714
 10
30.83314070878798
 20
30.0830776423823
 42
0.4142136919089147
 10
31.33314070878792
 20
29.58307742125083
 10
40.83313819541979
 20
29.58307742125086
 42
-0.4142154503495637
 10
42.33313819538864
 20
28.08306775232502
 10
42.33311137307061
 20
23.92195640125792
 42
-0.4142116743991466
 10
40.83311137310177
 20
22.42196607018375
 10
39.06311035240347
 20
22.42196651244662
 42
0.4142135623730961
 10
38.56311035240347
 20
21.92196651244662
 10
38.56311035240347
 20
21.83311118730557
 42
-0.1832325884915763
 10
38.3745402817908
 20
21.33582169858672
 42
0.183232449514118
 10
38.34311193668867
 20
21.25294018436507
 10
38.34311193668873
 20
16.33311034165371
 42
0.4142135623730893
 10
38.84311193668873
 20
15.83311034165372
 10
44.33311056278475
 20
15.83311034165373
 42
0.4142135623730947
 10
44.83311056278475
 20
16.33311034165373
 10
44.83311056278475
 20
44.33311034165281
 42
0.4142135623730957
  0
LWPOLYLINE
  5
17E
330
1F
100
AcDbEntity
  8
hoye_metal_feature
100
AcDbPolyline
 90
       12
 70
     1
 43
0.0
 10
25.90311256799723
 20
20.92196607018395
 42
0.4142135623730951
 10
26.40311256799723
 20
21.42196607018395
 10
26.40311256799723
 20
22.92196607018395
 10
27.40311256799723
 20
22.92196607018395
 10
27.40311256799721
 20
18.3331103416537
 42
-0.4142135623730888
 10
26.90311256799721
 20
17.83311034165371
 42
0.9999999999999964
 10
26.90311256799717
 20
16.83311034165371
 42
-1.000000000000003
 10
26.90311256799714
 20
15.83311034165372
 10
23.60311119409641
 20
15.83311034165371
 42
-0.4142139057686321
 10
23.10311119409675
 20
16.33311092786649
 10
23.10311257506972
 20
20.42196652595794
 42
-0.414213295386901
 10
23.60311257506952
 20
20.92196607018395
  0
LWPOLYLINE
  5
17F
330
1F
100
AcDbEntity
  8
hoye_metal_feature
100
AcDbPolyline
 90
       10
 70
     1
 43
0.0
 10
34.76310993147494
 20
20.92196607018395
 42
-0.4142135623730951
 10
34.26310993147494
 20
21.42196607018395
 10
34.26310993147494
 20
22.92196607018395
 10
33.26310993147494
 20
22.92196607018395
 10
33.26311056278607
 20
16.33311040610874
 42
0.4142135985040851
 10
33.76311062446553
 20
15.83311040610875
 10
37.06311371326983
 20
15.83311081319358
 42
0.414213793228341
 10
37.56311365159016
 20
16.33311126896756
 10
37.56310992440244
 20
20.42196652595794
 42
0.414213295386901
 10
37.06310992440265
 20
20.92196607018395
  0
LWPOLYLINE
  5
180
330
1F
100
AcDbEntity
  8
hoye_metal_feature
100
AcDbPolyline
 90
       24
 70
     1
 43
0.0
 10
30.83311056278475
 20
22.92196607018374
 10
30.83311056278477
 20
22.42196607025291
 42
0.4142139828329349
 10
31.3331112805545
 20
21.92196607025343
 10
31.98310663163495
 20
21.92196648916555
 42
-0.4142134077428319
 10
32.48310695387701
 20
21.42196707537843
 10
32.48311193668611
 20
16.33311092786649
 42
-0.4142139057686324
 10
31.98311193668647
 20
15.83311034165371
 10
28.6831105627857
 20
15.83311034165371
 42
-0.4142135623730919
 10
28.1831105627857
 20
16.3331103416537
 10
28.18311056278564
 20
21.42196607018611
 42
-0.4142135623739431
 10
28.68311056278708
 20
21.92196607018611
 10
29.33310984501502
 20
21.92196607018425
 42
0.414213982832939
 10
29.83311056278475
 20
22.42196607018374
 10
29.83311056278475
 20
22.92196607018374
 42
0.4142135623730951
 10
29.33311056278475
 20
23.42196607018374
 10
20.08311056278475
 20
23.42196607018374
 42
-0.4142135623730951
 10
19.33311056278475
 20
24.17196607018374
 10
19.33311056278475
 20
27.83311034165374
 42
-0.4142135623730951
 10
20.08311056278475
 20
28.58311034165374
 10
40.58311056278475
 20
28.58311034165374
 42
-0.4142135623730951
 10
41.33311056278475
 20
27.83311034165374
 10
41.33311056278475
 20
24.17196607018374
 42
-0.4142135623730951
 10
40.58311056278475
 20
23.42196607018374
 10
31.33311056278475
 20
23.42196607018374
 42
0.4142135623730951
  0
LWPOLYLINE
  5
181
330
1F
100
AcDbEntity
  8
hoye_metal_feature
100
AcDbPolyline
 90
       30
 70
     1
 43
0.0
 10
16.33311056278475
 20
44.83311034165281
 10
21.82310918888088
 20
44.83311034165281
 42
-0.4142135623730898
 10
22.32310918888086
 20
44.33311034165283
 10
22.32310918888081
 20
39.41328094120434
 42
-0.1832324495141107
 10
22.29168084377868
 20
39.3303994269827
 42
0.1832325884915771
 10
22.10311077316601
 20
38.83310993826384
 10
22.10311077316601
 20
38.74425461312278
 42
-0.4142135623730948
 10
21.60311077316601
 20
38.24425461312278
 10
19.833104322195
 20
38.2442546131228
 42
0.4142121397446039
 10
18.33310432221269
 20
36.7442618988627
 10
18.33308411102936
 20
32.5831505477956
 42
0.414214985003017
 10
19.83308411101166
 20
31.08314326205569
 10
29.33308019562101
 20
31.08314326205566
 42
-0.4142134328372875
 10
29.83308019562095
 20
30.58314348318714
 10
29.83308041678153
 20
30.0830776423823
 42
-0.4142136919089147
 10
29.33308041678158
 20
29.58307742125083
 10
19.83308293014971
 20
29.58307742125086
 42
0.4142154503495637
 10
18.33308293018086
 20
28.08306775232502
 10
18.3331097524989
 20
23.92195640125792
 42
0.4142116743991466
 10
19.83310975246773
 20
22.42196607018375
 10
21.60311077316604
 20
22.42196651244662
 42
-0.4142135623730961
 10
22.10311077316604
 20
21.92196651244662
 10
22.10311077316604
 20
21.83311118730557
 42
0.1832325884915763
 10
22.29168084377871
 20
21.33582169858672
 42
-0.183232449514118
 10
22.32310918888084
 20
21.25294018436507
 10
22.32310918888078
 20
16.33311034165371
 42
-0.4142135623730893
 10
21.82310918888078
 20
15.83311034165372
 10
16.33311056278475
 20
15.83311034165373
 42
-0.4142135623730947
 10
15.83311056278475
 20
16.33311034165373
 10
15.83311056278475
 20
44.33311034165281
 42
-0.4142135623730957
  0
LWPOLYLINE
  5
182
330
1F
100
AcDbEntity
  8
hoye_metal_feature
100
AcDbPolyline
 90
       24
 70
     1
 43
0.0
 10
28.68311485864308
 20
38.7442546131204
 10
29.33311238984005
 20
38.7442546131204
 42
-0.4142136619340953
 10
29.83311238984003
 20
38.24425444315913
 10
29.83311221987877
 20
37.74425444316152
 42
-0.4142134628121017
 10
29.3331122198788
 20
37.24425461312276
 10
28.12834602814264
 20
37.24425461312276
 42
0.414213562373095
 10
27.37834602814263
 20
36.49425461312276
 10
27.37834602814263
 20
32.83311034165275
 42
0.414213562373095
 10
28.12834602814264
 20
32.08311034165275
 10
32.53787647132953
 20
32.08311034165278
 42
0.414213562373095
 10
33.28787647132953
 20
32.83311034165278
 10
33.28787647132953
 20
36.49425461312276
 42
0.4142135623730955
 10
32.53787647132953
 20
37.24425461312276
 10
31.33311225618198
 20
37.24425461312276
 42
-0.4142136875578508
 10
30.83311225618201
 20
37.7442548268265
 10
30.83311246988575
 20
38.24425482682413
 42
-0.4142134371883504
 10
31.33311246988571
 20
38.7442546131204
 10
31.9831112497352
 20
38.7442546131204
 42
0.4142135623730983
 10
32.4831112497352
 20
39.2442546131204
 10
32.48311124973513
 20
44.33311034165282
 42
0.4142135623730935
 10
31.98311124973513
 20
44.83311034165281
 10
28.68310987583438
 20
44.83311034165279
 42
0.4142138491627189
 10
28.18310987583462
 20
44.33310985207233
 10
28.18311485864334
 20
39.24425412353992
 42
0.4142132755835278
  0
LWPOLYLINE
  5
183
330
1F
100
AcDbEntity
  8
hoye_metal_feature
100
AcDbPolyline
 90
       24
 70
     1
 43
0.0
 10
23.10311114232201
 20
38.74425461312055
 10
23.10311123936896
 20
37.7442546616463
 42
-0.4142135907974912
 10
22.60311123936897
 20
37.24425461312283
 10
20.08311052563016
 20
37.24425461312283
 42
0.4142135623730955
 10
19.33311052563016
 20
36.49425461312283
 10
19.33311052563015
 20
32.83311034165282
 42
0.4142135623730945
 10
20.08311052563015
 20
32.08311034165282
 10
24.49264096881704
 20
32.08311034165282
 42
0.414213562373095
 10
25.24264096881704
 20
32.83311034165282
 10
25.24264096881704
 20
36.49425461312281
 42
0.388525753963133
 10
24.55892416621654
 20
37.24131989657702
 42
-0.388525753963134
 10
24.10311296448288
 20
37.73936341887983
 10
24.10311296448288
 20
38.24425461312109
 42
-0.4142135623733903
 10
24.60311296448339
 20
38.74425461312109
 10
25.25311253791281
 20
38.74425461312044
 42
0.356393958694504
 10
25.74301048647125
 20
39.14425461312234
 42
-0.3563939586936972
 10
25.86548497361051
 20
39.24425461312281
 10
26.90311052562892
 20
39.24425461312283
 42
0.414213562373096
 10
27.40311052562893
 20
39.74425461312283
 10
27.40311052562893
 20
44.33311034165281
 42
0.4142135623730946
 10
26.90311052562893
 20
44.83311034165281
 10
23.60311059994058
 20
44.83311034165278
 42
0.4142136173000202
 10
23.10311059994058
 20
44.33311024788666
 10
23.10311207894709
 20
40.29021723696602
  0
LWPOLYLINE
  5
184
330
1F
100
AcDbEntity
  8
hoye_metal_feature
100
AcDbPolyline
 90
       24
 70
     1
 43
0.0
 10
33.26311178221174
 20
44.33311034165371
 10
33.26311178221174
 20
39.74425461312374
 42
0.4142135623730959
 10
33.76311178221174
 20
39.24425461312374
 10
34.80073733423015
 20
39.24425461312374
 42
-0.3563939586936971
 10
34.92321182136941
 20
39.14425461312326
 42
0.356393958694504
 10
35.41310976992784
 20
38.74425461312136
 10
36.06310934335727
 20
38.74425461312202
 42
-0.41421356237339
 10
36.56310934335778
 20
38.24425461312202
 10
36.56310934335778
 20
37.73936341888074
 42
-0.388525753963134
 10
36.10729814162411
 20
37.24131989657794
 42
0.388525753963133
 10
35.42358133902361
 20
36.49425461312374
 10
35.42358133902361
 20
32.83311034165373
 42
0.4142135623730949
 10
36.17358133902361
 20
32.08311034165374
 10
40.58311178221052
 20
32.08311034165374
 42
0.4142135623730945
 10
41.33311178221052
 20
32.83311034165374
 10
41.33311178221052
 20
36.49425461312374
 42
0.414213562373095
 10
40.58311178221052
 20
37.24425461312374
 10
38.06310934335778
 20
37.24425461312375
 42
-0.4142135623730948
 10
37.56310934335778
 20
37.74425461312374
 10
37.56310934335778
 20
38.74425461312145
 10
37.56310904662242
 20
40.29021714145484
 10
37.56310934335778
 20
44.33311034165371
 42
0.4142135623730953
 10
37.06310934335778
 20
44.83311034165371
 10
33.76311178221174
 20
44.83311034165371
 42
0.414213562373095
  0
LWPOLYLINE
  5
187
330
1F
100
AcDbEntity
  8
hoye_metal_feature
100
AcDbPolyline
 90
       30
 70
     1
 43
0.0
 10
-16.33311193668742
 20
44.83311034165281
 10
-21.82311056278353
 20
44.83311034165281
 42
0.4142135623730898
 10
-22.32311056278353
 20
44.33311034165283
 10
-22.32311056278347
 20
39.41328094120434
 42
0.1832324495141107
 10
-22.29168221768134
 20
39.3303994269827
 42
-0.1832325884915771
 10
-22.10311214706867
 20
38.83310993826384
 10
-22.10311214706867
 20
38.74425461312278
 42
0.4142135623730948
 10
-21.60311214706867
 20
38.24425461312278
 10
-19.83310569609766
 20
38.2442546131228
 42
-0.4142121397446039
 10
-18.33310569611535
 20
36.7442618988627
 10
-18.33308548493203
 20
32.5831505477956
 42
-0.414214985003017
 10
-19.83308548491432
 20
31.08314326205569
 10
-29.33308156952367
 20
31.08314326205566
 42
0.4142134328372875
 10
-29.83308156952361
 20
30.58314348318714
 10
-29.83308179068419
 20
30.0830776423823
 42
0.4142136919089147
 10
-29.33308179068425
 20
29.58307742125083
 10
-19.83308430405238
 20
29.58307742125086
 42
-0.4142154503495637
 10
-18.33308430408353
 20
28.08306775232502
 10
-18.33311112640156
 20
23.92195640125792
 42
-0.4142116743991466
 10
-19.8331111263704
 20
22.42196607018375
 10
-21.6031121470687
 20
22.42196651244662
 42
0.4142135623730961
 10
-22.1031121470687
 20
21.92196651244662
 10
-22.1031121470687
 20
21.83311118730557
 42
-0.1832325884915763
 10
-22.29168221768137
 20
21.33582169858672
 42
0.183232449514118
 10
-22.3231105627835
 20
21.25294018436507
 10
-22.32311056278344
 20
16.33311034165371
 42
0.4142135623730893
 10
-21.82311056278344
 20
15.83311034165372
 10
-16.33311193668742
 20
15.83311034165373
 42
0.4142135623730947
 10
-15.83311193668742
 20
16.33311034165373
 10
-15.83311193668742
 20
44.33311034165281
 42
0.4142135623730957
  0
LWPOLYLINE
  5
188
330
1F
100
AcDbEntity
  8
hoye_metal_feature
100
AcDbPolyline
 90
       12
 70
     1
 43
0.0
 10
-34.76310993147494
 20
20.92196607018395
 42
0.4142135623730951
 10
-34.26310993147494
 20
21.42196607018395
 10
-34.26310993147494
 20
22.92196607018395
 10
-33.26310993147494
 20
22.92196607018395
 10
-33.26310993147496
 20
18.3331103416537
 42
-0.4142135623730888
 10
-33.76310993147496
 20
17.83311034165371
 42
0.9999999999999964
 10
-33.763109931475
 20
16.83311034165371
 42
-1.000000000000003
 10
-33.76310993147503
 20
15.83311034165372
 10
-37.06311130537576
 20
15.83311034165371
 42
-0.4142139057686321
 10
-37.56311130537541
 20
16.33311092786649
 10
-37.56310992440245
 20
20.42196652595794
 42
-0.414213295386901
 10
-37.06310992440265
 20
20.92196607018395
  0
LWPOLYLINE
  5
189
330
1F
100
AcDbEntity
  8
hoye_metal_feature
100
AcDbPolyline
 90
       10
 70
     1
 43
0.0
 10
-25.90311256799723
 20
20.92196607018395
 42
-0.4142135623730951
 10
-26.40311256799723
 20
21.42196607018395
 10
-26.40311256799723
 20
22.92196607018395
 10
-27.40311256799723
 20
22.92196607018395
 10
-27.4031119366861
 20
16.33311040610874
 42
0.4142135985040851
 10
-26.90311187500664
 20
15.83311040610875
 10
-23.60310878620234
 20
15.83311081319358
 42
0.414213793228341
 10
-23.10310884788201
 20
16.33311126896756
 10
-23.10311257506973
 20
20.42196652595794
 42
0.414213295386901
 10
-23.60311257506952
 20
20.92196607018395
  0
LWPOLYLINE
  5
18A
330
1F
100
AcDbEntity
  8
hoye_metal_feature
100
AcDbPolyline
 90
       24
 70
     1
 43
0.0
 10
-29.83311193668742
 20
22.92196607018374
 10
-29.8331119366874
 20
22.42196607025291
 42
0.4142139828329349
 10
-29.33311121891767
 20
21.92196607025343
 10
-28.68311586783722
 20
21.92196648916555
 42
-0.4142134077428319
 10
-28.18311554559516
 20
21.42196707537843
 10
-28.18311056278606
 20
16.33311092786649
 42
-0.4142139057686324
 10
-28.6831105627857
 20
15.83311034165371
 10
-31.98311193668647
 20
15.83311034165371
 42
-0.4142135623730919
 10
-32.48311193668647
 20
16.3331103416537
 10
-32.48311193668653
 20
21.42196607018611
 42
-0.4142135623739431
 10
-31.98311193668509
 20
21.92196607018611
 10
-31.33311265445715
 20
21.92196607018425
 42
0.414213982832939
 10
-30.83311193668742
 20
22.42196607018374
 10
-30.83311193668742
 20
22.92196607018374
 42
0.4142135623730951
 10
-31.33311193668742
 20
23.42196607018374
 10
-40.58311193668742
 20
23.42196607018374
 42
-0.4142135623730951
 10
-41.33311193668742
 20
24.17196607018374
 10
-41.33311193668742
 20
27.83311034165374
 42
-0.4142135623730951
 10
-40.58311193668742
 20
28.58311034165374
 10
-20.08311193668742
 20
28.58311034165374
 42
-0.4142135623730951
 10
-19.33311193668742
 20
27.83311034165374
 10
-19.33311193668742
 20
24.17196607018374
 42
-0.4142135623730951
 10
-20.08311193668742
 20
23.42196607018374
 10
-29.33311193668742
 20
23.42196607018374
 42
0.4142135623730951
  0
LWPOLYLINE
  5
18B
330
1F
100
AcDbEntity
  8
hoye_metal_feature
100
AcDbPolyline
 90
       30
 70
     1
 43
0.0
 10
-44.33311193668742
 20
44.83311034165281
 10
-38.84311331059129
 20
44.83311034165281
 42
-0.4142135623730898
 10
-38.34311331059131
 20
44.33311034165283
 10
-38.34311331059136
 20
39.41328094120434
 42
-0.1832324495141107
 10
-38.37454165569349
 20
39.3303994269827
 42
0.1832325884915771
 10
-38.56311172630616
 20
38.83310993826384
 10
-38.56311172630616
 20
38.74425461312278
 42
-0.4142135623730948
 10
-39.06311172630616
 20
38.24425461312278
 10
-40.83311817727717
 20
38.2442546131228
 42
0.4142121397446039
 10
-42.33311817725948
 20
36.7442618988627
 10
-42.3331383884428
 20
32.5831505477956
 42
0.414214985003017
 10
-40.83313838846051
 20
31.08314326205569
 10
-31.33314230385116
 20
31.08314326205566
 42
-0.4142134328372875
 10
-30.83314230385122
 20
30.58314348318714
 10
-30.83314208269064
 20
30.0830776423823
 42
-0.4142136919089147
 10
-31.33314208269059
 20
29.58307742125083
 10
-40.83313956932246
 20
29.58307742125086
 42
0.4142154503495637
 10
-42.3331395692913
 20
28.08306775232502
 10
-42.33311274697327
 20
23.92195640125792
 42
0.4142116743991466
 10
-40.83311274700444
 20
22.42196607018375
 10
-39.06311172630613
 20
22.42196651244662
 42
-0.4142135623730961
 10
-38.56311172630613
 20
21.92196651244662
 10
-38.56311172630613
 20
21.83311118730557
 42
0.1832325884915763
 10
-38.37454165569346
 20
21.33582169858672
 42
-0.183232449514118
 10
-38.34311331059133
 20
21.25294018436507
 10
-38.34311331059139
 20
16.33311034165371
 42
-0.4142135623730893
 10
-38.84311331059139
 20
15.83311034165372
 10
-44.33311193668742
 20
15.83311034165373
 42
-0.4142135623730947
 10
-44.83311193668742
 20
16.33311034165373
 10
-44.83311193668742
 20
44.33311034165281
 42
-0.4142135623730957
  0
LWPOLYLINE
  5
18C
330
1F
100
AcDbEntity
  8
hoye_metal_feature
100
AcDbPolyline
 90
       24
 70
     1
 43
0.0
 10
-31.98310764082909
 20
38.7442546131204
 10
-31.33311010963212
 20
38.7442546131204
 42
-0.4142136619340953
 10
-30.83311010963214
 20
38.24425444315913
 10
-30.8331102795934
 20
37.74425444316152
 42
-0.4142134628121017
 10
-31.33311027959337
 20
37.24425461312276
 10
-32.53787647132953
 20
37.24425461312276
 42
0.414213562373095
 10
-33.28787647132954
 20
36.49425461312276
 10
-33.28787647132954
 20
32.83311034165275
 42
0.414213562373095
 10
-32.53787647132953
 20
32.08311034165275
 10
-28.12834602814264
 20
32.08311034165278
 42
0.414213562373095
 10
-27.37834602814264
 20
32.83311034165278
 10
-27.37834602814264
 20
36.49425461312276
 42
0.4142135623730955
 10
-28.12834602814264
 20
37.24425461312276
 10
-29.33311024329019
 20
37.24425461312276
 42
-0.4142136875578508
 10
-29.83311024329016
 20
37.7442548268265
 10
-29.83311002958642
 20
38.24425482682413
 42
-0.4142134371883504
 10
-29.33311002958646
 20
38.7442546131204
 10
-28.68311124973697
 20
38.7442546131204
 42
0.4142135623730983
 10
-28.18311124973697
 20
39.2442546131204
 10
-28.18311124973704
 20
44.33311034165282
 42
0.4142135623730935
 10
-28.68311124973704
 20
44.83311034165281
 10
-31.98311262363779
 20
44.83311034165279
 42
0.4142138491627189
 10
-32.48311262363755
 20
44.33310985207233
 10
-32.48310764082883
 20
39.24425412353992
 42
0.4142132755835278
  0
LWPOLYLINE
  5
18D
330
1F
100
AcDbEntity
  8
hoye_metal_feature
100
AcDbPolyline
 90
       24
 70
     1
 43
0.0
 10
-37.56311135715016
 20
38.74425461312055
 10
-37.56311126010321
 20
37.7442546616463
 42
-0.4142135907974912
 10
-38.0631112601032
 20
37.24425461312283
 10
-40.58311197384201
 20
37.24425461312283
 42
0.4142135623730955
 10
-41.33311197384201
 20
36.49425461312283
 10
-41.33311197384202
 20
32.83311034165282
 42
0.4142135623730945
 10
-40.58311197384202
 20
32.08311034165282
 10
-36.17358153065513
 20
32.08311034165282
 42
0.414213562373095
 10
-35.42358153065513
 20
32.83311034165282
 10
-35.42358153065513
 20
36.49425461312281
 42
0.388525753963133
 10
-36.10729833325563
 20
37.24131989657702
 42
-0.388525753963134
 10
-36.56310953498929
 20
37.73936341887983
 10
-36.56310953498929
 20
38.24425461312109
 42
-0.4142135623733903
 10
-36.06310953498878
 20
38.74425461312109
 10
-35.41310996155936
 20
38.74425461312044
 42
0.356393958694504
 10
-34.92321201300092
 20
39.14425461312234
 42
-0.3563939586936972
 10
-34.80073752586166
 20
39.24425461312281
 10
-33.76311197384325
 20
39.24425461312283
 42
0.414213562373096
 10
-33.26311197384324
 20
39.74425461312283
 10
-33.26311197384324
 20
44.33311034165281
 42
0.4142135623730946
 10
-33.76311197384324
 20
44.83311034165281
 10
-37.06311189953159
 20
44.83311034165278
 42
0.4142136173000202
 10
-37.56311189953159
 20
44.33311024788666
 10
-37.56311042052508
 20
40.29021723696602
  0
LWPOLYLINE
  5
18E
330
1F
100
AcDbEntity
  8
hoye_metal_feature
100
AcDbPolyline
 90
       24
 70
     1
 43
0.0
 10
-27.40311071726043
 20
44.33311034165371
 10
-27.40311071726043
 20
39.74425461312374
 42
0.4142135623730959
 10
-26.90311071726043
 20
39.24425461312374
 10
-25.86548516524202
 20
39.24425461312374
 42
-0.3563939586936971
 10
-25.74301067810276
 20
39.14425461312326
 42
0.356393958694504
 10
-25.25311272954433
 20
38.74425461312136
 10
-24.6031131561149
 20
38.74425461312202
 42
-0.41421356237339
 10
-24.10311315611439
 20
38.24425461312202
 10
-24.10311315611439
 20
37.73936341888074
 42
-0.388525753963134
 10
-24.55892435784806
 20
37.24131989657794
 42
0.388525753963133
 10
-25.24264116044856
 20
36.49425461312374
 10
-25.24264116044856
 20
32.83311034165373
 42
0.4142135623730949
 10
-24.49264116044856
 20
32.08311034165374
 10
-20.08311071726165
 20
32.08311034165374
 42
0.4142135623730945
 10
-19.33311071726165
 20
32.83311034165374
 10
-19.33311071726165
 20
36.49425461312374
 42
0.414213562373095
 10
-20.08311071726165
 20
37.24425461312374
 10
-22.60311315611439
 20
37.24425461312375
 42
-0.4142135623730948
 10
-23.10311315611439
 20
37.74425461312374
 10
-23.10311315611439
 20
38.74425461312145
 10
-23.10311345284975
 20
40.29021714145484
 10
-23.10311315611439
 20
44.33311034165371
 42
0.4142135623730953
 10
-23.60311315611439
 20
44.83311034165371
 10
-26.90311071726043
 20
44.83311034165371
 42
0.414213562373095
  0
LWPOLYLINE
  5
190
330
1F
100
AcDbEntity
  8
hoye_metal_feature
100
AcDbPolyline
 90
       30
 70
     1
 43
0.0
 10
44.33311056278475
 20
-15.83311078391664
 10
38.84311193668864
 20
-15.83311078391664
 42
0.4142135623730898
 10
38.34311193668864
 20
-16.33311078391662
 10
38.3431119366887
 20
-21.25294018436511
 42
0.1832324495141107
 10
38.37454028179083
 20
-21.33582169858675
 42
-0.1832325884915771
 10
38.5631103524035
 20
-21.83311118730561
 10
38.5631103524035
 20
-21.92196651244667
 42
0.4142135623730948
 10
39.0631103524035
 20
-22.42196651244667
 10
40.83311680337451
 20
-22.42196651244665
 42
-0.4142121397446039
 10
42.33311680335682
 20
-23.92195922670675
 10
42.33313701454014
 20
-28.08307057777385
 42
-0.414214985003017
 10
40.83313701455785
 20
-29.58307786351376
 10
31.3331409299485
 20
-29.58307786351378
 42
0.4142134328372875
 10
30.83314092994855
 20
-30.08307764238231
 10
30.83314070878798
 20
-30.58314348318715
 42
0.4142136919089147
 10
31.33314070878792
 20
-31.08314370431862
 10
40.83313819541979
 20
-31.08314370431859
 42
-0.4142154503495637
 10
42.33313819538864
 20
-32.58315337324443
 10
42.3331113730706
 20
-36.74426472431153
 42
-0.4142116743991466
 10
40.83311137310177
 20
-38.2442550553857
 10
39.06311035240346
 20
-38.24425461312283
 42
0.4142135623730961
 10
38.56311035240346
 20
-38.74425461312283
 10
38.56311035240346
 20
-38.83310993826387
 42
-0.1832325884915763
 10
38.37454028179079
 20
-39.33039942698272
 42
0.183232449514118
 10
38.34311193668866
 20
-39.41328094120438
 10
38.34311193668872
 20
-44.33311078391573
 42
0.4142135623730893
 10
38.84311193668872
 20
-44.83311078391573
 10
44.33311056278475
 20
-44.83311078391572
 42
0.4142135623730947
 10
44.83311056278475
 20
-44.33311078391572
 10
44.83311056278475
 20
-16.33311078391664
 42
0.4142135623730957
  0
LWPOLYLINE
  5
191
330
1F
100
AcDbEntity
  8
hoye_metal_feature
100
AcDbPolyline
 90
       12
 70
     1
 43
0.0
 10
25.90311256799722
 20
-39.74425505538549
 42
0.4142135623730951
 10
26.40311256799722
 20
-39.24425505538549
 10
26.40311256799722
 20
-37.74425505538549
 10
27.40311256799722
 20
-37.74425505538549
 10
27.40311256799721
 20
-42.33311078391574
 42
-0.4142135623730888
 10
26.90311256799721
 20
-42.83311078391573
 42
0.9999999999999964
 10
26.90311256799717
 20
-43.83311078391573
 42
-1.000000000000003
 10
26.90311256799714
 20
-44.83311078391573
 10
23.60311119409641
 20
-44.83311078391573
 42
-0.4142139057686321
 10
23.10311119409675
 20
-44.33311019770295
 10
23.10311257506971
 20
-40.24425459961151
 42
-0.414213295386901
 10
23.60311257506951
 20
-39.74425505538549
  0
LWPOLYLINE
  5
192
330
1F
100
AcDbEntity
  8
hoye_metal_feature
100
AcDbPolyline
 90
       10
 70
     1
 43
0.0
 10
34.76310993147494
 20
-39.74425505538549
 42
-0.4142135623730951
 10
34.26310993147494
 20
-39.24425505538549
 10
34.26310993147494
 20
-37.74425505538549
 10
33.26310993147494
 20
-37.74425505538549
 10
33.26311056278606
 20
-44.33311071946071
 42
0.4142135985040851
 10
33.76311062446552
 20
-44.83311071946069
 10
37.06311371326982
 20
-44.83311031237587
 42
0.414213793228341
 10
37.56311365159015
 20
-44.33310985660188
 10
37.56310992440243
 20
-40.24425459961151
 42
0.414213295386901
 10
37.06310992440265
 20
-39.74425505538549
  0
LWPOLYLINE
  5
193
330
1F
100
AcDbEntity
  8
hoye_metal_feature
100
AcDbPolyline
 90
       24
 70
     1
 43
0.0
 10
30.83311056278475
 20
-37.74425505538571
 10
30.83311056278476
 20
-38.24425505531653
 42
0.4142139828329349
 10
31.3331112805545
 20
-38.74425505531602
 10
31.98310663163495
 20
-38.74425463640389
 42
-0.4142134077428319
 10
32.48310695387701
 20
-39.24425405019102
 10
32.48311193668611
 20
-44.33311019770295
 42
-0.4142139057686324
 10
31.98311193668647
 20
-44.83311078391573
 10
28.6831105627857
 20
-44.83311078391573
 42
-0.4142135623730919
 10
28.1831105627857
 20
-44.33311078391574
 10
28.18311056278564
 20
-39.24425505538333
 42
-0.4142135623739431
 10
28.68311056278707
 20
-38.74425505538333
 10
29.33310984501501
 20
-38.7442550553852
 42
0.414213982832939
 10
29.83311056278475
 20
-38.24425505538571
 10
29.83311056278475
 20
-37.74425505538571
 42
0.4142135623730951
 10
29.33311056278475
 20
-37.24425505538571
 10
20.08311056278475
 20
-37.24425505538571
 42
-0.4142135623730951
 10
19.33311056278475
 20
-36.49425505538571
 10
19.33311056278475
 20
-32.8331107839157
 42
-0.4142135623730951
 10
20.08311056278475
 20
-32.0831107839157
 10
40.58311056278475
 20
-32.0831107839157
 42
-0.4142135623730951
 10
41.33311056278475
 20
-32.83311078391571
 10
41.33311056278475
 20
-36.49425505538571
 42
-0.4142135623730951
 10
40.58311056278475
 20
-37.24425505538571
 10
31.33311056278475
 20
-37.24425505538571
 42
0.4142135623730951
  0
LWPOLYLINE
  5
194
330
1F
100
AcDbEntity
  8
hoye_metal_feature
100
AcDbPolyline
 90
       30
 70
     1
 43
0.0
 10
16.33311056278475
 20
-15.83311078391664
 10
21.82310918888088
 20
-15.83311078391664
 42
-0.4142135623730898
 10
22.32310918888086
 20
-16.33311078391661
 10
22.3231091888808
 20
-21.2529401843651
 42
-0.1832324495141107
 10
22.29168084377867
 20
-21.33582169858674
 42
0.1832325884915771
 10
22.10311077316601
 20
-21.8331111873056
 10
22.10311077316601
 20
-21.92196651244666
 42
-0.4142135623730948
 10
21.60311077316601
 20
-22.42196651244666
 10
19.83310432219499
 20
-22.42196651244664
 42
0.4142121397446039
 10
18.33310432221269
 20
-23.92195922670675
 10
18.33308411102936
 20
-28.08307057777384
 42
0.414214985003017
 10
19.83308411101165
 20
-29.58307786351375
 10
29.333080195621
 20
-29.58307786351378
 42
-0.4142134328372875
 10
29.83308019562095
 20
-30.08307764238231
 10
29.83308041678152
 20
-30.58314348318715
 42
-0.4142136919089147
 10
29.33308041678158
 20
-31.08314370431862
 10
19.83308293014971
 20
-31.08314370431858
 42
0.4142154503495637
 10
18.33308293018086
 20
-32.58315337324443
 10
18.3331097524989
 20
-36.74426472431153
 42
0.4142116743991466
 10
19.83310975246773
 20
-38.24425505538569
 10
21.60311077316603
 20
-38.24425461312283
 42
-0.4142135623730961
 10
22.10311077316603
 20
-38.74425461312283
 10
22.10311077316603
 20
-38.83310993826387
 42
0.1832325884915763
 10
22.2916808437787
 20
-39.33039942698272
 42
-0.183232449514118
 10
22.32310918888083
 20
-39.41328094120438
 10
22.32310918888077
 20
-44.33311078391573
 42
-0.4142135623730893
 10
21.82310918888077
 20
-44.83311078391573
 10
16.33311056278475
 20
-44.83311078391571
 42
-0.4142135623730947
 10
15.83311056278475
 20
-44.33311078391571
 10
15.83311056278475
 20
-16.33311078391664
 42
-0.4142135623730957
  0
LWPOLYLINE
  5
195
330
1F
100
AcDbEntity
  8
hoye_metal_feature
100
AcDbPolyline
 90
       24
 70
     1
 43
0.0
 10
28.68311485864308
 20
-21.92196651244905
 10
29.33311238984005
 20
-21.92196651244905
 42
-0.4142136619340953
 10
29.83311238984002
 20
-22.42196668241032
 10
29.83311221987877
 20
-22.92196668240793
 42
-0.4142134628121017
 10
29.3331122198788
 20
-23.42196651244669
 10
28.12834602814264
 20
-23.42196651244669
 42
0.414213562373095
 10
27.37834602814263
 20
-24.17196651244669
 10
27.37834602814263
 20
-27.8331107839167
 42
0.414213562373095
 10
28.12834602814264
 20
-28.5831107839167
 10
32.53787647132953
 20
-28.58311078391667
 42
0.414213562373095
 10
33.28787647132953
 20
-27.83311078391667
 10
33.28787647132953
 20
-24.17196651244669
 42
0.4142135623730955
 10
32.53787647132953
 20
-23.42196651244669
 10
31.33311225618197
 20
-23.42196651244669
 42
-0.4142136875578508
 10
30.833112256182
 20
-22.92196629874295
 10
30.83311246988574
 20
-22.42196629874532
 42
-0.4142134371883504
 10
31.3331124698857
 20
-21.92196651244905
 10
31.9831112497352
 20
-21.92196651244905
 42
0.4142135623730983
 10
32.4831112497352
 20
-21.42196651244905
 10
32.48311124973513
 20
-16.33311078391663
 42
0.4142135623730935
 10
31.98311124973513
 20
-15.83311078391664
 10
28.68310987583438
 20
-15.83311078391666
 42
0.4142138491627189
 10
28.18310987583462
 20
-16.33311127349712
 10
28.18311485864333
 20
-21.42196700202953
 42
0.4142132755835278
  0
LWPOLYLINE
  5
196
330
1F
100
AcDbEntity
  8
hoye_metal_feature
100
AcDbPolyline
 90
       24
 70
     1
 43
0.0
 10
23.103111142322
 20
-21.92196651244889
 10
23.10311123936895
 20
-22.92196646392314
 42
-0.4142135907974912
 10
22.60311123936897
 20
-23.42196651244662
 10
20.08311052563016
 20
-23.42196651244662
 42
0.4142135623730955
 10
19.33311052563016
 20
-24.17196651244662
 10
19.33311052563014
 20
-27.83311078391662
 42
0.4142135623730945
 10
20.08311052563014
 20
-28.58311078391662
 10
24.49264096881704
 20
-28.58311078391662
 42
0.414213562373095
 10
25.24264096881704
 20
-27.83311078391662
 10
25.24264096881704
 20
-24.17196651244663
 42
0.388525753963133
 10
24.55892416621654
 20
-23.42490122899243
 42
-0.388525753963134
 10
24.10311296448287
 20
-22.92685770668962
 10
24.10311296448287
 20
-22.42196651244835
 42
-0.4142135623733903
 10
24.60311296448338
 20
-21.92196651244835
 10
25.25311253791281
 20
-21.921966512449
 42
0.356393958694504
 10
25.74301048647125
 20
-21.52196651244711
 42
-0.3563939586936972
 10
25.8654849736105
 20
-21.42196651244663
 10
26.90311052562891
 20
-21.42196651244662
 42
0.414213562373096
 10
27.40311052562893
 20
-20.92196651244662
 10
27.40311052562893
 20
-16.33311078391664
 42
0.4142135623730946
 10
26.90311052562893
 20
-15.83311078391664
 10
23.60311059994058
 20
-15.83311078391667
 42
0.4142136173000202
 10
23.10311059994058
 20
-16.33311087768278
 10
23.10311207894709
 20
-20.37600388860342
  0
LWPOLYLINE
  5
197
330
1F
100
AcDbEntity
  8
hoye_metal_feature
100
AcDbPolyline
 90
       24
 70
     1
 43
0.0
 10
33.26311178221174
 20
-16.33311078391574
 10
33.26311178221174
 20
-20.92196651244571
 42
0.4142135623730959
 10
33.76311178221174
 20
-21.42196651244571
 10
34.80073733423015
 20
-21.42196651244571
 42
-0.3563939586936971
 10
34.92321182136941
 20
-21.52196651244619
 42
0.356393958694504
 10
35.41310976992784
 20
-21.92196651244809
 10
36.06310934335727
 20
-21.92196651244743
 42
-0.41421356237339
 10
36.56310934335778
 20
-22.42196651244743
 10
36.56310934335778
 20
-22.92685770668871
 42
-0.388525753963134
 10
36.10729814162411
 20
-23.42490122899151
 42
0.388525753963133
 10
35.42358133902361
 20
-24.17196651244571
 10
35.42358133902361
 20
-27.83311078391572
 42
0.4142135623730949
 10
36.17358133902361
 20
-28.58311078391571
 10
40.58311178221052
 20
-28.58311078391571
 42
0.4142135623730945
 10
41.33311178221052
 20
-27.83311078391571
 10
41.33311178221052
 20
-24.17196651244571
 42
0.414213562373095
 10
40.58311178221052
 20
-23.42196651244571
 10
38.06310934335778
 20
-23.4219665124457
 42
-0.4142135623730948
 10
37.56310934335778
 20
-22.92196651244571
 10
37.56310934335778
 20
-21.921966512448
 10
37.56310904662242
 20
-20.37600398411461
 10
37.56310934335778
 20
-16.33311078391574
 42
0.4142135623730953
 10
37.06310934335778
 20
-15.83311078391574
 10
33.76311178221174
 20
-15.83311078391574
 42
0.414213562373095
  0
LWPOLYLINE
  5
22A
330
1F
100
AcDbEntity
  8
hoye_shim
100
AcDbPolyline
 90
        8
 70
     1
 43
0.0
 10
-44.33311056278475
 20
15.83311034165371
 10
-16.33311056278475
 20
15.83311034165371
 42
0.414213562373095
 10
-15.83311056278475
 20
16.33311034165371
 10
-15.83311056278475
 20
44.3331103416528
 42
0.414213562373095
 10
-16.33311056278475
 20
44.8331103416528
 10
-44.33311056278475
 20
44.8331103416528
 42
0.414213562373095
 10
-44.83311056278475
 20
44.3331103416528
 10
-44.83311056278475
 20
16.33311034165371
 42
0.4142135623730951
  0
LWPOLYLINE
  5
247
330
1F
100
AcDbEntity
  8
hoye_shim
100
AcDbPolyline
 90
        8
 70
     1
 43
0.0
 10
16.33311056278475
 20
15.83311034165371
 10
44.33311056278475
 20
15.83311034165371
 42
0.414213562373095
 10
44.83311056278475
 20
16.33311034165371
 10
44.83311056278475
 20
44.3331103416528
 42
0.414213562373095
 10
44.33311056278475
 20
44.8331103416528
 10
16.33311056278475
 20
44.8331103416528
 42
0.414213562373095
 10
15.83311056278475
 20
44.3331103416528
 10
15.83311056278475
 20
16.33311034165371
 42
0.4142135623730951
  0
LWPOLYLINE
  5
264
330
1F
100
AcDbEntity
  8
hoye_shim
100
AcDbPolyline
 90
        8
 70
     1
 43
0.0
 10
16.33311056278475
 20
-44.83311078391574
 10
44.33311056278475
 20
-44.83311078391574
 42
0.414213562373095
 10
44.83311056278475
 20
-44.33311078391574
 10
44.83311056278475
 20
-16.33311078391665
 42
0.414213562373095
 10
44.33311056278475
 20
-15.83311078391665
 10
16.33311056278475
 20
-15.83311078391665
 42
0.414213562373095
 10
15.83311056278475
 20
-16.33311078391665
 10
15.83311056278475
 20
-44.33311078391574
 42
0.4142135623730951
  0
LWPOLYLINE
  5
281
330
1F
100
AcDbEntity
  8
hoye_shim
100
AcDbPolyline
 90
        8
 70
     1
 43
0.0
 10
-44.33311056278475
 20
-44.83311078391573
 10
-16.33311056278475
 20
-44.83311078391573
 42
0.414213562373095
 10
-15.83311056278475
 20
-44.33311078391573
 10
-15.83311056278475
 20
-16.33311078391664
 42
0.414213562373095
 10
-16.33311056278475
 20
-15.83311078391664
 10
-44.33311056278475
 20
-15.83311078391664
 42
0.414213562373095
 10
-44.83311056278475
 20
-16.33311078391664
 10
-44.83311056278475
 20
-44.33311078391573
 42
0.4142135623730951
  0
LWPOLYLINE
  5
2BB
330
1F
100
AcDbEntity
  8
hoye_shim
100
AcDbPolyline
 90
        8
 70
     1
 43
0.0
 10
0.353553546956519
 20
-20.15254342017984
 10
20.15254342017985
 20
-0.353553546956519
 42
0.414213562373095
 10
20.15254342017987
 20
0.3535532342300343
 10
0.3535535469571727
 20
20.15254310745273
 42
0.414213562373095
 10
-0.3535532342293806
 20
20.15254310745273
 10
-20.15254310745273
 20
0.3535532342293948
 42
0.414213562373095
 10
-20.15254310745273
 20
-0.3535535469571442
 10
-0.3535532342300343
 20
-20.15254342017984
 42
0.4142135623730951
  0
LWPOLYLINE
  5
322
330
1F
100
AcDbEntity
  8
hoye_holder_extents
100
AcDbPolyline
 90
        8
 70
     1
 43
0.0
 10
-50.09999999999999
 20
-49.59999999999999
 10
-50.09999999999999
 20
49.59999999999999
 42
-0.414213562373095
 10
-49.59999999999999
 20
50.09999999999999
 10
49.59999999999999
 20
50.09999999999999
 42
-0.414213562373095
 10
50.09999999999999
 20
49.59999999999999
 10
50.09999999999999
 20
-49.59999999999999
 42
-0.414213562373095
 10
49.59999999999999
 20
-50.09999999999999
 10
-49.59999999999999
 20
-50.09999999999999
 42
-0.414213562373095
  0
LWPOLYLINE
  5
347
330
1F
100
AcDbEntity
  8
shelf_riser
100
AcDbPolyline
 90
        8
 70
     1
 43
0.0
 10
-47.49999999999997
 20
-47.25
 10
-47.49999999999997
 20
47.24999999999999
 42
-0.414213562373095
 10
-47.24999999999997
 20
47.49999999999999
 10
47.25
 20
47.49999999999996
 42
-0.414213562373095
 10
47.5
 20
47.24999999999996
 10
47.5
 20
-47.25000000000001
 42
-0.414213562373095
 10
47.25
 20
-47.50000000000001
 10
-47.24999999999997
 20
-47.5
 42
-0.414213562373095
  0
LWPOLYLINE
  5
3C0
330
1F
100
AcDbEntity
  8
hoye_metal_feature
100
AcDbPolyline
 90
       30
 70
     1
 43
0.0
 10
-16.33311056278475
 20
-15.83311078391663
 10
-21.82310918888086
 20
-15.83311078391663
 42
0.4142135623730898
 10
-22.32310918888086
 20
-16.3331107839166
 10
-22.32310918888081
 20
-21.25294018436509
 42
0.1832324495141107
 10
-22.29168084377868
 20
-21.33582169858673
 42
-0.1832325884915771
 10
-22.10311077316601
 20
-21.8331111873056
 10
-22.10311077316601
 20
-21.92196651244665
 42
0.4142135623730948
 10
-21.60311077316601
 20
-22.42196651244665
 10
-19.833104322195
 20
-22.42196651244664
 42
-0.4142121397446039
 10
-18.33310432221269
 20
-23.92195922670674
 10
-18.33308411102936
 20
-28.08307057777383
 42
-0.414214985003017
 10
-19.83308411101166
 20
-29.58307786351374
 10
-29.33308019562101
 20
-29.58307786351377
 42
0.4142134328372875
 10
-29.83308019562095
 20
-30.0830776423823
 10
-29.83308041678153
 20
-30.58314348318713
 42
0.4142136919089147
 10
-29.33308041678159
 20
-31.0831437043186
 10
-19.83308293014971
 20
-31.08314370431857
 42
-0.4142154503495637
 10
-18.33308293018086
 20
-32.58315337324441
 10
-18.33310975249891
 20
-36.74426472431152
 42
-0.4142116743991466
 10
-19.83310975246774
 20
-38.24425505538569
 10
-21.60311077316604
 20
-38.24425461312282
 42
0.4142135623730961
 10
-22.10311077316604
 20
-38.74425461312282
 10
-22.10311077316604
 20
-38.83310993826386
 42
-0.1832325884915763
 10
-22.29168084377871
 20
-39.33039942698271
 42
0.183232449514118
 10
-22.32310918888084
 20
-39.41328094120436
 10
-22.32310918888079
 20
-44.33311078391571
 42
0.4142135623730893
 10
-21.82310918888079
 20
-44.83311078391571
 10
-16.33311056278476
 20
-44.83311078391571
 42
0.4142135623730947
 10
-15.83311056278476
 20
-44.33311078391571
 10
-15.83311056278475
 20
-16.33311078391663
 42
0.4142135623730957
  0
LWPOLYLINE
  5
3C1
330
1F
100
AcDbEntity
  8
hoye_metal_feature
100
AcDbPolyline
 90
       12
 70
     1
 43
0.0
 10
-34.76310855757228
 20
-39.74425505538548
 42
0.4142135623730951
 10
-34.26310855757228
 20
-39.24425505538548
 10
-34.26310855757228
 20
-37.74425505538548
 10
-33.26310855757228
 20
-37.74425505538548
 10
-33.26310855757229
 20
-42.33311078391573
 42
-0.4142135623730888
 10
-33.76310855757229
 20
-42.83311078391571
 42
0.9999999999999964
 10
-33.76310855757234
 20
-43.83311078391571
 42
-1.000000000000003
 10
-33.76310855757237
 20
-44.83311078391571
 10
-37.06310993147309
 20
-44.83311078391571
 42
-0.4142139057686321
 10
-37.56310993147275
 20
-44.33311019770294
 10
-37.56310855049979
 20
-40.24425459961149
 42
-0.414213295386901
 10
-37.06310855049999
 20
-39.74425505538548
  0
LWPOLYLINE
  5
3C2
330
1F
100
AcDbEntity
  8
hoye_metal_feature
100
AcDbPolyline
 90
       10
 70
     1
 43
0.0
 10
-25.90311119409457
 20
-39.74425505538548
 42
-0.4142135623730951
 10
-26.40311119409457
 20
-39.24425505538548
 10
-26.40311119409457
 20
-37.74425505538548
 10
-27.40311119409457
 20
-37.74425505538548
 10
-27.40311056278345
 20
-44.33311071946069
 42
0.4142135985040851
 10
-26.90311050110399
 20
-44.83311071946068
 10
-23.60310741229969
 20
-44.83311031237586
 42
0.414213793228341
 10
-23.10310747397936
 20
-44.33310985660187
 10
-23.10311120116707
 20
-40.24425459961149
 42
0.414213295386901
 10
-23.60311120116686
 20
-39.74425505538548
  0
LWPOLYLINE
  5
3C3
330
1F
100
AcDbEntity
  8
hoye_metal_feature
100
AcDbPolyline
 90
       24
 70
     1
 43
0.0
 10
-29.83311056278476
 20
-37.74425505538569
 10
-29.83311056278474
 20
-38.24425505531651
 42
0.4142139828329349
 10
-29.33310984501501
 20
-38.744255055316
 10
-28.68311449393456
 20
-38.74425463640388
 42
-0.4142134077428319
 10
-28.1831141716925
 20
-39.244254050191
 10
-28.1831091888834
 20
-44.33311019770294
 42
-0.4142139057686324
 10
-28.68310918888304
 20
-44.83311078391571
 10
-31.98311056278381
 20
-44.83311078391571
 42
-0.4142135623730919
 10
-32.48311056278381
 20
-44.33311078391573
 10
-32.48311056278386
 20
-39.24425505538332
 42
-0.4142135623739431
 10
-31.98311056278243
 20
-38.74425505538332
 10
-31.33311128055449
 20
-38.74425505538518
 42
0.414213982832939
 10
-30.83311056278476
 20
-38.24425505538569
 10
-30.83311056278476
 20
-37.74425505538569
 42
0.4142135623730951
 10
-31.33311056278476
 20
-37.24425505538569
 10
-40.58311056278475
 20
-37.24425505538569
 42
-0.4142135623730951
 10
-41.33311056278475
 20
-36.49425505538569
 10
-41.33311056278475
 20
-32.83311078391569
 42
-0.4142135623730951
 10
-40.58311056278475
 20
-32.08311078391569
 10
-20.08311056278475
 20
-32.08311078391569
 42
-0.4142135623730951
 10
-19.33311056278475
 20
-32.83311078391569
 10
-19.33311056278476
 20
-36.49425505538569
 42
-0.4142135623730951
 10
-20.08311056278476
 20
-37.24425505538569
 10
-29.33311056278476
 20
-37.24425505538569
 42
0.4142135623730951
  0
LWPOLYLINE
  5
3C4
330
1F
100
AcDbEntity
  8
hoye_metal_feature
100
AcDbPolyline
 90
       30
 70
     1
 43
0.0
 10
-44.33311056278475
 20
-15.83311078391662
 10
-38.84311193668863
 20
-15.83311078391662
 42
-0.4142135623730898
 10
-38.34311193668864
 20
-16.3331107839166
 10
-38.3431119366887
 20
-21.25294018436509
 42
-0.1832324495141107
 10
-38.37454028179083
 20
-21.33582169858673
 42
0.1832325884915771
 10
-38.5631103524035
 20
-21.83311118730559
 10
-38.5631103524035
 20
-21.92196651244664
 42
-0.4142135623730948
 10
-39.0631103524035
 20
-22.42196651244664
 10
-40.83311680337451
 20
-22.42196651244663
 42
0.4142121397446039
 10
-42.33311680335682
 20
-23.92195922670673
 10
-42.33313701454014
 20
-28.08307057777382
 42
0.414214985003017
 10
-40.83313701455785
 20
-29.58307786351374
 10
-31.3331409299485
 20
-29.58307786351377
 42
-0.4142134328372875
 10
-30.83314092994856
 20
-30.0830776423823
 10
-30.83314070878798
 20
-30.58314348318713
 42
-0.4142136919089147
 10
-31.33314070878793
 20
-31.0831437043186
 10
-40.83313819541979
 20
-31.08314370431857
 42
0.4142154503495637
 10
-42.33313819538864
 20
-32.58315337324441
 10
-42.33311137307061
 20
-36.74426472431152
 42
0.4142116743991466
 10
-40.83311137310177
 20
-38.24425505538568
 10
-39.06311035240347
 20
-38.24425461312282
 42
-0.4142135623730961
 10
-38.56311035240347
 20
-38.74425461312282
 10
-38.56311035240347
 20
-38.83310993826386
 42
0.1832325884915763
 10
-38.3745402817908
 20
-39.33039942698271
 42
-0.183232449514118
 10
-38.34311193668867
 20
-39.41328094120436
 10
-38.34311193668873
 20
-44.33311078391571
 42
-0.4142135623730893
 10
-38.84311193668873
 20
-44.83311078391571
 10
-44.33311056278475
 20
-44.8331107839157
 42
-0.4142135623730947
 10
-44.83311056278476
 20
-44.3331107839157
 10
-44.83311056278475
 20
-16.33311078391662
 42
-0.4142135623730957
  0
LWPOLYLINE
  5
3C5
330
1F
100
AcDbEntity
  8
hoye_metal_feature
100
AcDbPolyline
 90
       24
 70
     1
 43
0.0
 10
-31.98310626692643
 20
-21.92196651244904
 10
-31.33310873572946
 20
-21.92196651244904
 42
-0.4142136619340953
 10
-30.83310873572949
 20
-22.42196668241031
 10
-30.83310890569074
 20
-22.92196668240792
 42
-0.4142134628121017
 10
-31.33310890569071
 20
-23.42196651244668
 10
-32.53787509742686
 20
-23.42196651244668
 42
0.414213562373095
 10
-33.28787509742688
 20
-24.17196651244668
 10
-33.28787509742688
 20
-27.83311078391669
 42
0.414213562373095
 10
-32.53787509742686
 20
-28.58311078391669
 10
-28.12834465423998
 20
-28.58311078391666
 42
0.414213562373095
 10
-27.37834465423998
 20
-27.83311078391666
 10
-27.37834465423998
 20
-24.17196651244668
 42
0.4142135623730955
 10
-28.12834465423998
 20
-23.42196651244668
 10
-29.33310886938753
 20
-23.42196651244668
 42
-0.4142136875578508
 10
-29.83310886938751
 20
-22.92196629874294
 10
-29.83310865568376
 20
-22.42196629874531
 42
-0.4142134371883504
 10
-29.33310865568381
 20
-21.92196651244904
 10
-28.68310987583431
 20
-21.92196651244904
 42
0.4142135623730983
 10
-28.1831098758343
 20
-21.42196651244904
 10
-28.18310987583438
 20
-16.33311078391662
 42
0.4142135623730935
 10
-28.68310987583438
 20
-15.83311078391663
 10
-31.98311124973513
 20
-15.83311078391664
 42
0.4142138491627189
 10
-32.48311124973489
 20
-16.3331112734971
 10
-32.48310626692617
 20
-21.42196700202951
 42
0.4142132755835278
  0
LWPOLYLINE
  5
3C6
330
1F
100
AcDbEntity
  8
hoye_metal_feature
100
AcDbPolyline
 90
       24
 70
     1
 43
0.0
 10
-37.5631099832475
 20
-21.92196651244888
 10
-37.56310988620055
 20
-22.92196646392313
 42
-0.4142135907974912
 10
-38.06310988620054
 20
-23.4219665124466
 10
-40.58311059993935
 20
-23.4219665124466
 42
0.4142135623730955
 10
-41.33311059993935
 20
-24.1719665124466
 10
-41.33311059993936
 20
-27.83311078391661
 42
0.4142135623730945
 10
-40.58311059993936
 20
-28.58311078391661
 10
-36.17358015675246
 20
-28.58311078391661
 42
0.414213562373095
 10
-35.42358015675246
 20
-27.83311078391661
 10
-35.42358015675246
 20
-24.17196651244662
 42
0.388525753963133
 10
-36.10729695935296
 20
-23.42490122899241
 42
-0.388525753963134
 10
-36.56310816108663
 20
-22.9268577066896
 10
-36.56310816108663
 20
-22.42196651244834
 42
-0.4142135623733903
 10
-36.06310816108612
 20
-21.92196651244834
 10
-35.41310858765669
 20
-21.92196651244899
 42
0.356393958694504
 10
-34.92321063909826
 20
-21.52196651244709
 42
-0.3563939586936972
 10
-34.800736151959
 20
-21.42196651244662
 10
-33.76311059994059
 20
-21.4219665124466
 42
0.414213562373096
 10
-33.26311059994057
 20
-20.92196651244661
 10
-33.26311059994057
 20
-16.33311078391663
 42
0.4142135623730946
 10
-33.76311059994057
 20
-15.83311078391662
 10
-37.06311052562893
 20
-15.83311078391665
 42
0.4142136173000202
 10
-37.56311052562893
 20
-16.33311087768277
 10
-37.56310904662242
 20
-20.37600388860341
  0
LWPOLYLINE
  5
3C7
330
1F
100
AcDbEntity
  8
hoye_metal_feature
100
AcDbPolyline
 90
       24
 70
     1
 43
0.0
 10
-27.40310934335777
 20
-16.33311078391572
 10
-27.40310934335777
 20
-20.9219665124457
 42
0.4142135623730959
 10
-26.90310934335777
 20
-21.4219665124457
 10
-25.86548379133936
 20
-21.4219665124457
 42
-0.3563939586936971
 10
-25.7430093042001
 20
-21.52196651244618
 42
0.356393958694504
 10
-25.25311135564166
 20
-21.92196651244807
 10
-24.60311178221224
 20
-21.92196651244742
 42
-0.41421356237339
 10
-24.10311178221173
 20
-22.42196651244742
 10
-24.10311178221173
 20
-22.9268577066887
 42
-0.388525753963134
 10
-24.55892298394539
 20
-23.42490122899149
 42
0.388525753963133
 10
-25.24263978654589
 20
-24.1719665124457
 10
-25.24263978654589
 20
-27.83311078391571
 42
0.4142135623730949
 10
-24.49263978654589
 20
-28.58311078391569
 10
-20.08310934335898
 20
-28.58311078391569
 42
0.4142135623730945
 10
-19.33310934335898
 20
-27.83311078391569
 10
-19.33310934335898
 20
-24.1719665124457
 42
0.414213562373095
 10
-20.08310934335898
 20
-23.4219665124457
 10
-22.60311178221173
 20
-23.42196651244569
 42
-0.4142135623730948
 10
-23.10311178221173
 20
-22.9219665124457
 10
-23.10311178221173
 20
-21.92196651244799
 10
-23.10311207894709
 20
-20.3760039841146
 10
-23.10311178221173
 20
-16.33311078391572
 42
0.4142135623730953
 10
-23.60311178221173
 20
-15.83311078391572
 10
-26.90310934335777
 20
-15.83311078391572
 42
0.414213562373095
  0
LWPOLYLINE
  5
4A8
330
1F
100
AcDbEntity
  8
hoye_holder
100
AcDbPolyline
 90
        8
 70
     1
 43
0.0
 10
-45.48311056278477
 20
44.0688970004116
 42
-1.000000000000008
 10
-44.06889700041167
 20
45.4831105627847
 10
-16.59732412515784
 20
45.48311056278471
 42
-0.9999999999999977
 10
-15.18311056278475
 20
44.0688970004116
 10
-15.18311056278473
 20
16.59732412515779
 42
-0.9999999999999899
 10
-16.59732412515784
 20
15.1831105627847
 10
-44.06889700041167
 20
15.18311056278468
 42
-0.9999999999999974
 10
-45.48311056278476
 20
16.59732412515779
  0
LWPOLYLINE
  5
4C3
330
1F
100
AcDbEntity
  8
hoye_holder
100
AcDbPolyline
 90
        8
 70
     1
 43
0.0
 10
15.18311056278474
 20
44.0688970004116
 42
-1.000000000000008
 10
16.59732412515784
 20
45.4831105627847
 10
44.06889700041167
 20
45.48311056278471
 42
-0.9999999999999977
 10
45.48311056278475
 20
44.0688970004116
 10
45.48311056278477
 20
16.59732412515779
 42
-0.9999999999999899
 10
44.06889700041167
 20
15.1831105627847
 10
16.59732412515783
 20
15.18311056278468
 42
-0.9999999999999974
 10
15.18311056278475
 20
16.59732412515779
  0
LWPOLYLINE
  5
4DE
330
1F
100
AcDbEntity
  8
hoye_holder
100
AcDbPolyline
 90
        8
 70
     1
 43
0.0
 10
15.18311056278474
 20
-16.59732412515784
 42
-1.000000000000008
 10
16.59732412515784
 20
-15.18311056278475
 10
44.06889700041167
 20
-15.18311056278474
 42
-0.9999999999999977
 10
45.48311056278475
 20
-16.59732412515784
 10
45.48311056278477
 20
-44.06889700041165
 42
-0.9999999999999899
 10
44.06889700041167
 20
-45.48311056278474
 10
16.59732412515783
 20
-45.48311056278476
 42
-0.9999999999999974
 10
15.18311056278475
 20
-44.06889700041165
  0
LWPOLYLINE
  5
4F9
330
1F
100
AcDbEntity
  8
hoye_holder
100
AcDbPolyline
 90
        8
 70
     1
 43
0.0
 10
-45.48311056278477
 20
-16.59732412515784
 42
-1.000000000000008
 10
-44.06889700041167
 20
-15.18311056278474
 10
-16.59732412515784
 20
-15.18311056278473
 42
-0.9999999999999977
 10
-15.18311056278475
 20
-16.59732412515784
 10
-15.18311056278473
 20
-44.06889700041165
 42
-0.9999999999999899
 10
-16.59732412515784
 20
-45.48311056278474
 10
-44.06889700041167
 20
-45.48311056278476
 42
-0.9999999999999974
 10
-45.48311056278476
 20
-44.06889700041165
  0
LWPOLYLINE
  5
514
330
1F
100
AcDbEntity
  8
hoye_holder
100
AcDbPolyline
 90
        8
 70
     1
 43
0.0
 10
-20.42533546995239
 20
-1.000000000000014
 42
-1.000000000000008
 10
-20.42533546995236
 20
0.9999999999999858
 10
-1.0
 20
20.4253354699524
 42
-0.9999999999999977
 10
1.0
 20
20.4253354699524
 10
20.42533546995242
 20
0.9999999999999858
 42
-0.9999999999999899
 10
20.42533546995239
 20
-1.000000000000014
 10
1.0
 20
-20.42533546995243
 42
-0.9999999999999974
 10
-1.0
 20
-20.4253354699524
  0
ENDSEC
  0
SECTION
  2
OBJECTS
  0
DICTIONARY
  5
C
330
0
100
AcDbDictionary
281
     1
  3
ACAD_COLOR
350
F9
  3
ACAD_DETAILVIEWSTYLE
350
B5
  3
ACAD_GROUP
350
D
  3
ACAD_IMAGE_VARS
350
6A
  3
ACAD_LAYOUT
350
1A
  3
ACAD_MATERIAL
350
72
  3
ACAD_MLEADERSTYLE
350
3F
  3
ACAD_MLINESTYLE
350
17
  3
ACAD_PLOTSETTINGS
350
19
  3
ACAD_PLOTSTYLENAME
350
E
  3
ACAD_SCALELIST
350
40
  3
ACAD_SECTIONVIEWSTYLE
350
B6
  3
ACAD_TABLESTYLE
350
3B
  3
ACAD_VISUALSTYLE
350
2A
  3
ACDB_RECOMPOSE_DATA
350
51D
  3
AcDbVariableDictionary
350
3D
  3
APPDATA
350
71
  0
SUN
  5
80
330
29
100
AcDbSun
 90
        1
290
     0
 63
     7
421
 16777215
 40
1.0
291
     1
 91
  2455826
 92
 54000000
292
     0
 70
     2
 71
   256
280
     1
  0
DICTIONARY
  5
C2
330
2
100
AcDbDictionary
280
     1
281
     1
  3
ACAD_LAYERSTATES
360
C3
  3
ACLYDICTIONARY
360
35B
  0
DICTIONARY
  5
F9
102
{ACAD_REACTORS
330
C
102
}
330
C
100
AcDbDictionary
281
     1
  0
DICTIONARY
  5
B5
102
{ACAD_REACTORS
330
C
102
}
330
C
100
AcDbDictionary
281
     1
  0
DICTIONARY
  5
D
102
{ACAD_REACTORS
330
C
102
}
330
C
100
AcDbDictionary
281
     1
  0
RASTERVARIABLES
  5
6A
102
{ACAD_REACTORS
330
C
102
}
330
C
100
AcDbRasterVariables
 90
        0
 70
     1
 71
     1
 72
     1
  0
DICTIONARY
  5
1A
102
{ACAD_REACTORS
330
C
102
}
330
C
100
AcDbDictionary
281
     1
  3
Model
350
22
  3
Sheet1
350
1E
  3
Sheet2
350
26
  0
DICTIONARY
  5
72
102
{ACAD_REACTORS
330
C
102
}
330
C
100
AcDbDictionary
281
     1
  3
ByBlock
350
74
  3
ByLayer
350
73
  3
Global
350
75
  0
DICTIONARY
  5
3F
102
{ACAD_REACTORS
330
C
102
}
330
C
100
AcDbDictionary
281
     1
  3
Annotative
350
BC
  3
Standard
350
B7
  0
DICTIONARY
  5
17
102
{ACAD_REACTORS
330
C
102
}
330
C
100
AcDbDictionary
281
     1
  3
Standard
350
18
  0
DICTIONARY
  5
19
102
{ACAD_REACTORS
330
C
102
}
330
C
100
AcDbDictionary
281
     1
  0
ACDBDICTIONARYWDFLT
  5
E
102
{ACAD_REACTORS
330
C
102
}
330
C
100
AcDbDictionary
281
     1
  3
Normal
350
F
100
AcDbDictionaryWithDefault
340
F
  0
DICTIONARY
  5
40
102
{ACAD_REACTORS
330
C
102
}
330
C
100
AcDbDictionary
281
     1
  3
A0
350
41
  3
A1
350
42
  3
A2
350
43
  3
A3
350
44
  3
A4
350
45
  3
A5
350
46
  3
A6
350
47
  3
A7
350
48
  3
A8
350
49
  3
A9
350
4A
  3
B0
350
4B
  3
B1
350
4C
  3
B2
350
4D
  3
B3
350
4E
  3
B4
350
4F
  3
B5
350
50
  3
B6
350
51
  3
B7
350
52
  3
B8
350
53
  3
B9
350
54
  3
C0
350
55
  3
C1
350
56
  3
C2
350
57
  3
C3
350
58
  3
C4
350
59
  3
C5
350
5A
  3
C6
350
5B
  3
C7
350
5C
  3
C8
350
5D
  3
C9
350
5E
  3
D0
350
5F
  3
D1
350
60
  3
D2
350
61
  0
DICTIONARY
  5
B6
102
{ACAD_REACTORS
330
C
102
}
330
C
100
AcDbDictionary
281
     1
  0
DICTIONARY
  5
3B
102
{ACAD_REACTORS
330
C
102
}
330
C
100
AcDbDictionary
281
     1
  3
Standard
350
3C
  0
DICTIONARY
  5
2A
102
{ACAD_REACTORS
330
C
102
}
330
C
100
AcDbDictionary
281
     1
  3
2dWireframe
350
2F
  3
3D Hidden
350
31
  3
3dWireframe
350
30
  3
Basic
350
32
  3
Brighten
350
36
  3
ColorChange
350
3A
  3
Conceptual
350
34
  3
Dim
350
35
  3
EdgeColorOff
350
7A
  3
Facepattern
350
39
  3
Flat
350
2B
  3
FlatWithEdges
350
2C
  3
Gouraud
350
2D
  3
GouraudWithEdges
350
2E
  3
Hidden
350
77
  3
JitterOff
350
78
  3
Linepattern
350
38
  3
OverhangOff
350
79
  3
Realistic
350
33
  3
Shaded
350
7F
  3
Shaded with edges
350
7E
  3
Shades of Gray
350
7B
  3
Sketchy
350
7C
  3
Thicken
350
37
  3
Wireframe
350
76
  3
X-Ray
350
7D
  0
XRECORD
  5
51D
102
{ACAD_REACTORS
330
C
102
}
330
C
100
AcDbXrecord
280
     1
 90
        1
330
3C
  0
DICTIONARY
  5
3D
102
{ACAD_REACTORS
330
C
102
}
330
C
100
AcDbDictionary
281
     1
  3
CANNOSCALE
350
62
  3
CMLEADERSTYLE
350
BB
  3
CTABLESTYLE
350
3E
  3
LIGHTSINBLOCKS
350
6F
  3
XCLIPFRAME
350
70
  0
DICTIONARY
  5
71
102
{ACAD_REACTORS
330
C
102
}
330
C
100
AcDbDictionary
281
     1
  0
DICTIONARY
  5
C3
102
{ACAD_REACTORS
330
C2
102
}
330
C2
100
AcDbDictionary
281
     1
  0
DICTIONARY
  5
35B
102
{ACAD_REACTORS
330
C2
102
}
330
C2
100
AcDbDictionary
281
     1
1001
ACAD
1000
<All
  0
LAYOUT
  5
22
102
{ACAD_REACTORS
330
1A
102
}
330
1A
100
AcDbPlotSettings
  1

  2
none_device
  4
ISO_A3_(420.00_x_297.00_MM)
  6

 40
7.5
 41
20.0
 42
7.5
 43
20.0
 44
420.0
 45
297.0
 46
20.78282828282826
 47
0.0
 48
0.0
 49
0.0
140
0.0
141
0.0
142
1.0
143
1.155642023346303
 70
  1204
 72
     1
 73
     0
 74
     1
  7
monochrome.ctb
 75
     0
 76
     0
 77
     2
 78
   300
147
0.8653198653198654
148
-134.1869158878504
149
0.0
100
AcDbLayout
  1
Model
 70
     1
 71
     0
 10
0.0
 20
0.0
 11
420.0
 21
297.0
 12
0.0
 22
0.0
 32
0.0
 14
-50.30000000000001
 24
-50.29999999999998
 34
0.0
 15
50.30000000000001
 25
50.29999999999998
 35
0.0
146
0.0
 13
0.0
 23
0.0
 33
0.0
 16
1.0
 26
0.0
 36
0.0
 17
0.0
 27
1.0
 37
0.0
 76
     0
330
1F
331
29
  0
LAYOUT
  5
1E
102
{ACAD_REACTORS
330
1A
102
}
330
1A
100
AcDbPlotSettings
  1

  2
none_device
  4

  6

 40
0.0
 41
0.0
 42
0.0
 43
0.0
 44
0.0
 45
0.0
 46
0.0
 47
0.0
 48
0.0
 49
0.0
140
0.0
141
0.0
142
1.0
143
1.0
 70
   688
 72
     0
 73
     0
 74
     5
  7

 75
    16
 76
     0
 77
     2
 78
   300
147
1.0
148
0.0
149
0.0
100
AcDbLayout
  1
Sheet1
 70
     1
 71
     1
 10
0.0
 20
0.0
 11
420.0
 21
297.0
 12
0.0
 22
0.0
 32
0.0
 14
1.000000000000000E+20
 24
1.000000000000000E+20
 34
1.000000000000000E+20
 15
-1.000000000000000E+20
 25
-1.000000000000000E+20
 35
-1.000000000000000E+20
146
0.0
 13
0.0
 23
0.0
 33
0.0
 16
1.0
 26
0.0
 36
0.0
 17
0.0
 27
1.0
 37
0.0
 76
     0
330
1B
  0
LAYOUT
  5
26
102
{ACAD_REACTORS
330
1A
102
}
330
1A
100
AcDbPlotSettings
  1

  2
none_device
  4

  6

 40
0.0
 41
0.0
 42
0.0
 43
0.0
 44
0.0
 45
0.0
 46
0.0
 47
0.0
 48
0.0
 49
0.0
140
0.0
141
0.0
142
1.0
143
1.0
 70
   688
 72
     0
 73
     0
 74
     5
  7

 75
    16
 76
     0
 77
     2
 78
   300
147
1.0
148
0.0
149
0.0
100
AcDbLayout
  1
Sheet2
 70
     1
 71
     2
 10
0.0
 20
0.0
 11
0.0
 21
0.0
 12
0.0
 22
0.0
 32
0.0
 14
0.0
 24
0.0
 34
0.0
 15
0.0
 25
0.0
 35
0.0
146
0.0
 13
0.0
 23
0.0
 33
0.0
 16
1.0
 26
0.0
 36
0.0
 17
0.0
 27
1.0
 37
0.0
 76
     0
330
23
  0
MATERIAL
  5
74
102
{ACAD_REACTORS
330
72
102
}
330
72
100
AcDbMaterial
  1
ByBlock
 72
     1
 94
      127
  0
MATERIAL
  5
73
102
{ACAD_REACTORS
330
72
102
}
330
72
100
AcDbMaterial
  1
ByLayer
 72
     1
 94
      127
  0
MATERIAL
  5
75
102
{ACAD_REACTORS
330
72
102
}
330
72
100
AcDbMaterial
  1
Global
 72
     1
 94
      127
  0
MLEADERSTYLE
  5
BC
102
{ACAD_REACTORS
330
3F
102
}
330
3F
100
AcDbMLeaderStyle
179
     2
170
     2
171
     1
172
     0
 90
        2
 40
0.0
 41
0.0
173
     1
 91
-1056964608
340
14
 92
       -2
290
     1
 42
2.0
291
     1
 43
8.0
  3
Annotative
341
0
 44
4.0
300

342
11
174
     1
178
     1
175
     1
176
     0
 93
-1056964608
 45
4.0
292
     0
297
     0
 46
4.0
343
0
 94
-1056964608
 47
1.0
 49
1.0
140
1.0
293
     1
141
0.0
294
     1
177
     0
142
1.0
295
     0
296
     1
143
3.75
271
     0
272
     9
273
     9
298
     0
  0
MLEADERSTYLE
  5
B7
102
{ACAD_REACTORS
330
3F
102
}
330
3F
100
AcDbMLeaderStyle
179
     2
170
     2
171
     1
172
     0
 90
        2
 40
0.0
 41
0.0
173
     1
 91
-1056964608
340
14
 92
       -2
290
     1
 42
2.0
291
     1
 43
8.0
  3
Standard
341
0
 44
4.0
300

342
11
174
     1
178
     6
175
     1
176
     0
 93
-1056964608
 45
4.0
292
     0
297
     0
 46
4.0
343
0
 94
-1056964608
 47
1.0
 49
1.0
140
1.0
293
     1
141
0.0
294
     1
177
     0
142
1.0
295
     0
296
     0
143
3.75
271
     0
272
     9
273
     9
298
     0
  0
MLINESTYLE
  5
18
102
{ACAD_REACTORS
330
17
102
}
330
17
100
AcDbMlineStyle
  2
Standard
 70
     0
  3

 62
   256
 51
90.0
 52
90.0
 71
     2
 49
0.5
 62
   256
  6
BYLAYER
 49
-0.5
 62
   256
  6
BYLAYER
  0
ACDBPLACEHOLDER
  5
F
102
{ACAD_REACTORS
330
E
102
}
330
E
  0
SCALE
  5
41
102
{ACAD_REACTORS
330
40
102
}
330
40
100
AcDbScale
 70
     0
300
1:1
140
1.0
141
1.0
290
     1
  0
SCALE
  5
42
102
{ACAD_REACTORS
330
40
102
}
330
40
100
AcDbScale
 70
     0
300
1:2
140
1.0
141
2.0
290
     0
  0
SCALE
  5
43
102
{ACAD_REACTORS
330
40
102
}
330
40
100
AcDbScale
 70
     0
300
1:4
140
1.0
141
4.0
290
     0
  0
SCALE
  5
44
102
{ACAD_REACTORS
330
40
102
}
330
40
100
AcDbScale
 70
     0
300
1:5
140
1.0
141
5.0
290
     0
  0
SCALE
  5
45
102
{ACAD_REACTORS
330
40
102
}
330
40
100
AcDbScale
 70
     0
300
1:8
140
1.0
141
8.0
290
     0
  0
SCALE
  5
46
102
{ACAD_REACTORS
330
40
102
}
330
40
100
AcDbScale
 70
     0
300
1:10
140
1.0
141
10.0
290
     0
  0
SCALE
  5
47
102
{ACAD_REACTORS
330
40
102
}
330
40
100
AcDbScale
 70
     0
300
1:16
140
1.0
141
16.0
290
     0
  0
SCALE
  5
48
102
{ACAD_REACTORS
330
40
102
}
330
40
100
AcDbScale
 70
     0
300
1:20
140
1.0
141
20.0
290
     0
  0
SCALE
  5
49
102
{ACAD_REACTORS
330
40
102
}
330
40
100
AcDbScale
 70
     0
300
1:30
140
1.0
141
30.0
290
     0
  0
SCALE
  5
4A
102
{ACAD_REACTORS
330
40
102
}
330
40
100
AcDbScale
 70
     0
300
1:40
140
1.0
141
40.0
290
     0
  0
SCALE
  5
4B
102
{ACAD_REACTORS
330
40
102
}
330
40
100
AcDbScale
 70
     0
300
1:50
140
1.0
141
50.0
290
     0
  0
SCALE
  5
4C
102
{ACAD_REACTORS
330
40
102
}
330
40
100
AcDbScale
 70
     0
300
1:100
140
1.0
141
100.0
290
     0
  0
SCALE
  5
4D
102
{ACAD_REACTORS
330
40
102
}
330
40
100
AcDbScale
 70
     0
300
2:1
140
2.0
141
1.0
290
     0
  0
SCALE
  5
4E
102
{ACAD_REACTORS
330
40
102
}
330
40
100
AcDbScale
 70
     0
300
4:1
140
4.0
141
1.0
290
     0
  0
SCALE
  5
4F
102
{ACAD_REACTORS
330
40
102
}
330
40
100
AcDbScale
 70
     0
300
8:1
140
8.0
141
1.0
290
     0
  0
SCALE
  5
50
102
{ACAD_REACTORS
330
40
102
}
330
40
100
AcDbScale
 70
     0
300
10:1
140
10.0
141
1.0
290
     0
  0
SCALE
  5
51
102
{ACAD_REACTORS
330
40
102
}
330
40
100
AcDbScale
 70
     0
300
100:1
140
100.0
141
1.0
290
     0
  0
SCALE
  5
52
102
{ACAD_REACTORS
330
40
102
}
330
40
100
AcDbScale
 70
     0
300
1/128" = 1'-0"
140
0.0078125
141
12.0
290
     0
  0
SCALE
  5
53
102
{ACAD_REACTORS
330
40
102
}
330
40
100
AcDbScale
 70
     0
300
1/64" = 1'-0"
140
0.015625
141
12.0
290
     0
  0
SCALE
  5
54
102
{ACAD_REACTORS
330
40
102
}
330
40
100
AcDbScale
 70
     0
300
1/32" = 1'-0"
140
0.03125
141
12.0
290
     0
  0
SCALE
  5
55
102
{ACAD_REACTORS
330
40
102
}
330
40
100
AcDbScale
 70
     0
300
1/16" = 1'-0"
140
0.0625
141
12.0
290
     0
  0
SCALE
  5
56
102
{ACAD_REACTORS
330
40
102
}
330
40
100
AcDbScale
 70
     0
300
3/32" = 1'-0"
140
0.09375
141
12.0
290
     0
  0
SCALE
  5
57
102
{ACAD_REACTORS
330
40
102
}
330
40
100
AcDbScale
 70
     0
300
1/8" = 1'-0"
140
0.125
141
12.0
290
     0
  0
SCALE
  5
58
102
{ACAD_REACTORS
330
40
102
}
330
40
100
AcDbScale
 70
     0
300
3/16" = 1'-0"
140
0.1875
141
12.0
290
     0
  0
SCALE
  5
59
102
{ACAD_REACTORS
330
40
102
}
330
40
100
AcDbScale
 70
     0
300
1/4" = 1'-0"
140
0.25
141
12.0
290
     0
  0
SCALE
  5
5A
102
{ACAD_REACTORS
330
40
102
}
330
40
100
AcDbScale
 70
     0
300
3/8" = 1'-0"
140
0.375
141
12.0
290
     0
  0
SCALE
  5
5B
102
{ACAD_REACTORS
330
40
102
}
330
40
100
AcDbScale
 70
     0
300
1/2" = 1'-0"
140
0.5
141
12.0
290
     0
  0
SCALE
  5
5C
102
{ACAD_REACTORS
330
40
102
}
330
40
100
AcDbScale
 70
     0
300
3/4" = 1'-0"
140
0.75
141
12.0
290
     0
  0
SCALE
  5
5D
102
{ACAD_REACTORS
330
40
102
}
330
40
100
AcDbScale
 70
     0
300
1" = 1'-0"
140
1.0
141
12.0
290
     0
  0
SCALE
  5
5E
102
{ACAD_REACTORS
330
40
102
}
330
40
100
AcDbScale
 70
     0
300
1-1/2" = 1'-0"
140
1.5
141
12.0
290
     0
  0
SCALE
  5
5F
102
{ACAD_REACTORS
330
40
102
}
330
40
100
AcDbScale
 70
     0
300
3" = 1'-0"
140
3.0
141
12.0
290
     0
  0
SCALE
  5
60
102
{ACAD_REACTORS
330
40
102
}
330
40
100
AcDbScale
 70
     0
300
6" = 1'-0"
140
6.0
141
12.0
290
     0
  0
SCALE
  5
61
102
{ACAD_REACTORS
330
40
102
}
330
40
100
AcDbScale
 70
     0
300
1'-0" = 1'-0"
140
12.0
141
12.0
290
     0
  0
TABLESTYLE
  5
3C
102
{ACAD_REACTORS
330
3B
102
}
102
{ACAD_XDICTIONARY
360
51B
102
}
330
3B
100
AcDbTableStyle
  3
Standard
 70
     0
 71
     0
 40
1.5
 41
1.5
280
     0
281
     0
  7
Standard
140
4.5
170
     2
 62
     0
 63
   257
283
     0
 90
      512
 91
        0
  1

274
    -2
284
     1
 64
     0
275
    -2
285
     1
 65
     0
276
    -2
286
     1
 66
     0
277
    -2
287
     1
 67
     0
278
    -2
288
     1
 68
     0
279
    -2
289
     1
 69
     0
  7
Standard
140
6.0
170
     5
 62
     0
 63
   257
283
     0
 90
      512
 91
        0
  1

274
    -2
284
     1
 64
     0
275
    -2
285
     1
 65
     0
276
    -2
286
     1
 66
     0
277
    -2
287
     1
 67
     0
278
    -2
288
     1
 68
     0
279
    -2
289
     1
 69
     0
  7
Standard
140
4.5
170
     5
 62
     0
 63
   257
283
     0
 90
      512
 91
        0
  1

274
    -2
284
     1
 64
     0
275
    -2
285
     1
 65
     0
276
    -2
286
     1
 66
     0
277
    -2
287
     1
 67
     0
278
    -2
288
     1
 68
     0
279
    -2
289
     1
 69
     0
  0
VISUALSTYLE
  5
2F
102
{ACAD_REACTORS
330
2A
102
}
330
2A
100
AcDbVisualStyle
  2
2dWireframe
 70
     4
177
     3
291
     0
 70
    58
 90
        0
176
     1
 90
        2
176
     1
 90
        0
176
     1
 90
        0
176
     1
 40
-0.6
176
     1
 40
-30.0
176
     1
 62
     7
420
 16777215
176
     1
 90
        1
176
     1
 90
        4
176
     1
 62
     7
176
     1
 62
   257
176
     1
 90
        1
176
     1
 90
        1
176
     1
 40
1.0
176
     1
 90
        0
176
     1
 62
   257
176
     1
 40
1.0
176
     1
 90
        1
176
     1
 90
        6
176
     1
 90
        2
176
     1
 62
     7
176
     1
 90
        5
176
     1
 90
        0
176
     1
 90
        0
176
     1
290
     0
176
     1
 90
        1
176
     1
 40
0.0
176
     1
 90
        0
176
     1
290
     1
176
     1
290
     1
176
     1
290
     0
176
     1
290
     0
176
     1
290
     0
176
     1
290
     0
176
     1
290
     0
176
     1
290
     0
176
     1
290
     0
176
     1
 90
       50
176
     1
 40
0.0
176
     1
 40
1.0
176
     1
 90
        0
176
     1
 62
   178
420
        0
176
     1
 90
       50
176
     1
 90
        3
176
     1
 62
     5
420
      255
176
     1
290
     0
176
     1
 90
       50
176
     1
 90
       50
176
     1
 90
       50
176
     1
290
     0
176
     1
 90
       50
176
     1
 62
   256
176
     0
 40
1.0
176
     0
 90
        2
176
     1
  1
strokes_ogs.tif
176
     1
290
     0
176
     1
 40
1.0
176
     1
 40
1.0
176
     1
  0
VISUALSTYLE
  5
31
102
{ACAD_REACTORS
330
2A
102
}
330
2A
100
AcDbVisualStyle
  2
3D Hidden
 70
     6
177
     3
291
     0
 70
    58
 90
        1
176
     1
 90
        2
176
     1
 90
        2
176
     1
 90
        0
176
     1
 40
-0.6
176
     1
 40
-30.0
176
     1
 62
     7
420
 16777215
176
     1
 90
        2
176
     1
 90
        2
176
     1
 62
     7
176
     1
 62
   257
176
     1
 90
        2
176
     1
 90
        1
176
     1
 40
40.0
176
     1
 90
        0
176
     1
 62
   257
176
     1
 40
1.0
176
     1
 90
        1
176
     1
 90
        6
176
     1
 90
        2
176
     1
 62
     7
176
     1
 90
        3
176
     1
 90
        0
176
     1
 90
        0
176
     1
290
     0
176
     1
 90
        1
176
     1
 40
0.0
176
     1
 90
        0
176
     1
290
     0
176
     1
290
     1
176
     1
290
     1
176
     1
290
     0
176
     1
290
     0
176
     1
290
     0
176
     1
290
     0
176
     1
290
     0
176
     1
290
     0
176
     1
 90
       50
176
     1
 40
0.0
176
     1
 40
1.0
176
     1
 90
        0
176
     1
 62
   178
420
        0
176
     1
 90
       50
176
     1
 90
        3
176
     1
 62
     5
420
      255
176
     1
290
     0
176
     1
 90
       50
176
     1
 90
       50
176
     1
 90
       50
176
     1
290
     0
176
     1
 90
       50
176
     1
 62
   256
176
     0
 40
1.0
176
     0
 90
        2
176
     1
  1
strokes_ogs.tif
176
     1
290
     0
176
     1
 40
1.0
176
     1
 40
1.0
176
     1
  0
VISUALSTYLE
  5
30
102
{ACAD_REACTORS
330
2A
102
}
330
2A
100
AcDbVisualStyle
  2
3dWireframe
 70
     5
177
     3
291
     0
 70
    58
 90
        0
176
     1
 90
        2
176
     1
 90
        0
176
     1
 90
        0
176
     1
 40
-0.6
176
     1
 40
-30.0
176
     1
 62
     7
420
 16777215
176
     1
 90
        1
176
     1
 90
        4
176
     1
 62
     7
176
     1
 62
   257
176
     1
 90
        1
176
     1
 90
        1
176
     1
 40
1.0
176
     1
 90
        0
176
     1
 62
   257
176
     1
 40
1.0
176
     1
 90
        1
176
     1
 90
        6
176
     1
 90
        2
176
     1
 62
     7
176
     1
 90
        5
176
     1
 90
        0
176
     1
 90
        0
176
     1
290
     0
176
     1
 90
        1
176
     1
 40
0.0
176
     1
 90
        0
176
     1
290
     0
176
     1
290
     1
176
     1
290
     1
176
     1
290
     0
176
     1
290
     0
176
     1
290
     0
176
     1
290
     0
176
     1
290
     0
176
     1
290
     0
176
     1
 90
       50
176
     1
 40
0.0
176
     1
 40
1.0
176
     1
 90
        0
176
     1
 62
   178
420
        0
176
     1
 90
       50
176
     1
 90
        3
176
     1
 62
     5
420
      255
176
     1
290
     0
176
     1
 90
       50
176
     1
 90
       50
176
     1
 90
       50
176
     1
290
     0
176
     1
 90
       50
176
     1
 62
   256
176
     0
 40
1.0
176
     0
 90
        2
176
     1
  1
strokes_ogs.tif
176
     1
290
     0
176
     1
 40
1.0
176
     1
 40
1.0
176
     1
  0
VISUALSTYLE
  5
32
102
{ACAD_REACTORS
330
2A
102
}
330
2A
100
AcDbVisualStyle
  2
Basic
 70
     7
177
     3
291
     1
 70
    58
 90
        1
176
     1
 90
        0
176
     1
 90
        1
176
     1
 90
        0
176
     1
 40
-0.6
176
     1
 40
-30.0
176
     1
 62
     7
420
 16777215
176
     1
 90
        0
176
     1
 90
        4
176
     1
 62
     7
176
     1
 62
   257
176
     1
 90
        1
176
     1
 90
        1
176
     1
 40
1.0
176
     1
 90
        8
176
     1
 62
     7
176
     1
 40
1.0
176
     1
 90
        1
176
     1
 90
        6
176
     1
 90
        2
176
     1
 62
     7
176
     1
 90
        5
176
     1
 90
        0
176
     1
 90
        0
176
     1
290
     0
176
     1
 90
        1
176
     1
 40
0.0
176
     1
 90
        0
176
     1
290
     0
176
     1
290
     1
176
     1
290
     1
176
     1
290
     0
176
     1
290
     0
176
     1
290
     0
176
     1
290
     0
176
     1
290
     0
176
     1
290
     0
176
     1
 90
       50
176
     1
 40
0.0
176
     1
 40
1.0
176
     1
 90
        0
176
     1
 62
   178
420
        0
176
     1
 90
       50
176
     1
 90
        3
176
     1
 62
     5
420
      255
176
     1
290
     0
176
     1
 90
       50
176
     1
 90
       50
176
     1
 90
       50
176
     1
290
     0
176
     1
 90
       50
176
     1
 62
   256
176
     0
 40
1.0
176
     0
 90
        2
176
     1
  1
strokes_ogs.tif
176
     1
290
     0
176
     1
 40
1.0
176
     1
 40
1.0
176
     1
  0
VISUALSTYLE
  5
36
102
{ACAD_REACTORS
330
2A
102
}
330
2A
100
AcDbVisualStyle
  2
Brighten
 70
    12
177
     3
291
     1
 70
    58
 90
        2
176
     1
 90
        2
176
     1
 90
        0
176
     1
 90
        0
176
     1
 40
-0.6
176
     1
 40
-30.0
176
     1
 62
     7
420
 16777215
176
     1
 90
        1
176
     1
 90
        4
176
     1
 62
     7
176
     1
 62
   257
176
     1
 90
        1
176
     1
 90
        1
176
     1
 40
1.0
176
     1
 90
        8
176
     1
 62
     7
176
     1
 40
1.0
176
     1
 90
        1
176
     1
 90
        6
176
     1
 90
        2
176
     1
 62
     7
176
     1
 90
        5
176
     1
 90
        0
176
     1
 90
        0
176
     1
290
     0
176
     1
 90
        1
176
     1
 40
50.0
176
     1
 90
        0
176
     1
290
     0
176
     1
290
     1
176
     1
290
     1
176
     1
290
     0
176
     1
290
     0
176
     1
290
     0
176
     1
290
     0
176
     1
290
     0
176
     1
290
     0
176
     1
 90
       50
176
     1
 40
0.0
176
     1
 40
1.0
176
     1
 90
        0
176
     1
 62
   178
420
        0
176
     1
 90
       50
176
     1
 90
        3
176
     1
 62
     5
420
      255
176
     1
290
     0
176
     1
 90
       50
176
     1
 90
       50
176
     1
 90
       50
176
     1
290
     0
176
     1
 90
       50
176
     1
 62
   256
176
     0
 40
1.0
176
     0
 90
        2
176
     1
  1
strokes_ogs.tif
176
     1
290
     0
176
     1
 40
1.0
176
     1
 40
1.0
176
     1
  0
VISUALSTYLE
  5
3A
102
{ACAD_REACTORS
330
2A
102
}
330
2A
100
AcDbVisualStyle
  2
ColorChange
 70
    16
177
     3
291
     1
 70
    58
 90
        2
176
     1
 90
        2
176
     1
 90
        3
176
     1
 90
        0
176
     1
 40
-0.6
176
     1
 40
-30.0
176
     1
 62
     8
420
  8421504
176
     1
 90
        1
176
     1
 90
        4
176
     1
 62
     7
176
     1
 62
   257
176
     1
 90
        1
176
     1
 90
        1
176
     1
 40
1.0
176
     1
 90
        8
176
     1
 62
     8
420
  8421504
176
     1
 40
1.0
176
     1
 90
        1
176
     1
 90
        6
176
     1
 90
        2
176
     1
 62
     7
176
     1
 90
        5
176
     1
 90
        0
176
     1
 90
        0
176
     1
290
     0
176
     1
 90
        1
176
     1
 40
0.0
176
     1
 90
        0
176
     1
290
     0
176
     1
290
     1
176
     1
290
     1
176
     1
290
     0
176
     1
290
     0
176
     1
290
     0
176
     1
290
     0
176
     1
290
     0
176
     1
290
     0
176
     1
 90
       50
176
     1
 40
0.0
176
     1
 40
1.0
176
     1
 90
        0
176
     1
 62
   178
420
        0
176
     1
 90
       50
176
     1
 90
        3
176
     1
 62
     5
420
      255
176
     1
290
     0
176
     1
 90
       50
176
     1
 90
       50
176
     1
 90
       50
176
     1
290
     0
176
     1
 90
       50
176
     1
 62
   256
176
     0
 40
1.0
176
     0
 90
        2
176
     1
  1
strokes_ogs.tif
176
     1
290
     0
176
     1
 40
1.0
176
     1
 40
1.0
176
     1
  0
VISUALSTYLE
  5
34
102
{ACAD_REACTORS
330
2A
102
}
330
2A
100
AcDbVisualStyle
  2
Conceptual
 70
     9
177
     3
291
     0
 70
    58
 90
        3
176
     1
 90
        2
176
     1
 90
        0
176
     1
 90
        0
176
     1
 40
-0.6
176
     1
 40
-30.0
176
     1
 62
     7
420
 16777215
176
     1
 90
        2
176
     1
 90
        2
176
     1
 62
     7
176
     1
 62
   257
176
     1
 90
        1
176
     1
 90
        1
176
     1
 40
40.0
176
     1
 90
        8
176
     1
 62
     7
176
     1
 40
1.0
176
     1
 90
        1
176
     1
 90
        6
176
     1
 90
        2
176
     1
 62
     7
176
     1
 90
        3
176
     1
 90
        0
176
     1
 90
        0
176
     1
290
     0
176
     1
 90
        1
176
     1
 40
0.0
176
     1
 90
        0
176
     1
290
     0
176
     1
290
     1
176
     1
290
     1
176
     1
290
     0
176
     1
290
     0
176
     1
290
     0
176
     1
290
     0
176
     1
290
     0
176
     1
290
     0
176
     1
 90
       50
176
     1
 40
0.0
176
     1
 40
1.0
176
     1
 90
        0
176
     1
 62
   178
420
        0
176
     1
 90
       50
176
     1
 90
        3
176
     1
 62
     5
420
      255
176
     1
290
     0
176
     1
 90
       50
176
     1
 90
       50
176
     1
 90
       50
176
     1
290
     0
176
     1
 90
       50
176
     1
 62
   256
176
     0
 40
1.0
176
     0
 90
        2
176
     1
  1
strokes_ogs.tif
176
     1
290
     0
176
     1
 40
1.0
176
     1
 40
1.0
176
     1
  0
VISUALSTYLE
  5
35
102
{ACAD_REACTORS
330
2A
102
}
330
2A
100
AcDbVisualStyle
  2
Dim
 70
    11
177
     3
291
     1
 70
    58
 90
        2
176
     1
 90
        2
176
     1
 90
        0
176
     1
 90
        0
176
     1
 40
-0.6
176
     1
 40
-30.0
176
     1
 62
     7
420
 16777215
176
     1
 90
        1
176
     1
 90
        4
176
     1
 62
     7
176
     1
 62
   257
176
     1
 90
        1
176
     1
 90
        1
176
     1
 40
1.0
176
     1
 90
        8
176
     1
 62
     7
176
     1
 40
1.0
176
     1
 90
        1
176
     1
 90
        6
176
     1
 90
        2
176
     1
 62
     7
176
     1
 90
        5
176
     1
 90
        0
176
     1
 90
        0
176
     1
290
     0
176
     1
 90
        1
176
     1
 40
-50.0
176
     1
 90
        0
176
     1
290
     0
176
     1
290
     1
176
     1
290
     1
176
     1
290
     0
176
     1
290
     0
176
     1
290
     0
176
     1
290
     0
176
     1
290
     0
176
     1
290
     0
176
     1
 90
       50
176
     1
 40
0.0
176
     1
 40
1.0
176
     1
 90
        0
176
     1
 62
   178
420
        0
176
     1
 90
       50
176
     1
 90
        3
176
     1
 62
     5
420
      255
176
     1
290
     0
176
     1
 90
       50
176
     1
 90
       50
176
     1
 90
       50
176
     1
290
     0
176
     1
 90
       50
176
     1
 62
   256
176
     0
 40
1.0
176
     0
 90
        2
176
     1
  1
strokes_ogs.tif
176
     1
290
     0
176
     1
 40
1.0
176
     1
 40
1.0
176
     1
  0
VISUALSTYLE
  5
7A
102
{ACAD_REACTORS
330
2A
102
}
330
2A
100
AcDbVisualStyle
  2
EdgeColorOff
 70
    22
177
     3
291
     1
 70
    58
 90
        2
176
     0
 90
        2
176
     0
 90
        0
176
     0
 90
        0
176
     0
 40
0.6
176
     0
 40
30.0
176
     0
 62
     7
420
 16777215
176
     0
 90
        1
176
     0
 90
        4
176
     0
 62
     7
176
     0
 62
   257
176
     0
 90
        1
176
     0
 90
        1
176
     0
 40
1.0
176
     0
 90
        8
176
     2
 62
     7
176
     0
 40
1.0
176
     0
 90
        1
176
     0
 90
        6
176
     0
 90
        2
176
     0
 62
     7
176
     0
 90
        5
176
     0
 90
        0
176
     0
 90
        0
176
     0
290
     0
176
     0
 90
        1
176
     0
 40
0.0
176
     0
 90
        0
176
     0
290
     0
176
     0
290
     1
176
     0
290
     1
176
     0
290
     0
176
     0
290
     0
176
     0
290
     0
176
     0
290
     0
176
     0
290
     0
176
     0
290
     0
176
     0
 90
       50
176
     0
 40
0.0
176
     0
 40
1.0
176
     0
 90
        0
176
     0
 62
   178
420
        0
176
     0
 90
       50
176
     0
 90
        3
176
     0
 62
     5
420
      255
176
     0
290
     0
176
     0
 90
       50
176
     0
 90
       50
176
     0
 90
       50
176
     0
290
     0
176
     0
 90
       50
176
     0
 62
   256
176
     0
 40
1.0
176
     0
 90
        2
176
     0
  1
strokes_ogs.tif
176
     0
290
     0
176
     0
 40
1.0
176
     0
 40
1.0
176
     0
  0
VISUALSTYLE
  5
39
102
{ACAD_REACTORS
330
2A
102
}
330
2A
100
AcDbVisualStyle
  2
Facepattern
 70
    15
177
     3
291
     1
 70
    58
 90
        2
176
     1
 90
        2
176
     1
 90
        0
176
     1
 90
        0
176
     1
 40
-0.6
176
     1
 40
-30.0
176
     1
 62
     7
420
 16777215
176
     1
 90
        1
176
     1
 90
        4
176
     1
 62
     7
176
     1
 62
   257
176
     1
 90
        1
176
     1
 90
        1
176
     1
 40
1.0
176
     1
 90
        8
176
     1
 62
     7
176
     1
 40
1.0
176
     1
 90
        1
176
     1
 90
        6
176
     1
 90
        2
176
     1
 62
     7
176
     1
 90
        5
176
     1
 90
        0
176
     1
 90
        0
176
     1
290
     0
176
     1
 90
        1
176
     1
 40
0.0
176
     1
 90
        0
176
     1
290
     0
176
     1
290
     1
176
     1
290
     1
176
     1
290
     0
176
     1
290
     0
176
     1
290
     0
176
     1
290
     0
176
     1
290
     0
176
     1
290
     0
176
     1
 90
       50
176
     1
 40
0.0
176
     1
 40
1.0
176
     1
 90
        0
176
     1
 62
   178
420
        0
176
     1
 90
       50
176
     1
 90
        3
176
     1
 62
     5
420
      255
176
     1
290
     0
176
     1
 90
       50
176
     1
 90
       50
176
     1
 90
       50
176
     1
290
     0
176
     1
 90
       50
176
     1
 62
   256
176
     0
 40
1.0
176
     0
 90
        2
176
     1
  1
strokes_ogs.tif
176
     1
290
     0
176
     1
 40
1.0
176
     1
 40
1.0
176
     1
  0
VISUALSTYLE
  5
2B
102
{ACAD_REACTORS
330
2A
102
}
330
2A
100
AcDbVisualStyle
  2
Flat
 70
     0
177
     3
291
     1
 70
    58
 90
        2
176
     1
 90
        1
176
     1
 90
        1
176
     1
 90
        2
176
     1
 40
-0.6
176
     1
 40
30.0
176
     1
 62
     7
420
 16777215
176
     1
 90
        0
176
     1
 90
        4
176
     1
 62
     7
176
     1
 62
   257
176
     1
 90
        1
176
     1
 90
        1
176
     1
 40
1.0
176
     1
 90
        8
176
     1
 62
     7
176
     1
 40
1.0
176
     1
 90
        1
176
     1
 90
        6
176
     1
 90
        2
176
     1
 62
     7
176
     1
 90
        5
176
     1
 90
        0
176
     1
 90
        0
176
     1
290
     0
176
     1
 90
       13
176
     1
 40
0.0
176
     1
 90
        0
176
     1
290
     0
176
     1
290
     1
176
     1
290
     1
176
     1
290
     0
176
     1
290
     0
176
     1
290
     0
176
     1
290
     0
176
     1
290
     0
176
     1
290
     0
176
     1
 90
       50
176
     1
 40
0.0
176
     1
 40
1.0
176
     1
 90
        0
176
     1
 62
   178
420
        0
176
     1
 90
       50
176
     1
 90
        3
176
     1
 62
     5
420
      255
176
     1
290
     0
176
     1
 90
       50
176
     1
 90
       50
176
     1
 90
       50
176
     1
290
     0
176
     1
 90
       50
176
     1
 62
   256
176
     0
 40
1.0
176
     0
 90
        2
176
     1
  1
strokes_ogs.tif
176
     1
290
     0
176
     1
 40
1.0
176
     1
 40
1.0
176
     1
  0
VISUALSTYLE
  5
2C
102
{ACAD_REACTORS
330
2A
102
}
330
2A
100
AcDbVisualStyle
  2
FlatWithEdges
 70
     1
177
     3
291
     1
 70
    58
 90
        2
176
     1
 90
        1
176
     1
 90
        1
176
     1
 90
        2
176
     1
 40
-0.6
176
     1
 40
30.0
176
     1
 62
     7
420
 16777215
176
     1
 90
        1
176
     1
 90
        4
176
     1
 62
     7
176
     1
 62
   257
176
     1
 90
        1
176
     1
 90
        1
176
     1
 40
1.0
176
     1
 90
        0
176
     1
 62
   257
176
     1
 40
1.0
176
     1
 90
        1
176
     1
 90
        6
176
     1
 90
        2
176
     1
 62
     7
176
     1
 90
        5
176
     1
 90
        0
176
     1
 90
        0
176
     1
290
     0
176
     1
 90
       13
176
     1
 40
0.0
176
     1
 90
        0
176
     1
290
     0
176
     1
290
     1
176
     1
290
     1
176
     1
290
     0
176
     1
290
     0
176
     1
290
     0
176
     1
290
     0
176
     1
290
     0
176
     1
290
     0
176
     1
 90
       50
176
     1
 40
0.0
176
     1
 40
1.0
176
     1
 90
        0
176
     1
 62
   178
420
        0
176
     1
 90
       50
176
     1
 90
        3
176
     1
 62
     5
420
      255
176
     1
290
     0
176
     1
 90
       50
176
     1
 90
       50
176
     1
 90
       50
176
     1
290
     0
176
     1
 90
       50
176
     1
 62
   256
176
     0
 40
1.0
176
     0
 90
        2
176
     1
  1
strokes_ogs.tif
176
     1
290
     0
176
     1
 40
1.0
176
     1
 40
1.0
176
     1
  0
VISUALSTYLE
  5
2D
102
{ACAD_REACTORS
330
2A
102
}
330
2A
100
AcDbVisualStyle
  2
Gouraud
 70
     2
177
     3
291
     1
 70
    58
 90
        2
176
     1
 90
        2
176
     1
 90
        1
176
     1
 90
        2
176
     1
 40
-0.6
176
     1
 40
30.0
176
     1
 62
     7
420
 16777215
176
     1
 90
        0
176
     1
 90
        4
176
     1
 62
     7
176
     1
 62
   257
176
     1
 90
        1
176
     1
 90
        1
176
     1
 40
1.0
176
     1
 90
        0
176
     1
 62
     7
176
     1
 40
1.0
176
     1
 90
        1
176
     1
 90
        6
176
     1
 90
        2
176
     1
 62
     7
176
     1
 90
        5
176
     1
 90
        0
176
     1
 90
        0
176
     1
290
     0
176
     1
 90
       13
176
     1
 40
0.0
176
     1
 90
        0
176
     1
290
     0
176
     1
290
     1
176
     1
290
     1
176
     1
290
     0
176
     1
290
     0
176
     1
290
     0
176
     1
290
     0
176
     1
290
     0
176
     1
290
     0
176
     1
 90
       50
176
     1
 40
0.0
176
     1
 40
1.0
176
     1
 90
        0
176
     1
 62
   178
420
        0
176
     1
 90
       50
176
     1
 90
        3
176
     1
 62
     5
420
      255
176
     1
290
     0
176
     1
 90
       50
176
     1
 90
       50
176
     1
 90
       50
176
     1
290
     0
176
     1
 90
       50
176
     1
 62
   256
176
     0
 40
1.0
176
     0
 90
        2
176
     1
  1
strokes_ogs.tif
176
     1
290
     0
176
     1
 40
1.0
176
     1
 40
1.0
176
     1
  0
VISUALSTYLE
  5
2E
102
{ACAD_REACTORS
330
2A
102
}
330
2A
100
AcDbVisualStyle
  2
GouraudWithEdges
 70
     3
177
     3
291
     1
 70
    58
 90
        2
176
     1
 90
        2
176
     1
 90
        1
176
     1
 90
        2
176
     1
 40
-0.6
176
     1
 40
30.0
176
     1
 62
     7
420
 16777215
176
     1
 90
        1
176
     1
 90
        4
176
     1
 62
     7
176
     1
 62
   257
176
     1
 90
        1
176
     1
 90
        1
176
     1
 40
1.0
176
     1
 90
        0
176
     1
 62
   257
176
     1
 40
1.0
176
     1
 90
        1
176
     1
 90
        6
176
     1
 90
        2
176
     1
 62
     7
176
     1
 90
        5
176
     1
 90
        0
176
     1
 90
        0
176
     1
290
     0
176
     1
 90
       13
176
     1
 40
0.0
176
     1
 90
        0
176
     1
290
     0
176
     1
290
     1
176
     1
290
     1
176
     1
290
     0
176
     1
290
     0
176
     1
290
     0
176
     1
290
     0
176
     1
290
     0
176
     1
290
     0
176
     1
 90
       50
176
     1
 40
0.0
176
     1
 40
1.0
176
     1
 90
        0
176
     1
 62
   178
420
        0
176
     1
 90
       50
176
     1
 90
        3
176
     1
 62
     5
420
      255
176
     1
290
     0
176
     1
 90
       50
176
     1
 90
       50
176
     1
 90
       50
176
     1
290
     0
176
     1
 90
       50
176
     1
 62
   256
176
     0
 40
1.0
176
     0
 90
        2
176
     1
  1
strokes_ogs.tif
176
     1
290
     0
176
     1
 40
1.0
176
     1
 40
1.0
176
     1
  0
VISUALSTYLE
  5
77
102
{ACAD_REACTORS
330
2A
102
}
330
2A
100
AcDbVisualStyle
  2
Hidden
 70
     6
177
     3
291
     0
 70
    58
 90
        1
176
     1
 90
        2
176
     1
 90
        2
176
     1
 90
        0
176
     1
 40
0.6
176
     1
 40
30.0
176
     1
 62
     7
420
 16777215
176
     1
 90
        2
176
     1
 90
        2
176
     1
 62
     7
176
     1
 62
   257
176
     1
 90
        2
176
     1
 90
        1
176
     1
 40
40.0
176
     1
 90
        0
176
     1
 62
   257
176
     1
 40
1.0
176
     1
 90
        1
176
     1
 90
        6
176
     1
 90
        2
176
     1
 62
     7
176
     1
 90
        3
176
     1
 90
        0
176
     1
 90
        0
176
     1
290
     0
176
     1
 90
        1
176
     1
 40
0.0
176
     1
 90
        0
176
     1
290
     0
176
     1
290
     1
176
     1
290
     1
176
     1
290
     0
176
     1
290
     0
176
     1
290
     0
176
     1
290
     0
176
     1
290
     0
176
     1
290
     0
176
     1
 90
       50
176
     1
 40
0.0
176
     1
 40
1.0
176
     1
 90
        0
176
     1
 62
   178
420
        0
176
     1
 90
       50
176
     1
 90
        3
176
     1
 62
     5
420
      255
176
     1
290
     0
176
     1
 90
       50
176
     1
 90
       50
176
     1
 90
       50
176
     1
290
     0
176
     1
 90
       50
176
     1
 62
   256
176
     0
 40
1.0
176
     0
 90
        2
176
     1
  1
strokes_ogs.tif
176
     1
290
     0
176
     1
 40
1.0
176
     1
 40
1.0
176
     1
  0
VISUALSTYLE
  5
78
102
{ACAD_REACTORS
330
2A
102
}
330
2A
100
AcDbVisualStyle
  2
JitterOff
 70
    20
177
     3
291
     1
 70
    58
 90
        2
176
     0
 90
        2
176
     0
 90
        0
176
     0
 90
        0
176
     0
 40
0.6
176
     0
 40
30.0
176
     0
 62
     7
420
 16777215
176
     0
 90
        1
176
     0
 90
        4
176
     0
 62
     7
176
     0
 62
   257
176
     0
 90
        1
176
     0
 90
        1
176
     0
 40
1.0
176
     0
 90
       10
176
     2
 62
     7
176
     0
 40
1.0
176
     0
 90
        1
176
     0
 90
        6
176
     0
 90
        2
176
     0
 62
     7
176
     0
 90
        5
176
     0
 90
        0
176
     0
 90
        0
176
     0
290
     0
176
     0
 90
        1
176
     0
 40
0.0
176
     0
 90
        0
176
     0
290
     0
176
     0
290
     1
176
     0
290
     1
176
     0
290
     0
176
     0
290
     0
176
     0
290
     0
176
     0
290
     0
176
     0
290
     0
176
     0
290
     0
176
     0
 90
       50
176
     0
 40
0.0
176
     0
 40
1.0
176
     0
 90
        0
176
     0
 62
   178
420
        0
176
     0
 90
       50
176
     0
 90
        3
176
     0
 62
     5
420
      255
176
     0
290
     0
176
     0
 90
       50
176
     0
 90
       50
176
     0
 90
       50
176
     0
290
     0
176
     0
 90
       50
176
     0
 62
   256
176
     0
 40
1.0
176
     0
 90
        2
176
     0
  1
strokes_ogs.tif
176
     0
290
     0
176
     0
 40
1.0
176
     0
 40
1.0
176
     0
  0
VISUALSTYLE
  5
38
102
{ACAD_REACTORS
330
2A
102
}
330
2A
100
AcDbVisualStyle
  2
Linepattern
 70
    14
177
     3
291
     1
 70
    58
 90
        2
176
     1
 90
        2
176
     1
 90
        0
176
     1
 90
        0
176
     1
 40
-0.6
176
     1
 40
-30.0
176
     1
 62
     7
420
 16777215
176
     1
 90
        1
176
     1
 90
        4
176
     1
 62
     7
176
     1
 62
   257
176
     1
 90
        7
176
     1
 90
        7
176
     1
 40
1.0
176
     1
 90
        8
176
     1
 62
     7
176
     1
 40
1.0
176
     1
 90
        1
176
     1
 90
        6
176
     1
 90
        2
176
     1
 62
     7
176
     1
 90
        5
176
     1
 90
        0
176
     1
 90
        0
176
     1
290
     0
176
     1
 90
        1
176
     1
 40
0.0
176
     1
 90
        0
176
     1
290
     0
176
     1
290
     1
176
     1
290
     1
176
     1
290
     0
176
     1
290
     0
176
     1
290
     0
176
     1
290
     0
176
     1
290
     0
176
     1
290
     0
176
     1
 90
       50
176
     1
 40
0.0
176
     1
 40
1.0
176
     1
 90
        0
176
     1
 62
   178
420
        0
176
     1
 90
       50
176
     1
 90
        3
176
     1
 62
     5
420
      255
176
     1
290
     0
176
     1
 90
       50
176
     1
 90
       50
176
     1
 90
       50
176
     1
290
     0
176
     1
 90
       50
176
     1
 62
   256
176
     0
 40
1.0
176
     0
 90
        2
176
     1
  1
strokes_ogs.tif
176
     1
290
     0
176
     1
 40
1.0
176
     1
 40
1.0
176
     1
  0
VISUALSTYLE
  5
79
102
{ACAD_REACTORS
330
2A
102
}
330
2A
100
AcDbVisualStyle
  2
OverhangOff
 70
    21
177
     3
291
     1
 70
    58
 90
        2
176
     0
 90
        2
176
     0
 90
        0
176
     0
 90
        0
176
     0
 40
0.6
176
     0
 40
30.0
176
     0
 62
     7
420
 16777215
176
     0
 90
        1
176
     0
 90
        4
176
     0
 62
     7
176
     0
 62
   257
176
     0
 90
        1
176
     0
 90
        1
176
     0
 40
1.0
176
     0
 90
        9
176
     2
 62
     7
176
     0
 40
1.0
176
     0
 90
        1
176
     0
 90
        6
176
     0
 90
        2
176
     0
 62
     7
176
     0
 90
        5
176
     0
 90
        0
176
     0
 90
        0
176
     0
290
     0
176
     0
 90
        1
176
     0
 40
0.0
176
     0
 90
        0
176
     0
290
     0
176
     0
290
     1
176
     0
290
     1
176
     0
290
     0
176
     0
290
     0
176
     0
290
     0
176
     0
290
     0
176
     0
290
     0
176
     0
290
     0
176
     0
 90
       50
176
     0
 40
0.0
176
     0
 40
1.0
176
     0
 90
        0
176
     0
 62
   178
420
        0
176
     0
 90
       50
176
     0
 90
        3
176
     0
 62
     5
420
      255
176
     0
290
     0
176
     0
 90
       50
176
     0
 90
       50
176
     0
 90
       50
176
     0
290
     0
176
     0
 90
       50
176
     0
 62
   256
176
     0
 40
1.0
176
     0
 90
        2
176
     0
  1
strokes_ogs.tif
176
     0
290
     0
176
     0
 40
1.0
176
     0
 40
1.0
176
     0
  0
VISUALSTYLE
  5
33
102
{ACAD_REACTORS
330
2A
102
}
330
2A
100
AcDbVisualStyle
  2
Realistic
 70
     8
177
     3
291
     0
 70
    58
 90
        2
176
     1
 90
        2
176
     1
 90
        0
176
     1
 90
        0
176
     1
 40
-0.6
176
     1
 40
-30.0
176
     1
 62
     7
420
 16777215
176
     1
 90
        1
176
     1
 90
        0
176
     1
 62
     7
176
     1
 62
   257
176
     1
 90
        1
176
     1
 90
        1
176
     1
 40
1.0
176
     1
 90
        8
176
     1
 62
     8
420
  7895160
176
     1
 40
1.0
176
     1
 90
        1
176
     1
 90
        6
176
     1
 90
        2
176
     1
 62
     7
176
     1
 90
        5
176
     1
 90
        0
176
     1
 90
        0
176
     1
290
     0
176
     1
 90
       13
176
     1
 40
0.0
176
     1
 90
        0
176
     1
290
     0
176
     1
290
     1
176
     1
290
     1
176
     1
290
     0
176
     1
290
     0
176
     1
290
     0
176
     1
290
     0
176
     1
290
     0
176
     1
290
     0
176
     1
 90
       50
176
     1
 40
0.0
176
     1
 40
1.0
176
     1
 90
        0
176
     1
 62
   178
420
        0
176
     1
 90
       50
176
     1
 90
        3
176
     1
 62
     5
420
      255
176
     1
290
     0
176
     1
 90
       50
176
     1
 90
       50
176
     1
 90
       50
176
     1
290
     0
176
     1
 90
       50
176
     1
 62
   256
176
     0
 40
1.0
176
     0
 90
        2
176
     1
  1
strokes_ogs.tif
176
     1
290
     0
176
     1
 40
1.0
176
     1
 40
1.0
176
     1
  0
VISUALSTYLE
  5
7F
102
{ACAD_REACTORS
330
2A
102
}
330
2A
100
AcDbVisualStyle
  2
Shaded
 70
    27
177
     3
291
     0
 70
    58
 90
        2
176
     1
 90
        2
176
     1
 90
        1
176
     1
 90
        2
176
     1
 40
0.6
176
     1
 40
30.0
176
     1
 62
     7
420
 16777215
176
     1
 90
        0
176
     1
 90
        4
176
     1
 62
     7
176
     1
 62
   257
176
     1
 90
        1
176
     1
 90
        1
176
     1
 40
1.0
176
     1
 90
        8
176
     1
 62
   257
176
     1
 40
1.0
176
     1
 90
        1
176
     1
 90
        6
176
     1
 90
        2
176
     1
 62
     8
420
  7895160
176
     1
 90
        3
176
     1
 90
        0
176
     1
 90
        0
176
     1
290
     0
176
     1
 90
        5
176
     1
 40
0.0
176
     1
 90
        0
176
     1
290
     0
176
     1
290
     1
176
     1
290
     1
176
     1
290
     0
176
     1
290
     0
176
     1
290
     0
176
     1
290
     0
176
     1
290
     0
176
     1
290
     0
176
     1
 90
       50
176
     1
 40
0.0
176
     1
 40
1.0
176
     1
 90
        0
176
     1
 62
   178
420
        0
176
     1
 90
       50
176
     1
 90
        3
176
     1
 62
     5
420
      255
176
     1
290
     0
176
     1
 90
       50
176
     1
 90
       50
176
     1
 90
       50
176
     1
290
     0
176
     1
 90
       50
176
     1
 62
   256
176
     0
 40
1.0
176
     0
 90
        2
176
     1
  1
strokes_ogs.tif
176
     1
290
     0
176
     1
 40
1.0
176
     1
 40
1.0
176
     1
  0
VISUALSTYLE
  5
7E
102
{ACAD_REACTORS
330
2A
102
}
330
2A
100
AcDbVisualStyle
  2
Shaded with edges
 70
    26
177
     3
291
     0
 70
    58
 90
        2
176
     1
 90
        2
176
     1
 90
        1
176
     1
 90
        2
176
     1
 40
0.6
176
     1
 40
30.0
176
     1
 62
     7
420
 16777215
176
     1
 90
        1
176
     1
 90
       10
176
     1
 62
     7
176
     1
 62
   257
176
     1
 90
        2
176
     1
 90
        1
176
     1
 40
1.0
176
     1
 90
        8
176
     1
 62
   257
176
     1
 40
1.0
176
     1
 90
        1
176
     1
 90
        6
176
     1
 90
        2
176
     1
 62
     7
176
     1
 90
        3
176
     1
 90
        0
176
     1
 90
        0
176
     1
290
     0
176
     1
 90
        5
176
     1
 40
0.0
176
     1
 90
        0
176
     1
290
     0
176
     1
290
     1
176
     1
290
     1
176
     1
290
     0
176
     1
290
     0
176
     1
290
     0
176
     1
290
     0
176
     1
290
     0
176
     1
290
     0
176
     1
 90
       50
176
     1
 40
0.0
176
     1
 40
1.0
176
     1
 90
        0
176
     1
 62
   178
420
        0
176
     1
 90
       50
176
     1
 90
        3
176
     1
 62
     5
420
      255
176
     1
290
     0
176
     1
 90
       50
176
     1
 90
       50
176
     1
 90
       50
176
     1
290
     0
176
     1
 90
       50
176
     1
 62
   256
176
     0
 40
1.0
176
     0
 90
        2
176
     1
  1
strokes_ogs.tif
176
     1
290
     0
176
     1
 40
1.0
176
     1
 40
1.0
176
     1
  0
VISUALSTYLE
  5
7B
102
{ACAD_REACTORS
330
2A
102
}
330
2A
100
AcDbVisualStyle
  2
Shades of Gray
 70
    23
177
     3
291
     0
 70
    58
 90
        2
176
     1
 90
        2
176
     1
 90
        3
176
     1
 90
        0
176
     1
 40
0.6
176
     1
 40
30.0
176
     1
 62
     7
420
 16777215
176
     1
 90
        2
176
     1
 90
        2
176
     1
 62
     7
176
     1
 62
     7
176
     1
 90
        1
176
     1
 90
        1
176
     1
 40
40.0
176
     1
 90
        8
176
     1
 62
     7
176
     1
 40
1.0
176
     1
 90
        1
176
     1
 90
        6
176
     1
 90
        2
176
     1
 62
     7
176
     1
 90
        3
176
     1
 90
        0
176
     1
 90
        0
176
     1
290
     0
176
     1
 90
        1
176
     1
 40
0.0
176
     1
 90
        0
176
     1
290
     0
176
     1
290
     1
176
     1
290
     1
176
     1
290
     0
176
     1
290
     0
176
     1
290
     0
176
     1
290
     0
176
     1
290
     0
176
     1
290
     0
176
     1
 90
       50
176
     1
 40
0.0
176
     1
 40
1.0
176
     1
 90
        0
176
     1
 62
   178
420
        0
176
     1
 90
       50
176
     1
 90
        3
176
     1
 62
     5
420
      255
176
     1
290
     0
176
     1
 90
       50
176
     1
 90
       50
176
     1
 90
       50
176
     1
290
     0
176
     1
 90
       50
176
     1
 62
   256
176
     0
 40
1.0
176
     0
 90
        2
176
     1
  1
strokes_ogs.tif
176
     1
290
     0
176
     1
 40
1.0
176
     1
 40
1.0
176
     1
  0
VISUALSTYLE
  5
7C
102
{ACAD_REACTORS
330
2A
102
}
330
2A
100
AcDbVisualStyle
  2
Sketchy
 70
    24
177
     3
291
     0
 70
    58
 90
        1
176
     1
 90
        2
176
     1
 90
        2
176
     1
 90
        0
176
     1
 40
0.6
176
     1
 40
30.0
176
     1
 62
     7
420
 16777215
176
     1
 90
        2
176
     1
 90
        2
176
     1
 62
     7
176
     1
 62
     7
176
     1
 90
        1
176
     1
 90
        1
176
     1
 40
40.0
176
     1
 90
       11
176
     1
 62
     7
176
     1
 40
1.0
176
     1
 90
        1
176
     1
 90
        6
176
     1
 90
        2
176
     1
 62
     7
176
     1
 90
        6
176
     1
 90
        0
176
     1
 90
        0
176
     1
290
     0
176
     1
 90
        1
176
     1
 40
0.0
176
     1
 90
        0
176
     1
290
     0
176
     1
290
     1
176
     1
290
     1
176
     1
290
     0
176
     1
290
     0
176
     1
290
     0
176
     1
290
     0
176
     1
290
     0
176
     1
290
     0
176
     1
 90
       50
176
     1
 40
0.0
176
     1
 40
1.0
176
     1
 90
        0
176
     1
 62
   178
420
        0
176
     1
 90
       50
176
     1
 90
        3
176
     1
 62
     5
420
      255
176
     1
290
     0
176
     1
 90
       50
176
     1
 90
       50
176
     1
 90
       50
176
     1
290
     0
176
     1
 90
       50
176
     1
 62
   256
176
     0
 40
1.0
176
     0
 90
        2
176
     1
  1
strokes_ogs.tif
176
     1
290
     0
176
     1
 40
1.0
176
     1
 40
1.0
176
     1
  0
VISUALSTYLE
  5
37
102
{ACAD_REACTORS
330
2A
102
}
330
2A
100
AcDbVisualStyle
  2
Thicken
 70
    13
177
     3
291
     1
 70
    58
 90
        2
176
     1
 90
        2
176
     1
 90
        0
176
     1
 90
        0
176
     1
 40
-0.6
176
     1
 40
-30.0
176
     1
 62
     7
420
 16777215
176
     1
 90
        1
176
     1
 90
        4
176
     1
 62
     7
176
     1
 62
   257
176
     1
 90
        1
176
     1
 90
        1
176
     1
 40
1.0
176
     1
 90
       12
176
     1
 62
     7
176
     1
 40
1.0
176
     1
 90
        1
176
     1
 90
        6
176
     1
 90
        2
176
     1
 62
     7
176
     1
 90
        5
176
     1
 90
        0
176
     1
 90
        0
176
     1
290
     0
176
     1
 90
        1
176
     1
 40
0.0
176
     1
 90
        0
176
     1
290
     0
176
     1
290
     1
176
     1
290
     1
176
     1
290
     0
176
     1
290
     0
176
     1
290
     0
176
     1
290
     0
176
     1
290
     0
176
     1
290
     0
176
     1
 90
       50
176
     1
 40
0.0
176
     1
 40
1.0
176
     1
 90
        0
176
     1
 62
   178
420
        0
176
     1
 90
       50
176
     1
 90
        3
176
     1
 62
     5
420
      255
176
     1
290
     0
176
     1
 90
       50
176
     1
 90
       50
176
     1
 90
       50
176
     1
290
     0
176
     1
 90
       50
176
     1
 62
   256
176
     0
 40
1.0
176
     0
 90
        2
176
     1
  1
strokes_ogs.tif
176
     1
290
     0
176
     1
 40
1.0
176
     1
 40
1.0
176
     1
  0
VISUALSTYLE
  5
76
102
{ACAD_REACTORS
330
2A
102
}
330
2A
100
AcDbVisualStyle
  2
Wireframe
 70
     5
177
     3
291
     0
 70
    58
 90
        0
176
     1
 90
        2
176
     1
 90
        0
176
     1
 90
        0
176
     1
 40
0.6
176
     1
 40
30.0
176
     1
 62
     7
420
 16777215
176
     1
 90
        1
176
     1
 90
        4
176
     1
 62
     7
176
     1
 62
   257
176
     1
 90
        1
176
     1
 90
        1
176
     1
 40
1.0
176
     1
 90
        0
176
     1
 62
   257
176
     1
 40
1.0
176
     1
 90
        1
176
     1
 90
        6
176
     1
 90
        2
176
     1
 62
     7
176
     1
 90
        3
176
     1
 90
        0
176
     1
 90
        0
176
     1
290
     0
176
     1
 90
        1
176
     1
 40
0.0
176
     1
 90
        0
176
     1
290
     0
176
     1
290
     1
176
     1
290
     1
176
     1
290
     0
176
     1
290
     0
176
     1
290
     0
176
     1
290
     0
176
     1
290
     0
176
     1
290
     0
176
     1
 90
       50
176
     1
 40
0.0
176
     1
 40
1.0
176
     1
 90
        0
176
     1
 62
   178
420
        0
176
     1
 90
       50
176
     1
 90
        3
176
     1
 62
     5
420
      255
176
     1
290
     0
176
     1
 90
       50
176
     1
 90
       50
176
     1
 90
       50
176
     1
290
     0
176
     1
 90
       50
176
     1
 62
   256
176
     0
 40
1.0
176
     0
 90
        2
176
     1
  1
strokes_ogs.tif
176
     1
290
     0
176
     1
 40
1.0
176
     1
 40
1.0
176
     1
  0
VISUALSTYLE
  5
7D
102
{ACAD_REACTORS
330
2A
102
}
330
2A
100
AcDbVisualStyle
  2
X-Ray
 70
    25
177
     3
291
     0
 70
    58
 90
        2
176
     1
 90
        2
176
     1
 90
        1
176
     1
 90
        1
176
     1
 40
0.5
176
     1
 40
30.0
176
     1
 62
     7
420
 16777215
176
     1
 90
        1
176
     1
 90
        0
176
     1
 62
     7
176
     1
 62
   257
176
     1
 90
        1
176
     1
 90
        1
176
     1
 40
1.0
176
     1
 90
        8
176
     1
 62
     7
176
     1
 40
1.0
176
     1
 90
        1
176
     1
 90
        6
176
     1
 90
        2
176
     1
 62
     7
176
     1
 90
        3
176
     1
 90
        0
176
     1
 90
        0
176
     1
290
     0
176
     1
 90
       13
176
     1
 40
0.0
176
     1
 90
        0
176
     1
290
     0
176
     1
290
     1
176
     1
290
     1
176
     1
290
     0
176
     1
290
     0
176
     1
290
     0
176
     1
290
     0
176
     1
290
     0
176
     1
290
     0
176
     1
 90
       50
176
     1
 40
0.0
176
     1
 40
1.0
176
     1
 90
        0
176
     1
 62
   178
420
        0
176
     1
 90
       50
176
     1
 90
        3
176
     1
 62
     5
420
      255
176
     1
290
     0
176
     1
 90
       50
176
     1
 90
       50
176
     1
 90
       50
176
     1
290
     0
176
     1
 90
       50
176
     1
 62
   256
176
     0
 40
1.0
176
     0
 90
        2
176
     1
  1
strokes_ogs.tif
176
     1
290
     0
176
     1
 40
1.0
176
     1
 40
1.0
176
     1
  0
DICTIONARYVAR
  5
62
102
{ACAD_REACTORS
330
3D
102
}
330
3D
100
DictionaryVariables
280
     0
  1
1:1
  0
DICTIONARYVAR
  5
BB
102
{ACAD_REACTORS
330
3D
102
}
330
3D
100
DictionaryVariables
280
     0
  1
Standard
  0
DICTIONARYVAR
  5
3E
102
{ACAD_REACTORS
330
3D
102
}
330
3D
100
DictionaryVariables
280
     0
  1
Standard
  0
DICTIONARYVAR
  5
6F
102
{ACAD_REACTORS
330
3D
102
}
330
3D
100
DictionaryVariables
280
     0
  1
0
  0
DICTIONARYVAR
  5
70
102
{ACAD_REACTORS
330
3D
102
}
330
3D
100
DictionaryVariables
280
     0
  1
0
  0
DICTIONARY
  5
51B
330
3C
100
AcDbDictionary
280
     1
281
     1
  3
ACAD_ROUNDTRIP_2008_TABLESTYLE_CELLSTYLEMAP
360
51C
  0
CELLSTYLEMAP
  5
51C
102
{ACAD_REACTORS
330
51B
102
}
330
51B
100
AcDbCellStyleMap
 90
        3
300
CELLSTYLE
  1
TABLEFORMAT_BEGIN
 90
        5
170
     1
 91
        0
 92
    32768
 62
   257
 93
        1
300
CONTENTFORMAT
  1
CONTENTFORMAT_BEGIN
 90
        0
 91
        0
 92
      512
 93
        0
300

 40
0.0
140
1.0
 94
        5
 62
     0
340
11
144
6.0
309
CONTENTFORMAT_END
171
     1
301
MARGIN
  1
CELLMARGIN_BEGIN
 40
1.5
 40
1.5
 40
1.5
 40
1.5
 40
0.18
 40
0.18
309
CELLMARGIN_END
 94
        6
 95
        1
302
GRIDFORMAT
  1
GRIDFORMAT_BEGIN
 90
        0
 91
        1
 62
     0
 92
       -2
340
0
 93
        0
 40
0.045
309
GRIDFORMAT_END
 95
        2
302
GRIDFORMAT
  1
GRIDFORMAT_BEGIN
 90
        0
 91
        1
 62
     0
 92
       -2
340
0
 93
        0
 40
0.045
309
GRIDFORMAT_END
 95
        4
302
GRIDFORMAT
  1
GRIDFORMAT_BEGIN
 90
        0
 91
        1
 62
     0
 92
       -2
340
0
 93
        0
 40
0.045
309
GRIDFORMAT_END
 95
        8
302
GRIDFORMAT
  1
GRIDFORMAT_BEGIN
 90
        0
 91
        1
 62
     0
 92
       -2
340
0
 93
        0
 40
0.045
309
GRIDFORMAT_END
 95
       16
302
GRIDFORMAT
  1
GRIDFORMAT_BEGIN
 90
        0
 91
        1
 62
     0
 92
       -2
340
0
 93
        0
 40
0.045
309
GRIDFORMAT_END
 95
       32
302
GRIDFORMAT
  1
GRIDFORMAT_BEGIN
 90
        0
 91
        1
 62
     0
 92
       -2
340
0
 93
        0
 40
0.045
309
GRIDFORMAT_END
309
TABLEFORMAT_END
  1
CELLSTYLE_BEGIN
 90
        1
 91
        1
300
_TITLE
309
CELLSTYLE_END
300
CELLSTYLE
  1
TABLEFORMAT_BEGIN
 90
        5
170
     1
 91
        0
 92
        0
 62
   257
 93
        1
300
CONTENTFORMAT
  1
CONTENTFORMAT_BEGIN
 90
        0
 91
        0
 92
      512
 93
        0
300

 40
0.0
140
1.0
 94
        5
 62
     0
340
11
144
4.5
309
CONTENTFORMAT_END
171
     1
301
MARGIN
  1
CELLMARGIN_BEGIN
 40
1.5
 40
1.5
 40
1.5
 40
1.5
 40
0.18
 40
0.18
309
CELLMARGIN_END
 94
        6
 95
        1
302
GRIDFORMAT
  1
GRIDFORMAT_BEGIN
 90
        0
 91
        1
 62
     0
 92
       -2
340
0
 93
        0
 40
0.045
309
GRIDFORMAT_END
 95
        2
302
GRIDFORMAT
  1
GRIDFORMAT_BEGIN
 90
        0
 91
        1
 62
     0
 92
       -2
340
0
 93
        0
 40
0.045
309
GRIDFORMAT_END
 95
        4
302
GRIDFORMAT
  1
GRIDFORMAT_BEGIN
 90
        0
 91
        1
 62
     0
 92
       -2
340
0
 93
        0
 40
0.045
309
GRIDFORMAT_END
 95
        8
302
GRIDFORMAT
  1
GRIDFORMAT_BEGIN
 90
        0
 91
        1
 62
     0
 92
       -2
340
0
 93
        0
 40
0.045
309
GRIDFORMAT_END
 95
       16
302
GRIDFORMAT
  1
GRIDFORMAT_BEGIN
 90
        0
 91
        1
 62
     0
 92
       -2
340
0
 93
        0
 40
0.045
309
GRIDFORMAT_END
 95
       32
302
GRIDFORMAT
  1
GRIDFORMAT_BEGIN
 90
        0
 91
        1
 62
     0
 92
       -2
340
0
 93
        0
 40
0.045
309
GRIDFORMAT_END
309
TABLEFORMAT_END
  1
CELLSTYLE_BEGIN
 90
        2
 91
        1
300
_HEADER
309
CELLSTYLE_END
300
CELLSTYLE
  1
TABLEFORMAT_BEGIN
 90
        5
170
     1
 91
        0
 92
        0
 62
   257
 93
        1
300
CONTENTFORMAT
  1
CONTENTFORMAT_BEGIN
 90
        0
 91
        0
 92
      512
 93
        0
300

 40
0.0
140
1.0
 94
        2
 62
     0
340
11
144
4.5
309
CONTENTFORMAT_END
171
     1
301
MARGIN
  1
CELLMARGIN_BEGIN
 40
1.5
 40
1.5
 40
1.5
 40
1.5
 40
0.18
 40
0.18
309
CELLMARGIN_END
 94
        6
 95
        1
302
GRIDFORMAT
  1
GRIDFORMAT_BEGIN
 90
        0
 91
        1
 62
     0
 92
       -2
340
0
 93
        0
 40
0.045
309
GRIDFORMAT_END
 95
        2
302
GRIDFORMAT
  1
GRIDFORMAT_BEGIN
 90
        0
 91
        1
 62
     0
 92
       -2
340
0
 93
        0
 40
0.045
309
GRIDFORMAT_END
 95
        4
302
GRIDFORMAT
  1
GRIDFORMAT_BEGIN
 90
        0
 91
        1
 62
     0
 92
       -2
340
0
 93
        0
 40
0.045
309
GRIDFORMAT_END
 95
        8
302
GRIDFORMAT
  1
GRIDFORMAT_BEGIN
 90
        0
 91
        1
 62
     0
 92
       -2
340
0
 93
        0
 40
0.045
309
GRIDFORMAT_END
 95
       16
302
GRIDFORMAT
  1
GRIDFORMAT_BEGIN
 90
        0
 91
        1
 62
     0
 92
       -2
340
0
 93
        0
 40
0.045
309
GRIDFORMAT_END
 95
       32
302
GRIDFORMAT
  1
GRIDFORMAT_BEGIN
 90
        0
 91
        1
 62
     0
 92
       -2
340
0
 93
        0
 40
0.045
309
GRIDFORMAT_END
309
TABLEFORMAT_END
  1
CELLSTYLE_BEGIN
 90
        3
 91
        2
300
_DATA
309
CELLSTYLE_END
  0
ENDSEC
  0
EOF
