  0
SECTION
  2
HEADER
  9
$ACADVER
  1
AC1032
  9
$ACADMAINTVER
 90
      158
  9
$DWGCODEPAGE
  3
ANSI_1252
  9
$LASTSAVEDBY
  1
greyl
  9
$REQUIREDVERSIONS
160
                 0
  9
$INSBASE
 10
0.0
 20
0.0
 30
0.0
  9
$EXTMIN
 10
0.0
 20
0.0
 30
0.0
  9
$EXTMAX
 10
30.0
 20
29.99999999999909
 30
0.0
  9
$LIMMIN
 10
0.0
 20
0.0
  9
$LIMMAX
 10
12.0
 20
9.0
  9
$ORTHOMODE
 70
     0
  9
$REGENMODE
 70
     1
  9
$FILLMODE
 70
     1
  9
$QTEXTMODE
 70
     0
  9
$MIRRTEXT
 70
     0
  9
$LTSCALE
 40
1.0
  9
$ATTMODE
 70
     1
  9
$TEXTSIZE
 40
0.2
  9
$TRACEWID
 40
0.05
  9
$TEXTSTYLE
  7
Standard
  9
$CLAYER
  8
jongchulphotoconductivity_top
  9
$CELTYPE
  6
ByLayer
  9
$CECOLOR
 62
   256
  9
$CELTSCALE
 40
1.0
  9
$DISPSILH
 70
     0
  9
$DIMSCALE
 40
10.0
  9
$DIMASZ
 40
0.18
  9
$DIMEXO
 40
0.0625
  9
$DIMDLI
 40
0.38
  9
$DIMRND
 40
0.0
  9
$DIMDLE
 40
0.0
  9
$DIMEXE
 40
0.18
  9
$DIMTP
 40
0.0
  9
$DIMTM
 40
0.0
  9
$DIMTXT
 40
0.18
  9
$DIMCEN
 40
0.09
  9
$DIMTSZ
 40
0.0
  9
$DIMTOL
 70
     0
  9
$DIMLIM
 70
     0
  9
$DIMTIH
 70
     1
  9
$DIMTOH
 70
     1
  9
$DIMSE1
 70
     0
  9
$DIMSE2
 70
     0
  9
$DIMTAD
 70
     0
  9
$DIMZIN
 70
     0
  9
$DIMBLK
  1

  9
$DIMASO
 70
     1
  9
$DIMSHO
 70
     1
  9
$DIMPOST
  1

  9
$DIMAPOST
  1

  9
$DIMALT
 70
     0
  9
$DIMALTD
 70
     2
  9
$DIMALTF
 40
25.4
  9
$DIMLFAC
 40
1.0
  9
$DIMTOFL
 70
     0
  9
$DIMTVP
 40
0.0
  9
$DIMTIX
 70
     0
  9
$DIMSOXD
 70
     0
  9
$DIMSAH
 70
     0
  9
$DIMBLK1
  1

  9
$DIMBLK2
  1

  9
$DIMSTYLE
  2
Standard
  9
$DIMCLRD
 70
     0
  9
$DIMCLRE
 70
     0
  9
$DIMCLRT
 70
     0
  9
$DIMTFAC
 40
1.0
  9
$DIMGAP
 40
0.09
  9
$DIMJUST
 70
     0
  9
$DIMSD1
 70
     0
  9
$DIMSD2
 70
     0
  9
$DIMTOLJ
 70
     1
  9
$DIMTZIN
 70
     0
  9
$DIMALTZ
 70
     0
  9
$DIMALTTZ
 70
     0
  9
$DIMUPT
 70
     0
  9
$DIMDEC
 70
     4
  9
$DIMTDEC
 70
     4
  9
$DIMALTU
 70
     2
  9
$DIMALTTD
 70
     2
  9
$DIMTXSTY
  7
Standard
  9
$DIMAUNIT
 70
     0
  9
$DIMADEC
 70
     0
  9
$DIMALTRND
 40
0.0
  9
$DIMAZIN
 70
     0
  9
$DIMDSEP
 70
    46
  9
$DIMATFIT
 70
     3
  9
$DIMFRAC
 70
     0
  9
$DIMLDRBLK
  1

  9
$DIMLUNIT
 70
     2
  9
$DIMLWD
 70
    -2
  9
$DIMLWE
 70
    -2
  9
$DIMTMOVE
 70
     0
  9
$DIMFXL
 40
1.0
  9
$DIMFXLON
 70
     0
  9
$DIMJOGANG
 40
0.7853981633974483
  9
$DIMTFILL
 70
     0
  9
$DIMTFILLCLR
 70
     0
  9
$DIMARCSYM
 70
     0
  9
$DIMLTYPE
  6

  9
$DIMLTEX1
  6

  9
$DIMLTEX2
  6

  9
$DIMTXTDIRECTION
 70
     0
  9
$LUNITS
 70
     2
  9
$LUPREC
 70
     4
  9
$SKETCHINC
 40
0.1
  9
$FILLETRAD
 40
0.5
  9
$AUNITS
 70
     0
  9
$AUPREC
 70
     0
  9
$MENU
  1
.
  9
$ELEVATION
 40
0.0
  9
$PELEVATION
 40
0.0
  9
$THICKNESS
 40
0.0
  9
$LIMCHECK
 70
     0
  9
$CHAMFERA
 40
0.0
  9
$CHAMFERB
 40
0.0
  9
$CHAMFERC
 40
0.0
  9
$CHAMFERD
 40
0.0
  9
$SKPOLY
 70
     0
  9
$TDCREATE
 40
2452643.063379630
  9
$TDUCREATE
 40
2452643.063384271
  9
$TDUPDATE
 40
2458936.713263889
  9
$TDUUPDATE
 40
2458936.713263889
  9
$TDINDWG
 40
22.2506484375
  9
$TDUSRTIMER
 40
22.2518525463
  9
$USRTIMER
 70
     1
  9
$ANGBASE
 50
0.0
  9
$ANGDIR
 70
     0
  9
$PDMODE
 70
     0
  9
$PDSIZE
 40
0.0
  9
$PLINEWID
 40
0.0
  9
$SPLFRAME
 70
     0
  9
$SPLINETYPE
 70
     6
  9
$SPLINESEGS
 70
     8
  9
$HANDSEED
  5
18A1
  9
$SURFTAB1
 70
     6
  9
$SURFTAB2
 70
     6
  9
$SURFTYPE
 70
     6
  9
$SURFU
 70
     6
  9
$SURFV
 70
     6
  9
$UCSBASE
  2

  9
$UCSNAME
  2

  9
$UCSORG
 10
0.0
 20
0.0
 30
0.0
  9
$UCSXDIR
 10
1.0
 20
0.0
 30
0.0
  9
$UCSYDIR
 10
0.0
 20
1.0
 30
0.0
  9
$UCSORTHOREF
  2

  9
$UCSORTHOVIEW
 70
     0
  9
$UCSORGTOP
 10
0.0
 20
0.0
 30
0.0
  9
$UCSORGBOTTOM
 10
0.0
 20
0.0
 30
0.0
  9
$UCSORGLEFT
 10
0.0
 20
0.0
 30
0.0
  9
$UCSORGRIGHT
 10
0.0
 20
0.0
 30
0.0
  9
$UCSORGFRONT
 10
0.0
 20
0.0
 30
0.0
  9
$UCSORGBACK
 10
0.0
 20
0.0
 30
0.0
  9
$PUCSBASE
  2

  9
$PUCSNAME
  2

  9
$PUCSORG
 10
0.0
 20
0.0
 30
0.0
  9
$PUCSXDIR
 10
1.0
 20
0.0
 30
0.0
  9
$PUCSYDIR
 10
0.0
 20
1.0
 30
0.0
  9
$PUCSORTHOREF
  2

  9
$PUCSORTHOVIEW
 70
     0
  9
$PUCSORGTOP
 10
0.0
 20
0.0
 30
0.0
  9
$PUCSORGBOTTOM
 10
0.0
 20
0.0
 30
0.0
  9
$PUCSORGLEFT
 10
0.0
 20
0.0
 30
0.0
  9
$PUCSORGRIGHT
 10
0.0
 20
0.0
 30
0.0
  9
$PUCSORGFRONT
 10
0.0
 20
0.0
 30
0.0
  9
$PUCSORGBACK
 10
0.0
 20
0.0
 30
0.0
  9
$USERI1
 70
     0
  9
$USERI2
 70
     0
  9
$USERI3
 70
     0
  9
$USERI4
 70
     0
  9
$USERI5
 70
     0
  9
$USERR1
 40
0.0
  9
$USERR2
 40
0.0
  9
$USERR3
 40
0.0
  9
$USERR4
 40
0.0
  9
$USERR5
 40
0.0
  9
$WORLDVIEW
 70
     1
  9
$SHADEDGE
 70
     3
  9
$SHADEDIF
 70
    70
  9
$TILEMODE
 70
     1
  9
$MAXACTVP
 70
    64
  9
$PINSBASE
 10
0.0
 20
0.0
 30
0.0
  9
$PLIMCHECK
 70
     0
  9
$PEXTMIN
 10
0.0
 20
0.0
 30
0.0
  9
$PEXTMAX
 10
0.0
 20
0.0
 30
0.0
  9
$PLIMMIN
 10
0.0
 20
0.0
  9
$PLIMMAX
 10
0.0
 20
0.0
  9
$UNITMODE
 70
     0
  9
$VISRETAIN
 70
     1
  9
$PLINEGEN
 70
     0
  9
$PSLTSCALE
 70
     1
  9
$TREEDEPTH
 70
  3020
  9
$CMLSTYLE
  2
Standard
  9
$CMLJUST
 70
     0
  9
$CMLSCALE
 40
1.0
  9
$PROXYGRAPHICS
 70
     1
  9
$MEASUREMENT
 70
     0
  9
$CELWEIGHT
370
    -1
  9
$ENDCAPS
280
     0
  9
$JOINSTYLE
280
     0
  9
$LWDISPLAY
290
     0
  9
$INSUNITS
 70
     1
  9
$HYPERLINKBASE
  1

  9
$STYLESHEET
  1

  9
$XEDIT
290
     1
  9
$CEPSNTYPE
380
     0
  9
$PSTYLEMODE
290
     1
  9
$FINGERPRINTGUID
  2
{FDEAD576-A652-11D2-9A35-0060089B3A3F}
  9
$VERSIONGUID
  2
{B5208347-BA6C-9640-A324-81EE289B6C0D}
  9
$EXTNAMES
290
     1
  9
$PSVPSCALE
 40
0.0
  9
$OLESTARTUP
290
     0
  9
$SORTENTS
280
   127
  9
$INDEXCTL
280
     0
  9
$HIDETEXT
280
     1
  9
$XCLIPFRAME
280
     0
  9
$HALOGAP
280
     0
  9
$OBSCOLOR
 70
   257
  9
$OBSLTYPE
280
     0
  9
$INTERSECTIONDISPLAY
280
     0
  9
$INTERSECTIONCOLOR
 70
   257
  9
$DIMASSOC
280
     2
  9
$PROJECTNAME
  1

  9
$CAMERADISPLAY
290
     0
  9
$LENSLENGTH
 40
50.0
  9
$CAMERAHEIGHT
 40
0.0
  9
$STEPSPERSEC
 40
2.0
  9
$STEPSIZE
 40
6.0
  9
$3DDWFPREC
 40
2.0
  9
$PSOLWIDTH
 40
0.25
  9
$PSOLHEIGHT
 40
4.0
  9
$LOFTANG1
 40
1.570796326794897
  9
$LOFTANG2
 40
1.570796326794897
  9
$LOFTMAG1
 40
0.0
  9
$LOFTMAG2
 40
0.0
  9
$LOFTPARAM
 70
     7
  9
$LOFTNORMALS
280
     1
  9
$LATITUDE
 40
37.795
  9
$LONGITUDE
 40
-122.394
  9
$NORTHDIRECTION
 40
0.0
  9
$TIMEZONE
 70
 -8000
  9
$LIGHTGLYPHDISPLAY
280
     1
  9
$TILEMODELIGHTSYNCH
280
     1
  9
$CMATERIAL
347
96
  9
$SOLIDHIST
280
     1
  9
$SHOWHIST
280
     1
  9
$DWFFRAME
280
     2
  9
$DGNFRAME
280
     0
  9
$REALWORLDSCALE
290
     1
  9
$INTERFERECOLOR
 62
     1
  9
$INTERFEREOBJVS
345
A3
  9
$INTERFEREVPVS
346
E3
  9
$CSHADOW
280
     0
  9
$SHADOWPLANELOCATION
 40
0.0
  0
ENDSEC
  0
SECTION
  2
CLASSES
  0
CLASS
  1
ACDBDICTIONARYWDFLT
  2
AcDbDictionaryWithDefault
  3
ObjectDBX Classes
 90
        0
 91
        1
280
     0
281
     0
  0
CLASS
  1
DICTIONARYVAR
  2
AcDbDictionaryVar
  3
ObjectDBX Classes
 90
        0
 91
        9
280
     0
281
     0
  0
CLASS
  1
TABLESTYLE
  2
AcDbTableStyle
  3
ObjectDBX Classes
 90
     4095
 91
        1
280
     0
281
     0
  0
CLASS
  1
MATERIAL
  2
AcDbMaterial
  3
ObjectDBX Classes
 90
     1153
 91
        3
280
     0
281
     0
  0
CLASS
  1
VISUALSTYLE
  2
AcDbVisualStyle
  3
ObjectDBX Classes
 90
     4095
 91
       26
280
     0
281
     0
  0
CLASS
  1
SCALE
  2
AcDbScale
  3
ObjectDBX Classes
 90
     1153
 91
       33
280
     0
281
     0
  0
CLASS
  1
CELLSTYLEMAP
  2
AcDbCellStyleMap
  3
ObjectDBX Classes
 90
     1152
 91
        1
280
     0
281
     0
  0
CLASS
  1
RASTERVARIABLES
  2
AcDbRasterVariables
  3
ISM
 90
        0
 91
        1
280
     0
281
     0
  0
CLASS
  1
SUN
  2
AcDbSun
  3
SCENEOE
 90
     1153
 91
        1
280
     0
281
     0
  0
CLASS
  1
MLEADERSTYLE
  2
AcDbMLeaderStyle
  3
ACDB_MLEADERSTYLE_CLASS
 90
     4095
 91
        1
280
     0
281
     0
  0
CLASS
  1
SORTENTSTABLE
  2
AcDbSortentsTable
  3
ObjectDBX Classes
 90
        0
 91
        1
280
     0
281
     0
  0
CLASS
  1
DIMASSOC
  2
AcDbDimAssoc
  3
"AcDbDimAssoc|Product Desc:     AcDim ARX App For Dimension|Company:          Autodesk, Inc.|WEB Address:      www.autodesk.com"
 90
        0
 91
        0
280
     0
281
     0
  0
CLASS
  1
ACDBSECTIONVIEWSTYLE
  2
AcDbSectionViewStyle
  3
ObjectDBX Classes
 90
     1025
 91
        1
280
     0
281
     0
  0
CLASS
  1
ACDBDETAILVIEWSTYLE
  2
AcDbDetailViewStyle
  3
ObjectDBX Classes
 90
     1025
 91
        1
280
     0
281
     0
  0
ENDSEC
  0
SECTION
  2
TABLES
  0
TABLE
  2
VPORT
  5
8
330
0
100
AcDbSymbolTable
 70
     1
1001
ACAD
1000
DbSaveVer
1071
        8
  0
VPORT
  5
94
330
8
100
AcDbSymbolTableRecord
100
AcDbViewportTableRecord
  2
*Active
 70
     0
 10
0.0
 20
0.0
 11
1.0
 21
1.0
 12
62.582903954344
 22
33.11368705476986
 13
0.0
 23
0.0
 14
0.5
 24
0.5
 15
0.5
 25
0.5
 16
0.0
 26
0.0
 36
1.0
 17
-27.66959356597967
 27
-19.53870295786205
 37
0.0
 40
38.42549403589453
 41
2.005224660397074
 42
50.0
 43
0.0
 44
0.0
 50
0.0
 51
0.0
 71
    16
 72
  1000
 73
     1
 74
     3
 75
     0
 76
     0
 77
     0
 78
     0
281
     0
 65
     1
110
0.0
120
0.0
130
0.0
111
1.0
121
0.0
131
0.0
112
0.0
122
1.0
132
0.0
 79
     0
146
0.0
348
9F
 60
     2
 61
     5
292
     1
282
     1
141
0.0
142
0.0
 63
   250
421
  3355443
361
ED
1001
ACAD_NAV_VCDISPLAY
1070
     3
  0
ENDTAB
  0
TABLE
  2
LTYPE
  5
5
330
0
100
AcDbSymbolTable
 70
     1
  0
LTYPE
  5
14
330
5
100
AcDbSymbolTableRecord
100
AcDbLinetypeTableRecord
  2
ByBlock
 70
     0
  3

 72
    65
 73
     0
 40
0.0
  0
LTYPE
  5
15
330
5
100
AcDbSymbolTableRecord
100
AcDbLinetypeTableRecord
  2
ByLayer
 70
     0
  3
Solid line
 72
    65
 73
     0
 40
0.0
  0
LTYPE
  5
16
330
5
100
AcDbSymbolTableRecord
100
AcDbLinetypeTableRecord
  2
Continuous
 70
     0
  3
Solid line
 72
    65
 73
     0
 40
0.0
  0
ENDTAB
  0
TABLE
  2
LAYER
  5
2
102
{ACAD_XDICTIONARY
360
293
102
}
330
0
100
AcDbSymbolTable
 70
     9
  0
LAYER
  5
10
330
2
100
AcDbSymbolTableRecord
100
AcDbLayerTableRecord
  2
0
 70
     1
 62
    -7
  6
Continuous
370
    -3
390
F
347
98
348
0
  0
LAYER
  5
12B
330
2
100
AcDbSymbolTableRecord
100
AcDbLayerTableRecord
  2
jongchulphotoconductivity_bottom
 70
     1
 62
   -73
  6
Continuous
370
    -3
390
F
347
98
348
0
1001
AcAecLayerStandard
1000

1000

1001
ACCMTRANSPARENCY
1071
 33554687
  0
LAYER
  5
132
330
2
100
AcDbSymbolTableRecord
100
AcDbLayerTableRecord
  2
encapsulation
 70
     1
 62
    -3
  6
Continuous
370
    -3
390
F
347
98
348
0
1001
AcAecLayerStandard
1000

1000

1001
ACCMTRANSPARENCY
1071
 33554687
  0
LAYER
  5
135
330
2
100
AcDbSymbolTableRecord
100
AcDbLayerTableRecord
  2
glassOutline
 70
     0
 62
     7
  6
Continuous
370
    -3
390
F
347
98
348
0
1001
AcAecLayerStandard
1000

1000

1001
ACCMTRANSPARENCY
1071
        0
  0
LAYER
  5
138
330
2
100
AcDbSymbolTableRecord
100
AcDbLayerTableRecord
  2
empty_layer2
 70
     1
 62
    -4
  6
Continuous
370
    -3
390
F
347
98
348
0
1001
AcAecLayerStandard
1000

1000

1001
ACCMTRANSPARENCY
1071
 33554687
  0
LAYER
  5
13C
330
2
100
AcDbSymbolTableRecord
100
AcDbLayerTableRecord
  2
empty_layer1
 70
     1
 62
    -2
  6
Continuous
370
    -3
390
F
347
98
348
0
1001
AcAecLayerStandard
1000

1000

1001
ACCMTRANSPARENCY
1071
 33554687
  0
LAYER
  5
13E
330
2
100
AcDbSymbolTableRecord
100
AcDbLayerTableRecord
  2
active-layer-mask
 70
     1
 62
    -3
  6
Continuous
370
    -3
390
F
347
98
348
0
1001
AcAecLayerStandard
1000

1000

1001
ACCMTRANSPARENCY
1071
 33554687
  0
LAYER
  5
759
330
2
100
AcDbSymbolTableRecord
100
AcDbLayerTableRecord
  2
Defpoints
 70
     1
 62
    -7
  6
Continuous
290
     0
370
    -3
390
F
347
98
348
0
  0
LAYER
  5
1756
330
2
100
AcDbSymbolTableRecord
100
AcDbLayerTableRecord
  2
jongchulphotoconductivity_top
 70
     0
 62
     4
  6
Continuous
370
    -3
390
F
347
98
348
0
1001
AcAecLayerStandard
1000

1000

1001
ACCMTRANSPARENCY
1071
 33554687
  0
ENDTAB
  0
TABLE
  2
STYLE
  5
3
330
0
100
AcDbSymbolTable
 70
     2
  0
STYLE
  5
11
330
3
100
AcDbSymbolTableRecord
100
AcDbTextStyleTableRecord
  2
Standard
 70
     0
 40
0.0
 41
1.0
 50
0.0
 71
     0
 42
0.2
  3
arial.ttf
  4

1001
ACAD
1000
Arial
1071
        0
  0
STYLE
  5
125
330
3
100
AcDbSymbolTableRecord
100
AcDbTextStyleTableRecord
  2
Annotative
 70
     0
 40
0.0
 41
1.0
 50
0.0
 71
     0
 42
0.2
  3
arial.ttf
  4

1001
ACAD
1000
Arial
1071
        0
1001
AcadAnnotative
1000
AnnotativeData
1002
{
1070
     1
1070
     1
1002
}
  0
ENDTAB
  0
TABLE
  2
VIEW
  5
6
330
0
100
AcDbSymbolTable
 70
     0
  0
ENDTAB
  0
TABLE
  2
UCS
  5
7
330
0
100
AcDbSymbolTable
 70
     0
  0
ENDTAB
  0
TABLE
  2
APPID
  5
9
330
0
100
AcDbSymbolTable
 70
    13
  0
APPID
  5
12
330
9
100
AcDbSymbolTableRecord
100
AcDbRegAppTableRecord
  2
ACAD
 70
     0
  0
APPID
  5
126
330
9
100
AcDbSymbolTableRecord
100
AcDbRegAppTableRecord
  2
AcadAnnotative
 70
     0
  0
APPID
  5
12F
330
9
100
AcDbSymbolTableRecord
100
AcDbRegAppTableRecord
  2
AcAecLayerStandard
 70
     0
  0
APPID
  5
130
330
9
100
AcDbSymbolTableRecord
100
AcDbRegAppTableRecord
  2
ACCMTRANSPARENCY
 70
     0
  0
APPID
  5
141
330
9
100
AcDbSymbolTableRecord
100
AcDbRegAppTableRecord
  2
ACAD_DSTYLE_DIMJAG
 70
     0
  0
APPID
  5
142
330
9
100
AcDbSymbolTableRecord
100
AcDbRegAppTableRecord
  2
ACAD_DSTYLE_DIMBREAK
 70
     0
  0
APPID
  5
143
330
9
100
AcDbSymbolTableRecord
100
AcDbRegAppTableRecord
  2
ACAD_PSEXT
 70
     0
  0
APPID
  5
144
330
9
100
AcDbSymbolTableRecord
100
AcDbRegAppTableRecord
  2
ACAD_NAV_VCDISPLAY
 70
     0
  0
APPID
  5
145
330
9
100
AcDbSymbolTableRecord
100
AcDbRegAppTableRecord
  2
GENIUS_GENREC_14
 70
     0
  0
APPID
  5
146
330
9
100
AcDbSymbolTableRecord
100
AcDbRegAppTableRecord
  2
GENIUS_GENOBJ-N-REC_13
 70
     0
  0
APPID
  5
147
330
9
100
AcDbSymbolTableRecord
100
AcDbRegAppTableRecord
  2
GENIUS_GENODEF_13
 70
     0
  0
APPID
  5
148
330
9
100
AcDbSymbolTableRecord
100
AcDbRegAppTableRecord
  2
GENIUS_GENOBJ-N-FIL_13
 70
     0
  0
APPID
  5
145F
330
9
100
AcDbSymbolTableRecord
100
AcDbRegAppTableRecord
  2
ACAD_EXEMPT_FROM_CAD_STANDARDS
 70
     0
  0
ENDTAB
  0
TABLE
  2
DIMSTYLE
  5
A
330
0
100
AcDbSymbolTable
 70
     3
100
AcDbDimStyleTable
 71
     1
340
27
  0
DIMSTYLE
105
27
330
A
100
AcDbSymbolTableRecord
100
AcDbDimStyleTableRecord
  2
Standard
 70
     0
 40
10.0
340
11
  0
DIMSTYLE
105
127
330
A
100
AcDbSymbolTableRecord
100
AcDbDimStyleTableRecord
  2
Annotative
 70
     0
 40
0.0
340
11
1001
AcadAnnotative
1000
AnnotativeData
1002
{
1070
     1
1070
     1
1002
}
  0
DIMSTYLE
105
13F
330
A
100
AcDbSymbolTableRecord
100
AcDbDimStyleTableRecord
  2
AM_ISO
 70
     0
  4
"
 41
3.5
 42
1.0
 43
10.0
 44
1.0
 47
0.1
 48
0.1
 73
     0
 74
     0
 77
     1
 78
     8
 79
     2
 90
     1
140
3.5
141
0.0
143
0.0393701
146
0.71
147
1.5
172
     1
176
   256
177
   256
178
     2
272
     3
274
     4
283
     0
284
     8
340
11
345
14
346
14
347
14
371
    -1
372
    -1
1001
ACAD_DSTYLE_DIMJAG
1070
   388
1040
1.5
1001
ACAD_DSTYLE_DIMBREAK
1070
   391
1040
3.75
  0
ENDTAB
  0
TABLE
  2
BLOCK_RECORD
  5
1
330
0
100
AcDbSymbolTable
 70
    20
  0
BLOCK_RECORD
  5
1F
102
{ACAD_XDICTIONARY
360
6D9
102
}
330
1
100
AcDbSymbolTableRecord
100
AcDbBlockTableRecord
  2
*Model_Space
340
22
 70
     0
280
     1
281
     0
  0
BLOCK_RECORD
  5
58
330
1
100
AcDbSymbolTableRecord
100
AcDbBlockTableRecord
  2
*Paper_Space
340
59
 70
     0
280
     1
281
     0
  0
BLOCK_RECORD
  5
5D
330
1
100
AcDbSymbolTableRecord
100
AcDbBlockTableRecord
  2
*Paper_Space0
340
5E
 70
     0
280
     1
281
     0
  0
ENDTAB
  0
ENDSEC
  0
SECTION
  2
BLOCKS
  0
BLOCK
  5
20
330
1F
100
AcDbEntity
  8
0
100
AcDbBlockBegin
  2
*Model_Space
 70
     0
 10
0.0
 20
0.0
 30
0.0
  3
*Model_Space
  1

  0
ENDBLK
  5
21
330
1F
100
AcDbEntity
  8
0
100
AcDbBlockEnd
  0
BLOCK
  5
5A
330
58
100
AcDbEntity
 67
     1
  8
0
100
AcDbBlockBegin
  2
*Paper_Space
 70
     0
 10
0.0
 20
0.0
 30
0.0
  3
*Paper_Space
  1

  0
ENDBLK
  5
5B
330
58
100
AcDbEntity
 67
     1
  8
0
100
AcDbBlockEnd
  0
BLOCK
  5
5F
330
5D
100
AcDbEntity
 67
     1
  8
0
100
AcDbBlockBegin
  2
*Paper_Space0
 70
     0
 10
0.0
 20
0.0
 30
0.0
  3
*Paper_Space0
  1

  0
ENDBLK
  5
60
330
5D
100
AcDbEntity
 67
     1
  8
0
100
AcDbBlockEnd
  0
ENDSEC
  0
SECTION
  2
ENTITIES
  0
LWPOLYLINE
  5
2A8
330
1F
100
AcDbEntity
  8
encapsulation
100
AcDbPolyline
 90
        4
 70
     1
 43
0.0
 10
4.0
 20
4.000032910664231
 10
26.0
 20
4.000032910664231
 10
26.0
 20
26.00003291066423
 10
4.0
 20
26.00003291066423
  0
LWPOLYLINE
  5
2AA
330
1F
100
AcDbEntity
  8
glassOutline
100
AcDbPolyline
 90
        4
 70
     1
 43
0.0
 10
0.0
 20
0.0
 10
30.0
 20
0.0
 10
30.0
 20
29.99999999999909
 10
0.0
 20
29.99999999999909
  0
LWPOLYLINE
  5
5A3
330
1F
100
AcDbEntity
  8
active-layer-mask
100
AcDbPolyline
 90
        8
 70
     1
 43
0.0
 10
24.89997610328149
 20
12.0470028123802
 10
5.099976852158686
 20
12.0470028123802
 42
0.414213784053636
 10
4.59997685215883
 20
11.54700243394787
 10
4.599981241966871
 20
5.747011585652039
 42
0.4142133406925887
 10
5.099981241966731
 20
5.247011964084365
 10
24.89998064648979
 20
5.247011964084367
 42
0.4142137918001833
 10
25.39998064648964
 20
5.747012355740872
 10
25.39997610328132
 20
11.5470032040367
 42
0.4142133329460442
  0
LWPOLYLINE
  5
5CA
330
1F
100
AcDbEntity
  8
active-layer-mask
100
AcDbPolyline
 90
        8
 70
     1
 43
0.0
 10
24.89997610328149
 20
17.95306300894826
 10
5.099976852158686
 20
17.95306300894826
 42
-0.414213784053636
 10
4.59997685215883
 20
18.45306338738059
 10
4.599981241966871
 20
24.25305423567643
 42
-0.4142133406925887
 10
5.099981241966731
 20
24.7530538572441
 10
24.89998064648979
 20
24.7530538572441
 42
-0.4142137918001833
 10
25.39998064648964
 20
24.25305346558759
 10
25.39997610328132
 20
18.45306261729176
 42
-0.4142133329460442
  0
LINE
  5
7A8
330
1F
100
AcDbEntity
  8
jongchulphotoconductivity_top
100
AcDbLine
 10
7.014878854670136
 20
1.24998128000676
 30
0.0
 11
7.014878854670655
 21
3.563122481125303
 31
0.0
  0
LINE
  5
7A9
330
1F
100
AcDbEntity
  8
jongchulphotoconductivity_top
100
AcDbLine
 10
1.249808368120623
 20
0.7499783736401274
 30
0.0
 11
6.514878854670136
 21
0.7499812800068721
 31
0.0
  0
LINE
  5
7AD
330
1F
100
AcDbEntity
  8
jongchulphotoconductivity_top
100
AcDbLine
 10
3.999964187758241
 20
16.25003292040196
 30
0.0
 11
25.9999655371689
 21
16.25003292040196
 31
0.0
  0
LINE
  5
7B4
330
1F
100
AcDbEntity
  8
jongchulphotoconductivity_top
100
AcDbLine
 10
3.499986277100008
 20
13.25002801241852
 30
0.0
 11
3.500067937048656
 21
4.930934267761305
 31
0.0
  0
LINE
  5
7B6
330
1F
100
AcDbEntity
  8
jongchulphotoconductivity_top
100
AcDbLine
 10
0.7498080921165121
 20
1.249977716144412
 30
0.0
 11
0.7498077257182448
 21
1.528609425743218
 31
0.0
  0
LINE
  5
7BE
330
1F
100
AcDbEntity
  8
jongchulphotoconductivity_top
100
AcDbLine
 10
3.92964852114474
 20
4.435922907459405
 30
0.0
 11
6.585298270550481
 21
4.058138749410751
 31
0.0
  0
ARC
  5
7C5
330
1F
100
AcDbEntity
  8
jongchulphotoconductivity_top
100
AcDbCircle
 10
4.000067937024568
 20
4.930939175744743
 30
0.0
 40
0.5
100
AcDbArc
 50
180.0005624134739
 51
261.9036112781499
  0
ARC
  5
7C6
330
1F
100
AcDbEntity
  8
jongchulphotoconductivity_top
100
AcDbCircle
 10
6.514878854670655
 20
3.563122481125413
 30
0.0
 40
0.5000000000000002
100
AcDbArc
 50
0.0
 51
81.90361127814984
  0
ARC
  5
7E2
330
1F
100
AcDbEntity
  8
jongchulphotoconductivity_top
100
AcDbCircle
 10
6.514878854670136
 20
1.249981280006872
 30
0.0
 40
0.5000000000000001
100
AcDbArc
 50
270.0000000000001
 51
359.9999999999872
  0
LINE
  5
7EC
330
1F
100
AcDbEntity
  8
jongchulphotoconductivity_top
100
AcDbLine
 10
28.75013796104733
 20
0.7499812800068728
 30
0.0
 11
23.48507296022098
 21
0.749981280006872
 31
0.0
  0
ARC
  5
7ED
330
1F
100
AcDbEntity
  8
jongchulphotoconductivity_top
100
AcDbCircle
 10
23.48507296022098
 20
1.249981280006872
 30
0.0
 40
0.5000000000000001
100
AcDbArc
 50
180.0000000000128
 51
270.0
  0
LINE
  5
7EE
330
1F
100
AcDbEntity
  8
jongchulphotoconductivity_top
100
AcDbLine
 10
22.98507296022098
 20
1.24998128000676
 30
0.0
 11
22.98507296022046
 21
3.563122481125303
 31
0.0
  0
ARC
  5
7EF
330
1F
100
AcDbEntity
  8
jongchulphotoconductivity_top
100
AcDbCircle
 10
23.48507296022046
 20
3.563122481125413
 30
0.0
 40
0.5000000000000002
100
AcDbArc
 50
98.09638872184999
 51
180.0
  0
LINE
  5
7F0
330
1F
100
AcDbEntity
  8
jongchulphotoconductivity_top
100
AcDbLine
 10
26.07030329374638
 20
4.435922907459405
 30
0.0
 11
23.41465354434064
 21
4.058138749410751
 31
0.0
  0
ARC
  5
7F1
330
1F
100
AcDbEntity
  8
jongchulphotoconductivity_top
100
AcDbCircle
 10
25.99988387786655
 20
4.930939175744743
 30
0.0
 40
0.5
100
AcDbArc
 50
278.09638872185
 51
359.9994375865261
  0
LINE
  5
7F2
330
1F
100
AcDbEntity
  8
jongchulphotoconductivity_top
100
AcDbLine
 10
26.49996553779111
 20
13.25002801241852
 30
0.0
 11
26.49988387784246
 21
4.930934267761305
 31
0.0
  0
LINE
  5
7F3
330
1F
100
AcDbEntity
  8
jongchulphotoconductivity_top
100
AcDbLine
 10
29.25013796104671
 20
1.24998049303418
 30
0.0
 11
29.25013796104671
 21
28.75001950696491
 31
0.0
  0
ARC
  5
80D
330
1F
100
AcDbEntity
  8
jongchulphotoconductivity_top
100
AcDbCircle
 10
1.24980809211608
 20
1.24997837364005
 30
0.0
 40
0.5
100
AcDbArc
 50
180.0000753434502
 51
270.0000316277909
  0
LINE
  5
80F
330
1F
100
AcDbEntity
  8
jongchulphotoconductivity_top
100
AcDbLine
 10
0.7498050657796519
 20
3.551389837341573
 30
0.0
 11
0.7497917638804358
 21
28.75001950696491
 31
0.0
  0
ARC
  5
812
330
1F
100
AcDbEntity
  8
jongchulphotoconductivity_top
100
AcDbCircle
 10
28.75013796104733
 20
1.249981280006873
 30
0.0
 40
0.5
100
AcDbArc
 50
270.0
 51
359.9999098195724
  0
LINE
  5
813
330
1F
100
AcDbEntity
  8
jongchulphotoconductivity_top
100
AcDbLine
 10
26.49996553714481
 20
16.7500378283854
 30
0.0
 11
26.49988387784246
 21
25.06906573223779
 31
0.0
  0
ARC
  5
814
330
1F
100
AcDbEntity
  8
jongchulphotoconductivity_top
100
AcDbCircle
 10
25.99988387786655
 20
25.06906082425435
 30
0.0
 40
0.5
100
AcDbArc
 50
0.0005624134738818
 51
81.90361127815
  0
LINE
  5
815
330
1F
100
AcDbEntity
  8
jongchulphotoconductivity_top
100
AcDbLine
 10
26.07030329374638
 20
25.56407709253968
 30
0.0
 11
23.41465354434064
 21
25.94186125058834
 31
0.0
  0
ARC
  5
816
330
1F
100
AcDbEntity
  8
jongchulphotoconductivity_top
100
AcDbCircle
 10
23.48507296022046
 20
26.43687751887368
 30
0.0
 40
0.5000000000000002
100
AcDbArc
 50
180.0
 51
261.90361127815
  0
LINE
  5
817
330
1F
100
AcDbEntity
  8
jongchulphotoconductivity_top
100
AcDbLine
 10
22.98507296022098
 20
28.75001871999233
 30
0.0
 11
22.98507296022046
 21
26.43687751887379
 31
0.0
  0
ARC
  5
818
330
1F
100
AcDbEntity
  8
jongchulphotoconductivity_top
100
AcDbCircle
 10
23.48507296022098
 20
28.75001871999222
 30
0.0
 40
0.5000000000000001
100
AcDbArc
 50
90.0
 51
179.9999999999874
  0
LINE
  5
819
330
1F
100
AcDbEntity
  8
jongchulphotoconductivity_top
100
AcDbLine
 10
28.75013796104733
 20
29.25001871999222
 30
0.0
 11
23.48507296022098
 21
29.25001871999222
 31
0.0
  0
ARC
  5
81A
330
1F
100
AcDbEntity
  8
jongchulphotoconductivity_top
100
AcDbCircle
 10
28.75013796104733
 20
28.75001871999222
 30
0.0
 40
0.5
100
AcDbArc
 50
0.0000901804276252
 51
90.0
  0
ARC
  5
81B
330
1F
100
AcDbEntity
  8
jongchulphotoconductivity_top
100
AcDbCircle
 10
1.249791763879813
 20
28.75001871999222
 30
0.0
 40
0.5
100
AcDbArc
 50
90.0
 51
179.9999098195724
  0
LINE
  5
81C
330
1F
100
AcDbEntity
  8
jongchulphotoconductivity_top
100
AcDbLine
 10
1.249791763879813
 20
29.25001871999222
 30
0.0
 11
6.514856764706168
 21
29.25001871999222
 31
0.0
  0
ARC
  5
81D
330
1F
100
AcDbEntity
  8
jongchulphotoconductivity_top
100
AcDbCircle
 10
6.514856764706168
 20
28.75001871999222
 30
0.0
 40
0.5000000000000001
100
AcDbArc
 50
0.0000000000126204
 51
90.0
  0
LINE
  5
81E
330
1F
100
AcDbEntity
  8
jongchulphotoconductivity_top
100
AcDbLine
 10
7.014856764706168
 20
28.75001871999233
 30
0.0
 11
7.014856764706686
 21
26.43687751887379
 31
0.0
  0
ARC
  5
81F
330
1F
100
AcDbEntity
  8
jongchulphotoconductivity_top
100
AcDbCircle
 10
6.514856764706686
 20
26.43687751887368
 30
0.0
 40
0.5000000000000002
100
AcDbArc
 50
278.09638872185
 51
0.0
  0
LINE
  5
820
330
1F
100
AcDbEntity
  8
jongchulphotoconductivity_top
100
AcDbLine
 10
3.929626431180772
 20
25.56407709253968
 30
0.0
 11
6.585276180586513
 21
25.94186125058834
 31
0.0
  0
ARC
  5
821
330
1F
100
AcDbEntity
  8
jongchulphotoconductivity_top
100
AcDbCircle
 10
4.000045847060595
 20
25.06906082425435
 30
0.0
 40
0.5
100
AcDbArc
 50
98.09638872184999
 51
179.9994375865261
  0
LINE
  5
822
330
1F
100
AcDbEntity
  8
jongchulphotoconductivity_top
100
AcDbLine
 10
3.499964187782328
 20
16.7500378283854
 30
0.0
 11
3.500045847084685
 21
25.06906573223779
 31
0.0
  0
ARC
  5
969
330
1F
100
AcDbEntity
  8
jongchulphotoconductivity_top
100
AcDbCircle
 10
3.999986277075922
 20
13.25003292040196
 30
0.0
 40
0.5000000000000001
100
AcDbArc
 50
90.0
 51
180.0005624134739
  0
ARC
  5
96A
330
1F
100
AcDbEntity
  8
jongchulphotoconductivity_top
100
AcDbCircle
 10
25.9999655378152
 20
13.25003292040196
 30
0.0
 40
0.5
100
AcDbArc
 50
359.9994375865261
 51
90.0
  0
ARC
  5
96B
330
1F
100
AcDbEntity
  8
jongchulphotoconductivity_top
100
AcDbCircle
 10
25.9999655371689
 20
16.75003292040196
 30
0.0
 40
0.5000000000000001
100
AcDbArc
 50
270.0
 51
0.0005624134738727
  0
ARC
  5
96C
330
1F
100
AcDbEntity
  8
jongchulphotoconductivity_top
100
AcDbCircle
 10
3.999964187758241
 20
16.75003292040196
 30
0.0
 40
0.5000000000000001
100
AcDbArc
 50
179.9994375865261
 51
270.0
  0
LWPOLYLINE
  5
1082
330
1F
100
AcDbEntity
  8
jongchulphotoconductivity_top
100
AcDbPolyline
 90
        5
 70
     0
 43
0.0
 10
7.747610124442782
 20
1.24998128000676
 42
0.4142135623730284
 10
8.247610124442783
 20
0.7499812800068721
 10
11.59261012444207
 20
0.7499812800068684
 42
0.4142135623730673
 10
12.09261012444207
 20
1.249981280006819
 10
12.09261012444229
 20
3.497021431146801
  0
LWPOLYLINE
  5
10EF
330
1F
100
AcDbEntity
  8
jongchulphotoconductivity_top
100
AcDbPolyline
 90
        3
 70
     0
 43
0.0
 10
13.40503603280032
 20
0.7499812800068673
 10
16.75001102220693
 20
0.7499812800068675
 42
0.4142144401584364
 10
17.25001102220469
 20
1.249982778479711
  0
LWPOLYLINE
  5
1166
330
1F
100
AcDbEntity
  8
jongchulphotoconductivity_top
100
AcDbPolyline
 90
        5
 70
     0
 43
0.0
 10
22.25236486496409
 20
1.249981280006728
 42
-0.4142135623730283
 10
21.75236486496409
 20
0.7499812800068419
 10
18.4073648649648
 20
0.7499812800068532
 42
-0.4142135623730673
 10
17.9073648649648
 20
1.249981280006803
 10
17.9073648649646
 20
3.497021431146788
  0
LWPOLYLINE
  5
11DC
330
1F
100
AcDbEntity
  8
jongchulphotoconductivity_top
100
AcDbPolyline
 90
       12
 70
     0
 43
0.0
 10
7.747610124442338
 20
23.57119634024785
 10
7.747610124442338
 20
25.06353256324148
 10
7.747610124442172
 20
26.0029730492008
 10
7.747610124442782
 20
28.75001871999233
 42
-0.4142135623730291
 10
8.247610124442783
 20
29.25001871999222
 10
11.59261012444207
 20
29.25001871999222
 42
-0.4142135623730673
 10
12.09261012444207
 20
28.75001871999227
 10
12.09261012444225
 20
26.85911650801194
 42
-0.1630795549875208
 10
11.99167070862102
 20
26.55786802228141
 10
8.848549540263578
 20
22.39420968372446
 42
0.1630795549874955
 10
8.747610124442337
 20
22.09296119799398
 10
8.747610124442337
 20
19.26049341722784
  0
LINE
  5
146B
330
1F
100
AcDbEntity
  8
jongchulphotoconductivity_top
100
AcDbLine
 10
8.797610124442336
 20
7.639363672834745
 30
0.0
 11
8.797610124442336
 21
10.83936367283474
 31
0.0
  0
LINE
  5
146D
330
1F
100
AcDbEntity
  8
jongchulphotoconductivity_top
100
AcDbLine
 10
8.497610124442335
 20
10.83936367283474
 30
0.0
 11
8.497610124442335
 21
7.639363672834742
 31
0.0
  0
LINE
  5
146F
330
1F
100
AcDbEntity
  8
jongchulphotoconductivity_top
100
AcDbLine
 10
7.197610124442332
 20
7.639363672834744
 30
0.0
 11
7.197610124442332
 21
10.83936367283474
 31
0.0
  0
LINE
  5
1470
330
1F
100
AcDbEntity
  8
jongchulphotoconductivity_top
100
AcDbLine
 10
7.047610124442334
 20
10.98936367283474
 30
0.0
 11
7.047610124442335
 21
10.98936367283474
 31
0.0
  0
LINE
  5
1475
330
1F
100
AcDbEntity
  8
jongchulphotoconductivity_top
100
AcDbLine
 10
7.697610124442332
 20
10.98936367283474
 30
0.0
 11
7.697610124442332
 21
7.639363672834744
 31
0.0
  0
LINE
  5
1477
330
1F
100
AcDbEntity
  8
jongchulphotoconductivity_top
100
AcDbLine
 10
7.997610124442335
 20
7.639363672834744
 30
0.0
 11
7.997610124442335
 21
10.83936367283474
 31
0.0
  0
LINE
  5
1479
330
1F
100
AcDbEntity
  8
jongchulphotoconductivity_top
100
AcDbLine
 10
9.297610124442336
 20
10.98936367283474
 30
0.0
 11
9.297610124442336
 21
7.639363672834744
 31
0.0
  0
LINE
  5
147D
330
1F
100
AcDbEntity
  8
jongchulphotoconductivity_top
100
AcDbLine
 10
9.597610124442335
 20
7.639363672834744
 30
0.0
 11
9.597610124442335
 21
10.98936367283474
 31
0.0
  0
ARC
  5
1510
330
1F
100
AcDbEntity
  8
jongchulphotoconductivity_top
100
AcDbCircle
 10
5.447610124442335
 20
13.10003292040196
 30
0.0
 40
0.65
100
AcDbArc
 50
0.0
 51
90.0
  0
LINE
  5
1550
330
1F
100
AcDbEntity
  8
jongchulphotoconductivity_top
100
AcDbLine
 10
23.15236486496457
 20
7.189363672834745
 30
0.0
 11
23.15236486496457
 21
7.189363672834745
 31
0.0
  0
LINE
  5
1555
330
1F
100
AcDbEntity
  8
jongchulphotoconductivity_top
100
AcDbLine
 10
22.35236486496457
 20
7.189363672834745
 30
0.0
 11
22.35236486496457
 21
7.189363672834745
 31
0.0
  0
LINE
  5
1559
330
1F
100
AcDbEntity
  8
jongchulphotoconductivity_top
100
AcDbLine
 10
21.55236486496457
 20
7.189363672834745
 30
0.0
 11
21.55236486496457
 21
7.189363672834745
 31
0.0
  0
LINE
  5
155E
330
1F
100
AcDbEntity
  8
jongchulphotoconductivity_top
100
AcDbLine
 10
20.75236486496457
 20
7.189363672834745
 30
0.0
 11
20.75236486496457
 21
7.189363672834745
 31
0.0
  0
ARC
  5
15B1
330
1F
100
AcDbEntity
  8
jongchulphotoconductivity_top
100
AcDbCircle
 10
19.35236486496457
 20
13.30003292040196
 30
0.0
 40
0.45
100
AcDbArc
 50
0.0
 51
90.0
  0
LINE
  5
15B7
330
1F
100
AcDbEntity
  8
jongchulphotoconductivity_top
100
AcDbLine
 10
0.7498077257182448
 20
1.528609425743218
 30
0.0
 11
0.7498050657796519
 21
3.551389837341573
 31
0.0
  0
LINE
  5
15C5
330
1F
100
AcDbEntity
  8
jongchulphotoconductivity_top
100
AcDbLine
 10
10.09761012444233
 20
7.639363672834745
 30
0.0
 11
10.09761012444233
 21
10.83936367283474
 31
0.0
  0
LINE
  5
15C8
330
1F
100
AcDbEntity
  8
jongchulphotoconductivity_top
100
AcDbLine
 10
6.397610124442335
 20
10.83936367283474
 30
0.0
 11
6.397610124442334
 21
7.639363672834745
 31
0.0
  0
LINE
  5
15CA
330
1F
100
AcDbEntity
  8
jongchulphotoconductivity_top
100
AcDbLine
 10
6.097610124442335
 20
7.639363672834745
 30
0.0
 11
6.097610124442335
 21
13.10003292040196
 31
0.0
  0
LINE
  5
15DC
330
1F
100
AcDbEntity
  8
jongchulphotoconductivity_top
100
AcDbLine
 10
19.95236486496457
 20
7.289363672834745
 30
0.0
 11
19.95236486496455
 21
7.289363672834745
 31
0.0
  0
LINE
  5
15F9
330
1F
100
AcDbEntity
  8
jongchulphotoconductivity_top
100
AcDbLine
 10
3.499985186055245
 20
18.88923340414385
 30
0.0
 11
3.499985186055245
 21
20.69993340414385
 31
0.0
  0
LINE
  5
15FB
330
1F
100
AcDbEntity
  8
jongchulphotoconductivity_top
100
AcDbLine
 10
26.49992676510067
 20
20.69993340414385
 30
0.0
 11
26.49992676510067
 21
21.69993340414385
 31
0.0
  0
LINE
  5
1603
330
1F
100
AcDbEntity
  8
jongchulphotoconductivity_top
100
AcDbLine
 10
22.25236486496457
 20
19.26049634024786
 30
0.0
 11
21.25236486496457
 21
19.26049634024786
 31
0.0
  0
LINE
  5
1609
330
1F
100
AcDbEntity
  8
jongchulphotoconductivity_top
100
AcDbLine
 10
14.5
 20
19.26049341722784
 30
0.0
 11
15.5
 21
19.26049341722784
 31
0.0
  0
LINE
  5
160C
330
1F
100
AcDbEntity
  8
jongchulphotoconductivity_top
100
AcDbLine
 10
7.747610124442338
 20
23.57119634024785
 30
0.0
 11
7.747610124442338
 21
21.26049341722785
 31
0.0
  0
LINE
  5
160D
330
1F
100
AcDbEntity
  8
jongchulphotoconductivity_top
100
AcDbLine
 10
7.747610124442338
 20
21.26049341722785
 30
0.0
 11
7.747610124442338
 21
19.26049341722784
 31
0.0
  0
LINE
  5
160E
330
1F
100
AcDbEntity
  8
jongchulphotoconductivity_top
100
AcDbLine
 10
7.747610124442338
 20
19.26049341722784
 30
0.0
 11
8.747610124442337
 21
19.26049341722784
 31
0.0
  0
LINE
  5
166A
330
1F
100
AcDbEntity
  8
jongchulphotoconductivity_top
100
AcDbLine
 10
7.997610124442335
 20
10.83936367283474
 30
0.0
 11
7.997610124442335
 21
10.98936367283474
 31
0.0
  0
LINE
  5
166B
330
1F
100
AcDbEntity
  8
jongchulphotoconductivity_top
100
AcDbLine
 10
8.497610124442335
 20
7.639363672834742
 30
0.0
 11
8.497610124442335
 21
7.489363672834745
 31
0.0
  0
LINE
  5
166C
330
1F
100
AcDbEntity
  8
jongchulphotoconductivity_top
100
AcDbLine
 10
7.197610124442332
 20
7.639363672834744
 30
0.0
 11
7.197610124442332
 21
7.489363672834745
 31
0.0
  0
LINE
  5
166E
330
1F
100
AcDbEntity
  8
jongchulphotoconductivity_top
100
AcDbLine
 10
6.397610124442335
 20
10.83936367283474
 30
0.0
 11
6.397610124442335
 21
10.98936367283474
 31
0.0
  0
LINE
  5
166F
330
1F
100
AcDbEntity
  8
jongchulphotoconductivity_top
100
AcDbLine
 10
8.797610124442336
 20
7.639363672834745
 30
0.0
 11
8.797610124442336
 21
7.489363672834745
 31
0.0
  0
LINE
  5
1670
330
1F
100
AcDbEntity
  8
jongchulphotoconductivity_top
100
AcDbLine
 10
10.09761012444233
 20
7.639363672834745
 30
0.0
 11
10.09761012444233
 21
7.489363672834745
 31
0.0
  0
LINE
  5
1673
330
1F
100
AcDbEntity
  8
jongchulphotoconductivity_top
100
AcDbLine
 10
10.39761012444234
 20
10.83936367283474
 30
0.0
 11
10.39761012444234
 21
10.98936367283474
 31
0.0
  0
LINE
  5
1674
330
1F
100
AcDbEntity
  8
jongchulphotoconductivity_top
100
AcDbLine
 10
10.09761012444233
 20
10.83936367283474
 30
0.0
 11
10.09761012444233
 21
10.98936367283474
 31
0.0
  0
LINE
  5
1675
330
1F
100
AcDbEntity
  8
jongchulphotoconductivity_top
100
AcDbLine
 10
8.497610124442335
 20
10.83936367283474
 30
0.0
 11
8.497610124442335
 21
10.98936367283474
 31
0.0
  0
LINE
  5
1676
330
1F
100
AcDbEntity
  8
jongchulphotoconductivity_top
100
AcDbLine
 10
8.797610124442336
 20
10.83936367283474
 30
0.0
 11
8.797610124442336
 21
10.98936367283474
 31
0.0
  0
LINE
  5
1677
330
1F
100
AcDbEntity
  8
jongchulphotoconductivity_top
100
AcDbLine
 10
7.197610124442332
 20
10.83936367283474
 30
0.0
 11
7.197610124442332
 21
10.98936367283474
 31
0.0
  0
LINE
  5
1679
330
1F
100
AcDbEntity
  8
jongchulphotoconductivity_top
100
AcDbLine
 10
6.897610124442335
 20
10.98936367283474
 30
0.0
 11
7.197610124442332
 21
10.98936367283474
 31
0.0
  0
LINE
  5
167A
330
1F
100
AcDbEntity
  8
jongchulphotoconductivity_top
100
AcDbLine
 10
8.497610124442335
 20
10.98936367283474
 30
0.0
 11
8.797610124442336
 21
10.98936367283474
 31
0.0
  0
LINE
  5
167B
330
1F
100
AcDbEntity
  8
jongchulphotoconductivity_top
100
AcDbLine
 10
10.09761012444233
 20
10.98936367283474
 30
0.0
 11
10.39761012444234
 21
10.98936367283474
 31
0.0
  0
LINE
  5
167C
330
1F
100
AcDbEntity
  8
jongchulphotoconductivity_top
100
AcDbLine
 10
9.597610124442335
 20
7.639363672834744
 30
0.0
 11
9.597610124442335
 21
7.489363672834745
 31
0.0
  0
LINE
  5
167D
330
1F
100
AcDbEntity
  8
jongchulphotoconductivity_top
100
AcDbLine
 10
9.297610124442336
 20
7.639363672834744
 30
0.0
 11
9.297610124442336
 21
7.489363672834745
 31
0.0
  0
LINE
  5
167E
330
1F
100
AcDbEntity
  8
jongchulphotoconductivity_top
100
AcDbLine
 10
7.697610124442332
 20
7.639363672834744
 30
0.0
 11
7.697610124442332
 21
7.489363672834745
 31
0.0
  0
LINE
  5
167F
330
1F
100
AcDbEntity
  8
jongchulphotoconductivity_top
100
AcDbLine
 10
7.997610124442335
 20
7.639363672834744
 30
0.0
 11
7.997610124442335
 21
7.489363672834745
 31
0.0
  0
LINE
  5
1680
330
1F
100
AcDbEntity
  8
jongchulphotoconductivity_top
100
AcDbLine
 10
6.397610124442334
 20
7.639363672834745
 30
0.0
 11
6.397610124442334
 21
7.489363672834745
 31
0.0
  0
LINE
  5
1681
330
1F
100
AcDbEntity
  8
jongchulphotoconductivity_top
100
AcDbLine
 10
6.097610124442335
 20
7.639363672834745
 30
0.0
 11
6.097610124442335
 21
7.489363672834745
 31
0.0
  0
LINE
  5
1682
330
1F
100
AcDbEntity
  8
jongchulphotoconductivity_top
100
AcDbLine
 10
6.097610124442335
 20
7.489363672834745
 30
0.0
 11
6.397610124442334
 21
7.489363672834745
 31
0.0
  0
LINE
  5
1683
330
1F
100
AcDbEntity
  8
jongchulphotoconductivity_top
100
AcDbLine
 10
7.697610124442332
 20
7.489363672834745
 30
0.0
 11
7.997610124442335
 21
7.489363672834745
 31
0.0
  0
LINE
  5
168B
330
1F
100
AcDbEntity
  8
jongchulphotoconductivity_top
100
AcDbLine
 10
9.297610124442336
 20
7.489363672834745
 30
0.0
 11
9.597610124442331
 21
7.489363672834744
 31
0.0
  0
LINE
  5
168C
330
1F
100
AcDbEntity
  8
jongchulphotoconductivity_top
100
AcDbLine
 10
6.897610124442335
 20
11.48936367283474
 30
0.0
 11
7.197610124442332
 21
11.48936367283474
 31
0.0
  0
LINE
  5
168D
330
1F
100
AcDbEntity
  8
jongchulphotoconductivity_top
100
AcDbLine
 10
8.497610124442335
 20
11.48936367283474
 30
0.0
 11
8.797610124442336
 21
11.48936367283474
 31
0.0
  0
LINE
  5
168E
330
1F
100
AcDbEntity
  8
jongchulphotoconductivity_top
100
AcDbLine
 10
7.697610124442332
 20
6.989363672834745
 30
0.0
 11
7.997610124442335
 21
6.989363672834745
 31
0.0
  0
LINE
  5
168F
330
1F
100
AcDbEntity
  8
jongchulphotoconductivity_top
100
AcDbLine
 10
9.297610124442336
 20
6.989363672834745
 30
0.0
 11
9.597610124442335
 21
6.989363672834745
 31
0.0
  0
LINE
  5
1693
330
1F
100
AcDbEntity
  8
jongchulphotoconductivity_top
100
AcDbLine
 10
6.897610124442335
 20
10.98936367283474
 30
0.0
 11
6.897610124442335
 21
7.489363672834745
 31
0.0
  0
ARC
  5
1697
330
1F
100
AcDbEntity
  8
jongchulphotoconductivity_top
100
AcDbCircle
 10
6.397610124442335
 20
7.489363672834745
 30
0.0
 40
0.5
100
AcDbArc
 50
270.0
 51
0.0
  0
ARC
  5
1698
330
1F
100
AcDbEntity
  8
jongchulphotoconductivity_top
100
AcDbCircle
 10
6.897610124442335
 20
10.98936367283474
 30
0.0
 40
0.5
100
AcDbArc
 50
90.0
 51
180.0
  0
ARC
  5
1699
330
1F
100
AcDbEntity
  8
jongchulphotoconductivity_top
100
AcDbCircle
 10
7.197610124442332
 20
10.98936367283474
 30
0.0
 40
0.5
100
AcDbArc
 50
0.0
 51
90.0
  0
ARC
  5
169A
330
1F
100
AcDbEntity
  8
jongchulphotoconductivity_top
100
AcDbCircle
 10
7.697610124442332
 20
7.489363672834745
 30
0.0
 40
0.5
100
AcDbArc
 50
180.0
 51
269.9999999999999
  0
ARC
  5
169B
330
1F
100
AcDbEntity
  8
jongchulphotoconductivity_top
100
AcDbCircle
 10
7.997610124442335
 20
7.489363672834745
 30
0.0
 40
0.5
100
AcDbArc
 50
269.9999999999999
 51
0.0
  0
ARC
  5
169C
330
1F
100
AcDbEntity
  8
jongchulphotoconductivity_top
100
AcDbCircle
 10
8.497610124442335
 20
10.98936367283474
 30
0.0
 40
0.5
100
AcDbArc
 50
90.0
 51
180.0
  0
ARC
  5
169D
330
1F
100
AcDbEntity
  8
jongchulphotoconductivity_top
100
AcDbCircle
 10
8.797610124442336
 20
10.98936367283474
 30
0.0
 40
0.5
100
AcDbArc
 50
0.0
 51
90.0
  0
ARC
  5
169E
330
1F
100
AcDbEntity
  8
jongchulphotoconductivity_top
100
AcDbCircle
 10
9.297610124442336
 20
7.489363672834745
 30
0.0
 40
0.5
100
AcDbArc
 50
180.0
 51
270.0
  0
ARC
  5
169F
330
1F
100
AcDbEntity
  8
jongchulphotoconductivity_top
100
AcDbCircle
 10
9.597610124442335
 20
7.489363672834745
 30
0.0
 40
0.5
100
AcDbArc
 50
270.0
 51
0.0
  0
ARC
  5
16A0
330
1F
100
AcDbEntity
  8
jongchulphotoconductivity_top
100
AcDbCircle
 10
10.09761012444233
 20
10.98936367283474
 30
0.0
 40
0.5
100
AcDbArc
 50
90.0
 51
180.0
  0
LINE
  5
16A2
330
1F
100
AcDbEntity
  8
jongchulphotoconductivity_top
100
AcDbLine
 10
13.35
 20
7.389363672834745
 30
0.0
 11
13.35
 21
11.08936367283475
 31
0.0
  0
LINE
  5
16A3
330
1F
100
AcDbEntity
  8
jongchulphotoconductivity_top
100
AcDbLine
 10
13.35
 20
11.08936367283475
 30
0.0
 11
13.65
 21
11.08936367283475
 31
0.0
  0
LINE
  5
16A4
330
1F
100
AcDbEntity
  8
jongchulphotoconductivity_top
100
AcDbLine
 10
13.65
 20
11.08936367283475
 30
0.0
 11
13.65
 21
7.389363672834745
 31
0.0
  0
LINE
  5
16A6
330
1F
100
AcDbEntity
  8
jongchulphotoconductivity_top
100
AcDbLine
 10
13.95
 20
7.089363672834745
 30
0.0
 11
14.25
 21
7.089363672834745
 31
0.0
  0
LINE
  5
16A8
330
1F
100
AcDbEntity
  8
jongchulphotoconductivity_top
100
AcDbLine
 10
14.55
 20
7.389363672834745
 30
0.0
 11
14.55
 21
11.08936367283475
 31
0.0
  0
LINE
  5
16A9
330
1F
100
AcDbEntity
  8
jongchulphotoconductivity_top
100
AcDbLine
 10
14.55
 20
11.08936367283475
 30
0.0
 11
14.85
 21
11.08936367283475
 31
0.0
  0
LINE
  5
16AA
330
1F
100
AcDbEntity
  8
jongchulphotoconductivity_top
100
AcDbLine
 10
14.85
 20
11.08936367283475
 30
0.0
 11
14.85
 21
7.389363672834745
 31
0.0
  0
LINE
  5
16AB
330
1F
100
AcDbEntity
  8
jongchulphotoconductivity_top
100
AcDbLine
 10
15.15
 20
7.089363672834745
 30
0.0
 11
15.45
 21
7.089363672834745
 31
0.0
  0
LINE
  5
16AC
330
1F
100
AcDbEntity
  8
jongchulphotoconductivity_top
100
AcDbLine
 10
15.75
 20
7.389363672834745
 30
0.0
 11
15.75
 21
11.08936367283475
 31
0.0
  0
LINE
  5
16AD
330
1F
100
AcDbEntity
  8
jongchulphotoconductivity_top
100
AcDbLine
 10
15.75
 20
11.08936367283475
 30
0.0
 11
16.05
 21
11.08936367283475
 31
0.0
  0
LINE
  5
16AE
330
1F
100
AcDbEntity
  8
jongchulphotoconductivity_top
100
AcDbLine
 10
16.05
 20
11.08936367283475
 30
0.0
 11
16.05
 21
7.389363672836295
 31
0.0
  0
LINE
  5
16AF
330
1F
100
AcDbEntity
  8
jongchulphotoconductivity_top
100
AcDbLine
 10
16.35000000000155
 20
7.089363672836295
 30
0.0
 11
16.65000000000155
 21
7.089363672837842
 31
0.0
  0
LINE
  5
16B0
330
1F
100
AcDbEntity
  8
jongchulphotoconductivity_top
100
AcDbLine
 10
16.95
 20
7.389363672837842
 30
0.0
 11
16.95
 21
11.08936367283939
 31
0.0
  0
LINE
  5
16B1
330
1F
100
AcDbEntity
  8
jongchulphotoconductivity_top
100
AcDbLine
 10
16.95
 20
11.08936367283939
 30
0.0
 11
17.25
 21
11.08936367283939
 31
0.0
  0
LINE
  5
16B9
330
1F
100
AcDbEntity
  8
jongchulphotoconductivity_top
100
AcDbLine
 10
17.25
 20
11.08936367283939
 30
0.0
 11
17.24999382172144
 21
7.089363672839517
 31
0.0
  0
LINE
  5
16BB
330
1F
100
AcDbEntity
  8
jongchulphotoconductivity_top
100
AcDbLine
 10
16.65
 20
11.08936367283474
 30
0.0
 11
16.65
 21
7.389363672834745
 31
0.0
  0
LINE
  5
16BC
330
1F
100
AcDbEntity
  8
jongchulphotoconductivity_top
100
AcDbLine
 10
16.65
 20
7.389363672834745
 30
0.0
 11
16.35
 21
7.389363672834745
 31
0.0
  0
LINE
  5
16BD
330
1F
100
AcDbEntity
  8
jongchulphotoconductivity_top
100
AcDbLine
 10
16.35
 20
7.389363672834745
 30
0.0
 11
16.35
 21
11.08936367283474
 31
0.0
  0
LINE
  5
16BE
330
1F
100
AcDbEntity
  8
jongchulphotoconductivity_top
100
AcDbLine
 10
16.05
 20
11.38936367283474
 30
0.0
 11
15.75
 21
11.38936367283474
 31
0.0
  0
LINE
  5
16BF
330
1F
100
AcDbEntity
  8
jongchulphotoconductivity_top
100
AcDbLine
 10
15.45
 20
11.08936367283474
 30
0.0
 11
15.45
 21
7.389363672834745
 31
0.0
  0
LINE
  5
16C0
330
1F
100
AcDbEntity
  8
jongchulphotoconductivity_top
100
AcDbLine
 10
15.45
 20
7.389363672834745
 30
0.0
 11
15.15
 21
7.389363672834745
 31
0.0
  0
LINE
  5
16C1
330
1F
100
AcDbEntity
  8
jongchulphotoconductivity_top
100
AcDbLine
 10
15.15
 20
7.389363672834745
 30
0.0
 11
15.15
 21
11.08936367283474
 31
0.0
  0
LINE
  5
16C2
330
1F
100
AcDbEntity
  8
jongchulphotoconductivity_top
100
AcDbLine
 10
14.85
 20
11.38936367283474
 30
0.0
 11
14.55
 21
11.38936367283474
 31
0.0
  0
LINE
  5
16C4
330
1F
100
AcDbEntity
  8
jongchulphotoconductivity_top
100
AcDbLine
 10
14.25
 20
11.08936367283474
 30
0.0
 11
14.25
 21
7.389363672834745
 31
0.0
  0
LINE
  5
16C5
330
1F
100
AcDbEntity
  8
jongchulphotoconductivity_top
100
AcDbLine
 10
14.25
 20
7.389363672834745
 30
0.0
 11
13.95
 21
7.389363672834745
 31
0.0
  0
LINE
  5
16C6
330
1F
100
AcDbEntity
  8
jongchulphotoconductivity_top
100
AcDbLine
 10
13.95
 20
7.389363672834745
 30
0.0
 11
13.95
 21
11.08936367283474
 31
0.0
  0
LINE
  5
16C7
330
1F
100
AcDbEntity
  8
jongchulphotoconductivity_top
100
AcDbLine
 10
13.65
 20
11.38936367283474
 30
0.0
 11
13.35
 21
11.38936367283474
 31
0.0
  0
LINE
  5
16CC
330
1F
100
AcDbEntity
  8
jongchulphotoconductivity_top
100
AcDbLine
 10
13.05
 20
11.08936367283474
 30
0.0
 11
13.05
 21
7.389363672834745
 31
0.0
  0
LINE
  5
16CD
330
1F
100
AcDbEntity
  8
jongchulphotoconductivity_top
100
AcDbLine
 10
13.05
 20
7.389363672834745
 30
0.0
 11
12.75
 21
7.389363672834745
 31
0.0
  0
LINE
  5
16CF
330
1F
100
AcDbEntity
  8
jongchulphotoconductivity_top
100
AcDbLine
 10
13.05
 20
7.089363672834745
 30
0.0
 11
12.75
 21
7.089363672834745
 31
0.0
  0
ARC
  5
16D1
330
1F
100
AcDbEntity
  8
jongchulphotoconductivity_top
100
AcDbCircle
 10
13.05
 20
7.389363672834745
 30
0.0
 40
0.3
100
AcDbArc
 50
270.0
 51
0.0
  0
ARC
  5
16D2
330
1F
100
AcDbEntity
  8
jongchulphotoconductivity_top
100
AcDbCircle
 10
13.35
 20
11.08936367283474
 30
0.0
 40
0.3
100
AcDbArc
 50
90.0
 51
180.0
  0
ARC
  5
16D3
330
1F
100
AcDbEntity
  8
jongchulphotoconductivity_top
100
AcDbCircle
 10
13.65
 20
11.08936367283474
 30
0.0
 40
0.3
100
AcDbArc
 50
0.0
 51
90.0
  0
ARC
  5
16D4
330
1F
100
AcDbEntity
  8
jongchulphotoconductivity_top
100
AcDbCircle
 10
14.55
 20
11.08936367283474
 30
0.0
 40
0.3
100
AcDbArc
 50
90.0
 51
180.0
  0
ARC
  5
16D5
330
1F
100
AcDbEntity
  8
jongchulphotoconductivity_top
100
AcDbCircle
 10
14.85
 20
11.08936367283474
 30
0.0
 40
0.3
100
AcDbArc
 50
0.0
 51
90.0
  0
ARC
  5
16D6
330
1F
100
AcDbEntity
  8
jongchulphotoconductivity_top
100
AcDbCircle
 10
15.75
 20
11.08936367283474
 30
0.0
 40
0.3
100
AcDbArc
 50
90.0
 51
180.0
  0
ARC
  5
16D7
330
1F
100
AcDbEntity
  8
jongchulphotoconductivity_top
100
AcDbCircle
 10
16.05
 20
11.08936367283474
 30
0.0
 40
0.3
100
AcDbArc
 50
0.0
 51
90.0
  0
LINE
  5
16D8
330
1F
100
AcDbEntity
  8
jongchulphotoconductivity_top
100
AcDbLine
 10
16.95
 20
11.38936367283474
 30
0.0
 11
17.25
 21
11.38936367283474
 31
0.0
  0
LINE
  5
16DA
330
1F
100
AcDbEntity
  8
jongchulphotoconductivity_top
100
AcDbLine
 10
19.35236486496457
 20
13.75003292040196
 30
0.0
 11
19.12246396719982
 21
13.75003292040196
 31
0.0
  0
LINE
  5
16DB
330
1F
100
AcDbEntity
  8
jongchulphotoconductivity_top
100
AcDbLine
 10
10.09761012444233
 20
11.48936367283474
 30
0.0
 11
10.39761012444234
 21
11.48936367283474
 31
0.0
  0
LINE
  5
16DD
330
1F
100
AcDbEntity
  8
jongchulphotoconductivity_top
100
AcDbLine
 10
10.39761012444234
 20
11.48936367283474
 30
0.0
 11
10.39761012444234
 21
13.25003292040196
 31
0.0
  0
LINE
  5
16DE
330
1F
100
AcDbEntity
  8
jongchulphotoconductivity_top
100
AcDbLine
 10
11.17246396719979
 20
13.75003292040196
 30
0.0
 11
10.89761012444234
 21
13.75003292040196
 31
0.0
  0
ARC
  5
16DF
330
1F
100
AcDbEntity
  8
jongchulphotoconductivity_top
100
AcDbCircle
 10
13.95
 20
7.389363672834745
 30
0.0
 40
0.3
100
AcDbArc
 50
180.0
 51
270.0
  0
ARC
  5
16E0
330
1F
100
AcDbEntity
  8
jongchulphotoconductivity_top
100
AcDbCircle
 10
14.25
 20
7.389363672834745
 30
0.0
 40
0.3
100
AcDbArc
 50
270.0
 51
0.0
  0
ARC
  5
16E1
330
1F
100
AcDbEntity
  8
jongchulphotoconductivity_top
100
AcDbCircle
 10
15.15
 20
7.389363672834745
 30
0.0
 40
0.3
100
AcDbArc
 50
180.0
 51
270.0
  0
ARC
  5
16E2
330
1F
100
AcDbEntity
  8
jongchulphotoconductivity_top
100
AcDbCircle
 10
15.45
 20
7.389363672834745
 30
0.0
 40
0.3
100
AcDbArc
 50
270.0
 51
0.0
  0
ARC
  5
16E3
330
1F
100
AcDbEntity
  8
jongchulphotoconductivity_top
100
AcDbCircle
 10
16.35
 20
7.389363672836295
 30
0.0
 40
0.3
100
AcDbArc
 50
180.0
 51
270.0000000002956
  0
ARC
  5
16E4
330
1F
100
AcDbEntity
  8
jongchulphotoconductivity_top
100
AcDbCircle
 10
16.65
 20
7.389363672837842
 30
0.0
 40
0.3
100
AcDbArc
 50
270.0000000002956
 51
0.0
  0
ARC
  5
16E5
330
1F
100
AcDbEntity
  8
jongchulphotoconductivity_top
100
AcDbCircle
 10
16.95
 20
11.08936367283474
 30
0.0
 40
0.3
100
AcDbArc
 50
90.0
 51
180.0
  0
LINE
  5
16E6
330
1F
100
AcDbEntity
  8
jongchulphotoconductivity_top
100
AcDbLine
 10
6.397610124442335
 20
6.989363672834745
 30
0.0
 11
6.097610124442335
 21
6.989363672834745
 31
0.0
  0
LINE
  5
16F1
330
1F
100
AcDbEntity
  8
jongchulphotoconductivity_top
100
AcDbLine
 10
7.747610124442782
 20
1.24998128000676
 30
0.0
 11
7.747610124442782
 21
3.449981280006758
 31
0.0
  0
LINE
  5
16F7
330
1F
100
AcDbEntity
  8
jongchulphotoconductivity_top
100
AcDbLine
 10
12.74999999999999
 20
1.249981280006853
 30
0.0
 11
12.74999999999999
 21
1.249981280006863
 31
0.0
  0
LINE
  5
16F8
330
1F
100
AcDbEntity
  8
jongchulphotoconductivity_top
100
AcDbLine
 10
13.25
 20
0.7499812800068641
 30
0.0
 11
13.40503603280032
 21
0.7499812800068673
 31
0.0
  0
ARC
  5
16FB
330
1F
100
AcDbEntity
  8
jongchulphotoconductivity_top
100
AcDbCircle
 10
13.24999999999999
 20
1.249981280006863
 30
0.0
 40
0.5
100
AcDbArc
 50
180.0
 51
270.0000000000012
  0
ARC
  5
16FC
330
1F
100
AcDbEntity
  8
jongchulphotoconductivity_top
100
AcDbCircle
 10
10.89761012444234
 20
13.25003292040196
 30
0.0
 40
0.5
100
AcDbArc
 50
90.0
 51
180.0
  0
ARC
  5
16FD
330
1F
100
AcDbEntity
  8
jongchulphotoconductivity_top
100
AcDbCircle
 10
17.75000000000001
 20
13.25003292040196
 30
0.0
 40
0.5
100
AcDbArc
 50
90.0
 51
180.0
  0
LINE
  5
1701
330
1F
100
AcDbEntity
  8
jongchulphotoconductivity_top
100
AcDbLine
 10
19.80236486496457
 20
7.289363672834745
 30
0.0
 11
20.10236486496456
 21
7.289363672834745
 31
0.0
  0
LINE
  5
1702
330
1F
100
AcDbEntity
  8
jongchulphotoconductivity_top
100
AcDbLine
 10
20.10236486496456
 20
7.289363672834745
 30
0.0
 11
20.10236486496456
 21
11.18936367283474
 31
0.0
  0
LINE
  5
1703
330
1F
100
AcDbEntity
  8
jongchulphotoconductivity_top
100
AcDbLine
 10
20.20236486496457
 20
11.28936367283474
 30
0.0
 11
20.50236486496456
 21
11.28936367283474
 31
0.0
  0
LINE
  5
1704
330
1F
100
AcDbEntity
  8
jongchulphotoconductivity_top
100
AcDbLine
 10
20.60236486496457
 20
11.18936367283474
 30
0.0
 11
20.60236486496457
 21
7.289363672834745
 31
0.0
  0
LINE
  5
1705
330
1F
100
AcDbEntity
  8
jongchulphotoconductivity_top
100
AcDbLine
 10
20.60236486496457
 20
7.289363672834745
 30
0.0
 11
20.90236486496456
 21
7.289363672834745
 31
0.0
  0
LINE
  5
1706
330
1F
100
AcDbEntity
  8
jongchulphotoconductivity_top
100
AcDbLine
 10
20.90236486496456
 20
7.289363672834745
 30
0.0
 11
20.90236486496456
 21
11.18936367283474
 31
0.0
  0
LINE
  5
1707
330
1F
100
AcDbEntity
  8
jongchulphotoconductivity_top
100
AcDbLine
 10
21.00236486496457
 20
11.28936367283474
 30
0.0
 11
21.30236486496456
 21
11.28936367283474
 31
0.0
  0
LINE
  5
1708
330
1F
100
AcDbEntity
  8
jongchulphotoconductivity_top
100
AcDbLine
 10
21.40236486496457
 20
11.18936367283474
 30
0.0
 11
21.40236486496457
 21
7.289363672834745
 31
0.0
  0
LINE
  5
1709
330
1F
100
AcDbEntity
  8
jongchulphotoconductivity_top
100
AcDbLine
 10
21.40236486496457
 20
7.289363672834745
 30
0.0
 11
21.70236486496456
 21
7.289363672834745
 31
0.0
  0
LINE
  5
170A
330
1F
100
AcDbEntity
  8
jongchulphotoconductivity_top
100
AcDbLine
 10
21.70236486496456
 20
7.289363672834745
 30
0.0
 11
21.70236486496456
 21
11.18936367283474
 31
0.0
  0
LINE
  5
170B
330
1F
100
AcDbEntity
  8
jongchulphotoconductivity_top
100
AcDbLine
 10
21.80236486496457
 20
11.28936367283474
 30
0.0
 11
22.10236486496456
 21
11.28936367283474
 31
0.0
  0
LINE
  5
170C
330
1F
100
AcDbEntity
  8
jongchulphotoconductivity_top
100
AcDbLine
 10
22.20236486496457
 20
11.18936367283474
 30
0.0
 11
22.20236486496457
 21
7.289363672834745
 31
0.0
  0
LINE
  5
170D
330
1F
100
AcDbEntity
  8
jongchulphotoconductivity_top
100
AcDbLine
 10
22.20236486496457
 20
7.289363672834745
 30
0.0
 11
22.50236486496457
 21
7.289363672834745
 31
0.0
  0
LINE
  5
170E
330
1F
100
AcDbEntity
  8
jongchulphotoconductivity_top
100
AcDbLine
 10
22.50236486496457
 20
7.289363672834745
 30
0.0
 11
22.50236486496457
 21
11.18936367283474
 31
0.0
  0
LINE
  5
170F
330
1F
100
AcDbEntity
  8
jongchulphotoconductivity_top
100
AcDbLine
 10
22.60236486496457
 20
11.28936367283474
 30
0.0
 11
22.90236486496457
 21
11.28936367283474
 31
0.0
  0
LINE
  5
1710
330
1F
100
AcDbEntity
  8
jongchulphotoconductivity_top
100
AcDbLine
 10
23.00236486496457
 20
11.18936367283474
 30
0.0
 11
23.00236486496457
 21
7.289363672834745
 31
0.0
  0
LINE
  5
1711
330
1F
100
AcDbEntity
  8
jongchulphotoconductivity_top
100
AcDbLine
 10
23.00236486496457
 20
7.289363672834745
 30
0.0
 11
23.30236486496457
 21
7.289363672834745
 31
0.0
  0
LINE
  5
1712
330
1F
100
AcDbEntity
  8
jongchulphotoconductivity_top
100
AcDbLine
 10
23.30236486496457
 20
7.289363672834745
 30
0.0
 11
23.30236486496457
 21
11.18936367283475
 31
0.0
  0
LINE
  5
1714
330
1F
100
AcDbEntity
  8
jongchulphotoconductivity_top
100
AcDbLine
 10
23.70236486496457
 20
11.18936367283474
 30
0.0
 11
23.40236486496457
 21
11.18936367283474
 31
0.0
  0
LINE
  5
1715
330
1F
100
AcDbEntity
  8
jongchulphotoconductivity_top
100
AcDbLine
 10
23.40236486496457
 20
11.18936367283474
 30
0.0
 11
23.40236486496457
 21
7.289363672834745
 31
0.0
  0
LINE
  5
1716
330
1F
100
AcDbEntity
  8
jongchulphotoconductivity_top
100
AcDbLine
 10
23.30236486496457
 20
7.189363672834745
 30
0.0
 11
23.00236486496457
 21
7.189363672834745
 31
0.0
  0
LINE
  5
1717
330
1F
100
AcDbEntity
  8
jongchulphotoconductivity_top
100
AcDbLine
 10
22.90236486496457
 20
7.289363672834745
 30
0.0
 11
22.90236486496457
 21
11.18936367283474
 31
0.0
  0
LINE
  5
1718
330
1F
100
AcDbEntity
  8
jongchulphotoconductivity_top
100
AcDbLine
 10
22.90236486496457
 20
11.18936367283474
 30
0.0
 11
22.60236486496457
 21
11.18936367283474
 31
0.0
  0
LINE
  5
1719
330
1F
100
AcDbEntity
  8
jongchulphotoconductivity_top
100
AcDbLine
 10
22.60236486496457
 20
11.18936367283474
 30
0.0
 11
22.60236486496457
 21
7.289363672834745
 31
0.0
  0
LINE
  5
171B
330
1F
100
AcDbEntity
  8
jongchulphotoconductivity_top
100
AcDbLine
 10
22.50236486496457
 20
7.189363672834745
 30
0.0
 11
22.20236486496457
 21
7.189363672834745
 31
0.0
  0
LINE
  5
171C
330
1F
100
AcDbEntity
  8
jongchulphotoconductivity_top
100
AcDbLine
 10
22.10236486496457
 20
7.289363672834745
 30
0.0
 11
22.10236486496457
 21
11.18936367283474
 31
0.0
  0
LINE
  5
171D
330
1F
100
AcDbEntity
  8
jongchulphotoconductivity_top
100
AcDbLine
 10
22.10236486496457
 20
11.18936367283474
 30
0.0
 11
21.80236486496457
 21
11.18936367283474
 31
0.0
  0
LINE
  5
171E
330
1F
100
AcDbEntity
  8
jongchulphotoconductivity_top
100
AcDbLine
 10
21.80236486496457
 20
11.18936367283474
 30
0.0
 11
21.80236486496457
 21
7.289363672834745
 31
0.0
  0
LINE
  5
171F
330
1F
100
AcDbEntity
  8
jongchulphotoconductivity_top
100
AcDbLine
 10
21.70236486496456
 20
7.189363672834745
 30
0.0
 11
21.40236486496457
 21
7.189363672834745
 31
0.0
  0
LINE
  5
1720
330
1F
100
AcDbEntity
  8
jongchulphotoconductivity_top
100
AcDbLine
 10
21.30236486496457
 20
7.289363672834745
 30
0.0
 11
21.30236486496457
 21
11.18936367283474
 31
0.0
  0
LINE
  5
1721
330
1F
100
AcDbEntity
  8
jongchulphotoconductivity_top
100
AcDbLine
 10
21.30236486496457
 20
11.18936367283474
 30
0.0
 11
21.00236486496457
 21
11.18936367283474
 31
0.0
  0
LINE
  5
1722
330
1F
100
AcDbEntity
  8
jongchulphotoconductivity_top
100
AcDbLine
 10
21.00236486496457
 20
11.18936367283474
 30
0.0
 11
21.00236486496457
 21
7.289363672834745
 31
0.0
  0
LINE
  5
1723
330
1F
100
AcDbEntity
  8
jongchulphotoconductivity_top
100
AcDbLine
 10
20.90236486496456
 20
7.189363672834745
 30
0.0
 11
20.60236486496457
 21
7.189363672834747
 31
0.0
  0
LINE
  5
1724
330
1F
100
AcDbEntity
  8
jongchulphotoconductivity_top
100
AcDbLine
 10
20.50236486496457
 20
7.289363672834745
 30
0.0
 11
20.50236486496457
 21
11.18936367283474
 31
0.0
  0
LINE
  5
1725
330
1F
100
AcDbEntity
  8
jongchulphotoconductivity_top
100
AcDbLine
 10
20.50236486496457
 20
11.18936367283474
 30
0.0
 11
20.20236486496457
 21
11.18936367283474
 31
0.0
  0
LINE
  5
172D
330
1F
100
AcDbEntity
  8
jongchulphotoconductivity_top
100
AcDbLine
 10
20.20236486496457
 20
11.18936367283474
 30
0.0
 11
20.20236486496457
 21
7.289363672834745
 31
0.0
  0
LINE
  5
172E
330
1F
100
AcDbEntity
  8
jongchulphotoconductivity_top
100
AcDbLine
 10
20.10236486496456
 20
7.189363672834745
 30
0.0
 11
19.80236486496457
 21
7.189363672834745
 31
0.0
  0
ARC
  5
1731
330
1F
100
AcDbEntity
  8
jongchulphotoconductivity_top
100
AcDbCircle
 10
20.20236486496457
 20
11.18936367283474
 30
0.0
 40
0.1
100
AcDbArc
 50
90.0
 51
180.0
  0
ARC
  5
1732
330
1F
100
AcDbEntity
  8
jongchulphotoconductivity_top
100
AcDbCircle
 10
20.50236486496456
 20
11.18936367283474
 30
0.0
 40
0.1
100
AcDbArc
 50
0.0
 51
90.0
  0
ARC
  5
1733
330
1F
100
AcDbEntity
  8
jongchulphotoconductivity_top
100
AcDbCircle
 10
20.10236486496456
 20
7.289363672834745
 30
0.0
 40
0.1
100
AcDbArc
 50
270.0
 51
0.0
  0
ARC
  5
1734
330
1F
100
AcDbEntity
  8
jongchulphotoconductivity_top
100
AcDbCircle
 10
21.00236486496457
 20
11.18936367283474
 30
0.0
 40
0.1
100
AcDbArc
 50
90.0
 51
180.0
  0
ARC
  5
1735
330
1F
100
AcDbEntity
  8
jongchulphotoconductivity_top
100
AcDbCircle
 10
21.30236486496456
 20
11.18936367283474
 30
0.0
 40
0.1
100
AcDbArc
 50
0.0
 51
90.0
  0
ARC
  5
1736
330
1F
100
AcDbEntity
  8
jongchulphotoconductivity_top
100
AcDbCircle
 10
21.80236486496457
 20
11.18936367283474
 30
0.0
 40
0.1
100
AcDbArc
 50
90.0
 51
180.0
  0
ARC
  5
1737
330
1F
100
AcDbEntity
  8
jongchulphotoconductivity_top
100
AcDbCircle
 10
22.10236486496456
 20
11.18936367283474
 30
0.0
 40
0.1
100
AcDbArc
 50
0.0
 51
90.0
  0
ARC
  5
1738
330
1F
100
AcDbEntity
  8
jongchulphotoconductivity_top
100
AcDbCircle
 10
22.60236486496457
 20
11.18936367283474
 30
0.0
 40
0.1
100
AcDbArc
 50
90.0
 51
180.0
  0
ARC
  5
1739
330
1F
100
AcDbEntity
  8
jongchulphotoconductivity_top
100
AcDbCircle
 10
22.90236486496457
 20
11.18936367283474
 30
0.0
 40
0.1
100
AcDbArc
 50
0.0
 51
90.0
  0
ARC
  5
173B
330
1F
100
AcDbEntity
  8
jongchulphotoconductivity_top
100
AcDbCircle
 10
23.00236486496457
 20
7.289363672834745
 30
0.0
 40
0.1
100
AcDbArc
 50
180.0
 51
270.0
  0
ARC
  5
173C
330
1F
100
AcDbEntity
  8
jongchulphotoconductivity_top
100
AcDbCircle
 10
22.50236486496457
 20
7.289363672834745
 30
0.0
 40
0.1
100
AcDbArc
 50
270.0
 51
0.0
  0
ARC
  5
173D
330
1F
100
AcDbEntity
  8
jongchulphotoconductivity_top
100
AcDbCircle
 10
22.20236486496457
 20
7.289363672834745
 30
0.0
 40
0.1
100
AcDbArc
 50
180.0
 51
270.0
  0
ARC
  5
173E
330
1F
100
AcDbEntity
  8
jongchulphotoconductivity_top
100
AcDbCircle
 10
21.70236486496456
 20
7.289363672834745
 30
0.0
 40
0.1
100
AcDbArc
 50
270.0000000000001
 51
0.0
  0
ARC
  5
173F
330
1F
100
AcDbEntity
  8
jongchulphotoconductivity_top
100
AcDbCircle
 10
21.40236486496457
 20
7.289363672834745
 30
0.0
 40
0.1
100
AcDbArc
 50
180.0
 51
270.0000000000001
  0
ARC
  5
1740
330
1F
100
AcDbEntity
  8
jongchulphotoconductivity_top
100
AcDbCircle
 10
20.90236486496456
 20
7.289363672834745
 30
0.0
 40
0.1
100
AcDbArc
 50
269.9999999999999
 51
0.0
  0
ARC
  5
1741
330
1F
100
AcDbEntity
  8
jongchulphotoconductivity_top
100
AcDbCircle
 10
20.60236486496457
 20
7.289363672834745
 30
0.0
 40
0.1
100
AcDbArc
 50
180.0
 51
269.9999999999999
  0
LINE
  5
1742
330
1F
100
AcDbEntity
  8
jongchulphotoconductivity_top
100
AcDbLine
 10
23.40236486496457
 20
11.28936367283475
 30
0.0
 11
23.70236486496457
 21
11.28936367283475
 31
0.0
  0
ARC
  5
1745
330
1F
100
AcDbEntity
  8
jongchulphotoconductivity_top
100
AcDbCircle
 10
23.40236486496457
 20
11.18936367283475
 30
0.0
 40
0.1
100
AcDbArc
 50
90.0
 51
179.9999999999999
  0
ARC
  5
1746
330
1F
100
AcDbEntity
  8
jongchulphotoconductivity_top
100
AcDbCircle
 10
23.30236486496457
 20
7.289363672834745
 30
0.0
 40
0.1
100
AcDbArc
 50
270.0
 51
0.0
  0
LINE
  5
175A
330
1F
100
AcDbEntity
  8
jongchulphotoconductivity_bottom
100
AcDbLine
 10
21.25236486496457
 20
21.2604963380038
 30
0.0
 11
25.99991694910511
 21
21.2604963380038
 31
0.0
  0
LINE
  5
175C
330
1F
100
AcDbEntity
  8
jongchulphotoconductivity_bottom
100
AcDbLine
 10
25.9999267015566
 20
20.26049627445972
 30
0.0
 11
3.999976995860619
 21
20.26049347852681
 31
0.0
  0
LINE
  5
175E
330
1F
100
AcDbEntity
  8
jongchulphotoconductivity_bottom
100
AcDbLine
 10
4.000012775793345
 20
21.26049341485169
 30
0.0
 11
21.25236486496457
 21
21.26049341485169
 31
0.0
  0
LINE
  5
1761
330
1F
100
AcDbEntity
  8
jongchulphotoconductivity_bottom
100
AcDbLine
 10
26.4999169491051
 20
29.25001871999222
 30
0.0
 11
28.75013796104671
 21
29.25001871999222
 31
0.0
  0
LINE
  5
176C
330
1F
100
AcDbEntity
  8
jongchulphotoconductivity_bottom
100
AcDbLine
 10
3.500012775793346
 20
29.25001871999222
 30
0.0
 11
1.24979176388085
 21
29.25001871999222
 31
0.0
  0
LINE
  5
1770
330
1F
100
AcDbEntity
  8
jongchulphotoconductivity_bottom
100
AcDbLine
 10
0.7497917638808512
 20
28.75001871999222
 30
0.0
 11
0.7497917638808464
 21
1.249978373631034
 31
0.0
  0
LINE
  5
1772
330
1F
100
AcDbEntity
  8
jongchulphotoconductivity_bottom
100
AcDbLine
 10
29.25013796104671
 20
28.75001871999222
 30
0.0
 11
29.25013796104671
 21
1.249981280006874
 31
0.0
  0
LINE
  5
1775
330
1F
100
AcDbEntity
  8
jongchulphotoconductivity_bottom
100
AcDbLine
 10
26.49992676510067
 20
0.7499812800068723
 30
0.0
 11
28.75013796104671
 21
0.7499812800068728
 31
0.0
  0
LINE
  5
1776
330
1F
100
AcDbEntity
  8
jongchulphotoconductivity_bottom
100
AcDbLine
 10
3.499660930772968
 20
0.7499796155791856
 30
0.0
 11
1.249792039885389
 21
0.7499783736311147
 31
0.0
  0
ARC
  5
1777
330
1F
100
AcDbEntity
  8
jongchulphotoconductivity_bottom
100
AcDbCircle
 10
1.249791763880846
 20
1.249978373631037
 30
0.0
 40
0.5
100
AcDbArc
 50
180.0
 51
270.0000316277909
  0
ARC
  5
1778
330
1F
100
AcDbEntity
  8
jongchulphotoconductivity_bottom
100
AcDbCircle
 10
1.24979176388085
 20
28.75001871999222
 30
0.0
 40
0.5
100
AcDbArc
 50
90.0
 51
180.0
  0
ARC
  5
1779
330
1F
100
AcDbEntity
  8
jongchulphotoconductivity_bottom
100
AcDbCircle
 10
4.000012775793345
 20
21.76049341485169
 30
0.0
 40
0.5
100
AcDbArc
 50
180.0
 51
270.0
  0
ARC
  5
177A
330
1F
100
AcDbEntity
  8
jongchulphotoconductivity_bottom
100
AcDbCircle
 10
3.999977059404693
 20
19.76049347852681
 30
0.0
 40
0.5
100
AcDbArc
 50
90.00000728161461
 51
179.9990687467573
  0
ARC
  5
177B
330
1F
100
AcDbEntity
  8
jongchulphotoconductivity_bottom
100
AcDbCircle
 10
25.99991694910511
 20
21.7604963380038
 30
0.0
 40
0.5
100
AcDbArc
 50
270.0
 51
0.0
  0
ARC
  5
177C
330
1F
100
AcDbEntity
  8
jongchulphotoconductivity_bottom
100
AcDbCircle
 10
25.99992676510068
 20
19.76049627445972
 30
0.0
 40
0.5
100
AcDbArc
 50
0.0
 51
90.00000728161461
  0
ARC
  5
177D
330
1F
100
AcDbEntity
  8
jongchulphotoconductivity_bottom
100
AcDbCircle
 10
28.75013796104671
 20
28.75001871999222
 30
0.0
 40
0.5
100
AcDbArc
 50
0.0
 51
90.0
  0
ARC
  5
177E
330
1F
100
AcDbEntity
  8
jongchulphotoconductivity_bottom
100
AcDbCircle
 10
28.75013796104671
 20
1.249981280006873
 30
0.0
 40
0.5
100
AcDbArc
 50
270.0
 51
0.0
  0
LINE
  5
179D
330
1F
100
AcDbEntity
  8
jongchulphotoconductivity_top
100
AcDbLine
 10
21.25236486496457
 20
19.26049634024786
 30
0.0
 11
21.75236486496457
 21
19.26049634024786
 31
0.0
  0
LINE
  5
17A6
330
1F
100
AcDbEntity
  8
jongchulphotoconductivity_top
100
AcDbLine
 10
24.20236486496457
 20
13.75003292040196
 30
0.0
 11
25.9999655378152
 21
13.75003292040196
 31
0.0
  0
LINE
  5
17A8
330
1F
100
AcDbEntity
  8
jongchulphotoconductivity_top
100
AcDbLine
 10
7.747610124442338
 20
19.26049341722784
 30
0.0
 11
8.247610124442337
 21
19.26049341722784
 31
0.0
  0
LINE
  5
17AC
330
1F
100
AcDbEntity
  8
jongchulphotoconductivity_top
100
AcDbLine
 10
14.5
 20
19.26049341722784
 30
0.0
 11
15.0
 21
19.26049341722784
 31
0.0
  0
LINE
  5
17B7
330
1F
100
AcDbEntity
  8
jongchulphotoconductivity_top
100
AcDbLine
 10
17.9073648649646
 20
3.497021431146788
 30
0.0
 11
17.90736486496452
 21
4.445525987947808
 31
0.0
  0
LINE
  5
17B8
330
1F
100
AcDbEntity
  8
jongchulphotoconductivity_top
100
AcDbLine
 10
12.09261012444229
 20
3.497021431146801
 30
0.0
 11
12.09261012444229
 21
4.461475633487504
 31
0.0
  0
LINE
  5
17B9
330
1F
100
AcDbEntity
  8
jongchulphotoconductivity_top
100
AcDbLine
 10
7.747610124442782
 20
3.449981280006758
 30
0.0
 11
7.747610124442782
 21
4.41835154117112
 31
0.0
  0
LINE
  5
17BB
330
1F
100
AcDbEntity
  8
jongchulphotoconductivity_top
100
AcDbLine
 10
22.25236486496459
 20
3.497021431146788
 30
0.0
 11
22.25236486496459
 21
4.484472639636152
 31
0.0
  0
LINE
  5
17BD
330
1F
100
AcDbEntity
  8
jongchulphotoconductivity_top
100
AcDbLine
 10
22.25236486496409
 20
1.249981280006728
 30
0.0
 11
22.25236486496459
 21
3.497021431146788
 31
0.0
  0
LINE
  5
17D3
330
1F
100
AcDbEntity
  8
jongchulphotoconductivity_top
100
AcDbLine
 10
6.097610124442335
 20
5.981611018842397
 30
0.0
 11
6.097610124442335
 21
6.989363672834745
 31
0.0
  0
LINE
  5
17D8
330
1F
100
AcDbEntity
  8
jongchulphotoconductivity_top
100
AcDbLine
 10
3.999986277075922
 20
13.75003292040196
 30
0.0
 11
5.447610124442335
 21
13.75003292040196
 31
0.0
  0
LINE
  5
17E0
330
1F
100
AcDbEntity
  8
jongchulphotoconductivity_top
100
AcDbLine
 10
11.17246396719979
 20
13.75003292040196
 30
0.0
 11
12.1
 21
13.75003292040196
 31
0.0
  0
LINE
  5
17E1
330
1F
100
AcDbEntity
  8
jongchulphotoconductivity_top
100
AcDbLine
 10
17.75000000000001
 20
13.75003292040196
 30
0.0
 11
19.12246396719982
 21
13.75003292040196
 31
0.0
  0
LINE
  5
17E2
330
1F
100
AcDbEntity
  8
jongchulphotoconductivity_top
100
AcDbLine
 10
7.506760982489403
 20
4.845950456948162
 30
0.0
 11
6.338459266395714
 21
5.554012103065356
 31
0.0
  0
ARC
  5
17E3
330
1F
100
AcDbEntity
  8
jongchulphotoconductivity_top
100
AcDbCircle
 10
6.597610124442335
 20
5.981611018842397
 30
0.0
 40
0.5
100
AcDbArc
 50
180.0
 51
238.7815972356606
  0
ARC
  5
17E4
330
1F
100
AcDbEntity
  8
jongchulphotoconductivity_top
100
AcDbCircle
 10
7.247610124442782
 20
4.41835154117112
 30
0.0
 40
0.5
100
AcDbArc
 50
0.0
 51
58.78159723566054
  0
LINE
  5
17E5
330
1F
100
AcDbEntity
  8
jongchulphotoconductivity_top
100
AcDbLine
 10
10.64354511659123
 20
5.601927040498481
 30
0.0
 11
11.84667513229339
 21
4.892115821795118
 31
0.0
  0
LINE
  5
17E6
330
1F
100
AcDbEntity
  8
jongchulphotoconductivity_top
100
AcDbLine
 10
10.39761012444234
 20
10.83936367283474
 30
0.0
 11
10.39761012444233
 21
6.032567228806096
 31
0.0
  0
ARC
  5
17E7
330
1F
100
AcDbEntity
  8
jongchulphotoconductivity_top
100
AcDbCircle
 10
10.89761012444233
 20
6.032567228806096
 30
0.0
 40
0.5
100
AcDbArc
 50
180.0
 51
239.4606488872872
  0
ARC
  5
17E8
330
1F
100
AcDbEntity
  8
jongchulphotoconductivity_top
100
AcDbCircle
 10
11.59261012444229
 20
4.461475633487504
 30
0.0
 40
0.5
100
AcDbArc
 50
0.0
 51
59.46064888728721
  0
LINE
  5
17EA
330
1F
100
AcDbEntity
  8
jongchulphotoconductivity_top
100
AcDbLine
 10
7.747610124442338
 20
21.26049341722785
 30
0.0
 11
7.747610124442338
 21
20.76049341722784
 31
0.0
  0
LINE
  5
17FB
330
1F
100
AcDbEntity
  8
jongchulphotoconductivity_top
100
AcDbLine
 10
18.1740109048223
 20
4.887731742417352
 30
0.0
 11
19.53571882510679
 21
5.60631111987619
 31
0.0
  0
LINE
  5
17FC
330
1F
100
AcDbEntity
  8
jongchulphotoconductivity_top
100
AcDbLine
 10
19.80236486496457
 20
6.048516874345692
 30
0.0
 11
19.80236486496457
 21
7.189363672834745
 31
0.0
  0
LINE
  5
17FD
330
1F
100
AcDbEntity
  8
jongchulphotoconductivity_top
100
AcDbLine
 10
22.46849838706276
 20
4.8960790325938
 30
0.0
 11
23.4862313428664
 21
5.597963829699771
 31
0.0
  0
LINE
  5
180C
330
1F
100
AcDbEntity
  8
jongchulphotoconductivity_top
100
AcDbLine
 10
12.75
 20
7.089363672834745
 30
0.0
 11
12.74999999999999
 21
1.249981280006863
 31
0.0
  0
LINE
  5
1814
330
1F
100
AcDbEntity
  8
jongchulphotoconductivity_top
100
AcDbLine
 10
17.24999382172144
 20
7.089363672839517
 30
0.0
 11
17.24998481029639
 21
1.25510096979059
 31
0.0
  0
ARC
  5
1815
330
1F
100
AcDbEntity
  8
jongchulphotoconductivity_top
100
AcDbCircle
 10
23.20236486496457
 20
6.009570222657423
 30
0.0
 40
0.5
100
AcDbArc
 50
304.5922886875104
 51
0.0
  0
ARC
  5
1816
330
1F
100
AcDbEntity
  8
jongchulphotoconductivity_top
100
AcDbCircle
 10
19.30236486496457
 20
6.048516874345692
 30
0.0
 40
0.5
100
AcDbArc
 50
297.8208118291369
 51
0.0000000000001399
  0
ARC
  5
1817
330
1F
100
AcDbEntity
  8
jongchulphotoconductivity_top
100
AcDbCircle
 10
18.40736486496451
 20
4.445525987947854
 30
0.0
 40
0.5
100
AcDbArc
 50
117.8208118291369
 51
180.000000000005
  0
ARC
  5
1818
330
1F
100
AcDbEntity
  8
jongchulphotoconductivity_top
100
AcDbCircle
 10
22.7523648649646
 20
4.484472639636152
 30
0.0
 40
0.5
100
AcDbArc
 50
124.5922886875104
 51
180.0
  0
LINE
  5
1819
330
1F
100
AcDbEntity
  8
jongchulphotoconductivity_top
100
AcDbLine
 10
23.70236486496457
 20
11.18936367283474
 30
0.0
 11
23.70236486496457
 21
6.009570222657423
 31
0.0
  0
LINE
  5
181A
330
1F
100
AcDbEntity
  8
jongchulphotoconductivity_top
100
AcDbLine
 10
19.80236486496457
 20
7.289363672834745
 30
0.0
 11
19.80236486496457
 21
13.30003292040196
 31
0.0
  0
LINE
  5
181B
330
1F
100
AcDbEntity
  8
jongchulphotoconductivity_top
100
AcDbLine
 10
23.70236486496457
 20
13.25003292040196
 30
0.0
 11
23.70236486496457
 21
11.28936367283475
 31
0.0
  0
LINE
  5
181C
330
1F
100
AcDbEntity
  8
jongchulphotoconductivity_top
100
AcDbLine
 10
17.25
 20
13.25003292040196
 30
0.0
 11
17.25
 21
11.38936367283474
 31
0.0
  0
LINE
  5
181E
330
1F
100
AcDbEntity
  8
jongchulphotoconductivity_top
100
AcDbLine
 10
12.1
 20
13.75003292040196
 30
0.0
 11
12.25
 21
13.75003292040196
 31
0.0
  0
LINE
  5
181F
330
1F
100
AcDbEntity
  8
jongchulphotoconductivity_top
100
AcDbLine
 10
12.75
 20
13.25003292040196
 30
0.0
 11
12.75
 21
7.389363672834745
 31
0.0
  0
ARC
  5
1820
330
1F
100
AcDbEntity
  8
jongchulphotoconductivity_top
100
AcDbCircle
 10
12.25
 20
13.25003292040196
 30
0.0
 40
0.5
100
AcDbArc
 50
0.0
 51
90.0
  0
ARC
  5
1821
330
1F
100
AcDbEntity
  8
jongchulphotoconductivity_top
100
AcDbCircle
 10
24.20236486496457
 20
13.25003292040196
 30
0.0
 40
0.5
100
AcDbArc
 50
90.0
 51
180.0
  0
LWPOLYLINE
  5
1837
330
1F
100
AcDbEntity
  8
jongchulphotoconductivity_top
100
AcDbPolyline
 90
        9
 70
     0
 43
0.0
 10
22.25236486496409
 20
28.75001871999236
 42
0.4142135623730307
 10
21.75236486496409
 20
29.25001871999225
 10
18.4073648649648
 20
29.25001871999224
 42
0.4142135623730673
 10
17.9073648649648
 20
28.75001871999228
 10
17.90736486496462
 20
26.85911661357476
 42
0.1630795519559247
 10
18.00830427722746
 20
26.55786813255804
 10
21.15142545270174
 20
22.39420968229528
 42
-0.1630795519559023
 10
21.25236486496457
 20
22.0929612012786
 10
21.25236486496457
 20
19.26049634024786
  0
LWPOLYLINE
  5
1839
330
1F
100
AcDbEntity
  8
jongchulphotoconductivity_top
100
AcDbPolyline
 90
        4
 70
     0
 43
0.0
 10
12.82750000000013
 20
28.75001871999224
 42
-0.4142135623730869
 10
13.32750000000013
 20
29.25001871999222
 10
16.67247498940674
 20
29.25001871999222
 42
-0.4142144401584364
 10
17.1724749894045
 20
28.75001722151938
  0
LINE
  5
183C
330
1F
100
AcDbEntity
  8
jongchulphotoconductivity_top
100
AcDbLine
 10
14.5
 20
19.26049341722784
 30
0.0
 11
14.5
 21
22.1692725458459
 31
0.0
  0
LINE
  5
183D
330
1F
100
AcDbEntity
  8
jongchulphotoconductivity_top
100
AcDbLine
 10
15.5
 20
19.26049341722784
 30
0.0
 11
15.5
 21
22.16927382208214
 31
0.0
  0
LINE
  5
183E
330
1F
100
AcDbEntity
  8
jongchulphotoconductivity_top
100
AcDbLine
 10
22.25236486496457
 20
19.26049634024786
 30
0.0
 11
22.25236486496457
 21
28.75001871999225
 31
0.0
  0
LINE
  5
1841
330
1F
100
AcDbEntity
  8
jongchulphotoconductivity_top
100
AcDbLine
 10
17.1724749894045
 20
28.75001722151938
 30
0.0
 11
17.1724749894045
 21
26.78280106975118
 31
0.0
  0
LINE
  5
1842
330
1F
100
AcDbEntity
  8
jongchulphotoconductivity_top
100
AcDbLine
 10
12.82750000000013
 20
28.75001871999224
 30
0.0
 11
12.82750000000013
 21
26.78280234598741
 31
0.0
  0
LINE
  5
1845
330
1F
100
AcDbEntity
  8
jongchulphotoconductivity_top
100
AcDbLine
 10
12.85971278721844
 20
26.60623756026291
 30
0.0
 11
14.46778721278169
 21
22.34583733157041
 31
0.0
  0
LINE
  5
1846
330
1F
100
AcDbEntity
  8
jongchulphotoconductivity_top
100
AcDbLine
 10
17.14026307449928
 20
26.60623859513281
 30
0.0
 11
15.53221191490522
 21
22.3458362967005
 31
0.0
  0
LINE
  5
1848
330
1F
100
AcDbEntity
  8
jongchulphotoconductivity_bottom
100
AcDbLine
 10
3.500012775793346
 20
29.25001871999222
 30
0.0
 11
3.500012775793345
 21
21.76049341485169
 31
0.0
  0
LINE
  5
1849
330
1F
100
AcDbEntity
  8
jongchulphotoconductivity_bottom
100
AcDbLine
 10
3.499977059470738
 20
19.76050160524444
 30
0.0
 11
3.499660930772968
 21
0.7499796155791856
 31
0.0
  0
LINE
  5
184A
330
1F
100
AcDbEntity
  8
jongchulphotoconductivity_bottom
100
AcDbLine
 10
26.49991694910511
 20
21.7604963380038
 30
0.0
 11
26.4999169491051
 21
29.25001871999222
 31
0.0
  0
LINE
  5
184B
330
1F
100
AcDbEntity
  8
jongchulphotoconductivity_bottom
100
AcDbLine
 10
26.49992676510067
 20
0.7499812800068723
 30
0.0
 11
26.49992676510068
 21
19.76049627445972
 31
0.0
  0
ARC
  5
184C
330
1F
100
AcDbEntity
  8
jongchulphotoconductivity_top
100
AcDbCircle
 10
14.0
 20
22.1692725458459
 30
0.0
 40
0.5
100
AcDbArc
 50
0.0
 51
20.67885360562511
  0
ARC
  5
184D
330
1F
100
AcDbEntity
  8
jongchulphotoconductivity_top
100
AcDbCircle
 10
16.0
 20
22.16927382208214
 30
0.0
 40
0.5
100
AcDbArc
 50
159.3214294643293
 51
180.0
  0
ARC
  5
184E
330
1F
100
AcDbEntity
  8
jongchulphotoconductivity_top
100
AcDbCircle
 10
16.6724749894045
 20
26.78280106975118
 30
0.0
 40
0.5
100
AcDbArc
 50
339.3214294643293
 51
0.0
  0
ARC
  5
184F
330
1F
100
AcDbEntity
  8
jongchulphotoconductivity_top
100
AcDbCircle
 10
13.32750000000013
 20
26.78280234598741
 30
0.0
 40
0.5
100
AcDbArc
 50
180.0
 51
200.6788536056251
  0
ENDSEC
  0
SECTION
  2
OBJECTS
  0
DICTIONARY
  5
C
330
0
100
AcDbDictionary
281
     1
  3
ACAD_CIP_PREVIOUS_PRODUCT_INFO
350
143D
  3
ACAD_COLOR
350
73
  3
ACAD_DETAILVIEWSTYLE
350
122
  3
ACAD_GROUP
350
D
  3
ACAD_IMAGE_VARS
350
DC
  3
ACAD_LAYOUT
350
1A
  3
ACAD_MATERIAL
350
72
  3
ACAD_MLEADERSTYLE
350
B5
  3
ACAD_MLINESTYLE
350
17
  3
ACAD_PLOTSETTINGS
350
19
  3
ACAD_PLOTSTYLENAME
350
E
  3
ACAD_SCALELIST
350
B6
  3
ACAD_SECTIONVIEWSTYLE
350
123
  3
ACAD_TABLESTYLE
350
86
  3
ACAD_VISUALSTYLE
350
99
  3
ACDB_RECOMPOSE_DATA
350
18A0
  3
AcDbVariableDictionary
350
66
  3
APPDATA
350
E1
  0
SUN
  5
ED
330
94
100
AcDbSun
 90
        1
290
     1
 63
     7
421
 16777215
 40
1.0
291
     1
 91
  2455826
 92
 54000000
292
     0
 70
     0
 71
   256
280
     1
  0
DICTIONARY
  5
293
330
2
100
AcDbDictionary
280
     1
281
     1
  3
ACAD_LAYERSTATES
360
294
  3
ACLYDICTIONARY
360
F0F
  0
DICTIONARY
  5
6D9
330
1F
100
AcDbDictionary
280
     1
281
     1
  3
ACAD_SORTENTS
360
6DA
  0
XRECORD
  5
143D
102
{ACAD_REACTORS
330
C
102
}
330
C
100
AcDbXrecord
280
     1
300
ACD
300
2020
300
ACD_F_S
  0
DICTIONARY
  5
73
102
{ACAD_REACTORS
330
C
102
}
330
C
100
AcDbDictionary
281
     1
  0
DICTIONARY
  5
122
102
{ACAD_REACTORS
330
C
102
}
330
C
100
AcDbDictionary
281
     1
  3
Imperial24
350
1439
  0
DICTIONARY
  5
D
102
{ACAD_REACTORS
330
C
102
}
330
C
100
AcDbDictionary
281
     1
  0
RASTERVARIABLES
  5
DC
102
{ACAD_REACTORS
330
C
102
}
330
C
100
AcDbRasterVariables
 90
        0
 70
     1
 71
     1
 72
     5
  0
DICTIONARY
  5
1A
102
{ACAD_REACTORS
330
C
102
}
330
C
100
AcDbDictionary
281
     1
  3
Model
350
22
  3
Sheet1
350
59
  3
Sheet2
350
5E
  0
DICTIONARY
  5
72
102
{ACAD_REACTORS
330
C
102
}
330
C
100
AcDbDictionary
281
     1
  3
ByBlock
350
E2
  3
ByLayer
350
96
  3
Global
350
98
  0
DICTIONARY
  5
B5
102
{ACAD_REACTORS
330
C
102
}
330
C
100
AcDbDictionary
281
     1
  3
Standard
350
124
  0
DICTIONARY
  5
17
102
{ACAD_REACTORS
330
C
102
}
330
C
100
AcDbDictionary
281
     1
  3
Standard
350
18
  0
DICTIONARY
  5
19
102
{ACAD_REACTORS
330
C
102
}
330
C
100
AcDbDictionary
281
     1
  0
ACDBDICTIONARYWDFLT
  5
E
102
{ACAD_REACTORS
330
C
102
}
330
C
100
AcDbDictionary
281
     1
  3
Normal
350
F
100
AcDbDictionaryWithDefault
340
F
  0
DICTIONARY
  5
B6
102
{ACAD_REACTORS
330
C
102
}
330
C
100
AcDbDictionary
281
     1
  3
A0
350
B7
  3
A1
350
B8
  3
A2
350
B9
  3
A3
350
BA
  3
A4
350
BB
  3
A5
350
BC
  3
A6
350
BD
  3
A7
350
BE
  3
A8
350
BF
  3
A9
350
C0
  3
B0
350
C1
  3
B1
350
C2
  3
B2
350
C3
  3
B3
350
C4
  3
B4
350
C5
  3
B5
350
C6
  3
B6
350
C7
  3
B7
350
C8
  3
B8
350
C9
  3
B9
350
CA
  3
C0
350
CB
  3
C1
350
CC
  3
C2
350
CD
  3
C3
350
CE
  3
C4
350
CF
  3
C5
350
D0
  3
C6
350
D1
  3
C7
350
D2
  3
C8
350
D3
  3
C9
350
D4
  3
D0
350
D5
  3
D1
350
D6
  3
D2
350
D7
  0
DICTIONARY
  5
123
102
{ACAD_REACTORS
330
C
102
}
330
C
100
AcDbDictionary
281
     1
  3
Imperial24
350
1438
  0
DICTIONARY
  5
86
102
{ACAD_REACTORS
330
C
102
}
330
C
100
AcDbDictionary
281
     1
  3
Standard
350
87
  0
DICTIONARY
  5
99
102
{ACAD_REACTORS
330
C
102
}
330
C
100
AcDbDictionary
281
     1
  3
2dWireframe
350
9F
  3
3D Hidden
350
A1
  3
3dWireframe
350
A0
  3
Basic
350
9E
  3
Brighten
350
A5
  3
ColorChange
350
A9
  3
Conceptual
350
A2
  3
Dim
350
A4
  3
EdgeColorOff
350
E7
  3
Facepattern
350
A8
  3
Flat
350
9A
  3
FlatWithEdges
350
9B
  3
Gouraud
350
9C
  3
GouraudWithEdges
350
9D
  3
Hidden
350
E4
  3
JitterOff
350
E5
  3
Linepattern
350
A7
  3
OverhangOff
350
E6
  3
Realistic
350
A3
  3
Shaded
350
EC
  3
Shaded with edges
350
EB
  3
Shades of Gray
350
E8
  3
Sketchy
350
E9
  3
Thicken
350
A6
  3
Wireframe
350
E3
  3
X-Ray
350
EA
  0
XRECORD
  5
18A0
102
{ACAD_REACTORS
330
C
102
}
330
C
100
AcDbXrecord
280
     1
 90
        1
330
87
  0
DICTIONARY
  5
66
102
{ACAD_REACTORS
330
C
102
}
330
C
100
AcDbDictionary
281
     1
  3
CANNOSCALE
350
D8
  3
CMLEADERSTYLE
350
128
  3
CTABLESTYLE
350
89
  3
CVIEWDETAILSTYLE
350
185E
  3
CVIEWSECTIONSTYLE
350
185F
  3
DIMASSOC
350
67
  3
HIDETEXT
350
6B
  3
LIGHTSINBLOCKS
350
DF
  3
XCLIPFRAME
350
E0
  0
DICTIONARY
  5
E1
102
{ACAD_REACTORS
330
C
102
}
330
C
100
AcDbDictionary
281
     1
  0
DICTIONARY
  5
294
102
{ACAD_REACTORS
330
293
102
}
330
293
100
AcDbDictionary
281
     1
  0
DICTIONARY
  5
F0F
102
{ACAD_REACTORS
330
293
102
}
330
293
100
AcDbDictionary
281
     1
1001
ACAD
1000
<All
  0
SORTENTSTABLE
  5
6DA
102
{ACAD_REACTORS
330
6D9
102
}
330
6D9
100
AcDbSortentsTable
330
1F
331
2A8
  5
2A9
331
2AA
  5
2AB
331
5A3
  5
5CA
331
5CA
  5
681
331
146B
  5
146D
331
146D
  5
1470
331
146F
  5
1478
331
1470
  5
147C
331
1475
  5
1481
331
1477
  5
149E
331
1479
  5
14A2
331
147D
  5
14A9
331
1510
  5
14C5
331
1550
  5
1556
331
1555
  5
155F
331
1559
  5
1568
331
155E
  5
1570
331
15B1
  5
15A7
331
15B7
  5
15B9
331
15C5
  5
15CA
331
15C8
  5
15DB
331
15CA
  5
15DC
331
15DC
  5
15DF
331
15F9
  5
15FB
331
15FB
  5
1602
331
1603
  5
1606
331
1609
  5
160B
331
160C
  5
160F
331
160D
  5
1610
331
160E
  5
1613
331
166A
  5
166E
331
166B
  5
166F
331
166C
  5
1674
331
166E
  5
1675
331
166F
  5
1676
331
1670
  5
1677
331
1673
  5
167A
331
1674
  5
167B
331
1675
  5
167C
331
1676
  5
167D
331
1677
  5
167E
331
1679
  5
167F
331
167A
  5
1680
331
167B
  5
1681
331
167C
  5
1682
331
167D
  5
1683
331
167E
  5
168B
331
167F
  5
168C
331
1680
  5
168D
331
1681
  5
168E
331
1682
  5
168F
331
1683
  5
1690
331
168B
  5
1691
331
168C
  5
1692
331
168D
  5
1694
331
168E
  5
1696
331
168F
  5
1699
331
1693
  5
16A2
331
1697
  5
16A3
331
1698
  5
1693
331
1699
  5
148E
331
169A
  5
1697
331
169B
  5
1673
331
169C
  5
1695
331
169D
  5
14A8
331
169E
  5
169C
331
169F
  5
1679
331
16A0
  5
169D
331
16A2
  5
16A4
331
16A3
  5
16A8
331
16A4
  5
16A9
331
16A6
  5
16AA
331
16A8
  5
16AC
331
16A9
  5
16AE
331
16AA
  5
16AF
331
16AB
  5
16B0
331
16AC
  5
16B9
331
16AD
  5
16BC
331
16AE
  5
16BD
331
16AF
  5
16BE
331
16B0
  5
16C0
331
16B1
  5
16C2
331
16B9
  5
16C4
331
16BB
  5
16C5
331
16BC
  5
16C6
331
16BD
  5
16C7
331
16BE
  5
16CD
331
16BF
  5
16CE
331
16C0
  5
16D0
331
16C1
  5
16D1
331
16C2
  5
16D3
331
16C4
  5
16D5
331
16C5
  5
16D6
331
16C6
  5
16D7
331
16C7
  5
16D9
331
16CC
  5
16DB
331
16CD
  5
16DD
331
16CF
  5
16DF
331
16D1
  5
16A6
331
16D2
  5
16DA
331
16D3
  5
16D8
331
16D5
  5
16D2
331
16D6
  5
16CF
331
16D7
  5
16CC
331
16D8
  5
16E1
331
16DA
  5
16E4
331
16DB
  5
16E6
331
16DD
  5
16E7
331
16DE
  5
16F1
331
16DF
  5
16AB
331
16E0
  5
16AD
331
16E1
  5
16B1
331
16E2
  5
16BA
331
16E3
  5
16BF
331
16E4
  5
16C1
331
16E5
  5
16E2
331
16E6
  5
16F6
331
16F1
  5
16F8
331
16F7
  5
16FA
331
16F8
  5
16FF
331
16FB
  5
16FE
331
16FC
  5
16F5
331
16FD
  5
16E5
331
1701
  5
1703
331
1702
  5
1704
331
1703
  5
1705
331
1704
  5
1707
331
1705
  5
1709
331
1706
  5
170A
331
1707
  5
170B
331
1708
  5
170D
331
1709
  5
170F
331
170A
  5
1710
331
170B
  5
1711
331
170C
  5
1713
331
170D
  5
1715
331
170E
  5
1716
331
170F
  5
1717
331
1710
  5
1719
331
1711
  5
171C
331
1712
  5
171D
331
1714
  5
1720
331
1715
  5
1721
331
1716
  5
1723
331
1717
  5
1725
331
1718
  5
172D
331
1719
  5
172E
331
171B
  5
172F
331
171C
  5
1731
331
171D
  5
1733
331
171E
  5
1734
331
171F
  5
1735
331
1720
  5
1737
331
1721
  5
1739
331
1722
  5
173B
331
1723
  5
173C
331
1724
  5
173E
331
1725
  5
1740
331
172D
  5
1741
331
172E
  5
1743
331
1731
  5
1706
331
1732
  5
1708
331
1733
  5
1742
331
1734
  5
170C
331
1735
  5
170E
331
1736
  5
1712
331
1737
  5
1714
331
1738
  5
1718
331
1739
  5
171B
331
173B
  5
1724
331
173C
  5
1730
331
173D
  5
1732
331
173E
  5
1736
331
173F
  5
1738
331
1740
  5
173D
331
1741
  5
173F
331
1742
  5
1746
331
1745
  5
171E
331
1746
  5
1722
331
1761
  5
176A
331
176C
  5
1772
331
1770
  5
1773
331
1772
  5
1776
331
1775
  5
177C
331
1776
  5
177E
331
1777
  5
1775
331
1778
  5
1774
331
1779
  5
1770
331
177A
  5
1779
331
177B
  5
1761
331
177C
  5
177B
331
177D
  5
1777
331
177E
  5
177D
331
17B8
  5
17BD
331
17B9
  5
17C2
331
17BB
  5
17C8
331
17BD
  5
17C4
331
17D3
  5
17E2
331
17D8
  5
17E3
331
17E0
  5
17E4
331
17E1
  5
17E5
331
17E2
  5
17E6
331
17E3
  5
17E7
331
17E4
  5
17C3
331
17E5
  5
17E8
331
17E6
  5
17EB
331
17E7
  5
17EA
331
17E8
  5
17C0
331
17EA
  5
17F3
331
17FB
  5
17FD
331
17FC
  5
180C
331
17FD
  5
1814
331
180C
  5
1817
331
1814
  5
1818
331
1816
  5
17FE
331
1817
  5
17B9
331
181C
  5
181E
331
181E
  5
181F
331
181F
  5
1820
331
1820
  5
1821
331
1821
  5
181C
331
183D
  5
183E
331
183E
  5
1842
331
1841
  5
1843
331
1842
  5
1844
331
1845
  5
1848
331
1846
  5
184A
331
1848
  5
184C
331
1849
  5
184D
331
184A
  5
184E
331
184B
  5
184F
331
184C
  5
183D
331
184D
  5
1841
331
184E
  5
184B
331
184F
  5
1849
  0
ACDBDETAILVIEWSTYLE
  5
1439
102
{ACAD_REACTORS
330
122
102
}
330
122
100
AcDbModelDocViewStyle
 70
     0
  3
Imperial24
290
     0
300
Imperial24
 90
        0
100
AcDbDetailViewStyle
 70
     0
 71
     0
 90
        3
 71
     1
340
11
 62
   256
 40
0.24
340
0
 62
   256
 40
0.24
300

 40
0.36
280
     3
 71
     2
340
16
 90
       25
 62
   256
 71
     3
340
11
 62
   256
 40
0.24
 90
        1
 40
0.75
 90
        1
300
%<\AcVar ViewType \f "%tc1">% %<\AcVar ViewDetailId>%\PSCALE %<\AcVar ViewScale \f "%sn">%
 71
     4
340
16
 90
       25
 62
   256
340
16
 90
       25
 62
   256
280
     0
  0
LAYOUT
  5
22
102
{ACAD_REACTORS
330
1A
102
}
330
1A
100
AcDbPlotSettings
  1

  2
none_device
  4
ANSI_A_(8.50_x_11.00_Inches)
  6

 40
6.349999999999997
 41
19.05
 42
6.349999999999997
 43
19.05
 44
215.9
 45
279.4
 46
11.11250000000003
 47
0.0000000000000142
 48
0.0
 49
0.0
140
0.0
141
0.0
142
1.0
143
1.263157894736842
 70
 11444
 72
     0
 73
     1
 74
     1
  7
monochrome.ctb
 75
     0
147
0.7916666666666666
 76
     0
 77
     2
 78
   300
148
-702.8076765758874
149
-496.2830551296953
100
AcDbLayout
  1
Model
 70
     1
 71
     0
 10
0.0
 20
0.0
 11
12.0
 21
9.0
 12
0.0
 22
0.0
 32
0.0
 14
-0.0000000000001954
 24
0.0
 34
0.0
 15
49.48734233071474
 25
29.99999999999909
 35
0.0
146
0.0
 13
0.0
 23
0.0
 33
0.0
 16
1.0
 26
0.0
 36
0.0
 17
0.0
 27
1.0
 37
0.0
 76
     0
330
1F
331
94
  0
LAYOUT
  5
59
102
{ACAD_REACTORS
330
1A
102
}
330
1A
100
AcDbPlotSettings
  1

  2
None
  4

  6

 40
0.0
 41
0.0
 42
0.0
 43
0.0
 44
0.0
 45
0.0
 46
0.0
 47
0.0
 48
0.0
 49
0.0
140
0.0
141
0.0
142
1.0
143
1.0
 70
   688
 72
     0
 73
     0
 74
     5
  7

 75
    16
147
1.0
 76
     0
 77
     2
 78
   300
148
0.0
149
0.0
100
AcDbLayout
  1
Sheet1
 70
     1
 71
     1
 10
0.0
 20
0.0
 11
0.0
 21
0.0
 12
0.0
 22
0.0
 32
0.0
 14
0.0
 24
0.0
 34
0.0
 15
0.0
 25
0.0
 35
0.0
146
0.0
 13
0.0
 23
0.0
 33
0.0
 16
1.0
 26
0.0
 36
0.0
 17
0.0
 27
1.0
 37
0.0
 76
     0
330
58
  0
LAYOUT
  5
5E
102
{ACAD_REACTORS
330
1A
102
}
330
1A
100
AcDbPlotSettings
  1

  2
None
  4

  6

 40
0.0
 41
0.0
 42
0.0
 43
0.0
 44
0.0
 45
0.0
 46
0.0
 47
0.0
 48
0.0
 49
0.0
140
0.0
141
0.0
142
1.0
143
1.0
 70
   688
 72
     0
 73
     0
 74
     5
  7

 75
    16
147
1.0
 76
     0
 77
     2
 78
   300
148
0.0
149
0.0
100
AcDbLayout
  1
Sheet2
 70
     1
 71
     2
 10
0.0
 20
0.0
 11
12.0
 21
9.0
 12
0.0
 22
0.0
 32
0.0
 14
0.0
 24
0.0
 34
0.0
 15
0.0
 25
0.0
 35
0.0
146
0.0
 13
0.0
 23
0.0
 33
0.0
 16
1.0
 26
0.0
 36
0.0
 17
0.0
 27
1.0
 37
0.0
 76
     0
330
5D
  0
MATERIAL
  5
E2
102
{ACAD_REACTORS
330
72
102
}
330
72
100
AcDbMaterial
  1
ByBlock
  0
MATERIAL
  5
96
102
{ACAD_REACTORS
330
72
102
}
330
72
100
AcDbMaterial
  1
ByLayer
 94
       63
  0
MATERIAL
  5
98
102
{ACAD_REACTORS
330
72
102
}
330
72
100
AcDbMaterial
  1
Global
 94
       63
  0
MLEADERSTYLE
  5
124
102
{ACAD_REACTORS
330
B5
102
}
330
B5
100
AcDbMLeaderStyle
179
     2
170
     2
171
     1
172
     0
 90
        2
 40
0.0
 41
0.0
173
     1
 91
-1056964608
340
14
 92
       -2
290
     1
 42
0.09
291
     1
 43
0.36
  3
Standard
 44
0.18
300

342
11
174
     1
178
     6
175
     1
176
     0
 93
-1056964608
 45
0.18
292
     0
297
     0
 46
0.18
 94
-1056964608
 47
1.0
 49
1.0
140
1.0
293
     1
141
0.0
294
     1
177
     0
142
1.0
295
     0
296
     0
143
0.125
271
     0
272
     9
273
     9
298
     0
  0
MLINESTYLE
  5
18
102
{ACAD_REACTORS
330
17
102
}
330
17
100
AcDbMlineStyle
  2
STANDARD
 70
     0
  3

 62
   256
 51
90.0
 52
90.0
 71
     2
 49
0.5
 62
   256
  6
BYLAYER
 49
-0.5
 62
   256
  6
BYLAYER
  0
ACDBPLACEHOLDER
  5
F
102
{ACAD_REACTORS
330
E
102
}
330
E
  0
SCALE
  5
B7
102
{ACAD_REACTORS
330
B6
102
}
330
B6
100
AcDbScale
 70
     0
300
1:1
140
1.0
141
1.0
290
     1
  0
SCALE
  5
B8
102
{ACAD_REACTORS
330
B6
102
}
330
B6
100
AcDbScale
 70
     0
300
1:2
140
1.0
141
2.0
290
     0
  0
SCALE
  5
B9
102
{ACAD_REACTORS
330
B6
102
}
330
B6
100
AcDbScale
 70
     0
300
1:4
140
1.0
141
4.0
290
     0
  0
SCALE
  5
BA
102
{ACAD_REACTORS
330
B6
102
}
330
B6
100
AcDbScale
 70
     0
300
1:5
140
1.0
141
5.0
290
     0
  0
SCALE
  5
BB
102
{ACAD_REACTORS
330
B6
102
}
330
B6
100
AcDbScale
 70
     0
300
1:8
140
1.0
141
8.0
290
     0
  0
SCALE
  5
BC
102
{ACAD_REACTORS
330
B6
102
}
330
B6
100
AcDbScale
 70
     0
300
1:10
140
1.0
141
10.0
290
     0
  0
SCALE
  5
BD
102
{ACAD_REACTORS
330
B6
102
}
330
B6
100
AcDbScale
 70
     0
300
1:16
140
1.0
141
16.0
290
     0
  0
SCALE
  5
BE
102
{ACAD_REACTORS
330
B6
102
}
330
B6
100
AcDbScale
 70
     0
300
1:20
140
1.0
141
20.0
290
     0
  0
SCALE
  5
BF
102
{ACAD_REACTORS
330
B6
102
}
330
B6
100
AcDbScale
 70
     0
300
1:30
140
1.0
141
30.0
290
     0
  0
SCALE
  5
C0
102
{ACAD_REACTORS
330
B6
102
}
330
B6
100
AcDbScale
 70
     0
300
1:40
140
1.0
141
40.0
290
     0
  0
SCALE
  5
C1
102
{ACAD_REACTORS
330
B6
102
}
330
B6
100
AcDbScale
 70
     0
300
1:50
140
1.0
141
50.0
290
     0
  0
SCALE
  5
C2
102
{ACAD_REACTORS
330
B6
102
}
330
B6
100
AcDbScale
 70
     0
300
1:100
140
1.0
141
100.0
290
     0
  0
SCALE
  5
C3
102
{ACAD_REACTORS
330
B6
102
}
330
B6
100
AcDbScale
 70
     0
300
2:1
140
2.0
141
1.0
290
     0
  0
SCALE
  5
C4
102
{ACAD_REACTORS
330
B6
102
}
330
B6
100
AcDbScale
 70
     0
300
4:1
140
4.0
141
1.0
290
     0
  0
SCALE
  5
C5
102
{ACAD_REACTORS
330
B6
102
}
330
B6
100
AcDbScale
 70
     0
300
8:1
140
8.0
141
1.0
290
     0
  0
SCALE
  5
C6
102
{ACAD_REACTORS
330
B6
102
}
330
B6
100
AcDbScale
 70
     0
300
10:1
140
10.0
141
1.0
290
     0
  0
SCALE
  5
C7
102
{ACAD_REACTORS
330
B6
102
}
330
B6
100
AcDbScale
 70
     0
300
100:1
140
100.0
141
1.0
290
     0
  0
SCALE
  5
C8
102
{ACAD_REACTORS
330
B6
102
}
330
B6
100
AcDbScale
 70
     0
300
1/128" = 1'-0"
140
0.0078125
141
12.0
290
     0
  0
SCALE
  5
C9
102
{ACAD_REACTORS
330
B6
102
}
330
B6
100
AcDbScale
 70
     0
300
1/64" = 1'-0"
140
0.015625
141
12.0
290
     0
  0
SCALE
  5
CA
102
{ACAD_REACTORS
330
B6
102
}
330
B6
100
AcDbScale
 70
     0
300
1/32" = 1'-0"
140
0.03125
141
12.0
290
     0
  0
SCALE
  5
CB
102
{ACAD_REACTORS
330
B6
102
}
330
B6
100
AcDbScale
 70
     0
300
1/16" = 1'-0"
140
0.0625
141
12.0
290
     0
  0
SCALE
  5
CC
102
{ACAD_REACTORS
330
B6
102
}
330
B6
100
AcDbScale
 70
     0
300
3/32" = 1'-0"
140
0.09375
141
12.0
290
     0
  0
SCALE
  5
CD
102
{ACAD_REACTORS
330
B6
102
}
330
B6
100
AcDbScale
 70
     0
300
1/8" = 1'-0"
140
0.125
141
12.0
290
     0
  0
SCALE
  5
CE
102
{ACAD_REACTORS
330
B6
102
}
330
B6
100
AcDbScale
 70
     0
300
3/16" = 1'-0"
140
0.1875
141
12.0
290
     0
  0
SCALE
  5
CF
102
{ACAD_REACTORS
330
B6
102
}
330
B6
100
AcDbScale
 70
     0
300
1/4" = 1'-0"
140
0.25
141
12.0
290
     0
  0
SCALE
  5
D0
102
{ACAD_REACTORS
330
B6
102
}
330
B6
100
AcDbScale
 70
     0
300
3/8" = 1'-0"
140
0.375
141
12.0
290
     0
  0
SCALE
  5
D1
102
{ACAD_REACTORS
330
B6
102
}
330
B6
100
AcDbScale
 70
     0
300
1/2" = 1'-0"
140
0.5
141
12.0
290
     0
  0
SCALE
  5
D2
102
{ACAD_REACTORS
330
B6
102
}
330
B6
100
AcDbScale
 70
     0
300
3/4" = 1'-0"
140
0.75
141
12.0
290
     0
  0
SCALE
  5
D3
102
{ACAD_REACTORS
330
B6
102
}
330
B6
100
AcDbScale
 70
     0
300
1" = 1'-0"
140
1.0
141
12.0
290
     0
  0
SCALE
  5
D4
102
{ACAD_REACTORS
330
B6
102
}
330
B6
100
AcDbScale
 70
     0
300
1-1/2" = 1'-0"
140
1.5
141
12.0
290
     0
  0
SCALE
  5
D5
102
{ACAD_REACTORS
330
B6
102
}
330
B6
100
AcDbScale
 70
     0
300
3" = 1'-0"
140
3.0
141
12.0
290
     0
  0
SCALE
  5
D6
102
{ACAD_REACTORS
330
B6
102
}
330
B6
100
AcDbScale
 70
     0
300
6" = 1'-0"
140
6.0
141
12.0
290
     0
  0
SCALE
  5
D7
102
{ACAD_REACTORS
330
B6
102
}
330
B6
100
AcDbScale
 70
     0
300
1'-0" = 1'-0"
140
12.0
141
12.0
290
     0
  0
ACDBSECTIONVIEWSTYLE
  5
1438
102
{ACAD_REACTORS
330
123
102
}
330
123
100
AcDbModelDocViewStyle
 70
     0
  3
Imperial24
290
     0
300
Imperial24
 90
        0
100
AcDbSectionViewStyle
 70
     0
 71
     0
 90
       78
 71
     1
340
11
 62
   256
 40
0.24
340
0
340
0
 62
   256
 40
0.24
300
I, O, Q, S, X, Z
 40
0.48
 90
        3
 40
0.18
 90
        1
 71
     2
340
16
 90
       25
 62
   256
340
16
 90
       50
 62
   256
 40
0.24
 40
0.0
 40
0.24
 71
     3
340
11
 62
   256
 40
0.24
 90
        1
 40
0.75
 90
        1
300
%<\AcVar ViewType \f "%tc1">% %<\AcVar ViewSectionStartId>%-%<\AcVar ViewSectionEndId>%\PSCALE %<\AcVar ViewScale \f "%sn">%
 71
     4
 62
   256
 62
   257
300
ANSI31
 40
1.0
 90
        0
290
     0
290
     0
 90
        6
 40
0.0
 40
1.570796326794896
 40
0.2617993877991494
 40
1.308996938995747
 40
-0.2617993877991494
 40
1.832595714594044
  0
TABLESTYLE
  5
87
102
{ACAD_XDICTIONARY
360
1433
102
}
102
{ACAD_REACTORS
330
86
102
}
330
86
100
AcDbTableStyle
280
     0
  3
Standard
 70
     0
 71
     0
 40
0.06
 41
0.06
280
     0
281
     0
  7
Standard
140
0.18
170
     2
 62
     0
 63
     7
283
     0
 90
      512
 91
        0
  1

274
    -2
284
     1
 64
     0
275
    -2
285
     1
 65
     0
276
    -2
286
     1
 66
     0
277
    -2
287
     1
 67
     0
278
    -2
288
     1
 68
     0
279
    -2
289
     1
 69
     0
  7
Standard
140
0.25
170
     5
 62
     0
 63
     7
283
     0
 90
      512
 91
        0
  1

274
    -2
284
     1
 64
     0
275
    -2
285
     1
 65
     0
276
    -2
286
     1
 66
     0
277
    -2
287
     1
 67
     0
278
    -2
288
     1
 68
     0
279
    -2
289
     1
 69
     0
  7
Standard
140
0.18
170
     5
 62
     0
 63
     7
283
     0
 90
      512
 91
        0
  1

274
    -2
284
     1
 64
     0
275
    -2
285
     1
 65
     0
276
    -2
286
     1
 66
     0
277
    -2
287
     1
 67
     0
278
    -2
288
     1
 68
     0
279
    -2
289
     1
 69
     0
  0
VISUALSTYLE
  5
9F
102
{ACAD_REACTORS
330
99
102
}
330
99
100
AcDbVisualStyle
  2
2dWireframe
 70
     4
177
     3
291
     0
 70
    58
 90
        0
176
     1
 90
        2
176
     1
 90
        1
176
     1
 90
        0
176
     1
 40
0.6
176
     1
 40
30.0
176
     1
 62
     7
420
 16777215
176
     1
 90
        1
176
     1
 90
        4
176
     1
 62
     7
176
     1
 62
   257
176
     1
 90
        1
176
     1
 90
        1
176
     1
 40
1.0
176
     1
 90
        0
176
     1
 62
   257
176
     1
 40
1.0
176
     1
 90
        1
176
     1
 90
        6
176
     1
 90
        2
176
     1
 62
     7
176
     1
 90
        5
176
     1
 90
        0
176
     1
 90
        0
176
     1
290
     0
176
     1
 90
        1
176
     1
 40
0.0
176
     1
 90
        0
176
     1
290
     1
176
     1
290
     1
176
     1
290
     0
176
     1
290
     0
176
     1
290
     0
176
     1
290
     0
176
     1
290
     0
176
     1
290
     0
176
     1
290
     0
176
     1
 90
       50
176
     1
 40
0.0
176
     1
 40
1.0
176
     1
 90
        0
176
     1
 62
   178
176
     1
 90
       50
176
     1
 90
        3
176
     1
 62
     5
420
      255
176
     1
290
     0
176
     1
 90
       50
176
     1
 90
       50
176
     1
 90
       50
176
     1
290
     0
176
     1
 90
       50
176
     1
 62
   256
176
     0
 40
1.0
176
     0
 90
        2
176
     1
  1
strokes_ogs.tif
176
     1
290
     0
176
     1
 40
1.0
176
     1
 40
1.0
176
     1
  0
VISUALSTYLE
  5
A1
102
{ACAD_REACTORS
330
99
102
}
330
99
100
AcDbVisualStyle
  2
3D Hidden
 70
     6
177
     3
291
     0
 70
    58
 90
        1
176
     1
 90
        2
176
     1
 90
        2
176
     1
 90
        0
176
     1
 40
0.6
176
     1
 40
30.0
176
     1
 62
     7
420
 16777215
176
     1
 90
        2
176
     1
 90
        2
176
     1
 62
     7
176
     1
 62
   257
176
     1
 90
        2
176
     1
 90
        1
176
     1
 40
40.0
176
     1
 90
        0
176
     1
 62
   257
176
     1
 40
1.0
176
     1
 90
        1
176
     1
 90
        6
176
     1
 90
        2
176
     1
 62
     7
176
     1
 90
        3
176
     1
 90
        0
176
     1
 90
        0
176
     1
290
     0
176
     1
 90
        1
176
     1
 40
0.0
176
     1
 90
        0
176
     1
290
     0
176
     1
290
     1
176
     1
290
     1
176
     1
290
     0
176
     1
290
     0
176
     1
290
     0
176
     1
290
     0
176
     1
290
     0
176
     1
290
     0
176
     1
 90
       50
176
     1
 40
0.0
176
     1
 40
1.0
176
     1
 90
        0
176
     1
 62
   178
176
     1
 90
       50
176
     1
 90
        3
176
     1
 62
     5
420
      255
176
     1
290
     0
176
     1
 90
       50
176
     1
 90
       50
176
     1
 90
       50
176
     1
290
     0
176
     1
 90
       50
176
     1
 62
   256
176
     0
 40
1.0
176
     0
 90
        2
176
     1
  1
strokes_ogs.tif
176
     1
290
     0
176
     1
 40
1.0
176
     1
 40
1.0
176
     1
  0
VISUALSTYLE
  5
A0
102
{ACAD_REACTORS
330
99
102
}
330
99
100
AcDbVisualStyle
  2
3dWireframe
 70
     5
177
     3
291
     0
 70
    58
 90
        0
176
     1
 90
        2
176
     1
 90
        1
176
     1
 90
        0
176
     1
 40
0.6
176
     1
 40
30.0
176
     1
 62
     7
420
 16777215
176
     1
 90
        1
176
     1
 90
        4
176
     1
 62
     7
176
     1
 62
   257
176
     1
 90
        1
176
     1
 90
        1
176
     1
 40
1.0
176
     1
 90
        0
176
     1
 62
   257
176
     1
 40
1.0
176
     1
 90
        1
176
     1
 90
        6
176
     1
 90
        2
176
     1
 62
     7
176
     1
 90
        5
176
     1
 90
        0
176
     1
 90
        0
176
     1
290
     0
176
     1
 90
        1
176
     1
 40
0.0
176
     1
 90
        0
176
     1
290
     0
176
     1
290
     1
176
     1
290
     1
176
     1
290
     0
176
     1
290
     0
176
     1
290
     0
176
     1
290
     0
176
     1
290
     0
176
     1
290
     0
176
     1
 90
       50
176
     1
 40
0.0
176
     1
 40
1.0
176
     1
 90
        0
176
     1
 62
   178
176
     1
 90
       50
176
     1
 90
        3
176
     1
 62
     5
420
      255
176
     1
290
     0
176
     1
 90
       50
176
     1
 90
       50
176
     1
 90
       50
176
     1
290
     0
176
     1
 90
       50
176
     1
 62
   256
176
     0
 40
1.0
176
     0
 90
        2
176
     1
  1
strokes_ogs.tif
176
     1
290
     0
176
     1
 40
1.0
176
     1
 40
1.0
176
     1
  0
VISUALSTYLE
  5
9E
102
{ACAD_REACTORS
330
99
102
}
330
99
100
AcDbVisualStyle
  2
Basic
 70
     7
177
     3
291
     1
 70
    58
 90
        1
176
     1
 90
        0
176
     1
 90
        1
176
     1
 90
        0
176
     1
 40
0.6
176
     1
 40
30.0
176
     1
 62
     7
420
 16777215
176
     1
 90
        0
176
     1
 90
        4
176
     1
 62
     7
176
     1
 62
   257
176
     1
 90
        1
176
     1
 90
        1
176
     1
 40
1.0
176
     1
 90
        8
176
     1
 62
     7
176
     1
 40
1.0
176
     1
 90
        1
176
     1
 90
        6
176
     1
 90
        2
176
     1
 62
     7
176
     1
 90
        5
176
     1
 90
        0
176
     1
 90
        0
176
     1
290
     0
176
     1
 90
        1
176
     1
 40
0.0
176
     1
 90
        0
176
     1
290
     0
176
     1
290
     1
176
     1
290
     1
176
     1
290
     0
176
     1
290
     0
176
     1
290
     0
176
     1
290
     0
176
     1
290
     0
176
     1
290
     0
176
     1
 90
       50
176
     1
 40
0.0
176
     1
 40
1.0
176
     1
 90
        0
176
     1
 62
   178
176
     1
 90
       50
176
     1
 90
        3
176
     1
 62
     5
420
      255
176
     1
290
     0
176
     1
 90
       50
176
     1
 90
       50
176
     1
 90
       50
176
     1
290
     0
176
     1
 90
       50
176
     1
 62
   256
176
     0
 40
1.0
176
     0
 90
        2
176
     1
  1
strokes_ogs.tif
176
     1
290
     0
176
     1
 40
1.0
176
     1
 40
1.0
176
     1
  0
VISUALSTYLE
  5
A5
102
{ACAD_REACTORS
330
99
102
}
330
99
100
AcDbVisualStyle
  2
Brighten
 70
    12
177
     3
291
     1
 70
    58
 90
        2
176
     1
 90
        2
176
     1
 90
        1
176
     1
 90
        0
176
     1
 40
0.6
176
     1
 40
30.0
176
     1
 62
     7
420
 16777215
176
     1
 90
        1
176
     1
 90
        4
176
     1
 62
     7
176
     1
 62
   257
176
     1
 90
        1
176
     1
 90
        1
176
     1
 40
1.0
176
     1
 90
        8
176
     1
 62
     7
176
     1
 40
1.0
176
     1
 90
        1
176
     1
 90
        6
176
     1
 90
        2
176
     1
 62
     7
176
     1
 90
        5
176
     1
 90
        0
176
     1
 90
        0
176
     1
290
     0
176
     1
 90
        1
176
     1
 40
50.0
176
     1
 90
        0
176
     1
290
     0
176
     1
290
     1
176
     1
290
     1
176
     1
290
     0
176
     1
290
     0
176
     1
290
     0
176
     1
290
     0
176
     1
290
     0
176
     1
290
     0
176
     1
 90
       50
176
     1
 40
0.0
176
     1
 40
1.0
176
     1
 90
        0
176
     1
 62
   178
176
     1
 90
       50
176
     1
 90
        3
176
     1
 62
     5
420
      255
176
     1
290
     0
176
     1
 90
       50
176
     1
 90
       50
176
     1
 90
       50
176
     1
290
     0
176
     1
 90
       50
176
     1
 62
   256
176
     0
 40
1.0
176
     0
 90
        2
176
     1
  1
strokes_ogs.tif
176
     1
290
     0
176
     1
 40
1.0
176
     1
 40
1.0
176
     1
  0
VISUALSTYLE
  5
A9
102
{ACAD_REACTORS
330
99
102
}
330
99
100
AcDbVisualStyle
  2
ColorChange
 70
    16
177
     3
291
     1
 70
    58
 90
        2
176
     1
 90
        2
176
     1
 90
        3
176
     1
 90
        0
176
     1
 40
0.6
176
     1
 40
30.0
176
     1
 62
     8
420
  8421504
176
     1
 90
        1
176
     1
 90
        4
176
     1
 62
     7
176
     1
 62
   257
176
     1
 90
        1
176
     1
 90
        1
176
     1
 40
1.0
176
     1
 90
        8
176
     1
 62
     8
420
  8421504
176
     1
 40
1.0
176
     1
 90
        1
176
     1
 90
        6
176
     1
 90
        2
176
     1
 62
     7
176
     1
 90
        5
176
     1
 90
        0
176
     1
 90
        0
176
     1
290
     0
176
     1
 90
        1
176
     1
 40
0.0
176
     1
 90
        0
176
     1
290
     0
176
     1
290
     1
176
     1
290
     1
176
     1
290
     0
176
     1
290
     0
176
     1
290
     0
176
     1
290
     0
176
     1
290
     0
176
     1
290
     0
176
     1
 90
       50
176
     1
 40
0.0
176
     1
 40
1.0
176
     1
 90
        0
176
     1
 62
   178
176
     1
 90
       50
176
     1
 90
        3
176
     1
 62
     5
420
      255
176
     1
290
     0
176
     1
 90
       50
176
     1
 90
       50
176
     1
 90
       50
176
     1
290
     0
176
     1
 90
       50
176
     1
 62
   256
176
     0
 40
1.0
176
     0
 90
        2
176
     1
  1
strokes_ogs.tif
176
     1
290
     0
176
     1
 40
1.0
176
     1
 40
1.0
176
     1
  0
VISUALSTYLE
  5
A2
102
{ACAD_REACTORS
330
99
102
}
330
99
100
AcDbVisualStyle
  2
Conceptual
 70
     9
177
     3
291
     0
 70
    58
 90
        3
176
     1
 90
        2
176
     1
 90
        1
176
     1
 90
        0
176
     1
 40
0.6
176
     1
 40
30.0
176
     1
 62
     7
420
 16777215
176
     1
 90
        2
176
     1
 90
        2
176
     1
 62
     7
176
     1
 62
   257
176
     1
 90
        1
176
     1
 90
        1
176
     1
 40
40.0
176
     1
 90
        8
176
     1
 62
     7
176
     1
 40
1.0
176
     1
 90
        1
176
     1
 90
        6
176
     1
 90
        2
176
     1
 62
     7
176
     1
 90
        3
176
     1
 90
        0
176
     1
 90
        0
176
     1
290
     0
176
     1
 90
        1
176
     1
 40
0.0
176
     1
 90
        0
176
     1
290
     0
176
     1
290
     1
176
     1
290
     1
176
     1
290
     0
176
     1
290
     0
176
     1
290
     0
176
     1
290
     0
176
     1
290
     0
176
     1
290
     0
176
     1
 90
       50
176
     1
 40
0.0
176
     1
 40
1.0
176
     1
 90
        0
176
     1
 62
   178
176
     1
 90
       50
176
     1
 90
        3
176
     1
 62
     5
420
      255
176
     1
290
     0
176
     1
 90
       50
176
     1
 90
       50
176
     1
 90
       50
176
     1
290
     0
176
     1
 90
       50
176
     1
 62
   256
176
     0
 40
1.0
176
     0
 90
        2
176
     1
  1
strokes_ogs.tif
176
     1
290
     0
176
     1
 40
1.0
176
     1
 40
1.0
176
     1
  0
VISUALSTYLE
  5
A4
102
{ACAD_REACTORS
330
99
102
}
330
99
100
AcDbVisualStyle
  2
Dim
 70
    11
177
     3
291
     1
 70
    58
 90
        2
176
     1
 90
        2
176
     1
 90
        1
176
     1
 90
        0
176
     1
 40
0.6
176
     1
 40
30.0
176
     1
 62
     7
420
 16777215
176
     1
 90
        1
176
     1
 90
        4
176
     1
 62
     7
176
     1
 62
   257
176
     1
 90
        1
176
     1
 90
        1
176
     1
 40
1.0
176
     1
 90
        8
176
     1
 62
     7
176
     1
 40
1.0
176
     1
 90
        1
176
     1
 90
        6
176
     1
 90
        2
176
     1
 62
     7
176
     1
 90
        5
176
     1
 90
        0
176
     1
 90
        0
176
     1
290
     0
176
     1
 90
        1
176
     1
 40
-50.0
176
     1
 90
        0
176
     1
290
     0
176
     1
290
     1
176
     1
290
     1
176
     1
290
     0
176
     1
290
     0
176
     1
290
     0
176
     1
290
     0
176
     1
290
     0
176
     1
290
     0
176
     1
 90
       50
176
     1
 40
0.0
176
     1
 40
1.0
176
     1
 90
        0
176
     1
 62
   178
176
     1
 90
       50
176
     1
 90
        3
176
     1
 62
     5
420
      255
176
     1
290
     0
176
     1
 90
       50
176
     1
 90
       50
176
     1
 90
       50
176
     1
290
     0
176
     1
 90
       50
176
     1
 62
   256
176
     0
 40
1.0
176
     0
 90
        2
176
     1
  1
strokes_ogs.tif
176
     1
290
     0
176
     1
 40
1.0
176
     1
 40
1.0
176
     1
  0
VISUALSTYLE
  5
E7
102
{ACAD_REACTORS
330
99
102
}
330
99
100
AcDbVisualStyle
  2
EdgeColorOff
 70
    22
177
     3
291
     1
 70
    58
 90
        2
176
     0
 90
        2
176
     0
 90
        0
176
     0
 90
        0
176
     0
 40
0.6
176
     0
 40
30.0
176
     0
 62
     7
420
 16777215
176
     0
 90
        1
176
     0
 90
        4
176
     0
 62
     7
176
     0
 62
   257
176
     0
 90
        1
176
     0
 90
        1
176
     0
 40
1.0
176
     0
 90
        8
176
     2
 62
     7
176
     0
 40
1.0
176
     0
 90
        1
176
     0
 90
        6
176
     0
 90
        2
176
     0
 62
     7
176
     0
 90
        5
176
     0
 90
        0
176
     0
 90
        0
176
     0
290
     0
176
     0
 90
        1
176
     0
 40
0.0
176
     0
 90
        0
176
     0
290
     0
176
     0
290
     1
176
     0
290
     1
176
     0
290
     0
176
     0
290
     0
176
     0
290
     0
176
     0
290
     0
176
     0
290
     0
176
     0
290
     0
176
     0
 90
       50
176
     0
 40
0.0
176
     0
 40
1.0
176
     0
 90
        0
176
     0
 62
   178
176
     0
 90
       50
176
     0
 90
        3
176
     0
 62
     5
420
      255
176
     0
290
     0
176
     0
 90
       50
176
     0
 90
       50
176
     0
 90
       50
176
     0
290
     0
176
     0
 90
       50
176
     0
 62
   256
176
     0
 40
1.0
176
     0
 90
        2
176
     0
  1
strokes_ogs.tif
176
     0
290
     0
176
     0
 40
1.0
176
     0
 40
1.0
176
     0
  0
VISUALSTYLE
  5
A8
102
{ACAD_REACTORS
330
99
102
}
330
99
100
AcDbVisualStyle
  2
Facepattern
 70
    15
177
     3
291
     1
 70
    58
 90
        2
176
     1
 90
        2
176
     1
 90
        1
176
     1
 90
        0
176
     1
 40
0.6
176
     1
 40
30.0
176
     1
 62
     7
420
 16777215
176
     1
 90
        1
176
     1
 90
        4
176
     1
 62
     7
176
     1
 62
   257
176
     1
 90
        1
176
     1
 90
        1
176
     1
 40
1.0
176
     1
 90
        8
176
     1
 62
     7
176
     1
 40
1.0
176
     1
 90
        1
176
     1
 90
        6
176
     1
 90
        2
176
     1
 62
     7
176
     1
 90
        5
176
     1
 90
        0
176
     1
 90
        0
176
     1
290
     0
176
     1
 90
        1
176
     1
 40
0.0
176
     1
 90
        0
176
     1
290
     0
176
     1
290
     1
176
     1
290
     1
176
     1
290
     0
176
     1
290
     0
176
     1
290
     0
176
     1
290
     0
176
     1
290
     0
176
     1
290
     0
176
     1
 90
       50
176
     1
 40
0.0
176
     1
 40
1.0
176
     1
 90
        0
176
     1
 62
   178
176
     1
 90
       50
176
     1
 90
        3
176
     1
 62
     5
420
      255
176
     1
290
     0
176
     1
 90
       50
176
     1
 90
       50
176
     1
 90
       50
176
     1
290
     0
176
     1
 90
       50
176
     1
 62
   256
176
     0
 40
1.0
176
     0
 90
        2
176
     1
  1
strokes_ogs.tif
176
     1
290
     0
176
     1
 40
1.0
176
     1
 40
1.0
176
     1
  0
VISUALSTYLE
  5
9A
102
{ACAD_REACTORS
330
99
102
}
330
99
100
AcDbVisualStyle
  2
Flat
 70
     0
177
     3
291
     1
 70
    58
 90
        2
176
     1
 90
        1
176
     1
 90
        1
176
     1
 90
        2
176
     1
 40
0.6
176
     1
 40
30.0
176
     1
 62
     7
420
 16777215
176
     1
 90
        0
176
     1
 90
        4
176
     1
 62
     7
176
     1
 62
   257
176
     1
 90
        1
176
     1
 90
        1
176
     1
 40
1.0
176
     1
 90
        8
176
     1
 62
     7
176
     1
 40
1.0
176
     1
 90
        1
176
     1
 90
        6
176
     1
 90
        2
176
     1
 62
     7
176
     1
 90
        5
176
     1
 90
        0
176
     1
 90
        0
176
     1
290
     0
176
     1
 90
        1
176
     1
 40
0.0
176
     1
 90
        0
176
     1
290
     0
176
     1
290
     1
176
     1
290
     1
176
     1
290
     0
176
     1
290
     0
176
     1
290
     0
176
     1
290
     0
176
     1
290
     0
176
     1
290
     0
176
     1
 90
       50
176
     1
 40
0.0
176
     1
 40
1.0
176
     1
 90
        0
176
     1
 62
   178
176
     1
 90
       50
176
     1
 90
        3
176
     1
 62
     5
420
      255
176
     1
290
     0
176
     1
 90
       50
176
     1
 90
       50
176
     1
 90
       50
176
     1
290
     0
176
     1
 90
       50
176
     1
 62
   256
176
     0
 40
1.0
176
     0
 90
        2
176
     1
  1
strokes_ogs.tif
176
     1
290
     0
176
     1
 40
1.0
176
     1
 40
1.0
176
     1
  0
VISUALSTYLE
  5
9B
102
{ACAD_REACTORS
330
99
102
}
330
99
100
AcDbVisualStyle
  2
FlatWithEdges
 70
     1
177
     3
291
     1
 70
    58
 90
        2
176
     1
 90
        1
176
     1
 90
        1
176
     1
 90
        2
176
     1
 40
0.6
176
     1
 40
30.0
176
     1
 62
     7
420
 16777215
176
     1
 90
        1
176
     1
 90
        4
176
     1
 62
     7
176
     1
 62
   257
176
     1
 90
        1
176
     1
 90
        1
176
     1
 40
1.0
176
     1
 90
        0
176
     1
 62
   257
176
     1
 40
1.0
176
     1
 90
        1
176
     1
 90
        6
176
     1
 90
        2
176
     1
 62
     7
176
     1
 90
        5
176
     1
 90
        0
176
     1
 90
        0
176
     1
290
     0
176
     1
 90
        1
176
     1
 40
0.0
176
     1
 90
        0
176
     1
290
     0
176
     1
290
     1
176
     1
290
     1
176
     1
290
     0
176
     1
290
     0
176
     1
290
     0
176
     1
290
     0
176
     1
290
     0
176
     1
290
     0
176
     1
 90
       50
176
     1
 40
0.0
176
     1
 40
1.0
176
     1
 90
        0
176
     1
 62
   178
176
     1
 90
       50
176
     1
 90
        3
176
     1
 62
     5
420
      255
176
     1
290
     0
176
     1
 90
       50
176
     1
 90
       50
176
     1
 90
       50
176
     1
290
     0
176
     1
 90
       50
176
     1
 62
   256
176
     0
 40
1.0
176
     0
 90
        2
176
     1
  1
strokes_ogs.tif
176
     1
290
     0
176
     1
 40
1.0
176
     1
 40
1.0
176
     1
  0
VISUALSTYLE
  5
9C
102
{ACAD_REACTORS
330
99
102
}
330
99
100
AcDbVisualStyle
  2
Gouraud
 70
     2
177
     3
291
     1
 70
    58
 90
        2
176
     1
 90
        2
176
     1
 90
        1
176
     1
 90
        2
176
     1
 40
0.6
176
     1
 40
30.0
176
     1
 62
     7
420
 16777215
176
     1
 90
        0
176
     1
 90
        4
176
     1
 62
     7
176
     1
 62
   257
176
     1
 90
        1
176
     1
 90
        1
176
     1
 40
1.0
176
     1
 90
        0
176
     1
 62
     7
176
     1
 40
1.0
176
     1
 90
        1
176
     1
 90
        6
176
     1
 90
        2
176
     1
 62
     7
176
     1
 90
        5
176
     1
 90
        0
176
     1
 90
        0
176
     1
290
     0
176
     1
 90
        1
176
     1
 40
0.0
176
     1
 90
        0
176
     1
290
     0
176
     1
290
     1
176
     1
290
     1
176
     1
290
     0
176
     1
290
     0
176
     1
290
     0
176
     1
290
     0
176
     1
290
     0
176
     1
290
     0
176
     1
 90
       50
176
     1
 40
0.0
176
     1
 40
1.0
176
     1
 90
        0
176
     1
 62
   178
176
     1
 90
       50
176
     1
 90
        3
176
     1
 62
     5
420
      255
176
     1
290
     0
176
     1
 90
       50
176
     1
 90
       50
176
     1
 90
       50
176
     1
290
     0
176
     1
 90
       50
176
     1
 62
   256
176
     0
 40
1.0
176
     0
 90
        2
176
     1
  1
strokes_ogs.tif
176
     1
290
     0
176
     1
 40
1.0
176
     1
 40
1.0
176
     1
  0
VISUALSTYLE
  5
9D
102
{ACAD_REACTORS
330
99
102
}
330
99
100
AcDbVisualStyle
  2
GouraudWithEdges
 70
     3
177
     3
291
     1
 70
    58
 90
        2
176
     1
 90
        2
176
     1
 90
        1
176
     1
 90
        2
176
     1
 40
0.6
176
     1
 40
30.0
176
     1
 62
     7
420
 16777215
176
     1
 90
        1
176
     1
 90
        4
176
     1
 62
     7
176
     1
 62
   257
176
     1
 90
        1
176
     1
 90
        1
176
     1
 40
1.0
176
     1
 90
        0
176
     1
 62
   257
176
     1
 40
1.0
176
     1
 90
        1
176
     1
 90
        6
176
     1
 90
        2
176
     1
 62
     7
176
     1
 90
        5
176
     1
 90
        0
176
     1
 90
        0
176
     1
290
     0
176
     1
 90
        1
176
     1
 40
0.0
176
     1
 90
        0
176
     1
290
     0
176
     1
290
     1
176
     1
290
     1
176
     1
290
     0
176
     1
290
     0
176
     1
290
     0
176
     1
290
     0
176
     1
290
     0
176
     1
290
     0
176
     1
 90
       50
176
     1
 40
0.0
176
     1
 40
1.0
176
     1
 90
        0
176
     1
 62
   178
176
     1
 90
       50
176
     1
 90
        3
176
     1
 62
     5
420
      255
176
     1
290
     0
176
     1
 90
       50
176
     1
 90
       50
176
     1
 90
       50
176
     1
290
     0
176
     1
 90
       50
176
     1
 62
   256
176
     0
 40
1.0
176
     0
 90
        2
176
     1
  1
strokes_ogs.tif
176
     1
290
     0
176
     1
 40
1.0
176
     1
 40
1.0
176
     1
  0
VISUALSTYLE
  5
E4
102
{ACAD_REACTORS
330
99
102
}
330
99
100
AcDbVisualStyle
  2
Hidden
 70
     6
177
     3
291
     0
 70
    58
 90
        1
176
     1
 90
        2
176
     1
 90
        2
176
     1
 90
        0
176
     1
 40
0.6
176
     1
 40
30.0
176
     1
 62
     7
420
 16777215
176
     1
 90
        2
176
     1
 90
        2
176
     1
 62
     7
176
     1
 62
   257
176
     1
 90
        2
176
     1
 90
        1
176
     1
 40
40.0
176
     1
 90
        0
176
     1
 62
   257
176
     1
 40
1.0
176
     1
 90
        1
176
     1
 90
        6
176
     1
 90
        2
176
     1
 62
     7
176
     1
 90
        3
176
     1
 90
        0
176
     1
 90
        0
176
     1
290
     0
176
     1
 90
        1
176
     1
 40
0.0
176
     1
 90
        0
176
     1
290
     0
176
     1
290
     1
176
     1
290
     1
176
     1
290
     0
176
     1
290
     0
176
     1
290
     0
176
     1
290
     0
176
     1
290
     0
176
     1
290
     0
176
     1
 90
       50
176
     1
 40
0.0
176
     1
 40
1.0
176
     1
 90
        0
176
     1
 62
   178
176
     1
 90
       50
176
     1
 90
        3
176
     1
 62
     5
420
      255
176
     1
290
     0
176
     1
 90
       50
176
     1
 90
       50
176
     1
 90
       50
176
     1
290
     0
176
     1
 90
       50
176
     1
 62
   256
176
     0
 40
1.0
176
     0
 90
        2
176
     1
  1
strokes_ogs.tif
176
     1
290
     0
176
     1
 40
1.0
176
     1
 40
1.0
176
     1
  0
VISUALSTYLE
  5
E5
102
{ACAD_REACTORS
330
99
102
}
330
99
100
AcDbVisualStyle
  2
JitterOff
 70
    20
177
     3
291
     1
 70
    58
 90
        2
176
     0
 90
        2
176
     0
 90
        0
176
     0
 90
        0
176
     0
 40
0.6
176
     0
 40
30.0
176
     0
 62
     7
420
 16777215
176
     0
 90
        1
176
     0
 90
        4
176
     0
 62
     7
176
     0
 62
   257
176
     0
 90
        1
176
     0
 90
        1
176
     0
 40
1.0
176
     0
 90
       10
176
     2
 62
     7
176
     0
 40
1.0
176
     0
 90
        1
176
     0
 90
        6
176
     0
 90
        2
176
     0
 62
     7
176
     0
 90
        5
176
     0
 90
        0
176
     0
 90
        0
176
     0
290
     0
176
     0
 90
        1
176
     0
 40
0.0
176
     0
 90
        0
176
     0
290
     0
176
     0
290
     1
176
     0
290
     1
176
     0
290
     0
176
     0
290
     0
176
     0
290
     0
176
     0
290
     0
176
     0
290
     0
176
     0
290
     0
176
     0
 90
       50
176
     0
 40
0.0
176
     0
 40
1.0
176
     0
 90
        0
176
     0
 62
   178
176
     0
 90
       50
176
     0
 90
        3
176
     0
 62
     5
420
      255
176
     0
290
     0
176
     0
 90
       50
176
     0
 90
       50
176
     0
 90
       50
176
     0
290
     0
176
     0
 90
       50
176
     0
 62
   256
176
     0
 40
1.0
176
     0
 90
        2
176
     0
  1
strokes_ogs.tif
176
     0
290
     0
176
     0
 40
1.0
176
     0
 40
1.0
176
     0
  0
VISUALSTYLE
  5
A7
102
{ACAD_REACTORS
330
99
102
}
330
99
100
AcDbVisualStyle
  2
Linepattern
 70
    14
177
     3
291
     1
 70
    58
 90
        2
176
     1
 90
        2
176
     1
 90
        1
176
     1
 90
        0
176
     1
 40
0.6
176
     1
 40
30.0
176
     1
 62
     7
420
 16777215
176
     1
 90
        1
176
     1
 90
        4
176
     1
 62
     7
176
     1
 62
   257
176
     1
 90
        7
176
     1
 90
        7
176
     1
 40
1.0
176
     1
 90
        8
176
     1
 62
     7
176
     1
 40
1.0
176
     1
 90
        1
176
     1
 90
        6
176
     1
 90
        2
176
     1
 62
     7
176
     1
 90
        5
176
     1
 90
        0
176
     1
 90
        0
176
     1
290
     0
176
     1
 90
        1
176
     1
 40
0.0
176
     1
 90
        0
176
     1
290
     0
176
     1
290
     1
176
     1
290
     1
176
     1
290
     0
176
     1
290
     0
176
     1
290
     0
176
     1
290
     0
176
     1
290
     0
176
     1
290
     0
176
     1
 90
       50
176
     1
 40
0.0
176
     1
 40
1.0
176
     1
 90
        0
176
     1
 62
   178
176
     1
 90
       50
176
     1
 90
        3
176
     1
 62
     5
420
      255
176
     1
290
     0
176
     1
 90
       50
176
     1
 90
       50
176
     1
 90
       50
176
     1
290
     0
176
     1
 90
       50
176
     1
 62
   256
176
     0
 40
1.0
176
     0
 90
        2
176
     1
  1
strokes_ogs.tif
176
     1
290
     0
176
     1
 40
1.0
176
     1
 40
1.0
176
     1
  0
VISUALSTYLE
  5
E6
102
{ACAD_REACTORS
330
99
102
}
330
99
100
AcDbVisualStyle
  2
OverhangOff
 70
    21
177
     3
291
     1
 70
    58
 90
        2
176
     0
 90
        2
176
     0
 90
        0
176
     0
 90
        0
176
     0
 40
0.6
176
     0
 40
30.0
176
     0
 62
     7
420
 16777215
176
     0
 90
        1
176
     0
 90
        4
176
     0
 62
     7
176
     0
 62
   257
176
     0
 90
        1
176
     0
 90
        1
176
     0
 40
1.0
176
     0
 90
        9
176
     2
 62
     7
176
     0
 40
1.0
176
     0
 90
        1
176
     0
 90
        6
176
     0
 90
        2
176
     0
 62
     7
176
     0
 90
        5
176
     0
 90
        0
176
     0
 90
        0
176
     0
290
     0
176
     0
 90
        1
176
     0
 40
0.0
176
     0
 90
        0
176
     0
290
     0
176
     0
290
     1
176
     0
290
     1
176
     0
290
     0
176
     0
290
     0
176
     0
290
     0
176
     0
290
     0
176
     0
290
     0
176
     0
290
     0
176
     0
 90
       50
176
     0
 40
0.0
176
     0
 40
1.0
176
     0
 90
        0
176
     0
 62
   178
176
     0
 90
       50
176
     0
 90
        3
176
     0
 62
     5
420
      255
176
     0
290
     0
176
     0
 90
       50
176
     0
 90
       50
176
     0
 90
       50
176
     0
290
     0
176
     0
 90
       50
176
     0
 62
   256
176
     0
 40
1.0
176
     0
 90
        2
176
     0
  1
strokes_ogs.tif
176
     0
290
     0
176
     0
 40
1.0
176
     0
 40
1.0
176
     0
  0
VISUALSTYLE
  5
A3
102
{ACAD_REACTORS
330
99
102
}
330
99
100
AcDbVisualStyle
  2
Realistic
 70
     8
177
     3
291
     0
 70
    58
 90
        2
176
     1
 90
        2
176
     1
 90
        1
176
     1
 90
        0
176
     1
 40
0.6
176
     1
 40
30.0
176
     1
 62
     7
420
 16777215
176
     1
 90
        1
176
     1
 90
        0
176
     1
 62
     7
176
     1
 62
   257
176
     1
 90
        1
176
     1
 90
        1
176
     1
 40
1.0
176
     1
 90
        8
176
     1
 62
     8
420
  7895160
176
     1
 40
1.0
176
     1
 90
        1
176
     1
 90
        6
176
     1
 90
        2
176
     1
 62
     7
176
     1
 90
        5
176
     1
 90
        0
176
     1
 90
        0
176
     1
290
     0
176
     1
 90
       13
176
     1
 40
0.0
176
     1
 90
        0
176
     1
290
     0
176
     1
290
     1
176
     1
290
     1
176
     1
290
     0
176
     1
290
     0
176
     1
290
     0
176
     1
290
     0
176
     1
290
     0
176
     1
290
     0
176
     1
 90
       50
176
     1
 40
0.0
176
     1
 40
1.0
176
     1
 90
        0
176
     1
 62
   178
176
     1
 90
       50
176
     1
 90
        3
176
     1
 62
     5
420
      255
176
     1
290
     0
176
     1
 90
       50
176
     1
 90
       50
176
     1
 90
       50
176
     1
290
     0
176
     1
 90
       50
176
     1
 62
   256
176
     0
 40
1.0
176
     0
 90
        2
176
     1
  1
strokes_ogs.tif
176
     1
290
     0
176
     1
 40
1.0
176
     1
 40
1.0
176
     1
  0
VISUALSTYLE
  5
EC
102
{ACAD_REACTORS
330
99
102
}
330
99
100
AcDbVisualStyle
  2
Shaded
 70
    27
177
     3
291
     0
 70
    58
 90
        2
176
     1
 90
        2
176
     1
 90
        1
176
     1
 90
        2
176
     1
 40
0.6
176
     1
 40
30.0
176
     1
 62
     7
420
 16777215
176
     1
 90
        0
176
     1
 90
        4
176
     1
 62
     7
176
     1
 62
   257
176
     1
 90
        1
176
     1
 90
        1
176
     1
 40
1.0
176
     1
 90
        8
176
     1
 62
   257
176
     1
 40
1.0
176
     1
 90
        1
176
     1
 90
        6
176
     1
 90
        2
176
     1
 62
     8
420
  7895160
176
     1
 90
        3
176
     1
 90
        0
176
     1
 90
        0
176
     1
290
     0
176
     1
 90
        5
176
     1
 40
0.0
176
     1
 90
        0
176
     1
290
     0
176
     1
290
     1
176
     1
290
     1
176
     1
290
     0
176
     1
290
     0
176
     1
290
     0
176
     1
290
     0
176
     1
290
     0
176
     1
290
     0
176
     1
 90
       50
176
     1
 40
0.0
176
     1
 40
1.0
176
     1
 90
        0
176
     1
 62
   178
176
     1
 90
       50
176
     1
 90
        3
176
     1
 62
     5
420
      255
176
     1
290
     0
176
     1
 90
       50
176
     1
 90
       50
176
     1
 90
       50
176
     1
290
     0
176
     1
 90
       50
176
     1
 62
   256
176
     0
 40
1.0
176
     0
 90
        2
176
     1
  1
strokes_ogs.tif
176
     1
290
     0
176
     1
 40
1.0
176
     1
 40
1.0
176
     1
  0
VISUALSTYLE
  5
EB
102
{ACAD_REACTORS
330
99
102
}
330
99
100
AcDbVisualStyle
  2
Shaded with edges
 70
    26
177
     3
291
     0
 70
    58
 90
        2
176
     1
 90
        2
176
     1
 90
        1
176
     1
 90
        2
176
     1
 40
0.6
176
     1
 40
30.0
176
     1
 62
     7
420
 16777215
176
     1
 90
        1
176
     1
 90
        2
176
     1
 62
     7
176
     1
 62
   257
176
     1
 90
        2
176
     1
 90
        1
176
     1
 40
1.0
176
     1
 90
        8
176
     1
 62
   257
176
     1
 40
1.0
176
     1
 90
        1
176
     1
 90
        6
176
     1
 90
        2
176
     1
 62
     7
176
     1
 90
        3
176
     1
 90
        0
176
     1
 90
        0
176
     1
290
     0
176
     1
 90
        5
176
     1
 40
0.0
176
     1
 90
        0
176
     1
290
     0
176
     1
290
     1
176
     1
290
     1
176
     1
290
     0
176
     1
290
     0
176
     1
290
     0
176
     1
290
     0
176
     1
290
     0
176
     1
290
     0
176
     1
 90
       50
176
     1
 40
0.0
176
     1
 40
1.0
176
     1
 90
        0
176
     1
 62
   178
176
     1
 90
       50
176
     1
 90
        3
176
     1
 62
     5
420
      255
176
     1
290
     0
176
     1
 90
       50
176
     1
 90
       50
176
     1
 90
       50
176
     1
290
     0
176
     1
 90
       50
176
     1
 62
   256
176
     0
 40
1.0
176
     0
 90
        2
176
     1
  1
strokes_ogs.tif
176
     1
290
     0
176
     1
 40
1.0
176
     1
 40
1.0
176
     1
  0
VISUALSTYLE
  5
E8
102
{ACAD_REACTORS
330
99
102
}
330
99
100
AcDbVisualStyle
  2
Shades of Gray
 70
    23
177
     3
291
     0
 70
    58
 90
        2
176
     1
 90
        2
176
     1
 90
        3
176
     1
 90
        0
176
     1
 40
0.6
176
     1
 40
30.0
176
     1
 62
     7
420
 16777215
176
     1
 90
        2
176
     1
 90
        2
176
     1
 62
     7
176
     1
 62
     7
176
     1
 90
        1
176
     1
 90
        1
176
     1
 40
40.0
176
     1
 90
        8
176
     1
 62
     7
176
     1
 40
1.0
176
     1
 90
        1
176
     1
 90
        6
176
     1
 90
        2
176
     1
 62
     7
176
     1
 90
        3
176
     1
 90
        0
176
     1
 90
        0
176
     1
290
     0
176
     1
 90
        1
176
     1
 40
0.0
176
     1
 90
        0
176
     1
290
     0
176
     1
290
     1
176
     1
290
     1
176
     1
290
     0
176
     1
290
     0
176
     1
290
     0
176
     1
290
     0
176
     1
290
     0
176
     1
290
     0
176
     1
 90
       50
176
     1
 40
0.0
176
     1
 40
1.0
176
     1
 90
        0
176
     1
 62
   178
176
     1
 90
       50
176
     1
 90
        3
176
     1
 62
     5
420
      255
176
     1
290
     0
176
     1
 90
       50
176
     1
 90
       50
176
     1
 90
       50
176
     1
290
     0
176
     1
 90
       50
176
     1
 62
   256
176
     0
 40
1.0
176
     0
 90
        2
176
     1
  1
strokes_ogs.tif
176
     1
290
     0
176
     1
 40
1.0
176
     1
 40
1.0
176
     1
  0
VISUALSTYLE
  5
E9
102
{ACAD_REACTORS
330
99
102
}
330
99
100
AcDbVisualStyle
  2
Sketchy
 70
    24
177
     3
291
     0
 70
    58
 90
        1
176
     1
 90
        2
176
     1
 90
        2
176
     1
 90
        0
176
     1
 40
0.6
176
     1
 40
30.0
176
     1
 62
     7
420
 16777215
176
     1
 90
        2
176
     1
 90
        2
176
     1
 62
     7
176
     1
 62
     7
176
     1
 90
        1
176
     1
 90
        1
176
     1
 40
40.0
176
     1
 90
       11
176
     1
 62
     7
176
     1
 40
1.0
176
     1
 90
        1
176
     1
 90
        6
176
     1
 90
        2
176
     1
 62
     7
176
     1
 90
        6
176
     1
 90
        0
176
     1
 90
        0
176
     1
290
     0
176
     1
 90
        1
176
     1
 40
0.0
176
     1
 90
        0
176
     1
290
     0
176
     1
290
     1
176
     1
290
     1
176
     1
290
     0
176
     1
290
     0
176
     1
290
     0
176
     1
290
     0
176
     1
290
     0
176
     1
290
     0
176
     1
 90
       50
176
     1
 40
0.0
176
     1
 40
1.0
176
     1
 90
        0
176
     1
 62
   178
176
     1
 90
       50
176
     1
 90
        3
176
     1
 62
     5
420
      255
176
     1
290
     0
176
     1
 90
       50
176
     1
 90
       50
176
     1
 90
       50
176
     1
290
     0
176
     1
 90
       50
176
     1
 62
   256
176
     0
 40
1.0
176
     0
 90
        2
176
     1
  1
strokes_ogs.tif
176
     1
290
     0
176
     1
 40
1.0
176
     1
 40
1.0
176
     1
  0
VISUALSTYLE
  5
A6
102
{ACAD_REACTORS
330
99
102
}
330
99
100
AcDbVisualStyle
  2
Thicken
 70
    13
177
     3
291
     1
 70
    58
 90
        2
176
     1
 90
        2
176
     1
 90
        1
176
     1
 90
        0
176
     1
 40
0.6
176
     1
 40
30.0
176
     1
 62
     7
420
 16777215
176
     1
 90
        1
176
     1
 90
        4
176
     1
 62
     7
176
     1
 62
   257
176
     1
 90
        1
176
     1
 90
        1
176
     1
 40
1.0
176
     1
 90
       12
176
     1
 62
     7
176
     1
 40
1.0
176
     1
 90
        1
176
     1
 90
        6
176
     1
 90
        2
176
     1
 62
     7
176
     1
 90
        5
176
     1
 90
        0
176
     1
 90
        0
176
     1
290
     0
176
     1
 90
        1
176
     1
 40
0.0
176
     1
 90
        0
176
     1
290
     0
176
     1
290
     1
176
     1
290
     1
176
     1
290
     0
176
     1
290
     0
176
     1
290
     0
176
     1
290
     0
176
     1
290
     0
176
     1
290
     0
176
     1
 90
       50
176
     1
 40
0.0
176
     1
 40
1.0
176
     1
 90
        0
176
     1
 62
   178
176
     1
 90
       50
176
     1
 90
        3
176
     1
 62
     5
420
      255
176
     1
290
     0
176
     1
 90
       50
176
     1
 90
       50
176
     1
 90
       50
176
     1
290
     0
176
     1
 90
       50
176
     1
 62
   256
176
     0
 40
1.0
176
     0
 90
        2
176
     1
  1
strokes_ogs.tif
176
     1
290
     0
176
     1
 40
1.0
176
     1
 40
1.0
176
     1
  0
VISUALSTYLE
  5
E3
102
{ACAD_REACTORS
330
99
102
}
330
99
100
AcDbVisualStyle
  2
Wireframe
 70
     5
177
     3
291
     0
 70
    58
 90
        0
176
     1
 90
        2
176
     1
 90
        0
176
     1
 90
        0
176
     1
 40
0.6
176
     1
 40
30.0
176
     1
 62
     7
420
 16777215
176
     1
 90
        1
176
     1
 90
        4
176
     1
 62
     7
176
     1
 62
   257
176
     1
 90
        1
176
     1
 90
        1
176
     1
 40
1.0
176
     1
 90
        0
176
     1
 62
   257
176
     1
 40
1.0
176
     1
 90
        1
176
     1
 90
        6
176
     1
 90
        2
176
     1
 62
     7
176
     1
 90
        3
176
     1
 90
        0
176
     1
 90
        0
176
     1
290
     0
176
     1
 90
        1
176
     1
 40
0.0
176
     1
 90
        0
176
     1
290
     0
176
     1
290
     1
176
     1
290
     1
176
     1
290
     0
176
     1
290
     0
176
     1
290
     0
176
     1
290
     0
176
     1
290
     0
176
     1
290
     0
176
     1
 90
       50
176
     1
 40
0.0
176
     1
 40
1.0
176
     1
 90
        0
176
     1
 62
   178
176
     1
 90
       50
176
     1
 90
        3
176
     1
 62
     5
420
      255
176
     1
290
     0
176
     1
 90
       50
176
     1
 90
       50
176
     1
 90
       50
176
     1
290
     0
176
     1
 90
       50
176
     1
 62
   256
176
     0
 40
1.0
176
     0
 90
        2
176
     1
  1
strokes_ogs.tif
176
     1
290
     0
176
     1
 40
1.0
176
     1
 40
1.0
176
     1
  0
VISUALSTYLE
  5
EA
102
{ACAD_REACTORS
330
99
102
}
330
99
100
AcDbVisualStyle
  2
X-Ray
 70
    25
177
     3
291
     0
 70
    58
 90
        2
176
     1
 90
        2
176
     1
 90
        1
176
     1
 90
        1
176
     1
 40
0.5
176
     1
 40
30.0
176
     1
 62
     7
420
 16777215
176
     1
 90
        1
176
     1
 90
        0
176
     1
 62
     7
176
     1
 62
   257
176
     1
 90
        1
176
     1
 90
        1
176
     1
 40
1.0
176
     1
 90
        8
176
     1
 62
     7
176
     1
 40
1.0
176
     1
 90
        1
176
     1
 90
        6
176
     1
 90
        2
176
     1
 62
     7
176
     1
 90
        3
176
     1
 90
        0
176
     1
 90
        0
176
     1
290
     0
176
     1
 90
       13
176
     1
 40
0.0
176
     1
 90
        0
176
     1
290
     0
176
     1
290
     1
176
     1
290
     1
176
     1
290
     0
176
     1
290
     0
176
     1
290
     0
176
     1
290
     0
176
     1
290
     0
176
     1
290
     0
176
     1
 90
       50
176
     1
 40
0.0
176
     1
 40
1.0
176
     1
 90
        0
176
     1
 62
   178
176
     1
 90
       50
176
     1
 90
        3
176
     1
 62
     5
420
      255
176
     1
290
     0
176
     1
 90
       50
176
     1
 90
       50
176
     1
 90
       50
176
     1
290
     0
176
     1
 90
       50
176
     1
 62
   256
176
     0
 40
1.0
176
     0
 90
        2
176
     1
  1
strokes_ogs.tif
176
     1
290
     0
176
     1
 40
1.0
176
     1
 40
1.0
176
     1
  0
DICTIONARYVAR
  5
D8
102
{ACAD_REACTORS
330
66
102
}
330
66
100
DictionaryVariables
280
     0
  1
1:1
  0
DICTIONARYVAR
  5
128
102
{ACAD_REACTORS
330
66
102
}
330
66
100
DictionaryVariables
280
     0
  1
STANDARD
  0
DICTIONARYVAR
  5
89
102
{ACAD_REACTORS
330
66
102
}
330
66
100
DictionaryVariables
280
     0
  1
STANDARD
  0
DICTIONARYVAR
  5
185E
102
{ACAD_REACTORS
330
66
102
}
330
66
100
DictionaryVariables
280
     0
  1
Imperial24
  0
DICTIONARYVAR
  5
185F
102
{ACAD_REACTORS
330
66
102
}
330
66
100
DictionaryVariables
280
     0
  1
Imperial24
  0
DICTIONARYVAR
  5
67
102
{ACAD_REACTORS
330
66
102
}
330
66
100
DictionaryVariables
280
     0
  1
2
  0
DICTIONARYVAR
  5
6B
102
{ACAD_REACTORS
330
66
102
}
330
66
100
DictionaryVariables
280
     0
  1
1
  0
DICTIONARYVAR
  5
DF
102
{ACAD_REACTORS
330
66
102
}
330
66
100
DictionaryVariables
280
     0
  1
0
  0
DICTIONARYVAR
  5
E0
102
{ACAD_REACTORS
330
66
102
}
330
66
100
DictionaryVariables
280
     0
  1
0
  0
DICTIONARY
  5
1433
330
87
100
AcDbDictionary
280
     1
281
     1
  3
ACAD_ROUNDTRIP_2008_TABLESTYLE_CELLSTYLEMAP
360
189F
  0
CELLSTYLEMAP
  5
189F
102
{ACAD_REACTORS
330
1433
102
}
330
1433
100
AcDbCellStyleMap
 90
        3
300
CELLSTYLE
  1
TABLEFORMAT_BEGIN
 90
        5
170
     1
 91
        0
 92
    32768
 62
   257
 93
        1
300
CONTENTFORMAT
  1
CONTENTFORMAT_BEGIN
 90
        0
 91
        0
 92
      512
 93
        0
300

 40
0.0
140
1.0
 94
        5
 62
     0
340
11
144
0.25
309
CONTENTFORMAT_END
171
     1
301
MARGIN
  1
CELLMARGIN_BEGIN
 40
0.06
 40
0.06
 40
0.06
 40
0.06
 40
0.18
 40
0.18
309
CELLMARGIN_END
 94
        6
 95
        1
302
GRIDFORMAT
  1
GRIDFORMAT_BEGIN
 90
        0
 91
        1
 62
     0
 92
       -2
340
0
 93
        0
 40
0.045
309
GRIDFORMAT_END
 95
        2
302
GRIDFORMAT
  1
GRIDFORMAT_BEGIN
 90
        0
 91
        1
 62
     0
 92
       -2
340
0
 93
        0
 40
0.045
309
GRIDFORMAT_END
 95
        4
302
GRIDFORMAT
  1
GRIDFORMAT_BEGIN
 90
        0
 91
        1
 62
     0
 92
       -2
340
0
 93
        0
 40
0.045
309
GRIDFORMAT_END
 95
        8
302
GRIDFORMAT
  1
GRIDFORMAT_BEGIN
 90
        0
 91
        1
 62
     0
 92
       -2
340
0
 93
        0
 40
0.045
309
GRIDFORMAT_END
 95
       16
302
GRIDFORMAT
  1
GRIDFORMAT_BEGIN
 90
        0
 91
        1
 62
     0
 92
       -2
340
0
 93
        0
 40
0.045
309
GRIDFORMAT_END
 95
       32
302
GRIDFORMAT
  1
GRIDFORMAT_BEGIN
 90
        0
 91
        1
 62
     0
 92
       -2
340
0
 93
        0
 40
0.045
309
GRIDFORMAT_END
309
TABLEFORMAT_END
  1
CELLSTYLE_BEGIN
 90
        1
 91
        1
300
_TITLE
309
CELLSTYLE_END
300
CELLSTYLE
  1
TABLEFORMAT_BEGIN
 90
        5
170
     1
 91
        0
 92
        0
 62
   257
 93
        1
300
CONTENTFORMAT
  1
CONTENTFORMAT_BEGIN
 90
        0
 91
        0
 92
      512
 93
        0
300

 40
0.0
140
1.0
 94
        5
 62
     0
340
11
144
0.18
309
CONTENTFORMAT_END
171
     1
301
MARGIN
  1
CELLMARGIN_BEGIN
 40
0.06
 40
0.06
 40
0.06
 40
0.06
 40
0.18
 40
0.18
309
CELLMARGIN_END
 94
        6
 95
        1
302
GRIDFORMAT
  1
GRIDFORMAT_BEGIN
 90
        0
 91
        1
 62
     0
 92
       -2
340
0
 93
        0
 40
0.045
309
GRIDFORMAT_END
 95
        2
302
GRIDFORMAT
  1
GRIDFORMAT_BEGIN
 90
        0
 91
        1
 62
     0
 92
       -2
340
0
 93
        0
 40
0.045
309
GRIDFORMAT_END
 95
        4
302
GRIDFORMAT
  1
GRIDFORMAT_BEGIN
 90
        0
 91
        1
 62
     0
 92
       -2
340
0
 93
        0
 40
0.045
309
GRIDFORMAT_END
 95
        8
302
GRIDFORMAT
  1
GRIDFORMAT_BEGIN
 90
        0
 91
        1
 62
     0
 92
       -2
340
0
 93
        0
 40
0.045
309
GRIDFORMAT_END
 95
       16
302
GRIDFORMAT
  1
GRIDFORMAT_BEGIN
 90
        0
 91
        1
 62
     0
 92
       -2
340
0
 93
        0
 40
0.045
309
GRIDFORMAT_END
 95
       32
302
GRIDFORMAT
  1
GRIDFORMAT_BEGIN
 90
        0
 91
        1
 62
     0
 92
       -2
340
0
 93
        0
 40
0.045
309
GRIDFORMAT_END
309
TABLEFORMAT_END
  1
CELLSTYLE_BEGIN
 90
        2
 91
        1
300
_HEADER
309
CELLSTYLE_END
300
CELLSTYLE
  1
TABLEFORMAT_BEGIN
 90
        5
170
     1
 91
        0
 92
        0
 62
   257
 93
        1
300
CONTENTFORMAT
  1
CONTENTFORMAT_BEGIN
 90
        0
 91
        0
 92
      512
 93
        0
300

 40
0.0
140
1.0
 94
        2
 62
     0
340
11
144
0.18
309
CONTENTFORMAT_END
171
     1
301
MARGIN
  1
CELLMARGIN_BEGIN
 40
0.06
 40
0.06
 40
0.06
 40
0.06
 40
0.18
 40
0.18
309
CELLMARGIN_END
 94
        6
 95
        1
302
GRIDFORMAT
  1
GRIDFORMAT_BEGIN
 90
        0
 91
        1
 62
     0
 92
       -2
340
0
 93
        0
 40
0.045
309
GRIDFORMAT_END
 95
        2
302
GRIDFORMAT
  1
GRIDFORMAT_BEGIN
 90
        0
 91
        1
 62
     0
 92
       -2
340
0
 93
        0
 40
0.045
309
GRIDFORMAT_END
 95
        4
302
GRIDFORMAT
  1
GRIDFORMAT_BEGIN
 90
        0
 91
        1
 62
     0
 92
       -2
340
0
 93
        0
 40
0.045
309
GRIDFORMAT_END
 95
        8
302
GRIDFORMAT
  1
GRIDFORMAT_BEGIN
 90
        0
 91
        1
 62
     0
 92
       -2
340
0
 93
        0
 40
0.045
309
GRIDFORMAT_END
 95
       16
302
GRIDFORMAT
  1
GRIDFORMAT_BEGIN
 90
        0
 91
        1
 62
     0
 92
       -2
340
0
 93
        0
 40
0.045
309
GRIDFORMAT_END
 95
       32
302
GRIDFORMAT
  1
GRIDFORMAT_BEGIN
 90
        0
 91
        1
 62
     0
 92
       -2
340
0
 93
        0
 40
0.045
309
GRIDFORMAT_END
309
TABLEFORMAT_END
  1
CELLSTYLE_BEGIN
 90
        3
 91
        2
300
_DATA
309
CELLSTYLE_END
  0
ENDSEC
  0
SECTION
  2
ACDSDATA
 70
     2
 71
     8
  0
ACDSSCHEMA
 90
        0
  1
AcDb_Thumbnail_Schema
  2
AcDbDs::ID
280
    10
 91
        8
  2
Thumbnail_Data
280
    15
 91
        0
101
ACDSRECORD
 95
        0
 90
        1
  2
AcDbDs::TreatedAsObjectData
280
     1
291
     1
101
ACDSRECORD
 95
        0
 90
        2
  2
AcDbDs::Legacy
280
     1
291
     1
101
ACDSRECORD
  1
AcDbDs::ID
 90
        3
  2
AcDs:Indexable
280
     1
291
     1
101
ACDSRECORD
  1
AcDbDs::ID
 90
        4
  2
AcDbDs::HandleAttribute
280
     7
282
     1
  0
ACDSSCHEMA
 90
        1
  1
AcDbDs::TreatedAsObjectDataSchema
  2
AcDbDs::TreatedAsObjectData
280
     1
 91
        0
  0
ACDSSCHEMA
 90
        2
  1
AcDbDs::LegacySchema
  2
AcDbDs::Legacy
280
     1
 91
        0
  0
ACDSSCHEMA
 90
        3
  1
AcDbDs::IndexedPropertySchema
  2
AcDs:Indexable
280
     1
 91
        0
  0
ACDSSCHEMA
 90
        4
  1
AcDbDs::HandleAttributeSchema
  2
AcDbDs::HandleAttribute
280
     7
 91
        1
284
     1
  0
ACDSRECORD
 90
        0
  2
AcDbDs::ID
280
    10
320
22
  2
Thumbnail_Data
280
    15
 94
     1526
310
89504E470D0A1A0A0000000D49484452000001000000007E0803000000FCF33F5100000300504C5445212830000000C8C8C80000000000000000000000000000000000000000000000000000330000660000990000CC0000FF0033000033330033660033990033CC0033FF0066000066330066660066990066CC0066FF0099
310
000099330099660099990099CC0099FF00CC0000CC3300CC6600CC9900CCCC00CCFF00FF0000FF3300FF6600FF9900FFCC00FFFF3300003300333300663300993300CC3300FF3333003333333333663333993333CC3333FF3366003366333366663366993366CC3366FF3399003399333399663399993399CC3399FF33CC00
310
33CC3333CC6633CC9933CCCC33CCFF33FF0033FF3333FF6633FF9933FFCC33FFFF6600006600336600666600996600CC6600FF6633006633336633666633996633CC6633FF6666006666336666666666996666CC6666FF6699006699336699666699996699CC6699FF66CC0066CC3366CC6666CC9966CCCC66CCFF66FF0066
310
FF3366FF6666FF9966FFCC66FFFF9900009900339900669900999900CC9900FF9933009933339933669933999933CC9933FF9966009966339966669966999966CC9966FF9999009999339999669999999999CC9999FF99CC0099CC3399CC6699CC9999CCCC99CCFF99FF0099FF3399FF6699FF9999FFCC99FFFFCC0000CC00
310
33CC0066CC0099CC00CCCC00FFCC3300CC3333CC3366CC3399CC33CCCC33FFCC6600CC6633CC6666CC6699CC66CCCC66FFCC9900CC9933CC9966CC9999CC99CCCC99FFCCCC00CCCC33CCCC66CCCC99CCCCCCCCCCFFCCFF00CCFF33CCFF66CCFF99CCFFCCCCFFFFFF0000FF0033FF0066FF0099FF00CCFF00FFFF3300FF3333
310
FF3366FF3399FF33CCFF33FFFF6600FF6633FF6666FF6699FF66CCFF66FFFF9900FF9933FF9966FF9999FF99CCFF99FFFFCC00FFCC33FFCC66FFCC99FFCCCCFFCCFFFFFF00FFFF33FFFF66FFFF99FFFFCCFFFFFF0000000D0D0D1A1A1A2828283535354343435050505D5D5D6B6B6B787878868686939393A1A1A1AEAEAEBB
310
BBBBC9C9C9D6D6D6E4E4E4F1F1F1FFFFFF000000000000000000000000000000000000000000000000000000000000B21171F6000002874944415478DAEDDD0D7683201046D1D9D0B72DF6BF84A6D1A4A883FC8844D3C769AC06EA812B267630C4CC4BE1F190DD2669AEB2DB8EA6F404B8513A05E066090000000000000000
310
00000000000000000000000080C30089D05351AA2A6C85654787C4E4D6A1B04935857F4BAB74A7C99CEE00AAAC8453AA4AEB40FB9F79BD01D4508D4D1975D45226B73380AC1920EAF9B2F2D23AD2FE47FEA87781AAAEAA7EBD454D5506000000000000000000000000003A03C4318C453C63B9F1C50016FFCF976AF3F70228
310
AA92D2CDD0A24FC42BDB8E742B0099BF5C5753B1CF62651B06D23B342667792900693E748F47BCFEB7119D1C7A3EA3697DDA9E7AC03B2F2A3B6524961702D83B4AAB1784A9E5BBBFD63D60665AFE1800000000000000000000000000000000000000000000000000000000000000C301BC41B1797DDEF86E8057652D3938FA
310
0F00BC817177C837311CBA1C2ABD1F807F6B84569DC187D90C962B3EB7941C20BEDA6B4074843719DEFD3272EF92B035C0BBA0B3BCD0BB8099957510EE1203000000000000000000000000000000E05E00BA1B80AE3383C44700346A0E913A8161001A358BCC790087A61039671699D4C754D4EDA8F60138736A6D7FFA245D
310
056051BB33DF06D70EEAD52A2B9F72487B151A741DE005BE0F36AB0120756A0EB9105265173805E0A3578295022700E8C397C23A07A0C349356E68AC42A037C0DEE747870D8E7E14C0000000000000000000000000000000000000801E00957FF80A881485B1F3136015EFAE29201242EBD1CE85C4AC60ACAAE4D0D6EEAE2E
310
2416DAFB7BC856383BDF7F49C3EA775713140D07CEF890AF70EE1B1F0A1AD6B2BBF2B078C50B60D8A6F47779C4E7E5DE777E14946AD95DB2D8B60D46229148A45CFA0196B94A3620FA1DEE0000000049454E44AE42608219560414A7F3212A31050CFE09127C8A8C3CFF2932DF0455C4CA77E8D6640000000049454E44AE42
310
6082
  0
ENDSEC
  0
EOF
